# Blender 4.0.2
# www.blender.org
mtllib Eyes.mtl
o eye
v 0.120362 0.889120 0.375583
v 0.126044 0.890500 0.392949
v 0.167503 0.894636 0.359716
v 0.171340 0.895324 0.364850
v 0.173235 0.895784 0.370639
v 0.170841 0.895741 0.377871
v 0.160973 0.912170 0.359120
v 0.164542 0.913581 0.364230
v 0.166436 0.914041 0.370017
v 0.164636 0.912404 0.377305
v 0.148261 0.926195 0.361029
v 0.151305 0.928184 0.366218
v 0.153199 0.928643 0.372006
v 0.152556 0.925732 0.379120
v 0.131301 0.934576 0.365155
v 0.133646 0.936910 0.370514
v 0.135540 0.937370 0.376302
v 0.136440 0.933696 0.383040
v 0.112676 0.936036 0.370869
v 0.114253 0.938430 0.376463
v 0.116147 0.938891 0.382253
v 0.118741 0.935083 0.388469
v 0.095220 0.930354 0.377300
v 0.096078 0.932514 0.383159
v 0.097972 0.932975 0.388948
v 0.102153 0.929683 0.394581
v 0.081593 0.918394 0.383470
v 0.081889 0.920062 0.389584
v 0.083783 0.920521 0.395373
v 0.089203 0.918319 0.400444
v 0.073868 0.901978 0.388440
v 0.073845 0.902968 0.394759
v 0.075739 0.903428 0.400547
v 0.081862 0.902719 0.405166
v 0.073221 0.883604 0.391452
v 0.073171 0.883836 0.397894
v 0.075065 0.884296 0.403683
v 0.081248 0.885258 0.408028
v 0.079751 0.866070 0.392048
v 0.079971 0.865579 0.398516
v 0.081864 0.866039 0.404304
v 0.087453 0.868596 0.408595
v 0.092463 0.852044 0.390138
v 0.093207 0.850976 0.396527
v 0.095101 0.851436 0.402315
v 0.099533 0.855269 0.406781
v 0.109423 0.843664 0.386012
v 0.110866 0.842250 0.392230
v 0.112761 0.842710 0.398019
v 0.115650 0.847305 0.402860
v 0.128048 0.842204 0.380298
v 0.130259 0.840729 0.386281
v 0.132153 0.841190 0.392070
v 0.133349 0.845917 0.397430
v 0.145503 0.847886 0.373867
v 0.148434 0.846646 0.379585
v 0.150328 0.847106 0.385373
v 0.149935 0.851317 0.391319
v 0.159131 0.859846 0.367697
v 0.162623 0.859098 0.373161
v 0.164517 0.859559 0.378949
v 0.162885 0.862682 0.385455
v 0.166856 0.876262 0.362728
v 0.170667 0.876192 0.367987
v 0.172561 0.876652 0.373775
v 0.170226 0.878282 0.380733
v 0.131687 0.856058 0.396410
v 0.118014 0.857130 0.400605
v 0.105563 0.863283 0.403634
v 0.096231 0.873578 0.405037
v 0.091437 0.886451 0.404598
v 0.091912 0.899939 0.402387
v 0.097583 0.911991 0.398740
v 0.107588 0.920771 0.394210
v 0.120402 0.924942 0.389488
v 0.134075 0.923870 0.385294
v 0.146526 0.917719 0.382265
v 0.155858 0.907422 0.380862
v 0.160651 0.894550 0.381300
v 0.160176 0.881061 0.383513
v 0.154505 0.869009 0.387161
v 0.144501 0.860230 0.391689
vn -0.3005 -0.1440 -0.9429
vn 0.6756 0.4383 -0.5929
vn 0.7514 0.4789 -0.4540
vn 0.8790 0.0971 -0.4668
vn 0.7945 0.0696 -0.6032
vn 0.8532 0.5215 0.0064
vn 0.9869 0.1614 -0.0020
vn 0.8532 0.5215 0.0065
vn 0.8167 0.4861 0.3110
vn 0.9329 0.1839 0.3098
vn 0.9869 0.1615 -0.0020
vn 0.3005 0.1439 0.9429
vn 0.4360 0.7247 -0.5336
vn 0.5001 0.7719 -0.3924
vn 0.6073 0.7924 0.0565
vn 0.7513 0.4789 -0.4540
vn 0.6074 0.7924 0.0565
vn 0.6082 0.7138 0.3473
vn 0.8532 0.5216 0.0065
vn -0.3005 -0.1440 -0.9428
vn 0.1224 0.8892 -0.4409
vn 0.1757 0.9385 -0.2971
vn 0.5002 0.7719 -0.3924
vn 0.1756 0.9386 -0.2971
vn 0.2981 0.9444 0.1389
vn 0.2981 0.9444 0.1390
vn 0.3462 0.8423 0.4132
vn 0.6081 0.7138 0.3473
vn 0.3005 0.1440 0.9429
vn -0.2189 0.9179 -0.3311
vn -0.1752 0.9671 -0.1842
vn 0.1757 0.9386 -0.2971
vn -0.0316 0.9694 0.2432
vn 0.2981 0.9443 0.1390
vn -0.0316 0.9695 0.2432
vn 0.0675 0.8631 0.5004
vn 0.3463 0.8422 0.4132
vn -0.5458 0.8090 -0.2183
vn -0.5114 0.8567 -0.0671
vn -0.2188 0.9178 -0.3312
vn -0.3455 0.8675 0.3580
vn -0.0315 0.9695 0.2432
vn -0.3455 0.8674 0.3581
vn -0.1965 0.7761 0.5993
vn 0.3006 0.1440 0.9428
vn -0.8137 0.5696 -0.1160
vn -0.7892 0.6128 0.0402
vn -0.5458 0.8090 -0.2184
vn -0.6059 0.6426 0.4690
vn -0.5115 0.8567 -0.0671
vn -0.4135 0.5862 0.6967
vn -0.3456 0.8674 0.3581
vn 0.3005 0.1440 0.9428
vn -0.9731 0.2268 -0.0390
vn -0.9579 0.2601 0.1212
vn -0.9580 0.2600 0.1213
vn -0.7692 0.3142 0.5565
vn -0.5491 0.3111 0.7757
vn -0.9868 -0.1619 -0.0018
vn -0.9766 -0.1440 0.1597
vn -0.9580 0.2601 0.1212
vn -0.9732 0.2267 -0.0391
vn -0.7967 -0.0702 0.6002
vn -0.7967 -0.0702 0.6003
vn -0.5738 -0.0117 0.8189
vn 0.3005 0.1439 0.9428
vn -0.8532 -0.5215 -0.0105
vn -0.8408 -0.5207 0.1479
vn -0.6779 -0.4395 0.5894
vn -0.9766 -0.1439 0.1597
vn -0.4773 -0.3261 0.8160
vn -0.6078 -0.7917 -0.0616
vn -0.5864 -0.8049 0.0912
vn -0.8532 -0.5215 -0.0106
vn -0.4385 -0.7265 0.5291
vn -0.6779 -0.4394 0.5894
vn -0.2768 -0.5760 0.7692
vn -0.6779 -0.4395 0.5893
vn -0.2993 -0.9431 -0.1450
vn -0.2646 -0.9644 0.0014
vn -0.5863 -0.8049 0.0911
vn -0.1248 -0.8917 0.4351
vn -0.4385 -0.7265 0.5290
vn -0.0079 -0.7229 0.6909
vn -0.2768 -0.5759 0.7692
vn 0.0293 -0.9680 -0.2494
vn 0.0795 -0.9909 -0.1084
vn -0.2994 -0.9431 -0.1450
vn 0.2170 -0.9206 0.3246
vn 0.2170 -0.9206 0.3247
vn 0.2884 -0.7491 0.5965
vn 0.3426 -0.8663 -0.3635
vn 0.4082 -0.8844 -0.2264
vn 0.0795 -0.9909 -0.1085
vn 0.5448 -0.8113 0.2121
vn 0.5447 -0.8114 0.2120
vn 0.5711 -0.6516 0.4992
vn 0.2884 -0.7491 0.5964
vn 0.6029 -0.6422 -0.4733
vn 0.6817 -0.6488 -0.3381
vn 0.8133 -0.5712 0.1107
vn 0.7978 -0.4405 0.4116
vn 0.5712 -0.6516 0.4992
vn 0.5447 -0.8114 0.2121
vn 0.7666 -0.3145 -0.5598
vn 0.8526 -0.3044 -0.4248
vn 0.6817 -0.6488 -0.3382
vn 0.6030 -0.6422 -0.4733
vn 0.8526 -0.3043 -0.4248
vn 0.9731 -0.2276 0.0349
vn 0.6818 -0.6487 -0.3382
vn 0.9731 -0.2277 0.0349
vn 0.9273 -0.1449 0.3451
vn 0.8791 0.0971 -0.4667
vn 0.9328 0.1839 0.3099
vn 0.9273 -0.1450 0.3451
vn 0.3005 0.1441 0.9428
vt 0.432539 0.048326
vt 0.439630 0.066324
vt 0.394516 0.075416
vt 0.437980 0.044595
vt 0.446248 0.065027
vt 0.443712 0.040880
vt 0.452963 0.063745
vt 0.694162 0.052438
vt 0.687471 0.055348
vt 0.676800 0.041118
vt 0.681852 0.035667
vt 0.678405 0.059191
vt 0.670224 0.048214
vt 0.419433 0.034675
vt 0.422995 0.029153
vt 0.426873 0.023556
vt 0.699243 0.072110
vt 0.691926 0.072199
vt 0.681884 0.072174
vt 0.402613 0.027306
vt 0.403802 0.020861
vt 0.405232 0.014210
vt 0.696493 0.091672
vt 0.689673 0.088982
vt 0.680186 0.085150
vt 0.384635 0.027029
vt 0.383370 0.020706
vt 0.382077 0.013964
vt 0.686535 0.108155
vt 0.681248 0.103256
vt 0.673606 0.096173
vt 0.368046 0.034370
vt 0.364396 0.028835
vt 0.360312 0.022946
vt 0.670856 0.119336
vt 0.667656 0.112739
vt 0.663115 0.103571
vt 0.355277 0.047934
vt 0.349737 0.044224
vt 0.343842 0.040579
vt 0.651559 0.123563
vt 0.651092 0.116260
vt 0.650305 0.106249
vt 0.348634 0.065836
vt 0.342094 0.064586
vt 0.335286 0.063476
vt 0.631558 0.119990
vt 0.633951 0.113097
vt 0.637095 0.103765
vt 0.349376 0.085298
vt 0.342744 0.086788
vt 0.336028 0.088334
vt 0.613900 0.108988
vt 0.618953 0.103537
vt 0.625529 0.096441
vt 0.356998 0.103121
vt 0.351674 0.107010
vt 0.346086 0.110951
vt 0.601590 0.092217
vt 0.608282 0.089307
vt 0.617348 0.085464
vt 0.370432 0.116313
vt 0.367067 0.121887
vt 0.363442 0.127591
vt 0.596510 0.072545
vt 0.603826 0.072456
vt 0.613869 0.072481
vt 0.387230 0.123132
vt 0.386232 0.129478
vt 0.385086 0.136048
vt 0.599259 0.052983
vt 0.606080 0.055673
vt 0.615566 0.059505
vt 0.404796 0.123037
vt 0.406126 0.129114
vt 0.407575 0.135514
vt 0.609218 0.036501
vt 0.614505 0.041400
vt 0.622146 0.048482
vt 0.420706 0.115940
vt 0.424209 0.121256
vt 0.427832 0.126494
vt 0.624897 0.025320
vt 0.628097 0.031916
vt 0.632638 0.041084
vt 0.433018 0.102960
vt 0.438299 0.106622
vt 0.443841 0.110297
vt 0.644194 0.021094
vt 0.644660 0.028396
vt 0.645447 0.038406
vt 0.439857 0.085581
vt 0.446244 0.086968
vt 0.452885 0.088300
vt 0.664195 0.024666
vt 0.661801 0.031558
vt 0.658657 0.040891
vt 0.647877 0.072328
s 0
usemtl ??.005
f 7/1/1 3/2/1 1/3/1
f 7/1/2 8/4/3 4/5/4 3/2/5
f 8/4/3 9/6/6 5/7/7 4/5/4
f 9/8/8 10/9/9 6/10/10 5/11/11
f 10/9/12 78/12/12 79/13/12 6/10/12
f 11/14/1 7/1/1 1/3/1
f 11/14/13 12/15/14 8/4/3 7/1/2
f 12/15/14 13/16/15 9/6/6 8/4/16
f 13/17/17 14/18/18 10/9/9 9/8/19
f 14/18/12 77/19/12 78/12/12 10/9/12
f 15/20/20 11/14/20 1/3/20
f 15/20/21 16/21/22 12/15/23 11/14/13
f 16/21/24 17/22/25 13/16/17 12/15/14
f 17/23/26 18/24/27 14/18/28 13/17/17
f 18/24/29 76/25/29 77/19/29 14/18/29
f 19/26/20 15/20/20 1/3/20
f 19/26/30 20/27/31 16/21/32 15/20/21
f 20/27/31 21/28/33 17/22/34 16/21/22
f 21/29/35 22/30/36 18/24/37 17/23/26
f 22/30/29 75/31/29 76/25/29 18/24/29
f 23/32/20 19/26/20 1/3/20
f 23/32/38 24/33/39 20/27/31 19/26/40
f 24/33/39 25/34/41 21/28/42 20/27/31
f 25/35/43 26/36/44 22/30/36 21/29/42
f 26/36/45 74/37/45 75/31/45 22/30/45
f 27/38/20 23/32/20 1/3/20
f 27/38/46 28/39/47 24/33/39 23/32/48
f 28/39/47 29/40/49 25/34/43 24/33/50
f 29/41/49 30/42/51 26/36/44 25/35/52
f 30/42/53 73/43/53 74/37/53 26/36/53
f 31/44/20 27/38/20 1/3/20
f 31/44/54 32/45/55 28/39/47 27/38/46
f 32/45/56 33/46/57 29/40/49 28/39/47
f 33/47/57 34/48/58 30/42/51 29/41/49
f 34/48/53 72/49/53 73/43/53 30/42/53
f 35/50/20 31/44/20 1/3/20
f 35/50/59 36/51/60 32/45/61 31/44/62
f 36/51/60 37/52/63 33/46/57 32/45/61
f 37/53/64 38/54/65 34/48/58 33/47/57
f 38/54/66 71/55/66 72/49/66 34/48/66
f 39/56/20 35/50/20 1/3/20
f 39/56/67 40/57/68 36/51/60 35/50/59
f 40/57/68 41/58/69 37/52/63 36/51/70
f 41/59/69 42/60/71 38/54/65 37/53/63
f 42/60/53 70/61/53 71/55/53 38/54/53
f 43/62/20 39/56/20 1/3/20
f 43/62/72 44/63/73 40/57/68 39/56/74
f 44/63/73 45/64/75 41/58/76 40/57/68
f 45/65/75 46/66/77 42/60/71 41/59/78
f 46/66/53 69/67/53 70/61/53 42/60/53
f 47/68/20 43/62/20 1/3/20
f 47/68/79 48/69/80 44/63/81 43/62/72
f 48/69/80 49/70/82 45/64/83 44/63/73
f 49/71/82 50/72/84 46/66/85 45/65/75
f 50/72/53 68/73/53 69/67/53 46/66/53
f 51/74/20 47/68/20 1/3/20
f 51/74/86 52/75/87 48/69/80 47/68/88
f 52/75/87 53/76/89 49/70/82 48/69/80
f 53/77/90 54/78/91 50/72/84 49/71/82
f 54/78/53 67/79/53 68/73/53 50/72/53
f 55/80/1 51/74/1 1/3/1
f 55/80/92 56/81/93 52/75/94 51/74/86
f 56/81/93 57/82/95 53/76/89 52/75/94
f 57/83/96 58/84/97 54/78/98 53/77/90
f 58/84/53 82/85/53 67/79/53 54/78/53
f 59/86/20 55/80/20 1/3/20
f 59/86/99 60/87/100 56/81/93 55/80/92
f 60/87/100 61/88/101 57/82/95 56/81/93
f 61/89/101 62/90/102 58/84/103 57/83/104
f 62/90/53 81/91/53 82/85/53 58/84/53
f 63/92/1 59/86/1 1/3/1
f 63/92/105 64/93/106 60/87/107 59/86/108
f 64/93/109 65/94/110 61/88/101 60/87/111
f 65/95/112 66/96/113 62/90/102 61/89/101
f 66/96/45 80/97/45 81/91/45 62/90/45
f 3/2/1 63/92/1 1/3/1
f 3/2/5 4/5/4 64/93/109 63/92/105
f 4/5/114 5/7/7 65/94/110 64/93/109
f 5/11/11 6/10/115 66/96/116 65/95/110
f 6/10/53 79/13/53 80/97/53 66/96/53
f 67/79/53 2/98/53 68/73/53
f 68/73/53 2/98/53 69/67/53
f 69/67/53 2/98/53 70/61/53
f 70/61/117 2/98/117 71/55/117
f 71/55/12 2/98/12 72/49/12
f 72/49/53 2/98/53 73/43/53
f 73/43/53 2/98/53 74/37/53
f 74/37/45 2/98/45 75/31/45
f 75/31/29 2/98/29 76/25/29
f 76/25/29 2/98/29 77/19/29
f 77/19/66 2/98/66 78/12/66
f 78/12/53 2/98/53 79/13/53
f 79/13/117 2/98/117 80/97/117
f 80/97/29 2/98/29 81/91/29
f 81/91/29 2/98/29 82/85/29
f 82/85/29 2/98/29 67/79/29
o eye1
v -0.130459 0.886140 0.375583
v -0.136142 0.887520 0.392949
v -0.177601 0.891656 0.359716
v -0.181438 0.892344 0.364850
v -0.183333 0.892804 0.370639
v -0.180939 0.892762 0.377871
v -0.171071 0.909191 0.359120
v -0.174639 0.910601 0.364230
v -0.176534 0.911061 0.370017
v -0.174734 0.909424 0.377305
v -0.158359 0.923215 0.361029
v -0.161403 0.925204 0.366218
v -0.163296 0.925664 0.372006
v -0.162653 0.922752 0.379120
v -0.141399 0.931596 0.365155
v -0.143744 0.933931 0.370514
v -0.145637 0.934390 0.376302
v -0.146537 0.930716 0.383040
v -0.122774 0.933056 0.370869
v -0.124350 0.935450 0.376463
v -0.126245 0.935912 0.382253
v -0.128838 0.932103 0.388469
v -0.105318 0.927374 0.377300
v -0.106176 0.929535 0.383159
v -0.108070 0.929995 0.388948
v -0.112251 0.926703 0.394581
v -0.091690 0.915414 0.383470
v -0.091986 0.917082 0.389584
v -0.093881 0.917542 0.395373
v -0.099301 0.915339 0.400444
v -0.083966 0.898998 0.388440
v -0.083942 0.899989 0.394759
v -0.085837 0.900448 0.400547
v -0.091960 0.899739 0.405166
v -0.083319 0.880624 0.391452
v -0.083269 0.880856 0.397894
v -0.085163 0.881316 0.403683
v -0.091346 0.882278 0.408028
v -0.089848 0.863090 0.392048
v -0.090068 0.862599 0.398516
v -0.091962 0.863059 0.404304
v -0.097551 0.865617 0.408595
v -0.102561 0.849064 0.390138
v -0.103305 0.847997 0.396527
v -0.105199 0.848456 0.402315
v -0.109630 0.852289 0.406781
v -0.119521 0.840684 0.386012
v -0.120964 0.839270 0.392230
v -0.122858 0.839730 0.398019
v -0.125747 0.844325 0.402860
v -0.138146 0.839224 0.380298
v -0.140356 0.837749 0.386281
v -0.142251 0.838210 0.392070
v -0.143446 0.842937 0.397430
v -0.155601 0.844906 0.373867
v -0.158532 0.843666 0.379585
v -0.160426 0.844126 0.385373
v -0.160033 0.848337 0.391319
v -0.169228 0.856866 0.367697
v -0.172721 0.856119 0.373161
v -0.174615 0.856579 0.378949
v -0.172983 0.859702 0.385455
v -0.176954 0.873282 0.362728
v -0.180765 0.873212 0.367987
v -0.182659 0.873672 0.373775
v -0.180323 0.875302 0.380733
v -0.141784 0.853078 0.396410
v -0.128111 0.854150 0.400605
v -0.115660 0.860303 0.403634
v -0.106328 0.870598 0.405037
v -0.101535 0.883471 0.404598
v -0.102010 0.896959 0.402387
v -0.107681 0.909011 0.398740
v -0.117685 0.917791 0.394210
v -0.130499 0.921963 0.389488
v -0.144172 0.920891 0.385294
v -0.156623 0.914739 0.382265
v -0.165955 0.904442 0.380862
v -0.170749 0.891570 0.381300
v -0.170274 0.878081 0.383513
v -0.164603 0.866029 0.387161
v -0.154598 0.857250 0.391689
vn 0.3005 -0.1440 -0.9429
vn -0.8791 0.0971 -0.4667
vn -0.7514 0.4789 -0.4540
vn -0.6756 0.4383 -0.5929
vn -0.7945 0.0696 -0.6032
vn -0.9869 0.1614 -0.0020
vn -0.8532 0.5215 0.0064
vn -0.8790 0.0971 -0.4668
vn -0.9329 0.1839 0.3098
vn -0.8167 0.4861 0.3110
vn -0.8532 0.5215 0.0065
vn -0.9869 0.1615 -0.0020
vn -0.3004 0.1439 0.9429
vn -0.5001 0.7719 -0.3924
vn -0.4360 0.7247 -0.5336
vn -0.6756 0.4383 -0.5928
vn -0.6074 0.7924 0.0566
vn -0.5002 0.7719 -0.3924
vn -0.6082 0.7138 0.3473
vn -0.6074 0.7924 0.0565
vn -0.3005 0.1439 0.9429
vn 0.3005 -0.1440 -0.9428
vn -0.1757 0.9385 -0.2971
vn -0.1223 0.8892 -0.4409
vn -0.2981 0.9443 0.1390
vn -0.1756 0.9386 -0.2971
vn -0.5001 0.7720 -0.3924
vn -0.3462 0.8423 0.4132
vn -0.2981 0.9444 0.1390
vn -0.3005 0.1440 0.9429
vn -0.1757 0.9386 -0.2971
vn 0.1752 0.9671 -0.1842
vn 0.2188 0.9179 -0.3311
vn -0.1224 0.8892 -0.4409
vn 0.0316 0.9694 0.2432
vn -0.3462 0.8422 0.4132
vn -0.0675 0.8631 0.5004
vn 0.5114 0.8567 -0.0672
vn 0.5458 0.8090 -0.2183
vn 0.2189 0.9178 -0.3312
vn 0.0315 0.9695 0.2432
vn 0.3455 0.8675 0.3580
vn 0.1965 0.7761 0.5993
vn 0.3456 0.8674 0.3581
vn -0.3006 0.1440 0.9428
vn 0.5114 0.8567 -0.0671
vn 0.7892 0.6128 0.0402
vn 0.8137 0.5696 -0.1160
vn 0.5457 0.8090 -0.2184
vn 0.3456 0.8674 0.3580
vn 0.6060 0.6426 0.4689
vn 0.4135 0.5862 0.6967
vn 0.6059 0.6426 0.4690
vn -0.3005 0.1440 0.9428
vn 0.9579 0.2602 0.1212
vn 0.9731 0.2269 -0.0390
vn 0.7692 0.3142 0.5565
vn 0.9579 0.2601 0.1212
vn 0.5491 0.3111 0.7757
vn 0.9580 0.2600 0.1212
vn 0.9766 -0.1440 0.1597
vn 0.9868 -0.1619 -0.0018
vn 0.9732 0.2267 -0.0391
vn 0.7967 -0.0702 0.6002
vn 0.9580 0.2601 0.1212
vn 0.5491 0.3110 0.7757
vn 0.5738 -0.0117 0.8189
vn -0.3005 0.1439 0.9428
vn 0.8408 -0.5207 0.1479
vn 0.8532 -0.5215 -0.0105
vn 0.6779 -0.4395 0.5894
vn 0.9766 -0.1439 0.1597
vn 0.4773 -0.3261 0.8160
vn 0.5864 -0.8049 0.0911
vn 0.6078 -0.7917 -0.0616
vn 0.8532 -0.5215 -0.0106
vn 0.4385 -0.7265 0.5291
vn 0.5864 -0.8049 0.0912
vn 0.2768 -0.5760 0.7692
vn 0.6779 -0.4394 0.5894
vn 0.5863 -0.8049 0.0911
vn 0.2646 -0.9644 0.0014
vn 0.2993 -0.9431 -0.1450
vn 0.1248 -0.8917 0.4351
vn 0.2768 -0.5759 0.7692
vn 0.0079 -0.7229 0.6909
vn -0.0795 -0.9909 -0.1085
vn -0.0293 -0.9680 -0.2494
vn 0.2994 -0.9431 -0.1450
vn -0.2170 -0.9206 0.3246
vn -0.0795 -0.9909 -0.1084
vn -0.2884 -0.7491 0.5965
vn -0.2170 -0.9206 0.3247
vn -0.4082 -0.8844 -0.2264
vn -0.3426 -0.8663 -0.3635
vn -0.5447 -0.8113 0.2121
vn -0.2884 -0.7491 0.5964
vn -0.5711 -0.6516 0.4992
vn -0.5448 -0.8113 0.2121
vn -0.6817 -0.6487 -0.3381
vn -0.6030 -0.6422 -0.4733
vn -0.8133 -0.5712 0.1107
vn -0.6817 -0.6487 -0.3382
vn -0.7978 -0.4405 0.4116
vn -0.5447 -0.8114 0.2121
vn -0.6817 -0.6488 -0.3381
vn -0.8526 -0.3044 -0.4248
vn -0.7666 -0.3145 -0.5598
vn -0.6029 -0.6422 -0.4733
vn -0.9731 -0.2276 0.0349
vn -0.8526 -0.3043 -0.4248
vn -0.6817 -0.6488 -0.3382
vn -0.9273 -0.1450 0.3451
vn -0.9731 -0.2277 0.0348
vn -0.9273 -0.1449 0.3451
vn -0.9328 0.1839 0.3099
vn -0.9731 -0.2277 0.0349
vn -0.3005 0.1441 0.9428
vt 0.439630 0.066324
vt 0.432539 0.048326
vt 0.394516 0.075416
vt 0.446248 0.065027
vt 0.437980 0.044595
vt 0.452963 0.063745
vt 0.443712 0.040880
vt 0.681914 0.047286
vt 0.691068 0.062629
vt 0.698060 0.060430
vt 0.687537 0.042375
vt 0.674595 0.053679
vt 0.681606 0.065509
vt 0.419433 0.034675
vt 0.422995 0.029153
vt 0.426873 0.023556
vt 0.693737 0.079933
vt 0.701056 0.080618
vt 0.683709 0.078846
vt 0.402613 0.027306
vt 0.403802 0.020861
vt 0.405232 0.014210
vt 0.689713 0.096459
vt 0.696241 0.099867
vt 0.680640 0.091628
vt 0.384635 0.027029
vt 0.383370 0.020706
vt 0.382077 0.013964
vt 0.679787 0.109827
vt 0.684551 0.115280
vt 0.672902 0.101944
vt 0.368046 0.034370
vt 0.364396 0.028835
vt 0.360312 0.022946
vt 0.665207 0.117863
vt 0.667706 0.124791
vt 0.661640 0.108224
vt 0.355277 0.047934
vt 0.349737 0.044224
vt 0.343842 0.040579
vt 0.648289 0.119628
vt 0.647983 0.126972
vt 0.648561 0.109545
vt 0.348634 0.065836
vt 0.342094 0.064586
vt 0.335286 0.063476
vt 0.631501 0.114656
vt 0.628381 0.121288
vt 0.635629 0.105667
vt 0.349376 0.085298
vt 0.342744 0.086788
vt 0.336028 0.088334
vt 0.617530 0.103521
vt 0.611906 0.108432
vt 0.624849 0.097128
vt 0.356998 0.103121
vt 0.351674 0.107010
vt 0.346086 0.110951
vt 0.608376 0.088178
vt 0.601383 0.090378
vt 0.617838 0.085298
vt 0.370432 0.116313
vt 0.367067 0.121887
vt 0.363442 0.127591
vt 0.605706 0.070874
vt 0.598388 0.070189
vt 0.615735 0.071961
vt 0.387230 0.123132
vt 0.386232 0.129478
vt 0.385086 0.136048
vt 0.609732 0.054348
vt 0.603203 0.050940
vt 0.618803 0.059179
vt 0.404796 0.123037
vt 0.406126 0.129114
vt 0.407575 0.135514
vt 0.619657 0.040981
vt 0.614894 0.035529
vt 0.626541 0.048863
vt 0.420706 0.115940
vt 0.424209 0.121256
vt 0.427832 0.126494
vt 0.634237 0.032945
vt 0.631738 0.026018
vt 0.637804 0.042583
vt 0.433018 0.102960
vt 0.438299 0.106622
vt 0.443841 0.110297
vt 0.651154 0.031179
vt 0.651460 0.023836
vt 0.650882 0.041262
vt 0.439857 0.085581
vt 0.446244 0.086968
vt 0.452885 0.088300
vt 0.667943 0.036151
vt 0.671063 0.029519
vt 0.663815 0.045141
vt 0.649722 0.075404
s 0
usemtl ??.005
f 85/99/118 89/100/118 83/101/118
f 86/102/119 90/103/120 89/100/121 85/99/122
f 87/104/123 91/105/124 90/103/120 86/102/125
f 88/106/126 92/107/127 91/108/128 87/109/129
f 161/110/130 160/111/130 92/107/130 88/106/130
f 89/100/118 93/112/118 83/101/118
f 90/103/120 94/113/131 93/112/132 89/100/133
f 91/105/124 95/114/134 94/113/135 90/103/120
f 92/107/127 96/115/136 95/116/137 91/108/124
f 160/111/138 159/117/138 96/115/138 92/107/138
f 93/112/139 97/118/139 83/101/139
f 94/113/135 98/119/140 97/118/141 93/112/132
f 95/114/137 99/120/142 98/119/143 94/113/144
f 96/115/136 100/121/145 99/122/146 95/116/137
f 159/117/147 158/123/147 100/121/147 96/115/147
f 97/118/139 101/124/139 83/101/139
f 98/119/148 102/125/149 101/124/150 97/118/151
f 99/120/142 103/126/152 102/125/149 98/119/140
f 100/121/153 104/127/154 103/128/152 99/122/146
f 158/123/147 157/129/147 104/127/147 100/121/147
f 101/124/139 105/130/139 83/101/139
f 102/125/149 106/131/155 105/130/156 101/124/157
f 103/126/158 107/132/159 106/131/155 102/125/149
f 104/127/154 108/133/160 107/134/161 103/128/158
f 157/129/162 156/135/162 108/133/162 104/127/162
f 105/130/118 109/136/118 83/101/118
f 106/131/163 110/137/164 109/136/165 105/130/166
f 107/132/167 111/138/168 110/137/164 106/131/163
f 108/133/160 112/139/169 111/140/170 107/134/161
f 156/135/171 155/141/171 112/139/171 108/133/171
f 109/136/139 113/142/139 83/101/139
f 110/137/164 114/143/172 113/142/173 109/136/165
f 111/138/170 115/144/174 114/143/175 110/137/164
f 112/139/169 116/145/176 115/146/174 111/140/170
f 155/141/171 154/147/171 116/145/171 112/139/171
f 113/142/139 117/148/139 83/101/139
f 114/143/177 118/149/178 117/148/179 113/142/180
f 115/144/174 119/150/181 118/149/178 114/143/182
f 116/145/183 120/151/184 119/152/181 115/146/174
f 154/147/185 153/153/185 120/151/185 116/145/185
f 117/148/139 121/154/139 83/101/139
f 118/149/178 122/155/186 121/154/187 117/148/179
f 119/150/181 123/156/188 122/155/186 118/149/189
f 120/151/184 124/157/190 123/158/188 119/152/181
f 153/153/171 152/159/171 124/157/171 120/151/171
f 121/154/139 125/160/139 83/101/139
f 122/155/186 126/161/191 125/160/192 121/154/193
f 123/156/188 127/162/194 126/161/195 122/155/186
f 124/157/190 128/163/196 127/164/194 123/158/197
f 152/159/171 151/165/171 128/163/171 124/157/171
f 125/160/139 129/166/139 83/101/139
f 126/161/198 130/167/199 129/166/200 125/160/192
f 127/162/194 131/168/201 130/167/199 126/161/195
f 128/163/202 132/169/203 131/170/201 127/164/194
f 151/165/162 150/171/162 132/169/162 128/163/162
f 129/166/139 133/172/139 83/101/139
f 130/167/199 134/173/204 133/172/205 129/166/206
f 131/168/201 135/174/207 134/173/208 130/167/199
f 132/169/203 136/175/209 135/176/210 131/170/201
f 150/171/171 149/177/171 136/175/171 132/169/171
f 133/172/118 137/178/118 83/101/118
f 134/173/204 138/179/211 137/178/212 133/172/205
f 135/174/210 139/180/213 138/179/211 134/173/208
f 136/175/214 140/181/215 139/182/216 135/176/210
f 149/177/171 164/183/171 140/181/171 136/175/171
f 137/178/139 141/184/139 83/101/139
f 138/179/211 142/185/217 141/184/218 137/178/212
f 139/180/216 143/186/219 142/185/220 138/179/211
f 140/181/215 144/187/221 143/188/219 139/182/222
f 164/183/147 163/189/147 144/187/147 140/181/147
f 141/184/118 145/190/118 83/101/118
f 142/185/223 146/191/224 145/190/225 141/184/226
f 143/186/219 147/192/227 146/191/228 142/185/229
f 144/187/221 148/193/230 147/194/231 143/188/219
f 163/189/162 162/195/162 148/193/162 144/187/162
f 145/190/118 85/99/118 83/101/118
f 146/191/228 86/102/125 85/99/122 145/190/225
f 147/192/227 87/104/123 86/102/119 146/191/228
f 148/193/232 88/106/233 87/109/129 147/194/234
f 162/195/171 161/110/171 88/106/171 148/193/171
f 84/196/171 149/177/171 150/171/171
f 84/196/171 150/171/171 151/165/171
f 84/196/171 151/165/171 152/159/171
f 84/196/171 152/159/171 153/153/171
f 84/196/185 153/153/185 154/147/185
f 84/196/171 154/147/171 155/141/171
f 84/196/162 155/141/162 156/135/162
f 84/196/162 156/135/162 157/129/162
f 84/196/147 157/129/147 158/123/147
f 84/196/171 158/123/171 159/117/171
f 84/196/171 159/117/171 160/111/171
f 84/196/171 160/111/171 161/110/171
f 84/196/235 161/110/235 162/195/235
f 84/196/147 162/195/147 163/189/147
f 84/196/147 163/189/147 164/183/147
f 84/196/147 164/183/147 149/177/147
