# WaveFront *.obj file (generated by Cinema 4D)

mtllib ./Hand_Open_L.mtl

v 0.414036 0.245190 0.150644
v 0.391375 0.308272 0.134890
v 0.394703 0.349447 0.124607
v 0.398758 0.389783 0.114534
v 0.415670 0.440799 0.101793
v 0.445829 0.489131 0.089723
v 0.505980 0.565672 0.070608
v 0.425797 0.230864 0.093278
v 0.404861 0.291845 0.069111
v 0.407936 0.333328 0.060064
v 0.411682 0.374040 0.051496
v 0.427307 0.426625 0.045034
v 0.455170 0.478282 0.046280
v 0.510742 0.559871 0.047379
v 0.459290 0.218719 0.044646
v 0.443266 0.277918 0.013346
v 0.445620 0.319663 0.005347
v 0.448487 0.360694 -0.001945
v 0.460445 0.414608 -0.003084
v 0.481771 0.469084 0.009452
v 0.524304 0.554953 0.027687
v 0.509416 0.210604 0.012151
v 0.500744 0.268613 -0.023915
v 0.502017 0.310532 -0.031214
v 0.503569 0.351777 -0.037653
v 0.510041 0.406579 -0.035235
v 0.521582 0.462939 -0.015156
v 0.544601 0.551667 0.014529
v 0.568543 0.207754 0.000741
v 0.568543 0.265345 -0.037000
v 0.568543 0.307326 -0.044053
v 0.568543 0.348645 -0.050192
v 0.568543 0.403759 -0.046525
v 0.568543 0.460781 -0.023798
v 0.568543 0.550513 0.009909
v 0.627670 0.210604 0.012151
v 0.636342 0.268613 -0.023915
v 0.635069 0.310532 -0.031214
v 0.633517 0.351777 -0.037653
v 0.627045 0.406579 -0.035235
v 0.615504 0.462939 -0.015156
v 0.592485 0.551667 0.014529
v 0.677796 0.218719 0.044646
v 0.693820 0.277918 0.013346
v 0.691466 0.319663 0.005347
v 0.688599 0.360694 -0.001945
v 0.676641 0.414608 -0.003084
v 0.655315 0.469084 0.009452
v 0.612782 0.554953 0.027687
v 0.711289 0.230864 0.093278
v 0.732225 0.291845 0.069111
v 0.729150 0.333328 0.060064
v 0.725404 0.374040 0.051496
v 0.709779 0.426625 0.045034
v 0.681916 0.478282 0.046280
v 0.626344 0.559871 0.047379
v 0.723050 0.245190 0.150644
v 0.745711 0.308272 0.134890
v 0.742383 0.349447 0.124607
v 0.738328 0.389783 0.114534
v 0.721416 0.440799 0.101793
v 0.691257 0.489131 0.089723
v 0.631106 0.565672 0.070608
v 0.711289 0.259517 0.208009
v 0.732225 0.324700 0.200669
v 0.729150 0.365565 0.189150
v 0.725404 0.405526 0.177571
v 0.709779 0.454974 0.158552
v 0.681916 0.499980 0.133165
v 0.626344 0.571473 0.093836
v 0.677796 0.271662 0.256641
v 0.693820 0.338626 0.256434
v 0.691466 0.379230 0.243868
v 0.688599 0.418872 0.231012
v 0.676641 0.466991 0.206670
v 0.655315 0.509177 0.169994
v 0.612782 0.576391 0.113528
v 0.627670 0.279777 0.289136
v 0.636342 0.347932 0.293695
v 0.635069 0.388361 0.280428
v 0.633517 0.427790 0.266720
v 0.627045 0.475020 0.238821
v 0.615504 0.515323 0.194602
v 0.592485 0.579677 0.126686
v 0.568543 0.282627 0.300547
v 0.568543 0.351199 0.306779
v 0.568543 0.391567 0.293267
v 0.568543 0.430921 0.279259
v 0.568543 0.477840 0.250111
v 0.568543 0.517481 0.203244
v 0.568543 0.580831 0.131307
v 0.509416 0.279777 0.289136
v 0.500744 0.347932 0.293695
v 0.502017 0.388361 0.280428
v 0.503569 0.427790 0.266720
v 0.510041 0.475020 0.238821
v 0.521582 0.515323 0.194602
v 0.544601 0.579677 0.126686
v 0.459290 0.271662 0.256641
v 0.443266 0.338626 0.256434
v 0.445620 0.379230 0.243868
v 0.448487 0.418872 0.231012
v 0.460445 0.466991 0.206670
v 0.481771 0.509177 0.169994
v 0.524304 0.576391 0.113528
v 0.425797 0.259517 0.208009
v 0.404861 0.324700 0.200669
v 0.407936 0.365565 0.189150
v 0.411682 0.405526 0.177571
v 0.427307 0.454974 0.158552
v 0.455170 0.499980 0.133165
v 0.510742 0.571473 0.093836
v 0.453539 0.204376 0.160836
v 0.462294 0.215040 0.203535
v 0.487223 0.224080 0.239733
v 0.524533 0.230120 0.263920
v 0.568543 0.232241 0.272413
v 0.612553 0.230120 0.263920
v 0.649863 0.224080 0.239733
v 0.674792 0.215040 0.203535
v 0.683547 0.204376 0.160836
v 0.674792 0.193713 0.118138
v 0.649863 0.184673 0.081940
v 0.612553 0.178633 0.057753
v 0.568543 0.176511 0.049260
v 0.524533 0.178633 0.057753
v 0.487223 0.184673 0.081940
v 0.462294 0.193713 0.118138
v 0.519655 0.172521 0.147920
v 0.515627 0.177427 0.167566
v 0.531126 0.168361 0.131264
v 0.548293 0.165582 0.120135
v 0.568543 0.164606 0.116227
v 0.588793 0.165582 0.120135
v 0.605960 0.168361 0.131264
v 0.617431 0.172521 0.147920
v 0.621459 0.177427 0.167566
v 0.617431 0.182334 0.187213
v 0.605960 0.186493 0.203869
v 0.588793 0.189273 0.214998
v 0.568543 0.190249 0.218906
v 0.548293 0.189273 0.214998
v 0.531126 0.186493 0.203869
v 0.519655 0.182334 0.187213
v 0.568543 0.172945 0.168686
v 0.549165 0.172945 0.168686
v 0.587921 0.172945 0.168686
v 0.587921 0.168249 0.149885
v 0.549165 0.168249 0.149885
v 0.568543 0.168249 0.149885
v 0.549165 0.177640 0.187487
v 0.587921 0.177640 0.187487
v 0.568543 0.177640 0.187487
v 0.568543 0.583929 0.066049
v 0.544601 0.583929 0.066049
v 0.592485 0.583929 0.066049
v 0.592485 0.578128 0.042820
v 0.544601 0.578128 0.042820
v 0.568543 0.578128 0.042820
v 0.544601 0.589730 0.089277
v 0.592485 0.589730 0.089277
v 0.568543 0.589730 0.089277
v 0.532079 0.505976 -0.002341
v 0.501166 0.510822 0.017063
v 0.480511 0.518075 0.046103
v 0.473258 0.526629 0.080358
v 0.480511 0.535184 0.114614
v 0.501166 0.542436 0.143654
v 0.532079 0.547282 0.163058
v 0.568543 0.548984 0.169872
v 0.605007 0.547282 0.163058
v 0.635920 0.542436 0.143654
v 0.656575 0.535184 0.114614
v 0.663828 0.526629 0.080358
v 0.656575 0.518075 0.046103
v 0.635920 0.510822 0.017063
v 0.605007 0.505976 -0.002341
v 0.568543 0.504275 -0.009155
# 178 vertices

vn -0.001212 0.999988 -0.004706
vn -0.000000 0.970203 -0.242294
vn 0.237726 0.942682 -0.234172
vn 0.190656 0.980529 -0.047051
vn 0.228396 0.905704 0.357122
vn -0.001236 0.895664 0.444729
vn 0.001212 0.884789 -0.465990
vn -0.237726 0.942095 -0.236525
vn -0.190656 0.887523 -0.419468
vn -0.228396 0.631462 -0.741007
vn 0.001236 0.581412 -0.813608
vn 0.191928 0.887831 -0.418235
vn 0.229769 0.630898 -0.741063
vn 0.059103 -0.952651 0.298267
vn 0.072874 -0.967728 0.241231
vn 0.000000 -0.970203 0.242294
vn 0.000432 -0.949966 0.312353
vn 0.000435 -0.863923 0.503624
vn 0.101768 -0.875430 0.472510
vn -0.000000 -0.985299 0.170836
vn -0.000000 -0.999261 -0.038431
vn -0.101334 -0.994837 -0.005561
vn -0.058672 -0.981073 0.184535
vn -0.072874 -0.967519 0.242069
vn 0.058558 -0.981159 0.184113
vn -0.071481 -0.947743 0.310923
vn -0.854916 -0.503308 0.125694
vn -0.789840 -0.582578 -0.191720
vn -0.916233 -0.216523 -0.337098
vn -0.991723 -0.124568 0.031109
vn -0.920325 -0.007341 -0.391086
vn -0.996153 0.085024 -0.021234
vn -0.904669 0.106026 -0.412713
vn -0.979207 0.196820 -0.049153
vn -0.836761 0.324138 -0.441323
vn -0.909059 0.404245 -0.100985
vn -0.767439 0.455677 -0.450994
vn -0.835319 0.533378 -0.133226
vn -0.736474 0.505271 -0.449787
vn -0.796870 0.586154 -0.146360
vn -0.604517 -0.649780 -0.460810
vn -0.701254 -0.294478 -0.649250
vn -0.704386 -0.085644 -0.704631
vn -0.692404 0.029054 -0.720925
vn -0.634586 0.265246 -0.725910
vn -0.579476 0.394447 -0.713175
vn -0.564398 0.428373 -0.705657
vn -0.327162 -0.694682 -0.640610
vn -0.379516 -0.346566 -0.857822
vn -0.381211 -0.137965 -0.914136
vn -0.374726 -0.022377 -0.926865
vn -0.340324 0.230805 -0.911542
vn -0.309497 0.356443 -0.881567
vn -0.305867 0.372388 -0.876227
vn 0.000000 -0.710450 -0.703748
vn 0.000000 -0.364857 -0.931063
vn 0.000000 -0.156338 -0.987704
vn 0.000000 -0.040437 -0.999182
vn -0.000016 0.219841 -0.975536
vn -0.000008 0.343795 -0.939045
vn 0.000027 0.351560 -0.936165
vn 0.327162 -0.694682 -0.640610
vn 0.379516 -0.346566 -0.857822
vn 0.381211 -0.137965 -0.914136
vn 0.374726 -0.022377 -0.926865
vn 0.340213 0.231438 -0.911423
vn 0.309419 0.356830 -0.881438
vn 0.306074 0.371688 -0.876451
vn 0.604517 -0.649780 -0.460810
vn 0.701254 -0.294478 -0.649250
vn 0.704386 -0.085644 -0.704631
vn 0.692404 0.029054 -0.720925
vn 0.634313 0.266211 -0.725795
vn 0.579249 0.395065 -0.713018
vn 0.564840 0.427449 -0.705863
vn 0.789840 -0.582578 -0.191720
vn 0.916233 -0.216523 -0.337098
vn 0.920325 -0.007341 -0.391086
vn 0.904669 0.106026 -0.412713
vn 0.836483 0.324865 -0.441314
vn 0.767182 0.456159 -0.450944
vn 0.736860 0.504669 -0.449831
vn 0.854916 -0.503308 0.125694
vn 0.991723 -0.124568 0.031109
vn 0.996153 0.085024 -0.021234
vn 0.979207 0.196820 -0.049153
vn 0.909059 0.404259 -0.100928
vn 0.835319 0.533389 -0.133184
vn 0.796870 0.586143 -0.146405
vn 0.789840 -0.424039 0.443108
vn 0.916233 -0.032614 0.399317
vn 0.920325 0.177390 0.348618
vn 0.904669 0.287614 0.314408
vn 0.836761 0.493568 0.237113
vn 0.767439 0.614210 0.183805
vn 0.736474 0.657412 0.159423
vn 0.604517 -0.356837 0.712198
vn 0.701254 0.045341 0.711468
vn 0.704386 0.255693 0.662164
vn 0.692404 0.364585 0.622619
vn 0.634586 0.575389 0.515973
vn 0.579476 0.683432 0.443991
vn 0.564398 0.709840 0.421405
vn 0.327162 -0.311935 0.891999
vn 0.379516 0.097430 0.920041
vn 0.381211 0.308014 0.871668
vn 0.374726 0.416016 0.828560
vn 0.340324 0.632266 0.696002
vn 0.309497 0.729060 0.610478
vn 0.305867 0.740622 0.598268
vn 0.000000 -0.296167 0.955136
vn 0.000000 0.115720 0.993282
vn 0.000000 0.326387 0.945236
vn 0.000000 0.434076 0.900876
vn 0.000016 0.652677 0.757637
vn 0.000008 0.744920 0.667154
vn -0.000027 0.750419 0.660962
vn -0.327162 -0.311935 0.891999
vn -0.379516 0.097430 0.920041
vn -0.381211 0.308014 0.871668
vn -0.374726 0.416016 0.828560
vn -0.340213 0.632769 0.695599
vn -0.309419 0.729340 0.610182
vn -0.306074 0.740110 0.598795
vn -0.604517 -0.356837 0.712198
vn -0.701254 0.045341 0.711468
vn -0.704386 0.255693 0.662164
vn -0.692404 0.364585 0.622619
vn -0.634313 0.576186 0.515418
vn -0.579249 0.683904 0.443561
vn -0.564840 0.709122 0.422021
vn -0.789839 -0.424039 0.443108
vn -0.916233 -0.032614 0.399317
vn -0.920325 0.177390 0.348618
vn -0.904669 0.287614 0.314407
vn -0.836483 0.494205 0.236763
vn -0.767182 0.614611 0.183534
vn -0.736860 0.656902 0.159745
vn -0.535327 -0.737008 0.412607
vn -0.579433 -0.790734 0.197475
vn -0.409721 -0.691461 0.594987
vn -0.221740 -0.661028 0.716850
vn 0.000000 -0.650341 0.759643
vn 0.221740 -0.661028 0.716850
vn 0.409721 -0.691461 0.594987
vn 0.535327 -0.737008 0.412607
vn 0.579433 -0.790734 0.197475
vn 0.535327 -0.844460 -0.017658
vn 0.409721 -0.890007 -0.200038
vn 0.221740 -0.920441 -0.321901
vn 0.000000 -0.931128 -0.364693
vn -0.221740 -0.920441 -0.321901
vn -0.409721 -0.890007 -0.200038
vn -0.535327 -0.844460 -0.017658
vn -0.279294 -0.931489 0.233075
vn -0.246439 -0.959679 0.135220
vn -0.219686 -0.975420 0.017164
vn 0.101334 -0.994837 -0.005561
vn 0.219686 -0.975420 0.017164
vn 0.246319 -0.959769 0.134796
vn 0.279294 -0.931700 0.232230
vn 0.246439 -0.910574 0.331849
vn 0.219686 -0.868962 0.443444
vn -0.114079 -0.867847 0.483557
vn -0.235924 -0.857445 0.457304
vn -0.258752 -0.902807 0.343491
vn -0.191928 0.980221 -0.048284
vn -0.229769 0.905232 0.357436
vn 0.462824 0.615668 -0.637768
vn 0.552920 0.722022 -0.415890
vn 0.631719 0.752387 -0.186667
vn -0.631719 0.751808 -0.188984
vn -0.552390 0.721849 -0.416892
vn -0.462299 0.616408 -0.637433
vn -0.462824 0.843226 0.273430
vn -0.552920 0.832777 0.027601
vn 0.552390 0.833096 0.028566
vn 0.462299 0.843722 0.272787
# 178 normals

vt 0.186722 0.810267 0.000000
vt 0.191448 0.813582 0.000000
vt 0.188099 0.818342 0.000000
vt 0.183534 0.814962 0.000000
vt 0.175480 0.809913 0.000000
vt 0.178152 0.804262 0.000000
vt 0.196187 0.816913 0.000000
vt 0.194795 0.808845 0.000000
vt 0.199365 0.812222 0.000000
vt 0.207408 0.817265 0.000000
vt 0.204735 0.822904 0.000000
vt 0.192834 0.821488 0.000000
vt 0.200317 0.827329 0.000000
vt 0.516923 0.829342 0.000000
vt 0.511479 0.836935 0.000000
vt 0.519109 0.842342 0.000000
vt 0.524527 0.834750 0.000000
vt 0.534064 0.821498 0.000000
vt 0.524934 0.817351 0.000000
vt 0.513711 0.849947 0.000000
vt 0.504315 0.863291 0.000000
vt 0.513471 0.867312 0.000000
vt 0.521328 0.855298 0.000000
vt 0.526712 0.847731 0.000000
vt 0.506091 0.844566 0.000000
vt 0.532099 0.840168 0.000000
vt 0.593692 0.895227 0.000000
vt 0.566945 0.918960 0.000000
vt 0.592780 0.960536 0.000000
vt 0.631996 0.922388 0.000000
vt 0.294128 0.668543 0.000000
vt 0.341630 0.719648 0.000000
vt 0.308374 0.739994 0.000000
vt 0.271032 0.700583 0.000000
vt 0.282395 0.756451 0.000000
vt 0.253291 0.725833 0.000000
vt 0.254945 0.773723 0.000000
vt 0.235074 0.752103 0.000000
vt 0.232345 0.786629 0.000000
vt 0.219670 0.773684 0.000000
vt 0.218072 0.796336 0.000000
vt 0.209854 0.787513 0.000000
vt 0.533648 0.932375 0.000000
vt 0.541091 0.978635 0.000000
vt 0.364843 0.784165 0.000000
vt 0.328049 0.790288 0.000000
vt 0.296910 0.795688 0.000000
vt 0.265965 0.800762 0.000000
vt 0.239215 0.803983 0.000000
vt 0.222344 0.807736 0.000000
vt 0.497987 0.930131 0.000000
vt 0.486561 0.977437 0.000000
vt 0.363548 0.851810 0.000000
vt 0.325456 0.843644 0.000000
vt 0.296462 0.837177 0.000000
vt 0.265876 0.830355 0.000000
vt 0.238914 0.823227 0.000000
vt 0.221908 0.820054 0.000000
vt 0.465378 0.916028 0.000000
vt 0.437760 0.953580 0.000000
vt 0.337174 0.915802 0.000000
vt 0.303895 0.892434 0.000000
vt 0.279268 0.875342 0.000000
vt 0.253188 0.856948 0.000000
vt 0.231076 0.841398 0.000000
vt 0.216698 0.831310 0.000000
vt 0.442116 0.889335 0.000000
vt 0.400496 0.914307 0.000000
vt 0.285510 0.962509 0.000000
vt 0.265178 0.929484 0.000000
vt 0.248786 0.903831 0.000000
vt 0.232298 0.877669 0.000000
vt 0.216577 0.854882 0.000000
vt 0.207843 0.840008 0.000000
vt 0.429484 0.856706 0.000000
vt 0.383264 0.863056 0.000000
vt 0.222085 0.985658 0.000000
vt 0.215557 0.949062 0.000000
vt 0.210071 0.918989 0.000000
vt 0.204604 0.887564 0.000000
vt 0.198549 0.861710 0.000000
vt 0.196375 0.844591 0.000000
vt 0.430188 0.821521 0.000000
vt 0.386384 0.811334 0.000000
vt 0.154102 0.985953 0.000000
vt 0.161930 0.947962 0.000000
vt 0.168569 0.917353 0.000000
vt 0.175102 0.887493 0.000000
vt 0.179805 0.861212 0.000000
vt 0.184174 0.844439 0.000000
vt 0.444981 0.789788 0.000000
vt 0.406562 0.763867 0.000000
vt 0.089600 0.958892 0.000000
vt 0.113089 0.925549 0.000000
vt 0.129992 0.901465 0.000000
vt 0.148005 0.875253 0.000000
vt 0.163310 0.853568 0.000000
vt 0.173082 0.839687 0.000000
vt 0.470529 0.766337 0.000000
vt 0.444419 0.725917 0.000000
vt 0.042858 0.907715 0.000000
vt 0.075708 0.887389 0.000000
vt 0.101000 0.871079 0.000000
vt 0.127966 0.853724 0.000000
vt 0.150563 0.840666 0.000000
vt 0.164834 0.830887 0.000000
vt 0.502983 0.752649 0.000000
vt 0.494695 0.707171 0.000000
vt 0.019439 0.844946 0.000000
vt 0.056054 0.838041 0.000000
vt 0.086012 0.832336 0.000000
vt 0.116444 0.826677 0.000000
vt 0.143597 0.823298 0.000000
vt 0.160529 0.819482 0.000000
vt 0.538297 0.754121 0.000000
vt 0.548499 0.706958 0.000000
vt 0.017931 0.777167 0.000000
vt 0.057029 0.785039 0.000000
vt 0.086572 0.790905 0.000000
vt 0.117279 0.796996 0.000000
vt 0.143915 0.803998 0.000000
vt 0.160949 0.807138 0.000000
vt 0.571217 0.767420 0.000000
vt 0.597696 0.729167 0.000000
vt 0.045390 0.714359 0.000000
vt 0.077162 0.735418 0.000000
vt 0.102797 0.752517 0.000000
vt 0.129183 0.770011 0.000000
vt 0.151711 0.785739 0.000000
vt 0.166157 0.795846 0.000000
vt 0.595261 0.793549 0.000000
vt 0.636242 0.767281 0.000000
vt 0.093257 0.663464 0.000000
vt 0.116026 0.697799 0.000000
vt 0.132977 0.723259 0.000000
vt 0.150581 0.749590 0.000000
vt 0.166274 0.772207 0.000000
vt 0.175034 0.787121 0.000000
vt 0.609095 0.826426 0.000000
vt 0.655295 0.818234 0.000000
vt 0.159785 0.637843 0.000000
vt 0.166644 0.677288 0.000000
vt 0.172320 0.707698 0.000000
vt 0.178332 0.738959 0.000000
vt 0.184391 0.765336 0.000000
vt 0.186538 0.782532 0.000000
vt 0.607350 0.862214 0.000000
vt 0.655179 0.872883 0.000000
vt 0.230177 0.639777 0.000000
vt 0.221250 0.678453 0.000000
vt 0.214651 0.708650 0.000000
vt 0.208040 0.739861 0.000000
vt 0.203198 0.765962 0.000000
vt 0.198766 0.782719 0.000000
vt 0.576326 0.855378 0.000000
vt 0.567461 0.876626 0.000000
vt 0.577302 0.832459 0.000000
vt 0.569094 0.810920 0.000000
vt 0.553286 0.794117 0.000000
vt 0.532180 0.784757 0.000000
vt 0.509105 0.784038 0.000000
vt 0.487508 0.792243 0.000000
vt 0.470442 0.807891 0.000000
vt 0.461183 0.829100 0.000000
vt 0.460712 0.852118 0.000000
vt 0.468980 0.873582 0.000000
vt 0.484749 0.890388 0.000000
vt 0.505832 0.899766 0.000000
vt 0.528906 0.900424 0.000000
vt 0.550272 0.891968 0.000000
vt 0.540024 0.857170 0.000000
vt 0.532723 0.863922 0.000000
vt 0.523466 0.867533 0.000000
vt 0.497390 0.856056 0.000000
vt 0.493748 0.846713 0.000000
vt 0.493974 0.836657 0.000000
vt 0.498037 0.827411 0.000000
vt 0.505438 0.820534 0.000000
vt 0.514885 0.816998 0.000000
vt 0.540883 0.828806 0.000000
vt 0.544382 0.838155 0.000000
vt 0.544011 0.848068 0.000000
vt 0.190059 0.805641 0.000000
vt 0.182575 0.799822 0.000000
vt 0.194363 0.829775 0.000000
vt 0.187835 0.829732 0.000000
vt 0.181835 0.827244 0.000000
vt 0.201076 0.799931 0.000000
vt 0.205451 0.804734 0.000000
vt 0.207698 0.810855 0.000000
vt 0.188538 0.797369 0.000000
vt 0.195074 0.797423 0.000000
vt 0.177452 0.822451 0.000000
vt 0.175196 0.816331 0.000000
# 194 texture coordinates

o ??.2
usemtl ??
f 161/4/4 156/3/3 154/2/2 162/1/1
f 161/4/4 162/1/1 91/6/6 84/5/5
f 158/9/9 155/8/8 154/2/2 159/7/7
f 158/9/9 159/7/7 35/11/11 28/10/10
f 159/7/7 154/2/2 156/3/3 157/12/12
f 159/7/7 157/12/12 42/13/13 35/11/11
f 153/17/17 145/16/16 147/15/15 152/14/14
f 153/17/17 152/14/14 140/19/19 141/18/18
f 149/23/23 132/22/22 133/21/21 150/20/20
f 146/24/24 149/23/23 150/20/20 145/16/16
f 148/25/25 147/15/15 145/16/16 150/20/20
f 151/26/26 146/24/24 145/16/16 153/17/17
f 2/30/30 9/29/29 8/28/28 1/27/27
f 3/34/32 10/33/31 9/32/29 2/31/30
f 4/36/34 11/35/33 10/33/31 3/34/32
f 5/38/36 12/37/35 11/35/33 4/36/34
f 6/40/38 13/39/37 12/37/35 5/38/36
f 166/42/40 165/41/39 13/39/37 6/40/38
f 9/29/29 16/44/42 15/43/41 8/28/28
f 10/33/31 17/46/43 16/45/42 9/32/29
f 11/35/33 18/47/44 17/46/43 10/33/31
f 12/37/35 19/48/45 18/47/44 11/35/33
f 13/39/37 20/49/46 19/48/45 12/37/35
f 165/41/39 164/50/47 20/49/46 13/39/37
f 16/44/42 23/52/49 22/51/48 15/43/41
f 17/46/43 24/54/50 23/53/49 16/45/42
f 18/47/44 25/55/51 24/54/50 17/46/43
f 19/48/45 26/56/52 25/55/51 18/47/44
f 20/49/46 27/57/53 26/56/52 19/48/45
f 164/50/47 163/58/54 27/57/53 20/49/46
f 23/52/49 30/60/56 29/59/55 22/51/48
f 24/54/50 31/62/57 30/61/56 23/53/49
f 25/55/51 32/63/58 31/62/57 24/54/50
f 26/56/52 33/64/59 32/63/58 25/55/51
f 27/57/53 34/65/60 33/64/59 26/56/52
f 163/58/54 178/66/61 34/65/60 27/57/53
f 30/60/56 37/68/63 36/67/62 29/59/55
f 31/62/57 38/70/64 37/69/63 30/61/56
f 32/63/58 39/71/65 38/70/64 31/62/57
f 33/64/59 40/72/66 39/71/65 32/63/58
f 34/65/60 41/73/67 40/72/66 33/64/59
f 178/66/61 177/74/68 41/73/67 34/65/60
f 37/68/63 44/76/70 43/75/69 36/67/62
f 38/70/64 45/78/71 44/77/70 37/69/63
f 39/71/65 46/79/72 45/78/71 38/70/64
f 40/72/66 47/80/73 46/79/72 39/71/65
f 41/73/67 48/81/74 47/80/73 40/72/66
f 177/74/68 176/82/75 48/81/74 41/73/67
f 44/76/70 51/84/77 50/83/76 43/75/69
f 45/78/71 52/86/78 51/85/77 44/77/70
f 46/79/72 53/87/79 52/86/78 45/78/71
f 47/80/73 54/88/80 53/87/79 46/79/72
f 48/81/74 55/89/81 54/88/80 47/80/73
f 176/82/75 175/90/82 55/89/81 48/81/74
f 51/84/77 58/92/84 57/91/83 50/83/76
f 52/86/78 59/94/85 58/93/84 51/85/77
f 53/87/79 60/95/86 59/94/85 52/86/78
f 54/88/80 61/96/87 60/95/86 53/87/79
f 55/89/81 62/97/88 61/96/87 54/88/80
f 175/90/82 174/98/89 62/97/88 55/89/81
f 58/92/84 65/100/91 64/99/90 57/91/83
f 59/94/85 66/102/92 65/101/91 58/93/84
f 60/95/86 67/103/93 66/102/92 59/94/85
f 61/96/87 68/104/94 67/103/93 60/95/86
f 62/97/88 69/105/95 68/104/94 61/96/87
f 174/98/89 173/106/96 69/105/95 62/97/88
f 65/100/91 72/108/98 71/107/97 64/99/90
f 66/102/92 73/110/99 72/109/98 65/101/91
f 67/103/93 74/111/100 73/110/99 66/102/92
f 68/104/94 75/112/101 74/111/100 67/103/93
f 69/105/95 76/113/102 75/112/101 68/104/94
f 173/106/96 172/114/103 76/113/102 69/105/95
f 72/108/98 79/116/105 78/115/104 71/107/97
f 73/110/99 80/118/106 79/117/105 72/109/98
f 74/111/100 81/119/107 80/118/106 73/110/99
f 75/112/101 82/120/108 81/119/107 74/111/100
f 76/113/102 83/121/109 82/120/108 75/112/101
f 172/114/103 171/122/110 83/121/109 76/113/102
f 79/116/105 86/124/112 85/123/111 78/115/104
f 80/118/106 87/126/113 86/125/112 79/117/105
f 81/119/107 88/127/114 87/126/113 80/118/106
f 82/120/108 89/128/115 88/127/114 81/119/107
f 83/121/109 90/129/116 89/128/115 82/120/108
f 171/122/110 170/130/117 90/129/116 83/121/109
f 86/124/112 93/132/119 92/131/118 85/123/111
f 87/126/113 94/134/120 93/133/119 86/125/112
f 88/127/114 95/135/121 94/134/120 87/126/113
f 89/128/115 96/136/122 95/135/121 88/127/114
f 90/129/116 97/137/123 96/136/122 89/128/115
f 170/130/117 169/138/124 97/137/123 90/129/116
f 93/132/119 100/140/126 99/139/125 92/131/118
f 94/134/120 101/142/127 100/141/126 93/133/119
f 95/135/121 102/143/128 101/142/127 94/134/120
f 96/136/122 103/144/129 102/143/128 95/135/121
f 97/137/123 104/145/130 103/144/129 96/136/122
f 169/138/124 168/146/131 104/145/130 97/137/123
f 100/140/126 107/148/133 106/147/132 99/139/125
f 101/142/127 108/150/134 107/149/133 100/141/126
f 102/143/128 109/151/135 108/150/134 101/142/127
f 103/144/129 110/152/136 109/151/135 102/143/128
f 104/145/130 111/153/137 110/152/136 103/144/129
f 168/146/131 167/154/138 111/153/137 104/145/130
f 107/148/133 2/30/30 1/27/27 106/147/132
f 108/150/134 3/34/32 2/31/30 107/149/133
f 109/151/135 4/36/34 3/34/32 108/150/134
f 110/152/136 5/38/36 4/36/34 109/151/135
f 111/153/137 6/40/38 5/38/36 110/152/136
f 167/154/138 166/42/40 6/40/38 111/153/137
f 113/156/140 114/155/139 106/147/132 1/27/27
f 114/155/139 115/157/141 99/139/125 106/147/132
f 115/157/141 116/158/142 92/131/118 99/139/125
f 116/158/142 117/159/143 85/123/111 92/131/118
f 117/159/143 118/160/144 78/115/104 85/123/111
f 118/160/144 119/161/145 71/107/97 78/115/104
f 119/161/145 120/162/146 64/99/90 71/107/97
f 120/162/146 121/163/147 57/91/83 64/99/90
f 121/163/147 122/164/148 50/83/76 57/91/83
f 122/164/148 123/165/149 43/75/69 50/83/76
f 123/165/149 124/166/150 36/67/62 43/75/69
f 124/166/150 125/167/151 29/59/55 36/67/62
f 125/167/151 126/168/152 22/51/48 29/59/55
f 126/168/152 127/169/153 15/43/41 22/51/48
f 127/169/153 128/170/154 8/28/28 15/43/41
f 128/170/154 113/156/140 1/27/27 8/28/28
f 129/172/156 130/171/155 113/156/140 128/170/154
f 131/173/157 129/172/156 128/170/154 127/169/153
f 132/22/22 131/173/157 127/169/153 126/168/152
f 133/21/21 132/22/22 126/168/152 125/167/151
f 134/174/158 133/21/21 125/167/151 124/166/150
f 135/175/159 134/174/158 124/166/150 123/165/149
f 136/176/160 135/175/159 123/165/149 122/164/148
f 137/177/161 136/176/160 122/164/148 121/163/147
f 138/178/162 137/177/161 121/163/147 120/162/146
f 139/179/163 138/178/162 120/162/146 119/161/145
f 140/19/19 139/179/163 119/161/145 118/160/144
f 141/18/18 140/19/19 118/160/144 117/159/143
f 142/180/164 141/18/18 117/159/143 116/158/142
f 143/181/165 142/180/164 116/158/142 115/157/141
f 144/182/166 143/181/165 115/157/141 114/155/139
f 130/171/155 144/182/166 114/155/139 113/156/140
f 148/25/25 150/20/20 133/21/21 134/174/158
f 151/26/26 153/17/17 141/18/18 142/180/164
f 147/15/15 148/25/25 136/176/160 137/177/161
f 148/25/25 134/174/158 135/175/159 136/176/160
f 149/23/23 129/172/156 131/173/157 132/22/22
f 149/23/23 146/24/24 130/171/155 129/172/156
f 144/182/166 151/26/26 142/180/164 143/181/165
f 144/182/166 130/171/155 146/24/24 151/26/26
f 152/14/14 138/178/162 139/179/163 140/19/19
f 152/14/14 147/15/15 137/177/161 138/178/162
f 162/1/1 154/2/2 155/8/8 160/183/167
f 162/1/1 160/183/167 98/184/168 91/6/6
f 157/12/12 56/186/170 49/185/169 42/13/13
f 157/12/12 156/3/3 63/187/171 56/186/170
f 155/8/8 158/9/9 14/189/173 7/188/172
f 158/9/9 28/10/10 21/190/174 14/189/173
f 160/183/167 112/192/176 105/191/175 98/184/168
f 160/183/167 155/8/8 7/188/172 112/192/176
f 156/3/3 161/4/4 70/193/177 63/187/171
f 161/4/4 84/5/5 77/194/178 70/193/177
f 21/190/174 28/10/10 163/58/54 164/50/47
f 14/189/173 21/190/174 164/50/47 165/41/39
f 7/188/172 14/189/173 165/41/39 166/42/40
f 112/192/176 7/188/172 166/42/40 167/154/138
f 105/191/175 112/192/176 167/154/138 168/146/131
f 98/184/168 105/191/175 168/146/131 169/138/124
f 91/6/6 98/184/168 169/138/124 170/130/117
f 84/5/5 91/6/6 170/130/117 171/122/110
f 77/194/178 84/5/5 171/122/110 172/114/103
f 70/193/177 77/194/178 172/114/103 173/106/96
f 63/187/171 70/193/177 173/106/96 174/98/89
f 56/186/170 63/187/171 174/98/89 175/90/82
f 49/185/169 56/186/170 175/90/82 176/82/75
f 42/13/13 49/185/169 176/82/75 177/74/68
f 35/11/11 42/13/13 177/74/68 178/66/61
f 28/10/10 35/11/11 178/66/61 163/58/54

