# Blender 4.0.2
# www.blender.org
mtllib Eyes2.mtl
o Chef_Penguin_Blue
v 0.112035 0.922769 0.379436
v 0.114086 0.922488 0.373871
v 0.120512 0.928154 0.366353
v 0.113216 0.916568 0.374773
v 0.122160 0.931743 0.372033
v 0.136126 0.933108 0.354214
v 0.111421 0.915942 0.381158
v 0.118665 0.912859 0.373135
v 0.138636 0.938081 0.361389
v 0.153267 0.934724 0.343475
v 0.117374 0.923642 0.380752
v 0.156152 0.940512 0.350891
v 0.175805 0.934890 0.330544
v 0.180128 0.940910 0.337223
v 0.196418 0.931718 0.319015
v 0.201975 0.937298 0.324593
v 0.217571 0.926641 0.305655
v 0.223856 0.932114 0.310986
v 0.236648 0.919507 0.292973
v 0.243313 0.924648 0.297958
v 0.253436 0.911619 0.281054
v 0.259972 0.916219 0.285831
v 0.270072 0.901244 0.271299
v 0.275405 0.904838 0.274829
v 0.278344 0.894409 0.268964
v 0.161899 0.938060 0.358715
v 0.186012 0.938067 0.345425
v 0.207599 0.934355 0.332628
v 0.229015 0.929440 0.319453
v 0.247947 0.922473 0.306507
v 0.264424 0.914590 0.294064
v 0.278714 0.903673 0.281539
v 0.284696 0.894341 0.269324
v 0.284703 0.887210 0.271236
v 0.277932 0.888273 0.269654
v 0.278038 0.884135 0.278124
v 0.273587 0.885643 0.275701
v 0.267317 0.885801 0.287544
v 0.264006 0.886966 0.280834
v 0.251112 0.890345 0.300443
v 0.246719 0.891959 0.292125
v 0.235186 0.895383 0.312218
v 0.230668 0.897520 0.303597
v 0.219482 0.899535 0.323433
v 0.214422 0.902160 0.314931
v 0.202241 0.903206 0.334422
v 0.196748 0.906103 0.326311
v 0.186096 0.905685 0.343337
v 0.180369 0.908477 0.335129
v 0.167600 0.907555 0.352525
v 0.161870 0.910007 0.344691
v 0.149632 0.909005 0.361390
v 0.144413 0.911142 0.354077
v 0.130374 0.910530 0.371319
v 0.126674 0.912244 0.365817
v 0.118230 0.911712 0.378139
v 0.132021 0.914119 0.377000
v 0.152213 0.914036 0.368731
v 0.170468 0.913343 0.359950
v 0.190397 0.911632 0.350016
v 0.117048 0.917913 0.382803
v 0.121952 0.914013 0.380017
v 0.129832 0.922387 0.379131
v 0.125862 0.930030 0.377534
v 0.149322 0.925635 0.370983
v 0.143742 0.936050 0.368644
v 0.167619 0.926258 0.361875
v 0.189939 0.925339 0.350198
v 0.207669 0.908831 0.340076
v 0.209476 0.922040 0.338634
v 0.225600 0.905049 0.328847
v 0.229169 0.917716 0.326478
v 0.241736 0.900561 0.317275
v 0.246706 0.912018 0.314159
v 0.257631 0.894998 0.305229
v 0.262636 0.905375 0.301855
v 0.272649 0.889394 0.291074
v 0.277123 0.896939 0.288013
v 0.279202 0.887220 0.282353
v 0.284802 0.890203 0.277793
v 0.283958 0.895987 0.275616
v -0.112035 0.922769 0.379436
v -0.120512 0.928154 0.366353
v -0.114086 0.922488 0.373871
v -0.113216 0.916568 0.374773
v -0.122160 0.931743 0.372033
v -0.136126 0.933108 0.354214
v -0.111421 0.915942 0.381158
v -0.118665 0.912859 0.373135
v -0.138636 0.938081 0.361389
v -0.153267 0.934724 0.343475
v -0.117374 0.923642 0.380752
v -0.156152 0.940512 0.350891
v -0.175805 0.934890 0.330544
v -0.180128 0.940910 0.337223
v -0.196418 0.931718 0.319015
v -0.201975 0.937298 0.324593
v -0.217571 0.926641 0.305655
v -0.223856 0.932114 0.310986
v -0.236648 0.919507 0.292973
v -0.243313 0.924648 0.297958
v -0.253436 0.911619 0.281054
v -0.259972 0.916219 0.285831
v -0.270072 0.901244 0.271299
v -0.275405 0.904838 0.274829
v -0.278344 0.894409 0.268964
v -0.161899 0.938060 0.358715
v -0.186012 0.938067 0.345425
v -0.207599 0.934355 0.332628
v -0.229015 0.929440 0.319453
v -0.247947 0.922473 0.306507
v -0.264424 0.914590 0.294064
v -0.278714 0.903673 0.281539
v -0.143742 0.936050 0.368644
v -0.284696 0.894341 0.269324
v -0.125862 0.930030 0.377534
v -0.284703 0.887210 0.271236
v -0.277932 0.888273 0.269654
v -0.117048 0.917913 0.382803
v -0.278038 0.884135 0.278124
v -0.273587 0.885643 0.275701
v -0.118230 0.911712 0.378139
v -0.267317 0.885801 0.287544
v -0.264006 0.886966 0.280834
v -0.130374 0.910530 0.371319
v -0.126674 0.912244 0.365817
v -0.144413 0.911142 0.354077
v -0.149632 0.909005 0.361390
v -0.161870 0.910007 0.344691
v -0.132021 0.914119 0.377000
v -0.121952 0.914013 0.380017
v -0.129832 0.922387 0.379131
v -0.167600 0.907555 0.352525
v -0.180369 0.908477 0.335129
v -0.152213 0.914036 0.368731
v -0.149322 0.925635 0.370983
v -0.186096 0.905685 0.343337
v -0.196748 0.906103 0.326311
v -0.170468 0.913343 0.359950
v -0.167619 0.926258 0.361875
v -0.202241 0.903206 0.334422
v -0.214422 0.902160 0.314931
v -0.190397 0.911632 0.350016
v -0.189939 0.925339 0.350198
v -0.219482 0.899535 0.323433
v -0.230668 0.897520 0.303597
v -0.207669 0.908831 0.340076
v -0.209476 0.922040 0.338634
v -0.235186 0.895383 0.312218
v -0.246719 0.891959 0.292125
v -0.225600 0.905049 0.328847
v -0.229169 0.917716 0.326478
v -0.251112 0.890345 0.300443
v -0.241736 0.900561 0.317275
v -0.246706 0.912018 0.314159
v -0.257631 0.894998 0.305229
v -0.262636 0.905375 0.301855
v -0.272649 0.889394 0.291074
v -0.277123 0.896939 0.288013
v -0.279202 0.887220 0.282353
v -0.284802 0.890203 0.277793
v -0.283958 0.895987 0.275616
vn -0.5899 0.7403 -0.3225
vn -0.8289 0.4941 -0.2622
vn -0.7812 0.5557 0.2844
vn -0.7812 0.5557 0.2845
vn -0.8290 0.4941 -0.2621
vn -0.8503 -0.4323 -0.3002
vn -0.4301 0.9008 0.0602
vn -0.5899 0.7403 -0.3224
vn -0.4376 0.7983 -0.4138
vn -0.7948 -0.3933 0.4622
vn -0.3248 -0.9228 -0.2074
vn -0.2662 0.9627 -0.0490
vn -0.2663 0.9627 -0.0490
vn -0.3317 0.8042 -0.4932
vn -0.1142 0.5341 0.8376
vn -0.1142 0.5342 0.8376
vn -0.1358 0.9827 -0.1261
vn -0.1358 0.9827 -0.1262
vn -0.2576 0.7963 -0.5473
vn -0.0310 0.9842 -0.1744
vn -0.0310 0.9842 -0.1745
vn -0.1951 0.7859 -0.5868
vn 0.0569 0.9718 -0.2290
vn 0.0570 0.9718 -0.2290
vn -0.1592 0.7766 -0.6096
vn 0.1106 0.9548 -0.2760
vn 0.1106 0.9548 -0.2759
vn -0.1109 0.7653 -0.6340
vn 0.1690 0.9277 -0.3329
vn -0.1109 0.7654 -0.6340
vn -0.0434 0.7374 -0.6741
vn 0.1691 0.9277 -0.3329
vn 0.2443 0.8819 -0.4032
vn 0.0450 0.6555 -0.7539
vn 0.2442 0.8819 -0.4032
vn 0.3542 0.7966 -0.4898
vn 0.0450 0.6555 -0.7538
vn 0.1347 0.3337 -0.9330
vn 0.3543 0.7966 -0.4898
vn 0.2952 0.7372 0.6078
vn 0.3783 0.7352 0.5624
vn -0.1357 0.9827 -0.1261
vn 0.2951 0.7372 0.6078
vn 0.4563 0.7262 0.5142
vn 0.3783 0.7353 0.5624
vn 0.5160 0.7187 0.4660
vn 0.5160 0.7187 0.4661
vn 0.5867 0.7013 0.4049
vn 0.6677 0.6679 0.3287
vn 0.7597 0.6056 0.2369
vn 0.7597 0.6057 0.2368
vn 0.6650 0.3645 -0.6519
vn 0.6649 0.3645 -0.6519
vn 0.6638 -0.6222 -0.4150
vn 0.0301 -0.6637 -0.7474
vn 0.6638 -0.6223 -0.4150
vn 0.1967 -0.9783 0.0653
vn -0.1632 -0.9627 -0.2159
vn 0.1966 -0.9783 0.0653
vn -0.0286 -0.9670 0.2532
vn -0.2684 -0.9620 -0.0503
vn -0.0286 -0.9670 0.2533
vn -0.0748 -0.9550 0.2871
vn -0.3139 -0.9490 -0.0297
vn -0.0749 -0.9550 0.2871
vn -0.3139 -0.9490 -0.0296
vn -0.0812 -0.9561 0.2815
vn -0.3277 -0.9431 -0.0571
vn -0.0813 -0.9561 0.2815
vn -0.0595 -0.9638 0.2599
vn -0.3044 -0.9464 -0.1081
vn -0.0357 -0.9697 0.2419
vn -0.2633 -0.9528 -0.1511
vn -0.3044 -0.9464 -0.1082
vn 0.0004 -0.9742 0.2256
vn -0.2056 -0.9621 -0.1790
vn -0.2632 -0.9528 -0.1511
vn 0.0003 -0.9742 0.2256
vn -0.2057 -0.9621 -0.1792
vn 0.0192 -0.9789 0.2035
vn -0.1718 -0.9684 -0.1808
vn 0.0191 -0.9789 0.2035
vn -0.1718 -0.9684 -0.1809
vn 0.0192 -0.9789 0.2036
vn 0.0201 -0.9826 0.1847
vn -0.1662 -0.9704 -0.1750
vn 0.0202 -0.9826 0.1847
vn 0.0071 -0.9839 0.1785
vn -0.1836 -0.9667 -0.1783
vn 0.0072 -0.9839 0.1785
vn -0.2017 -0.9443 0.2601
vn -0.2016 -0.9443 0.2601
vn 0.3292 -0.4589 0.8252
vn -0.2017 -0.9443 0.2602
vn 0.3637 -0.4412 0.8204
vn 0.0191 -0.9789 0.2036
vn 0.0003 -0.9742 0.2257
vn 0.3906 -0.3841 0.8366
vn 0.3905 -0.3841 0.8366
vn 0.4158 -0.3431 0.8422
vn 0.0545 -0.0447 0.9975
vn -0.7948 -0.3932 0.4622
vn 0.3292 -0.4590 0.8252
vn 0.2376 -0.5190 0.8211
vn 0.3254 0.1297 0.9367
vn 0.3253 0.1297 0.9367
vn 0.0670 0.6568 0.7511
vn 0.3996 0.1711 0.9006
vn 0.3906 -0.3842 0.8366
vn 0.0669 0.6568 0.7511
vn 0.1989 0.7105 0.6750
vn 0.0670 0.6568 0.7510
vn -0.2663 0.9626 -0.0490
vn 0.2951 0.7372 0.6079
vn 0.4458 0.2188 0.8680
vn 0.1989 0.7104 0.6751
vn 0.4158 -0.3431 0.8423
vn 0.4458 0.2187 0.8680
vn 0.4895 0.2423 0.8377
vn 0.4895 0.2422 0.8377
vn 0.3784 0.7353 0.5624
vn 0.4389 -0.3365 0.8332
vn 0.4388 -0.3365 0.8332
vn -0.0357 -0.9696 0.2419
vn 0.4388 -0.3364 0.8332
vn 0.5363 0.2476 0.8069
vn 0.4564 -0.3529 0.8168
vn 0.5788 0.2350 0.7809
vn 0.4565 -0.3529 0.8168
vn 0.4652 -0.3862 0.7965
vn 0.5788 0.2351 0.7809
vn 0.6286 0.2092 0.7490
vn 0.5867 0.7013 0.4048
vn 0.4863 -0.4230 0.7646
vn 0.6287 0.2092 0.7490
vn 0.6869 0.1741 0.7056
vn 0.5440 -0.4534 0.7060
vn 0.7597 0.1240 0.6383
vn 0.6055 -0.5548 0.5706
vn 0.6055 -0.5548 0.5705
vn 0.7598 0.1240 0.6383
vn 0.6056 -0.5548 0.5706
vn 0.6056 -0.5548 0.5705
vn 0.8949 -0.1498 0.4205
vn 0.8949 -0.1498 0.4204
vn 0.7597 0.6056 0.2368
vn 0.8897 0.4347 0.1392
vn 0.8898 0.4347 0.1392
vn 0.8290 0.4941 -0.2621
vn 0.5899 0.7403 -0.3224
vn 0.7812 0.5557 0.2844
vn 0.7812 0.5557 0.2845
vn 0.8503 -0.4323 -0.3002
vn 0.5899 0.7403 -0.3225
vn 0.4301 0.9008 0.0602
vn 0.4376 0.7983 -0.4138
vn 0.7948 -0.3933 0.4622
vn 0.3248 -0.9228 -0.2074
vn 0.2663 0.9627 -0.0490
vn 0.3317 0.8042 -0.4932
vn 0.1142 0.5341 0.8376
vn 0.1142 0.5342 0.8376
vn 0.1358 0.9827 -0.1261
vn 0.1358 0.9827 -0.1262
vn 0.2576 0.7963 -0.5473
vn 0.0310 0.9842 -0.1744
vn 0.1951 0.7859 -0.5868
vn -0.0569 0.9718 -0.2290
vn 0.1592 0.7766 -0.6096
vn -0.1106 0.9548 -0.2759
vn -0.0570 0.9718 -0.2290
vn 0.1109 0.7653 -0.6340
vn -0.1690 0.9277 -0.3329
vn 0.1109 0.7654 -0.6340
vn 0.0434 0.7374 -0.6741
vn -0.2443 0.8819 -0.4032
vn -0.1691 0.9277 -0.3329
vn -0.0450 0.6555 -0.7539
vn -0.3542 0.7966 -0.4898
vn -0.2442 0.8819 -0.4032
vn -0.0450 0.6555 -0.7538
vn -0.1347 0.3337 -0.9330
vn -0.2951 0.7372 0.6079
vn 0.2662 0.9627 -0.0490
vn -0.3783 0.7352 0.5624
vn 0.1357 0.9827 -0.1261
vn -0.2951 0.7372 0.6078
vn -0.4563 0.7262 0.5142
vn -0.3783 0.7353 0.5624
vn -0.5160 0.7187 0.4660
vn -0.5160 0.7187 0.4661
vn -0.5867 0.7013 0.4049
vn -0.1106 0.9548 -0.2760
vn -0.6677 0.6679 0.3287
vn -0.3543 0.7966 -0.4898
vn -0.7597 0.6056 0.2369
vn -0.7597 0.6057 0.2368
vn -0.1989 0.7105 0.6750
vn 0.2663 0.9626 -0.0490
vn -0.6650 0.3645 -0.6519
vn -0.0669 0.6568 0.7510
vn -0.0670 0.6568 0.7510
vn -0.6649 0.3645 -0.6519
vn -0.6638 -0.6222 -0.4150
vn -0.0301 -0.6637 -0.7474
vn -0.6638 -0.6223 -0.4150
vn -0.0670 0.6568 0.7511
vn -0.0545 -0.0447 0.9975
vn 0.7948 -0.3932 0.4622
vn -0.1966 -0.9783 0.0653
vn 0.1632 -0.9627 -0.2159
vn 0.2017 -0.9443 0.2601
vn 0.2016 -0.9443 0.2601
vn 0.0286 -0.9670 0.2532
vn 0.2684 -0.9620 -0.0503
vn 0.0286 -0.9670 0.2533
vn -0.0071 -0.9839 0.1785
vn -0.0072 -0.9839 0.1785
vn 0.1836 -0.9667 -0.1783
vn 0.1662 -0.9704 -0.1750
vn -0.0201 -0.9826 0.1847
vn 0.1718 -0.9684 -0.1809
vn -0.3292 -0.4589 0.8252
vn 0.2017 -0.9443 0.2602
vn -0.2376 -0.5190 0.8211
vn -0.3253 0.1297 0.9367
vn -0.3254 0.1297 0.9367
vn -0.0192 -0.9789 0.2036
vn 0.2057 -0.9621 -0.1792
vn -0.0191 -0.9789 0.2035
vn -0.3637 -0.4412 0.8204
vn -0.0202 -0.9826 0.1847
vn -0.0191 -0.9789 0.2036
vn -0.3996 0.1711 0.9006
vn -0.0003 -0.9742 0.2256
vn -0.0192 -0.9789 0.2035
vn 0.2632 -0.9528 -0.1511
vn -0.3905 -0.3841 0.8366
vn -0.3905 -0.3842 0.8366
vn -0.0003 -0.9742 0.2257
vn -0.3906 -0.3841 0.8366
vn -0.4458 0.2188 0.8680
vn -0.1989 0.7104 0.6751
vn 0.0357 -0.9697 0.2419
vn 0.2633 -0.9528 -0.1511
vn -0.0004 -0.9742 0.2256
vn 0.3044 -0.9464 -0.1081
vn -0.4156 -0.3431 0.8424
vn -0.4158 -0.3431 0.8423
vn -0.4158 -0.3431 0.8422
vn -0.4895 0.2423 0.8377
vn -0.3784 0.7352 0.5624
vn -0.4895 0.2422 0.8377
vn 0.0595 -0.9638 0.2599
vn 0.3277 -0.9431 -0.0571
vn -0.4388 -0.3365 0.8332
vn 0.0357 -0.9697 0.2418
vn -0.4389 -0.3365 0.8332
vn 0.0357 -0.9696 0.2419
vn -0.4388 -0.3364 0.8332
vn -0.5363 0.2476 0.8069
vn 0.0812 -0.9561 0.2815
vn 0.3139 -0.9490 -0.0297
vn 0.0813 -0.9561 0.2815
vn -0.4564 -0.3529 0.8168
vn -0.5788 0.2350 0.7809
vn -0.4565 -0.3529 0.8168
vn 0.0748 -0.9550 0.2871
vn 0.3139 -0.9490 -0.0296
vn 0.0749 -0.9550 0.2871
vn -0.4652 -0.3862 0.7965
vn -0.5788 0.2351 0.7809
vn -0.6287 0.2092 0.7490
vn -0.6286 0.2092 0.7490
vn -0.5867 0.7013 0.4048
vn -0.4863 -0.4230 0.7646
vn -0.6869 0.1741 0.7056
vn -0.5440 -0.4534 0.7060
vn -0.7597 0.1240 0.6383
vn -0.7596 0.6057 0.2369
vn -0.6055 -0.5548 0.5706
vn -0.6056 -0.5548 0.5705
vn -0.7598 0.1240 0.6383
vn -0.6056 -0.5548 0.5706
vn -0.8949 -0.1498 0.4205
vn -0.8949 -0.1498 0.4204
vn -0.7597 0.6056 0.2368
vn -0.8898 0.4347 0.1392
vt 0.778320 0.361328
vt 0.776367 0.358154
vt 0.776856 0.357178
vt 0.776367 0.355469
vt 0.779297 0.360107
vt 0.783203 0.364502
vt 0.777344 0.355957
vt 0.777832 0.353516
vt 0.783691 0.362305
vt 0.788574 0.365967
vt 0.778320 0.357422
vt 0.788574 0.363525
vt 0.794922 0.366943
vt 0.795410 0.364502
vt 0.801269 0.366943
vt 0.801758 0.364502
vt 0.807617 0.366943
vt 0.808106 0.364502
vt 0.813965 0.366455
vt 0.813965 0.364014
vt 0.819824 0.365478
vt 0.819336 0.363281
vt 0.825684 0.362793
vt 0.824707 0.361328
vt 0.827637 0.359619
vt 0.789551 0.361328
vt 0.795898 0.362060
vt 0.801758 0.362060
vt 0.808106 0.362060
vt 0.813477 0.361572
vt 0.818848 0.361084
vt 0.823731 0.359863
vt 0.827148 0.358887
vt 0.826660 0.357422
vt 0.828125 0.356934
vt 0.825684 0.355469
vt 0.826172 0.354492
vt 0.822266 0.354004
vt 0.823242 0.352295
vt 0.817383 0.353272
vt 0.817871 0.350830
vt 0.812012 0.353027
vt 0.812500 0.350586
vt 0.807129 0.353027
vt 0.807129 0.350586
vt 0.801758 0.353027
vt 0.801758 0.350586
vt 0.797363 0.352783
vt 0.796875 0.350342
vt 0.791992 0.352539
vt 0.791504 0.350342
vt 0.787109 0.352539
vt 0.786621 0.350342
vt 0.781250 0.353027
vt 0.780762 0.351562
vt 0.778320 0.354492
vt 0.781738 0.354736
vt 0.786621 0.354736
vt 0.791504 0.354980
vt 0.796875 0.355225
vt 0.778320 0.356201
vt 0.779297 0.354980
vt 0.781250 0.356934
vt 0.780273 0.358643
vt 0.785644 0.357666
vt 0.784668 0.360352
vt 0.790527 0.358154
vt 0.796387 0.358643
vt 0.802246 0.355469
vt 0.802246 0.358643
vt 0.807129 0.355469
vt 0.807617 0.358643
vt 0.812012 0.355469
vt 0.812988 0.358398
vt 0.817383 0.355469
vt 0.817871 0.358154
vt 0.822266 0.355713
vt 0.822754 0.357666
vt 0.824707 0.356201
vt 0.825684 0.357422
vt 0.825684 0.358643
s 0
usemtl æè´¨
f 3/1/1 2/2/2 1/3/3
f 1/3/4 2/2/5 4/4/6
f 5/5/7 3/1/1 1/3/3
f 3/1/8 5/5/7 6/6/9
f 7/7/10 1/3/3 4/4/6
f 7/7/10 4/4/6 8/8/11
f 5/5/7 9/9/12 6/6/9
f 6/6/9 9/9/13 10/10/14
f 5/5/7 1/3/3 11/11/15
f 11/11/16 1/3/3 7/7/10
f 9/9/13 12/12/17 10/10/14
f 10/10/14 12/12/18 13/13/19
f 12/12/17 14/14/20 13/13/19
f 13/13/19 14/14/21 15/15/22
f 14/14/20 16/16/23 15/15/22
f 15/15/22 16/16/24 17/17/25
f 16/16/24 18/18/26 17/17/25
f 17/17/25 18/18/27 19/19/28
f 18/18/27 20/20/29 19/19/28
f 19/19/30 20/20/29 21/21/31
f 20/20/32 22/22/33 21/21/31
f 21/21/31 22/22/33 23/23/34
f 22/22/35 24/24/36 23/23/37
f 25/25/38 23/23/34 24/24/39
f 26/26/40 12/12/17 9/9/12
f 27/27/41 14/14/20 12/12/42
f 26/26/43 27/27/41 12/12/42
f 28/28/44 16/16/23 14/14/20
f 27/27/45 28/28/44 14/14/20
f 29/29/46 18/18/27 16/16/24
f 28/28/44 29/29/47 16/16/24
f 30/30/48 20/20/32 18/18/26
f 29/29/47 30/30/48 18/18/27
f 31/31/49 22/22/33 20/20/29
f 30/30/48 31/31/49 20/20/29
f 32/32/50 24/24/39 22/22/35
f 31/31/49 32/32/51 22/22/33
f 33/33/52 25/25/38 24/24/39
f 33/33/52 24/24/39 32/32/50
f 25/25/38 33/33/53 34/34/54
f 35/35/55 25/25/38 34/34/56
f 35/35/55 34/34/54 36/36/57
f 37/37/58 35/35/55 36/36/59
f 37/37/58 36/36/59 38/38/60
f 39/39/61 37/37/58 38/38/62
f 39/39/61 38/38/60 40/40/63
f 41/41/64 39/39/61 40/40/65
f 41/41/66 40/40/63 42/42/67
f 43/43/68 41/41/64 42/42/69
f 43/43/68 42/42/67 44/44/70
f 45/45/71 43/43/68 44/44/70
f 45/45/71 44/44/70 46/46/72
f 47/47/73 45/45/74 46/46/72
f 47/47/73 46/46/72 48/48/75
f 49/49/76 47/47/77 48/48/78
f 49/49/79 48/48/78 50/50/80
f 51/51/81 49/49/79 50/50/82
f 51/51/83 50/50/84 52/52/85
f 53/53/86 51/51/83 52/52/87
f 53/53/86 52/52/85 54/54/88
f 55/55/89 53/53/86 54/54/88
f 55/55/89 54/54/90 8/8/11
f 54/54/88 56/56/91 8/8/11
f 56/56/92 7/7/10 8/8/11
f 54/54/88 52/52/85 57/57/93
f 54/54/90 57/57/93 56/56/94
f 52/52/85 50/50/82 58/58/95
f 52/52/87 58/58/95 57/57/93
f 50/50/96 48/48/97 59/59/98
f 50/50/96 59/59/99 58/58/95
f 48/48/75 46/46/72 60/60/100
f 48/48/78 60/60/100 59/59/99
f 61/61/101 7/7/102 56/56/91
f 61/61/101 11/11/15 7/7/102
f 57/57/103 62/62/104 56/56/91
f 62/62/104 61/61/101 56/56/91
f 57/57/93 63/63/105 62/62/104
f 57/57/93 58/58/95 63/63/105
f 63/63/106 61/61/101 62/62/104
f 64/64/107 11/11/16 61/61/101
f 63/63/105 64/64/107 61/61/101
f 64/64/107 5/5/7 11/11/16
f 58/58/95 65/65/108 63/63/106
f 58/58/95 59/59/109 65/65/108
f 63/63/105 65/65/108 64/64/107
f 64/64/110 66/66/111 5/5/7
f 65/65/108 66/66/111 64/64/112
f 66/66/111 9/9/113 5/5/7
f 66/66/111 26/26/114 9/9/113
f 59/59/98 67/67/115 65/65/108
f 65/65/108 67/67/115 66/66/111
f 67/67/115 26/26/114 66/66/116
f 59/59/98 60/60/117 67/67/115
f 67/67/118 68/68/119 26/26/43
f 60/60/100 68/68/119 67/67/115
f 68/68/120 27/27/121 26/26/114
f 60/60/100 69/69/122 68/68/120
f 46/46/72 69/69/123 60/60/100
f 46/46/124 44/44/70 69/69/125
f 68/68/119 70/70/126 27/27/45
f 69/69/122 70/70/126 68/68/120
f 70/70/126 28/28/44 27/27/45
f 44/44/70 71/71/127 69/69/122
f 69/69/123 71/71/127 70/70/126
f 44/44/70 42/42/69 71/71/127
f 70/70/126 72/72/128 28/28/44
f 71/71/129 72/72/128 70/70/126
f 72/72/128 29/29/46 28/28/44
f 42/42/67 73/73/130 71/71/129
f 71/71/129 73/73/130 72/72/131
f 42/42/67 40/40/63 73/73/130
f 72/72/128 74/74/132 29/29/46
f 73/73/130 74/74/132 72/72/128
f 74/74/132 30/30/133 29/29/46
f 40/40/63 75/75/134 73/73/130
f 73/73/130 75/75/134 74/74/132
f 40/40/65 38/38/60 75/75/134
f 74/74/135 76/76/136 30/30/48
f 75/75/134 76/76/136 74/74/132
f 76/76/136 31/31/49 30/30/48
f 38/38/60 77/77/137 75/75/134
f 75/75/134 77/77/137 76/76/136
f 38/38/60 36/36/59 77/77/137
f 76/76/136 78/78/138 31/31/49
f 77/77/137 78/78/138 76/76/136
f 78/78/138 32/32/50 31/31/49
f 36/36/59 79/79/139 77/77/137
f 77/77/137 79/79/140 78/78/141
f 36/36/59 34/34/56 79/79/142
f 79/79/143 80/80/144 78/78/138
f 34/34/56 80/80/145 79/79/139
f 78/78/138 80/80/145 32/32/146
f 34/34/54 33/33/52 80/80/145
f 81/81/147 33/33/53 32/32/146
f 33/33/53 81/81/147 80/80/145
f 80/80/145 81/81/148 32/32/146
f 84/2/149 83/1/150 82/3/151
f 84/2/149 82/3/152 85/4/153
f 83/1/154 86/5/155 82/3/151
f 86/5/155 83/1/150 87/6/156
f 82/3/151 88/7/157 85/4/153
f 85/4/153 88/7/157 89/8/158
f 90/9/159 86/5/155 87/6/156
f 90/9/159 87/6/156 91/10/160
f 82/3/151 86/5/155 92/11/161
f 82/3/151 92/11/162 88/7/157
f 93/12/163 90/9/159 91/10/160
f 93/12/164 91/10/160 94/13/165
f 95/14/166 93/12/163 94/13/165
f 95/14/166 94/13/165 96/15/167
f 97/16/168 95/14/166 96/15/167
f 97/16/168 96/15/167 98/17/169
f 99/18/170 97/16/171 98/17/169
f 99/18/170 98/17/169 100/19/172
f 101/20/173 99/18/170 100/19/172
f 101/20/173 100/19/174 102/21/175
f 103/22/176 101/20/177 102/21/175
f 103/22/176 102/21/175 104/23/178
f 105/24/179 103/22/180 104/23/181
f 104/23/178 106/25/182 105/24/179
f 93/12/163 107/26/183 90/9/184
f 95/14/166 108/27/185 93/12/186
f 108/27/185 107/26/187 93/12/186
f 97/16/168 109/28/188 95/14/166
f 109/28/188 108/27/189 95/14/166
f 99/18/170 110/29/190 97/16/171
f 110/29/191 109/28/188 97/16/171
f 101/20/177 111/30/192 99/18/193
f 111/30/192 110/29/191 99/18/170
f 103/22/176 112/31/194 101/20/173
f 112/31/194 111/30/192 101/20/173
f 105/24/195 113/32/196 103/22/176
f 113/32/197 112/31/194 103/22/180
f 107/26/183 114/66/198 90/9/199
f 90/9/184 114/66/198 86/5/155
f 105/24/195 115/33/200 113/32/196
f 106/25/182 115/33/200 105/24/195
f 114/66/198 116/64/201 86/5/155
f 86/5/155 116/64/202 92/11/162
f 115/33/203 106/25/182 117/34/204
f 106/25/182 118/35/205 117/34/206
f 92/11/162 116/64/207 119/61/208
f 92/11/161 119/61/208 88/7/209
f 117/34/204 118/35/205 120/36/210
f 118/35/205 121/37/211 120/36/210
f 88/7/209 119/61/208 122/56/212
f 88/7/157 122/56/213 89/8/158
f 120/36/210 121/37/211 123/38/214
f 121/37/211 124/39/215 123/38/216
f 122/56/212 125/54/217 89/8/158
f 125/54/218 126/55/219 89/8/158
f 127/53/220 126/55/219 125/54/217
f 128/52/221 127/53/220 125/54/217
f 129/51/222 127/53/220 128/52/221
f 130/57/223 125/54/218 122/56/224
f 128/52/221 125/54/217 130/57/223
f 119/61/208 131/62/225 122/56/212
f 131/62/225 130/57/223 122/56/224
f 119/61/208 132/63/226 131/62/225
f 132/63/227 130/57/223 131/62/225
f 116/64/207 132/63/227 119/61/208
f 133/50/228 129/51/222 128/52/221
f 134/49/229 129/51/222 133/50/230
f 135/58/231 128/52/232 130/57/223
f 135/58/231 130/57/223 132/63/227
f 133/50/233 128/52/221 135/58/231
f 136/65/234 132/63/227 116/64/207
f 136/65/234 135/58/231 132/63/226
f 114/66/198 136/65/234 116/64/202
f 137/48/235 134/49/229 133/50/236
f 138/47/237 134/49/229 137/48/235
f 139/59/238 133/50/233 135/58/231
f 139/59/239 135/58/231 136/65/234
f 137/48/240 133/50/233 139/59/241
f 140/67/242 136/65/234 114/66/198
f 140/67/242 139/59/241 136/65/234
f 107/26/183 140/67/242 114/66/243
f 141/46/244 138/47/245 137/48/246
f 142/45/247 138/47/237 141/46/244
f 143/60/248 137/48/235 139/59/238
f 143/60/249 139/59/241 140/67/242
f 141/46/244 137/48/246 143/60/250
f 144/68/251 140/67/242 107/26/187
f 144/68/251 143/60/250 140/67/242
f 108/27/252 144/68/253 107/26/183
f 145/44/254 142/45/247 141/46/244
f 146/43/255 142/45/247 145/44/254
f 147/69/256 141/46/257 143/60/250
f 147/69/258 143/60/250 144/68/253
f 145/44/254 141/46/259 147/69/260
f 148/70/261 144/68/251 108/27/189
f 148/70/261 147/69/258 144/68/253
f 109/28/188 148/70/261 108/27/189
f 149/42/262 146/43/255 145/44/254
f 150/41/263 146/43/255 149/42/264
f 151/71/265 145/44/254 147/69/258
f 151/71/265 147/69/256 148/70/261
f 149/42/264 145/44/254 151/71/265
f 152/72/266 148/70/261 109/28/188
f 152/72/266 151/71/267 148/70/261
f 110/29/190 152/72/266 109/28/188
f 153/40/268 150/41/269 149/42/262
f 124/39/215 150/41/263 153/40/270
f 123/38/214 124/39/215 153/40/268
f 154/73/271 149/42/262 151/71/267
f 154/73/271 151/71/267 152/72/272
f 153/40/268 149/42/262 154/73/271
f 155/74/273 152/72/266 110/29/190
f 155/74/274 154/73/271 152/72/266
f 111/30/275 155/74/274 110/29/190
f 156/75/276 153/40/268 154/73/271
f 123/38/214 153/40/270 156/75/276
f 156/75/276 154/73/271 155/74/273
f 157/76/277 155/74/274 111/30/192
f 157/76/277 156/75/276 155/74/274
f 112/31/194 157/76/277 111/30/192
f 158/77/278 123/38/214 156/75/276
f 158/77/278 156/75/276 157/76/277
f 120/36/210 123/38/214 158/77/278
f 159/78/279 157/76/277 112/31/194
f 159/78/279 158/77/278 157/76/277
f 113/32/280 159/78/279 112/31/194
f 160/79/281 120/36/210 158/77/278
f 160/79/282 158/77/278 159/78/283
f 117/34/206 120/36/210 160/79/284
f 161/80/285 160/79/282 159/78/279
f 161/80/286 117/34/206 160/79/281
f 161/80/286 159/78/279 113/32/287
f 115/33/200 117/34/204 161/80/286
f 115/33/203 162/81/288 113/32/287
f 162/81/288 115/33/203 161/80/286
f 162/81/288 161/80/286 113/32/287
