# Blender 4.0.2
# www.blender.org
mtllib Eyes.mtl
o æŸ±ä½“
v -0.156609 0.762155 0.353542
v -0.153219 0.762633 0.346314
v -0.148857 0.763402 0.357298
v -0.145467 0.763880 0.350070
v -0.141570 0.766021 0.360965
v -0.138180 0.766500 0.353737
v -0.135028 0.769912 0.364405
v -0.131638 0.770391 0.357177
v -0.129483 0.774925 0.367484
v -0.126093 0.775404 0.360256
v -0.125148 0.780868 0.370084
v -0.121758 0.781346 0.362856
v -0.122189 0.787511 0.372106
v -0.118799 0.787990 0.364878
v -0.120720 0.794600 0.373471
v -0.117330 0.795079 0.366243
v -0.120798 0.801863 0.374127
v -0.117408 0.802342 0.366899
v -0.122420 0.809020 0.374050
v -0.119029 0.809498 0.366822
v -0.125522 0.815796 0.373241
v -0.122132 0.816274 0.366013
v -0.129987 0.821931 0.371732
v -0.126596 0.822409 0.364504
v -0.135642 0.827189 0.369581
v -0.132251 0.827667 0.362353
v -0.142270 0.831367 0.366871
v -0.138879 0.831846 0.359643
v -0.149616 0.834307 0.363705
v -0.146226 0.834785 0.356477
v -0.157399 0.835893 0.360206
v -0.154009 0.836372 0.352978
v -0.165319 0.836066 0.356508
v -0.161928 0.836545 0.349280
v -0.173071 0.834819 0.352753
v -0.169680 0.835298 0.345525
v -0.180358 0.832200 0.349085
v -0.176968 0.832678 0.341857
v -0.186900 0.828309 0.345645
v -0.183509 0.828787 0.338417
v -0.192445 0.823296 0.342566
v -0.189054 0.823774 0.335338
v -0.196780 0.817353 0.339966
v -0.193390 0.817832 0.332738
v -0.199739 0.810710 0.337944
v -0.196348 0.811188 0.330716
v -0.201208 0.803621 0.336579
v -0.197817 0.804099 0.329351
v -0.201130 0.796358 0.335923
v -0.197739 0.796836 0.328695
v -0.199508 0.789201 0.336001
v -0.196118 0.789680 0.328773
v -0.196406 0.782425 0.336810
v -0.193016 0.782904 0.329581
v -0.191941 0.776290 0.338318
v -0.188551 0.776769 0.331090
v -0.186286 0.771032 0.340469
v -0.182896 0.771511 0.333241
v -0.179658 0.766854 0.343180
v -0.176268 0.767332 0.335952
v -0.172312 0.763914 0.346345
v -0.168921 0.764393 0.339117
v -0.164529 0.762328 0.349844
v -0.161139 0.762806 0.342616
v -0.213338 0.823042 0.323634
v -0.215363 0.822756 0.327953
v -0.217131 0.818787 0.326745
v -0.215106 0.819073 0.322427
v -0.218009 0.814552 0.325929
v -0.215983 0.814838 0.321611
v 0.156609 0.762155 0.353542
v 0.153219 0.762633 0.346314
v 0.148857 0.763402 0.357298
v 0.145467 0.763880 0.350070
v 0.141570 0.766021 0.360965
v 0.138180 0.766500 0.353737
v 0.135028 0.769912 0.364405
v 0.131638 0.770391 0.357177
v 0.129483 0.774925 0.367484
v 0.126093 0.775404 0.360256
v 0.125148 0.780868 0.370084
v 0.121758 0.781346 0.362856
v 0.122189 0.787511 0.372106
v 0.118799 0.787990 0.364878
v 0.120720 0.794600 0.373471
v 0.117330 0.795079 0.366243
v 0.120798 0.801863 0.374127
v 0.117408 0.802342 0.366899
v 0.122420 0.809020 0.374050
v 0.119029 0.809498 0.366822
v 0.125522 0.815796 0.373241
v 0.122132 0.816274 0.366013
v 0.129987 0.821931 0.371732
v 0.126596 0.822409 0.364504
v 0.135642 0.827189 0.369581
v 0.132251 0.827667 0.362353
v 0.142270 0.831367 0.366871
v 0.138879 0.831846 0.359643
v 0.149616 0.834307 0.363705
v 0.146226 0.834785 0.356477
v 0.157399 0.835893 0.360206
v 0.154009 0.836372 0.352978
v 0.165319 0.836066 0.356508
v 0.161928 0.836545 0.349280
v 0.173071 0.834819 0.352753
v 0.169680 0.835298 0.345525
v 0.180358 0.832200 0.349085
v 0.176968 0.832678 0.341857
v 0.186900 0.828309 0.345645
v 0.183509 0.828787 0.338417
v 0.192445 0.823296 0.342566
v 0.189054 0.823774 0.335338
v 0.196780 0.817353 0.339966
v 0.193390 0.817832 0.332738
v 0.199739 0.810710 0.337944
v 0.196348 0.811188 0.330716
v 0.201208 0.803621 0.336579
v 0.197817 0.804099 0.329351
v 0.201130 0.796358 0.335923
v 0.197739 0.796836 0.328695
v 0.199508 0.789201 0.336001
v 0.196118 0.789680 0.328773
v 0.196406 0.782425 0.336810
v 0.193016 0.782904 0.329581
v 0.191941 0.776290 0.338318
v 0.188551 0.776769 0.331090
v 0.186286 0.771032 0.340469
v 0.182896 0.771511 0.333241
v 0.179658 0.766854 0.343180
v 0.176268 0.767332 0.335952
v 0.172312 0.763914 0.346345
v 0.168921 0.764393 0.339117
v 0.164529 0.762328 0.349844
v 0.161139 0.762806 0.342616
v 0.213338 0.823042 0.323634
v 0.215363 0.822756 0.327953
v 0.217131 0.818787 0.326745
v 0.215106 0.819073 0.322427
v 0.218009 0.814552 0.325929
v 0.215983 0.814838 0.321611
vn 0.1553 -0.9878 0.0074
vn 0.3019 -0.9501 0.0787
vn 0.4457 -0.8824 0.1506
vn 0.5833 -0.7814 0.2218
vn 0.7084 -0.6436 0.2897
vn 0.8116 -0.4679 0.3497
vn 0.8810 -0.2588 0.3961
vn 0.9057 -0.0285 0.4229
vn 0.8810 0.2042 0.4268
vn 0.8107 0.4199 0.4080
vn 0.7052 0.6044 0.3708
vn 0.5768 0.7514 0.3203
vn 0.4360 0.8611 0.2615
vn 0.2895 0.9365 0.1978
vn 0.1411 0.9813 0.1311
vn -0.0074 0.9980 0.0626
vn -0.1553 0.9878 -0.0074
vn -0.3019 0.9501 -0.0787
vn -0.4457 0.8824 -0.1506
vn -0.5832 0.7814 -0.2218
vn -0.7084 0.6436 -0.2897
vn 0.1847 0.9711 0.1510
vn 0.4313 0.0813 -0.8985
vn -0.9057 0.0285 -0.4229
vn -0.8810 -0.2042 -0.4267
vn -0.8107 -0.4199 -0.4080
vn -0.7052 -0.6044 -0.3708
vn -0.5768 -0.7514 -0.3203
vn -0.4360 -0.8611 -0.2615
vn -0.2895 -0.9365 -0.1978
vn 0.4231 0.0860 -0.9020
vn -0.1411 -0.9813 -0.1311
vn 0.0074 -0.9980 -0.0626
vn -0.4231 -0.0860 0.9020
vn -0.8116 0.4679 -0.3497
vn -0.8810 0.2588 -0.3961
vn 0.4320 0.0834 -0.8980
vn -0.5453 -0.0121 0.8381
vn -0.4112 -0.8764 -0.2509
vn -0.5555 -0.0448 0.8303
vn -0.1553 -0.9878 0.0074
vn -0.3019 -0.9501 0.0787
vn -0.4457 -0.8824 0.1506
vn -0.5833 -0.7814 0.2218
vn -0.7084 -0.6436 0.2897
vn -0.8116 -0.4679 0.3497
vn -0.8810 -0.2588 0.3961
vn -0.9057 -0.0285 0.4229
vn -0.8810 0.2042 0.4268
vn -0.8107 0.4199 0.4080
vn -0.7052 0.6044 0.3708
vn -0.5768 0.7514 0.3203
vn -0.4360 0.8611 0.2615
vn -0.2895 0.9365 0.1978
vn -0.1411 0.9813 0.1311
vn 0.0074 0.9980 0.0626
vn 0.1553 0.9878 -0.0074
vn 0.3019 0.9501 -0.0787
vn 0.4457 0.8824 -0.1506
vn 0.5832 0.7814 -0.2218
vn 0.7084 0.6436 -0.2897
vn -0.1848 0.9711 0.1510
vn -0.4313 0.0813 -0.8985
vn 0.9057 0.0285 -0.4229
vn 0.8810 -0.2042 -0.4268
vn 0.8107 -0.4199 -0.4080
vn 0.7052 -0.6044 -0.3708
vn 0.5768 -0.7514 -0.3203
vn 0.4360 -0.8611 -0.2615
vn 0.2895 -0.9365 -0.1978
vn -0.4231 0.0860 -0.9020
vn 0.1411 -0.9813 -0.1311
vn -0.0074 -0.9980 -0.0626
vn 0.4231 -0.0860 0.9020
vn 0.8116 0.4679 -0.3497
vn 0.8810 0.2588 -0.3961
vn -0.4320 0.0834 -0.8980
vn 0.5453 -0.0121 0.8381
vn 0.4112 -0.8764 -0.2509
vn 0.5555 -0.0448 0.8303
vt 0.945626 0.076813
vt 0.945626 0.110087
vt 0.943547 0.110087
vt 0.943547 0.076813
vt 0.941467 0.110087
vt 0.941467 0.076813
vt 0.939387 0.110087
vt 0.939387 0.076813
vt 0.937308 0.110087
vt 0.937308 0.076813
vt 0.935228 0.110087
vt 0.935228 0.076813
vt 0.933149 0.110087
vt 0.933149 0.076813
vt 0.931069 0.110087
vt 0.931069 0.076813
vt 0.928989 0.110087
vt 0.928989 0.076813
vt 0.926910 0.110087
vt 0.926910 0.076813
vt 0.924830 0.110087
vt 0.924830 0.076813
vt 0.922750 0.110087
vt 0.922750 0.076813
vt 0.920671 0.110087
vt 0.920671 0.076813
vt 0.918591 0.110087
vt 0.918591 0.076813
vt 0.916511 0.110087
vt 0.916511 0.076813
vt 0.914432 0.110087
vt 0.914432 0.076813
vt 0.912352 0.110087
vt 0.912352 0.076813
vt 0.910273 0.110087
vt 0.910273 0.076813
vt 0.908193 0.110087
vt 0.908193 0.076813
vt 0.906113 0.110087
vt 0.906113 0.076813
vt 0.904034 0.110087
vt 0.904034 0.076813
vt 0.901954 0.110087
vt 0.901954 0.076813
vt 0.882435 0.051303
vt 0.880959 0.054064
vt 0.897795 0.076813
vt 0.897795 0.110087
vt 0.895715 0.110087
vt 0.895715 0.076813
vt 0.893635 0.110087
vt 0.893635 0.076813
vt 0.891556 0.110087
vt 0.891556 0.076813
vt 0.889476 0.110087
vt 0.889476 0.076813
vt 0.887396 0.110087
vt 0.887396 0.076813
vt 0.885317 0.110087
vt 0.885317 0.076813
vt 0.883237 0.110087
vt 0.883237 0.076813
vt 0.898831 0.075841
vt 0.895715 0.076148
vt 0.892599 0.075841
vt 0.889603 0.074932
vt 0.886842 0.073456
vt 0.884421 0.071470
vt 0.882435 0.069049
vt 0.880959 0.066288
vt 0.880050 0.063292
vt 0.879743 0.060176
vt 0.880050 0.057060
vt 0.884421 0.048882
vt 0.886842 0.046896
vt 0.889603 0.045420
vt 0.892599 0.044511
vt 0.895715 0.044204
vt 0.898831 0.044511
vt 0.901827 0.045420
vt 0.904588 0.046896
vt 0.907009 0.048882
vt 0.908995 0.051303
vt 0.910471 0.054064
vt 0.911380 0.057060
vt 0.911687 0.060176
vt 0.911380 0.063292
vt 0.910471 0.066288
vt 0.908995 0.069049
vt 0.907009 0.071470
vt 0.904588 0.073456
vt 0.901827 0.074932
vt 0.881158 0.110087
vt 0.881158 0.076813
vt 0.879078 0.110087
vt 0.879078 0.076813
vt 0.928989 0.076148
vt 0.932105 0.075841
vt 0.935101 0.074932
vt 0.937863 0.073456
vt 0.940283 0.071470
vt 0.942269 0.069049
vt 0.943745 0.066288
vt 0.944654 0.063292
vt 0.944961 0.060176
vt 0.944654 0.057060
vt 0.943745 0.054064
vt 0.942269 0.051303
vt 0.940283 0.048882
vt 0.937863 0.046896
vt 0.935101 0.045420
vt 0.932105 0.044511
vt 0.928989 0.044204
vt 0.925873 0.044511
vt 0.922877 0.045420
vt 0.920116 0.046896
vt 0.917696 0.048882
vt 0.915709 0.051303
vt 0.914233 0.054064
vt 0.913325 0.057060
vt 0.913018 0.060176
vt 0.913325 0.063292
vt 0.914233 0.066288
vt 0.915709 0.069049
vt 0.917696 0.071470
vt 0.920116 0.073456
vt 0.922877 0.074932
vt 0.925873 0.075841
vt 0.899874 0.110087
vt 0.899874 0.076813
s 0
usemtl æè´¨.004
f 1/1/1 2/2/1 4/3/1 3/4/1
f 3/4/2 4/3/2 6/5/2 5/6/2
f 5/6/3 6/5/3 8/7/3 7/8/3
f 7/8/4 8/7/4 10/9/4 9/10/4
f 9/10/5 10/9/5 12/11/5 11/12/5
f 11/12/6 12/11/6 14/13/6 13/14/6
f 13/14/7 14/13/7 16/15/7 15/16/7
f 15/16/8 16/15/8 18/17/8 17/18/8
f 17/18/9 18/17/9 20/19/9 19/20/9
f 19/20/10 20/19/10 22/21/10 21/22/10
f 21/22/11 22/21/11 24/23/11 23/24/11
f 23/24/12 24/23/12 26/25/12 25/26/12
f 25/26/13 26/25/13 28/27/13 27/28/13
f 27/28/14 28/27/14 30/29/14 29/30/14
f 29/30/15 30/29/15 32/31/15 31/32/15
f 31/32/16 32/31/16 34/33/16 33/34/16
f 33/34/17 34/33/17 36/35/17 35/36/17
f 35/36/18 36/35/18 38/37/18 37/38/18
f 37/38/19 38/37/19 40/39/19 39/40/19
f 39/40/20 40/39/20 42/41/20 41/42/20
f 41/42/21 42/41/21 44/43/21 43/44/21
f 43/44/22 44/43/22 65/43/22 66/44/22
f 44/45/23 46/46/23 68/46/23 65/45/23
f 47/47/24 48/48/24 50/49/24 49/50/24
f 49/50/25 50/49/25 52/51/25 51/52/25
f 51/52/26 52/51/26 54/53/26 53/54/26
f 53/54/27 54/53/27 56/55/27 55/56/27
f 55/56/28 56/55/28 58/57/28 57/58/28
f 57/58/29 58/57/29 60/59/29 59/60/29
f 59/60/30 60/59/30 62/61/30 61/62/30
f 4/63/31 2/64/31 64/65/31 62/66/31 60/67/31 58/68/31 56/69/31 54/70/31 52/71/31 50/72/31 48/73/31 46/46/31 44/45/31 42/74/31 40/75/31 38/76/31 36/77/31 34/78/31 32/79/31 30/80/31 28/81/31 26/82/31 24/83/31 22/84/31 20/85/31 18/86/31 16/87/31 14/88/31 12/89/31 10/90/31 8/91/31 6/92/31
f 61/62/32 62/61/32 64/93/32 63/94/32
f 63/94/33 64/93/33 2/95/33 1/96/33
f 1/97/34 3/98/34 5/99/34 7/100/34 9/101/34 11/102/34 13/103/34 15/104/34 17/105/34 19/106/34 21/107/34 23/108/34 25/109/34 27/110/34 29/111/34 31/112/34 33/113/34 35/114/34 37/115/34 39/116/34 41/117/34 43/118/34 45/119/34 47/120/34 49/121/34 51/122/34 53/123/34 55/124/34 57/125/34 59/126/34 61/127/34 63/128/34
f 66/44/35 65/43/35 68/129/35 67/130/35
f 67/130/36 68/129/36 70/48/36 69/47/36
f 46/46/37 48/73/37 70/73/37 68/46/37
f 45/119/38 43/118/38 66/118/38 67/119/38
f 48/48/39 47/47/39 69/47/39 70/48/39
f 47/120/40 45/119/40 67/119/40 69/120/40
f 71/1/41 73/4/41 74/3/41 72/2/41
f 73/4/42 75/6/42 76/5/42 74/3/42
f 75/6/43 77/8/43 78/7/43 76/5/43
f 77/8/44 79/10/44 80/9/44 78/7/44
f 79/10/45 81/12/45 82/11/45 80/9/45
f 81/12/46 83/14/46 84/13/46 82/11/46
f 83/14/47 85/16/47 86/15/47 84/13/47
f 85/16/48 87/18/48 88/17/48 86/15/48
f 87/18/49 89/20/49 90/19/49 88/17/49
f 89/20/50 91/22/50 92/21/50 90/19/50
f 91/22/51 93/24/51 94/23/51 92/21/51
f 93/24/52 95/26/52 96/25/52 94/23/52
f 95/26/53 97/28/53 98/27/53 96/25/53
f 97/28/54 99/30/54 100/29/54 98/27/54
f 99/30/55 101/32/55 102/31/55 100/29/55
f 101/32/56 103/34/56 104/33/56 102/31/56
f 103/34/57 105/36/57 106/35/57 104/33/57
f 105/36/58 107/38/58 108/37/58 106/35/58
f 107/38/59 109/40/59 110/39/59 108/37/59
f 109/40/60 111/42/60 112/41/60 110/39/60
f 111/42/61 113/44/61 114/43/61 112/41/61
f 113/44/62 136/44/62 135/43/62 114/43/62
f 114/45/63 135/45/63 138/46/63 116/46/63
f 117/47/64 119/50/64 120/49/64 118/48/64
f 119/50/65 121/52/65 122/51/65 120/49/65
f 121/52/66 123/54/66 124/53/66 122/51/66
f 123/54/67 125/56/67 126/55/67 124/53/67
f 125/56/68 127/58/68 128/57/68 126/55/68
f 127/58/69 129/60/69 130/59/69 128/57/69
f 129/60/70 131/62/70 132/61/70 130/59/70
f 74/63/71 76/92/71 78/91/71 80/90/71 82/89/71 84/88/71 86/87/71 88/86/71 90/85/71 92/84/71 94/83/71 96/82/71 98/81/71 100/80/71 102/79/71 104/78/71 106/77/71 108/76/71 110/75/71 112/74/71 114/45/71 116/46/71 118/73/71 120/72/71 122/71/71 124/70/71 126/69/71 128/68/71 130/67/71 132/66/71 134/65/71 72/64/71
f 131/62/72 133/94/72 134/93/72 132/61/72
f 133/94/73 71/96/73 72/95/73 134/93/73
f 71/97/74 133/128/74 131/127/74 129/126/74 127/125/74 125/124/74 123/123/74 121/122/74 119/121/74 117/120/74 115/119/74 113/118/74 111/117/74 109/116/74 107/115/74 105/114/74 103/113/74 101/112/74 99/111/74 97/110/74 95/109/74 93/108/74 91/107/74 89/106/74 87/105/74 85/104/74 83/103/74 81/102/74 79/101/74 77/100/74 75/99/74 73/98/74
f 136/44/75 137/130/75 138/129/75 135/43/75
f 137/130/76 139/47/76 140/48/76 138/129/76
f 116/46/77 138/46/77 140/73/77 118/73/77
f 115/119/78 137/119/78 136/118/78 113/118/78
f 118/48/79 140/48/79 139/47/79 117/47/79
f 117/120/80 139/120/80 137/119/80 115/119/80
