# Blender 4.0.2
# www.blender.org
mtllib Eyes.mtl
o Chef_Penguin_Black
v 0.237303 0.903898 0.289761
v 0.243765 0.924161 0.298522
v 0.235734 0.921190 0.286021
v 0.245334 0.906869 0.302263
v 0.245458 0.925301 0.305855
v 0.234362 0.887609 0.296175
v 0.247005 0.908740 0.309408
v 0.242393 0.890581 0.308676
v 0.227199 0.873919 0.304633
v 0.244147 0.893160 0.315572
v 0.235230 0.876890 0.317134
v 0.216514 0.864167 0.314308
v 0.237191 0.880136 0.323711
v 0.224545 0.867138 0.326810
v 0.203353 0.859308 0.324253
v 0.226899 0.870963 0.332970
v 0.211385 0.862279 0.336755
v 0.189005 0.859817 0.333495
v 0.214394 0.866489 0.342380
v 0.197037 0.862789 0.345997
v 0.174875 0.865645 0.341129
v 0.200939 0.867016 0.351033
v 0.182906 0.868617 0.353630
v 0.162345 0.876222 0.346407
v 0.187684 0.872433 0.358208
v 0.170376 0.879193 0.358908
v 0.152641 0.890511 0.348813
v 0.175766 0.882342 0.363269
v 0.160672 0.893483 0.361315
v 0.146715 0.907114 0.348111
v 0.166400 0.895890 0.365659
v 0.154746 0.910086 0.360613
v 0.145145 0.924407 0.344371
v 0.160623 0.911748 0.365065
v 0.153176 0.927378 0.356872
v 0.148086 0.940695 0.337957
v 0.159076 0.928308 0.361512
v 0.156117 0.943667 0.350459
v 0.155250 0.954386 0.329499
v 0.161934 0.943888 0.355348
v 0.163281 0.957357 0.342001
v 0.165934 0.964138 0.319823
v 0.168890 0.956913 0.347209
v 0.173966 0.967109 0.332325
v 0.179095 0.968997 0.309878
v 0.179183 0.966085 0.337950
v 0.187126 0.971968 0.322380
v 0.193443 0.968487 0.300637
v 0.191687 0.970559 0.328540
v 0.201474 0.971459 0.313138
v 0.207573 0.962659 0.293003
v 0.205142 0.970032 0.319886
v 0.215605 0.965630 0.305505
v 0.220104 0.952083 0.287725
v 0.218397 0.964615 0.312712
v 0.228135 0.955054 0.300226
v 0.229807 0.937793 0.285319
v 0.230315 0.954706 0.307650
v 0.237838 0.940765 0.297821
v 0.235734 0.921190 0.286021
v 0.239681 0.941159 0.305261
v 0.243765 0.924161 0.298522
v 0.245458 0.925301 0.305855
v -0.237303 0.903898 0.289761
v -0.235734 0.921190 0.286021
v -0.243765 0.924161 0.298522
v -0.245334 0.906869 0.302263
v -0.245458 0.925301 0.305855
v -0.234362 0.887609 0.296175
v -0.247005 0.908740 0.309408
v -0.242393 0.890581 0.308676
v -0.227199 0.873919 0.304633
v -0.244147 0.893160 0.315572
v -0.235230 0.876890 0.317134
v -0.216514 0.864167 0.314308
v -0.237191 0.880136 0.323711
v -0.224545 0.867138 0.326810
v -0.203353 0.859308 0.324253
v -0.226899 0.870963 0.332970
v -0.211384 0.862279 0.336755
v -0.189005 0.859817 0.333495
v -0.214394 0.866489 0.342380
v -0.197037 0.862789 0.345997
v -0.174875 0.865645 0.341129
v -0.200939 0.867016 0.351033
v -0.182906 0.868617 0.353630
v -0.162345 0.876222 0.346407
v -0.187684 0.872433 0.358208
v -0.170376 0.879193 0.358908
v -0.152641 0.890511 0.348813
v -0.175766 0.882342 0.363269
v -0.160672 0.893483 0.361315
v -0.146715 0.907114 0.348111
v -0.166400 0.895890 0.365659
v -0.154746 0.910086 0.360613
v -0.145145 0.924407 0.344371
v -0.160623 0.911748 0.365065
v -0.153176 0.927378 0.356872
v -0.148086 0.940695 0.337957
v -0.159076 0.928308 0.361512
v -0.156117 0.943667 0.350459
v -0.155250 0.954386 0.329499
v -0.161934 0.943888 0.355348
v -0.163281 0.957357 0.342001
v -0.165934 0.964138 0.319823
v -0.168890 0.956913 0.347209
v -0.173966 0.967109 0.332325
v -0.179095 0.968997 0.309878
v -0.179183 0.966085 0.337950
v -0.187126 0.971968 0.322380
v -0.193443 0.968487 0.300637
v -0.191687 0.970559 0.328540
v -0.201474 0.971459 0.313138
v -0.207573 0.962659 0.293003
v -0.205142 0.970032 0.319886
v -0.215605 0.965630 0.305505
v -0.220104 0.952083 0.287725
v -0.218397 0.964615 0.312712
v -0.228135 0.955054 0.300226
v -0.229807 0.937793 0.285319
v -0.230315 0.954706 0.307650
v -0.237838 0.940765 0.297821
v -0.235734 0.921190 0.286021
v -0.239681 0.941159 0.305261
v -0.243765 0.924161 0.298522
v -0.245458 0.925301 0.305855
v 0.245458 0.925301 0.305855
v 0.241980 0.925313 0.311751
v 0.236564 0.939361 0.311421
v 0.239681 0.941159 0.305261
v 0.247005 0.908740 0.309408
v 0.228015 0.951127 0.313767
v 0.230315 0.954706 0.307650
v 0.204612 0.919186 0.337876
v 0.243471 0.910543 0.314848
v 0.217577 0.959449 0.318299
v 0.240813 0.896696 0.320404
v 0.244147 0.893160 0.315572
v 0.218397 0.964615 0.312712
v 0.237191 0.880136 0.323711
v 0.206436 0.963886 0.324361
v 0.205142 0.970032 0.319886
v 0.234358 0.885288 0.327769
v 0.226899 0.870963 0.332970
v 0.195136 0.964440 0.331597
v 0.191687 0.970559 0.328540
v 0.225011 0.877502 0.336028
v 0.214394 0.866489 0.342380
v 0.184213 0.960870 0.339724
v 0.179183 0.966085 0.337950
v 0.214088 0.873931 0.344155
v 0.174866 0.953083 0.347983
v 0.202788 0.874485 0.351391
v 0.200939 0.867016 0.351033
v 0.168890 0.956913 0.347209
v 0.187684 0.872433 0.358208
v 0.168411 0.941676 0.355348
v 0.161934 0.943888 0.355348
v 0.191647 0.878922 0.357454
v 0.175766 0.882342 0.363269
v 0.165753 0.927828 0.360904
v 0.159076 0.928308 0.361512
v 0.181209 0.887244 0.361985
v 0.166400 0.895890 0.365659
v 0.167244 0.913058 0.364000
v 0.160623 0.911748 0.365065
v 0.172660 0.899011 0.364332
v -0.245458 0.925301 0.305855
v -0.239681 0.941159 0.305261
v -0.236564 0.939361 0.311421
v -0.241980 0.925313 0.311751
v -0.247005 0.908740 0.309408
v -0.228015 0.951127 0.313767
v -0.230315 0.954706 0.307650
v -0.204612 0.919186 0.337876
v -0.243471 0.910543 0.314848
v -0.217577 0.959449 0.318299
v -0.240813 0.896696 0.320404
v -0.244147 0.893160 0.315572
v -0.218397 0.964615 0.312712
v -0.237191 0.880136 0.323711
v -0.206436 0.963886 0.324361
v -0.205142 0.970032 0.319886
v -0.234358 0.885288 0.327769
v -0.226899 0.870963 0.332970
v -0.195136 0.964440 0.331597
v -0.191687 0.970559 0.328540
v -0.225011 0.877502 0.336028
v -0.214394 0.866489 0.342380
v -0.184213 0.960870 0.339724
v -0.179183 0.966085 0.337950
v -0.214088 0.873931 0.344155
v -0.174866 0.953083 0.347983
v -0.202788 0.874485 0.351391
v -0.200939 0.867016 0.351033
v -0.168890 0.956913 0.347209
v -0.187684 0.872433 0.358208
v -0.168411 0.941676 0.355348
v -0.161934 0.943888 0.355348
v -0.191647 0.878922 0.357454
v -0.175766 0.882342 0.363269
v -0.165753 0.927828 0.360904
v -0.159076 0.928308 0.361512
v -0.181209 0.887244 0.361985
v -0.166400 0.895890 0.365659
v -0.167244 0.913058 0.364000
v -0.160623 0.911748 0.365065
v -0.172660 0.899011 0.364332
vn 0.8237 0.1121 -0.5558
vn 0.8771 0.1332 -0.4615
vn 0.8464 -0.1828 -0.5003
vn 0.8771 0.1332 -0.4614
vn 0.8989 -0.1611 -0.4075
vn 0.9710 0.2272 0.0740
vn 0.7922 -0.4617 -0.3992
vn 0.9936 -0.0082 0.1123
vn 0.9710 0.2272 0.0739
vn 0.8455 -0.4384 -0.3048
vn 0.8456 -0.4384 -0.3048
vn 0.6634 -0.7019 -0.2593
vn 0.9936 -0.0083 0.1123
vn 0.9524 -0.2264 0.2041
vn 0.7193 -0.6757 -0.1614
vn 0.7193 -0.6756 -0.1614
vn 0.4670 -0.8796 -0.0909
vn 0.8524 -0.4024 0.3337
vn 0.5267 -0.8500 0.0100
vn 0.8524 -0.4024 0.3338
vn 0.5268 -0.8500 0.0100
vn 0.5267 -0.8500 0.0099
vn 0.2184 -0.9716 0.0907
vn 0.7046 -0.5233 0.4792
vn 0.5268 -0.8500 0.0099
vn 0.2820 -0.9399 0.1925
vn 0.2183 -0.9716 0.0907
vn -0.0568 -0.9625 0.2652
vn 0.7047 -0.5233 0.4791
vn 0.5216 -0.5831 0.6228
vn 0.0099 -0.9304 0.3663
vn 0.5216 -0.5831 0.6229
vn -0.3255 -0.8513 0.4115
vn 0.3188 -0.5744 0.7539
vn 0.0099 -0.9305 0.3663
vn -0.2570 -0.8206 0.5104
vn -0.5564 -0.6537 0.5128
vn 0.1178 -0.4945 0.8612
vn -0.4878 -0.6261 0.6084
vn 0.1178 -0.4945 0.8611
vn -0.4877 -0.6261 0.6084
vn -0.7268 -0.3961 0.5611
vn -0.0636 -0.3548 0.9328
vn -0.6601 -0.3722 0.6525
vn -0.0635 -0.3548 0.9328
vn -0.6600 -0.3722 0.6526
vn -0.8248 -0.1068 0.5552
vn -0.2119 -0.1691 0.9626
vn -0.7607 -0.0858 0.6434
vn -0.8248 -0.1068 0.5553
vn -0.6601 -0.3722 0.6526
vn -0.2119 -0.1690 0.9626
vn -0.8460 0.1884 0.4987
vn -0.3091 0.0503 0.9497
vn -0.7834 0.2079 0.5857
vn -0.3090 0.0503 0.9497
vn -0.7904 0.4666 0.3969
vn -0.3353 0.2837 0.8984
vn -0.7270 0.4855 0.4855
vn -0.3354 0.2837 0.8984
vn -0.6607 0.7054 0.2568
vn -0.2833 0.5035 0.8162
vn -0.5952 0.7236 0.3495
vn -0.4641 0.8813 0.0887
vn -0.1643 0.6831 0.7116
vn -0.3973 0.8986 0.1864
vn -0.2164 0.9720 -0.0920
vn -0.0005 0.8066 0.5911
vn -0.1500 0.9886 0.0096
vn -0.0006 0.8066 0.5911
vn -0.1499 0.9886 0.0096
vn 0.0571 0.9624 -0.2654
vn -0.0006 0.8065 0.5912
vn 0.1887 0.8666 0.4620
vn 0.1219 0.9793 -0.1619
vn 0.0572 0.9624 -0.2655
vn 0.3243 0.8521 -0.4109
vn 0.3897 0.8576 0.3358
vn 0.1219 0.9793 -0.1618
vn 0.3865 0.8697 -0.3070
vn 0.3897 0.8575 0.3358
vn 0.3866 0.8697 -0.3070
vn 0.5543 0.6561 -0.5121
vn 0.5851 0.7785 0.2272
vn 0.6132 0.6752 -0.4100
vn 0.5543 0.6562 -0.5121
vn 0.5543 0.6562 -0.5120
vn 0.7248 0.4002 -0.5608
vn 0.7559 0.6388 0.1432
vn 0.6133 0.6752 -0.4100
vn 0.7805 0.4206 -0.4625
vn 0.7248 0.4003 -0.5608
vn 0.7559 0.6388 0.1431
vn 0.7559 0.6389 0.1432
vn 0.8884 0.4505 0.0883
vn 0.8237 0.1122 -0.5558
vn -0.8771 0.1332 -0.4615
vn -0.8237 0.1121 -0.5558
vn -0.8464 -0.1828 -0.5003
vn -0.8989 -0.1611 -0.4075
vn -0.9710 0.2272 0.0740
vn -0.7922 -0.4617 -0.3992
vn -0.9936 -0.0082 0.1123
vn -0.9710 0.2272 0.0739
vn -0.8455 -0.4384 -0.3048
vn -0.9936 -0.0083 0.1123
vn -0.6634 -0.7019 -0.2593
vn -0.9524 -0.2264 0.2041
vn -0.8456 -0.4384 -0.3047
vn -0.7193 -0.6756 -0.1614
vn -0.7193 -0.6757 -0.1614
vn -0.4670 -0.8796 -0.0909
vn -0.8525 -0.4024 0.3337
vn -0.5268 -0.8500 0.0099
vn -0.8524 -0.4024 0.3338
vn -0.5268 -0.8500 0.0100
vn -0.5267 -0.8500 0.0099
vn -0.2184 -0.9716 0.0907
vn -0.7046 -0.5233 0.4792
vn -0.8524 -0.4024 0.3337
vn -0.2820 -0.9399 0.1925
vn -0.5267 -0.8500 0.0100
vn -0.2183 -0.9716 0.0907
vn 0.0568 -0.9625 0.2652
vn -0.5216 -0.5831 0.6228
vn -0.7047 -0.5233 0.4791
vn -0.0099 -0.9304 0.3663
vn -0.5216 -0.5831 0.6229
vn 0.3255 -0.8513 0.4115
vn -0.3188 -0.5744 0.7539
vn -0.0099 -0.9305 0.3663
vn 0.2570 -0.8206 0.5104
vn 0.5564 -0.6537 0.5128
vn -0.1178 -0.4945 0.8611
vn 0.4878 -0.6261 0.6084
vn 0.4877 -0.6261 0.6084
vn 0.7268 -0.3961 0.5611
vn 0.0636 -0.3548 0.9328
vn 0.6601 -0.3722 0.6525
vn 0.0635 -0.3548 0.9328
vn 0.6600 -0.3722 0.6526
vn 0.8248 -0.1068 0.5552
vn 0.2119 -0.1691 0.9626
vn 0.7607 -0.0858 0.6434
vn 0.6600 -0.3722 0.6525
vn 0.2119 -0.1690 0.9626
vn 0.8460 0.1884 0.4987
vn 0.3091 0.0503 0.9497
vn 0.7834 0.2079 0.5857
vn 0.3090 0.0503 0.9497
vn 0.7904 0.4666 0.3969
vn 0.3353 0.2837 0.8984
vn 0.7834 0.2079 0.5856
vn 0.7270 0.4855 0.4855
vn 0.3354 0.2837 0.8984
vn 0.6607 0.7054 0.2568
vn 0.2833 0.5035 0.8162
vn 0.5952 0.7236 0.3495
vn 0.4641 0.8813 0.0887
vn 0.1643 0.6831 0.7116
vn 0.3973 0.8986 0.1864
vn 0.2164 0.9720 -0.0920
vn 0.0005 0.8066 0.5911
vn 0.1500 0.9886 0.0096
vn 0.0006 0.8066 0.5911
vn 0.1499 0.9886 0.0096
vn -0.0571 0.9624 -0.2654
vn -0.1887 0.8666 0.4620
vn 0.0005 0.8066 0.5912
vn -0.1219 0.9793 -0.1619
vn -0.0571 0.9624 -0.2655
vn -0.0572 0.9624 -0.2655
vn -0.3243 0.8521 -0.4109
vn -0.3897 0.8575 0.3358
vn -0.3865 0.8697 -0.3070
vn -0.3866 0.8697 -0.3070
vn -0.5543 0.6562 -0.5120
vn -0.5851 0.7785 0.2272
vn -0.3897 0.8576 0.3358
vn -0.6132 0.6752 -0.4100
vn -0.5543 0.6562 -0.5121
vn -0.5543 0.6561 -0.5121
vn -0.7248 0.4002 -0.5608
vn -0.7559 0.6388 0.1432
vn -0.6133 0.6751 -0.4100
vn -0.7805 0.4206 -0.4625
vn -0.7248 0.4003 -0.5608
vn -0.7559 0.6388 0.1431
vn -0.8884 0.4505 0.0883
vn -0.7559 0.6389 0.1432
vn -0.8237 0.1122 -0.5558
vn 0.5333 0.2248 0.8155
vn 0.7559 0.6389 0.1431
vn 0.9524 -0.2264 0.2040
vn 0.8524 -0.4025 0.3338
vn 0.7047 -0.5233 0.4792
vn -0.0005 0.8066 0.5912
vn -0.3354 0.2837 0.8983
vn -0.5333 0.2248 0.8155
vn -0.9524 -0.2264 0.2040
vn -0.8524 -0.4025 0.3338
vn -0.8524 -0.4025 0.3337
vn -0.1887 0.8666 0.4619
vn -0.7047 -0.5233 0.4792
vn -0.1888 0.8666 0.4620
vn 0.3354 0.2837 0.8983
vn 0.2119 -0.1691 0.9625
vt 0.015625 0.851562
vt 0.020386 0.844238
vt 0.026672 0.857910
vt 0.031281 0.850586
vt 0.023132 0.840332
vt 0.038086 0.864258
vt 0.033691 0.846680
vt 0.042358 0.856445
vt 0.049713 0.869629
vt 0.044556 0.852539
vt 0.053589 0.861816
vt 0.061462 0.875000
vt 0.055634 0.857910
vt 0.064880 0.866699
vt 0.073364 0.878906
vt 0.066772 0.862305
vt 0.076294 0.870606
vt 0.085327 0.882812
vt 0.077881 0.866211
vt 0.087769 0.874023
vt 0.097595 0.885742
vt 0.088989 0.869629
vt 0.099426 0.876953
vt 0.109985 0.888184
vt 0.100281 0.872559
vt 0.111328 0.879394
vt 0.122681 0.890137
vt 0.111938 0.875000
vt 0.123474 0.881348
vt 0.135498 0.891602
vt 0.123840 0.876953
vt 0.135864 0.882324
vt 0.148560 0.892090
vt 0.136108 0.877930
vt 0.148438 0.883301
vt 0.161499 0.892090
vt 0.148315 0.878418
vt 0.161011 0.882812
vt 0.174439 0.891113
vt 0.160645 0.878418
vt 0.173340 0.882324
vt 0.187134 0.889648
vt 0.172852 0.877930
vt 0.185547 0.880859
vt 0.199585 0.887207
vt 0.184814 0.876465
vt 0.197510 0.878418
vt 0.211670 0.884277
vt 0.196411 0.874023
vt 0.209106 0.875488
vt 0.223511 0.879883
vt 0.207764 0.871094
vt 0.220459 0.871582
vt 0.235230 0.875000
vt 0.218750 0.867188
vt 0.231689 0.867188
vt 0.246582 0.869629
vt 0.229736 0.862793
vt 0.242676 0.861328
vt 0.257812 0.863281
vt 0.240601 0.857422
vt 0.253662 0.855469
vt 0.251221 0.851562
vt 0.967773 0.378662
vt 0.973633 0.370361
vt 0.977539 0.372315
vt 0.971191 0.381592
vt 0.980469 0.361328
vt 0.960449 0.384277
vt 0.962891 0.388428
vt 0.946289 0.357422
vt 0.976562 0.360840
vt 0.951660 0.387451
vt 0.976074 0.351074
vt 0.980469 0.350098
vt 0.952637 0.392090
vt 0.976562 0.339844
vt 0.942871 0.387695
vt 0.942383 0.392578
vt 0.972656 0.341797
vt 0.969727 0.331055
vt 0.934082 0.385254
vt 0.932129 0.389648
vt 0.966309 0.334228
vt 0.960938 0.324951
vt 0.926758 0.380371
vt 0.923340 0.383545
vt 0.958496 0.329346
vt 0.920410 0.372803
vt 0.950195 0.326904
vt 0.950684 0.322022
vt 0.916504 0.375000
vt 0.940430 0.322510
vt 0.916992 0.363525
vt 0.912598 0.364502
vt 0.941406 0.327148
vt 0.930176 0.326172
vt 0.916504 0.353760
vt 0.912598 0.353272
vt 0.932617 0.330322
vt 0.921387 0.333008
vt 0.919434 0.344238
vt 0.915527 0.342285
vt 0.924805 0.336182
s 0
usemtl æè´¨
f 3/1/1 2/2/2 1/3/3
f 2/2/4 4/4/5 1/3/3
f 4/4/5 2/2/2 5/5/6
f 1/3/3 4/4/5 6/6/7
f 7/7/8 4/4/5 5/5/9
f 4/4/5 8/8/10 6/6/7
f 4/4/5 7/7/8 8/8/11
f 6/6/7 8/8/10 9/9/12
f 7/7/13 10/10/14 8/8/10
f 8/8/10 11/11/15 9/9/12
f 8/8/10 10/10/14 11/11/16
f 9/9/12 11/11/16 12/12/17
f 10/10/14 13/13/18 11/11/16
f 11/11/16 14/14/19 12/12/17
f 11/11/16 13/13/20 14/14/21
f 12/12/17 14/14/22 15/15/23
f 13/13/20 16/16/24 14/14/25
f 14/14/19 17/17/26 15/15/27
f 14/14/22 16/16/24 17/17/26
f 15/15/23 17/17/26 18/18/28
f 16/16/29 19/19/30 17/17/26
f 17/17/26 20/20/31 18/18/28
f 17/17/26 19/19/32 20/20/31
f 18/18/28 20/20/31 21/21/33
f 19/19/30 22/22/34 20/20/35
f 20/20/31 23/23/36 21/21/33
f 20/20/31 22/22/34 23/23/36
f 21/21/33 23/23/36 24/24/37
f 22/22/34 25/25/38 23/23/36
f 23/23/36 26/26/39 24/24/37
f 23/23/36 25/25/40 26/26/41
f 24/24/37 26/26/39 27/27/42
f 25/25/40 28/28/43 26/26/41
f 26/26/39 29/29/44 27/27/42
f 26/26/41 28/28/45 29/29/44
f 27/27/42 29/29/46 30/30/47
f 28/28/45 31/31/48 29/29/44
f 29/29/46 32/32/49 30/30/50
f 29/29/51 31/31/52 32/32/49
f 30/30/47 32/32/49 33/33/53
f 31/31/52 34/34/54 32/32/49
f 32/32/49 35/35/55 33/33/53
f 32/32/49 34/34/56 35/35/55
f 33/33/53 35/35/55 36/36/57
f 34/34/56 37/37/58 35/35/55
f 35/35/55 38/38/59 36/36/57
f 35/35/55 37/37/60 38/38/59
f 36/36/57 38/38/59 39/39/61
f 37/37/58 40/40/62 38/38/59
f 38/38/59 41/41/63 39/39/61
f 38/38/59 40/40/62 41/41/63
f 39/39/61 41/41/63 42/42/64
f 40/40/62 43/43/65 41/41/63
f 41/41/63 44/44/66 42/42/64
f 41/41/63 43/43/65 44/44/66
f 42/42/64 44/44/66 45/45/67
f 43/43/65 46/46/68 44/44/66
f 44/44/66 47/47/69 45/45/67
f 44/44/66 46/46/70 47/47/69
f 45/45/67 47/47/71 48/48/72
f 46/46/73 49/49/74 47/47/71
f 47/47/69 50/50/75 48/48/72
f 47/47/71 49/49/74 50/50/75
f 48/48/76 50/50/75 51/51/77
f 49/49/74 52/52/78 50/50/79
f 50/50/75 53/53/80 51/51/77
f 50/50/75 52/52/81 53/53/82
f 51/51/77 53/53/80 54/54/83
f 52/52/78 55/55/84 53/53/80
f 53/53/80 56/56/85 54/54/86
f 53/53/82 55/55/84 56/56/85
f 54/54/87 56/56/85 57/57/88
f 55/55/84 58/58/89 56/56/90
f 56/56/85 59/59/91 57/57/92
f 56/56/85 58/58/93 59/59/91
f 57/57/92 59/59/91 60/60/1
f 58/58/94 61/61/95 59/59/91
f 59/59/91 62/62/2 60/60/96
f 59/59/91 61/61/95 62/62/2
f 61/61/95 63/63/6 62/62/4
f 66/2/97 65/1/98 64/3/99
f 67/4/100 66/2/97 64/3/99
f 66/2/97 67/4/100 68/5/101
f 67/4/100 64/3/99 69/6/102
f 67/4/100 70/7/103 68/5/104
f 71/8/105 67/4/100 69/6/102
f 70/7/106 67/4/100 71/8/105
f 71/8/105 69/6/102 72/9/107
f 73/10/108 70/7/106 71/8/109
f 74/11/110 71/8/105 72/9/107
f 73/10/108 71/8/105 74/11/111
f 74/11/110 72/9/107 75/12/112
f 76/13/113 73/10/108 74/11/110
f 77/14/114 74/11/110 75/12/112
f 76/13/115 74/11/110 77/14/116
f 77/14/117 75/12/112 78/15/118
f 79/16/119 76/13/120 77/14/116
f 80/17/121 77/14/122 78/15/123
f 79/16/119 77/14/117 80/17/121
f 80/17/121 78/15/118 81/18/124
f 82/19/125 79/16/126 80/17/121
f 83/20/127 80/17/121 81/18/124
f 82/19/128 80/17/121 83/20/127
f 83/20/127 81/18/124 84/21/129
f 85/22/130 82/19/125 83/20/131
f 86/23/132 83/20/127 84/21/129
f 85/22/130 83/20/127 86/23/132
f 86/23/132 84/21/129 87/24/133
f 88/25/134 85/22/130 86/23/132
f 89/26/135 86/23/132 87/24/133
f 88/25/134 86/23/132 89/26/136
f 89/26/135 87/24/133 90/27/137
f 91/28/138 88/25/134 89/26/136
f 92/29/139 89/26/135 90/27/137
f 91/28/140 89/26/136 92/29/139
f 92/29/141 90/27/137 93/30/142
f 94/31/143 91/28/140 92/29/139
f 95/32/144 92/29/145 93/30/142
f 94/31/146 92/29/139 95/32/144
f 95/32/144 93/30/142 96/33/147
f 97/34/148 94/31/146 95/32/144
f 98/35/149 95/32/144 96/33/147
f 97/34/150 95/32/144 98/35/149
f 98/35/149 96/33/147 99/36/151
f 100/37/152 97/34/148 98/35/153
f 101/38/154 98/35/149 99/36/151
f 100/37/155 98/35/149 101/38/154
f 101/38/154 99/36/151 102/39/156
f 103/40/157 100/37/152 101/38/154
f 104/41/158 101/38/154 102/39/156
f 103/40/157 101/38/154 104/41/158
f 104/41/158 102/39/156 105/42/159
f 106/43/160 103/40/157 104/41/158
f 107/44/161 104/41/158 105/42/159
f 106/43/160 104/41/158 107/44/161
f 107/44/161 105/42/159 108/45/162
f 109/46/163 106/43/160 107/44/161
f 110/47/164 107/44/161 108/45/162
f 109/46/165 107/44/161 110/47/164
f 110/47/166 108/45/162 111/48/167
f 112/49/168 109/46/169 110/47/166
f 113/50/170 110/47/164 111/48/171
f 112/49/168 110/47/166 113/50/170
f 113/50/170 111/48/172 114/51/173
f 115/52/174 112/49/168 113/50/170
f 116/53/175 113/50/170 114/51/173
f 115/52/174 113/50/170 116/53/176
f 116/53/175 114/51/173 117/54/177
f 118/55/178 115/52/179 116/53/175
f 119/56/180 116/53/175 117/54/181
f 118/55/178 116/53/176 119/56/180
f 119/56/180 117/54/182 120/57/183
f 121/58/184 118/55/178 119/56/185
f 122/59/186 119/56/180 120/57/187
f 121/58/188 119/56/180 122/59/186
f 122/59/186 120/57/187 123/60/98
f 124/61/189 121/58/190 122/59/186
f 125/62/97 122/59/186 123/60/191
f 124/61/189 122/59/186 125/62/97
f 126/63/101 124/61/189 125/62/97
f 129/64/192 128/65/192 127/66/6
f 130/67/95 129/64/192 127/66/6
f 131/68/8 127/66/6 128/65/192
f 132/69/192 129/64/192 130/67/95
f 133/70/94 132/69/192 130/67/95
f 129/64/192 134/71/192 128/65/192
f 132/69/192 134/71/192 129/64/192
f 135/72/192 131/68/8 128/65/192
f 128/65/192 134/71/192 135/72/192
f 136/73/192 134/71/192 132/69/192
f 136/73/192 132/69/192 133/70/193
f 135/72/192 134/71/192 137/74/192
f 131/68/8 135/72/192 138/75/194
f 135/72/192 137/74/192 138/75/14
f 139/76/84 136/73/192 133/70/89
f 138/75/14 137/74/192 140/77/195
f 141/78/192 136/73/192 139/76/84
f 141/78/192 134/71/192 136/73/192
f 142/79/81 141/78/192 139/76/84
f 137/74/192 143/80/192 140/77/18
f 137/74/192 134/71/192 143/80/192
f 140/77/18 143/80/192 144/81/24
f 145/82/192 141/78/192 142/79/81
f 145/82/192 134/71/192 141/78/192
f 146/83/74 145/82/192 142/79/81
f 143/80/192 147/84/192 144/81/196
f 143/80/192 134/71/192 147/84/192
f 144/81/196 147/84/192 148/85/30
f 149/86/192 145/82/192 146/83/74
f 149/86/192 134/71/192 145/82/192
f 150/87/197 149/86/192 146/83/74
f 147/84/192 151/88/192 148/85/30
f 147/84/192 134/71/192 151/88/192
f 152/89/192 134/71/192 149/86/192
f 152/89/192 149/86/192 150/87/197
f 151/88/192 134/71/192 153/90/192
f 148/85/30 151/88/192 154/91/34
f 151/88/192 153/90/192 154/91/34
f 155/92/65 152/89/192 150/87/197
f 154/91/34 153/90/192 156/93/40
f 157/94/192 152/89/192 155/92/65
f 157/94/192 134/71/192 152/89/192
f 158/95/62 157/94/192 155/92/65
f 153/90/192 159/96/192 156/93/40
f 153/90/192 134/71/192 159/96/192
f 156/93/40 159/96/192 160/97/45
f 161/98/192 157/94/192 158/95/62
f 161/98/192 134/71/192 157/94/192
f 162/99/60 161/98/192 158/95/62
f 159/96/192 163/100/192 160/97/43
f 159/96/192 134/71/192 163/100/192
f 160/97/43 163/100/192 164/101/48
f 165/102/192 161/98/192 162/99/60
f 165/102/192 134/71/192 161/98/192
f 166/103/56 165/102/192 162/99/198
f 164/101/52 167/104/192 166/103/54
f 163/100/192 167/104/192 164/101/48
f 163/100/192 134/71/192 167/104/192
f 167/104/192 134/71/192 165/102/192
f 167/104/192 165/102/192 166/103/56
f 170/64/199 169/67/189 168/66/101
f 171/65/199 170/64/199 168/66/101
f 168/66/101 172/68/106 171/65/199
f 170/64/199 173/69/199 169/67/189
f 173/69/199 174/70/190 169/67/189
f 175/71/199 170/64/199 171/65/199
f 175/71/199 173/69/199 170/64/199
f 172/68/103 176/72/199 171/65/199
f 175/71/199 171/65/199 176/72/199
f 175/71/199 177/73/199 173/69/199
f 173/69/199 177/73/199 174/70/190
f 175/71/199 176/72/199 178/74/199
f 176/72/199 172/68/103 179/75/200
f 178/74/199 176/72/199 179/75/200
f 177/73/199 180/76/178 174/70/184
f 178/74/199 179/75/108 181/77/201
f 177/73/199 182/78/199 180/76/178
f 175/71/199 182/78/199 177/73/199
f 182/78/199 183/79/174 180/76/178
f 184/80/199 178/74/199 181/77/120
f 175/71/199 178/74/199 184/80/199
f 184/80/199 181/77/202 185/81/119
f 182/78/199 186/82/199 183/79/174
f 175/71/199 186/82/199 182/78/199
f 186/82/199 187/83/203 183/79/174
f 188/84/199 184/80/199 185/81/204
f 175/71/199 184/80/199 188/84/199
f 188/84/199 185/81/126 189/85/125
f 186/82/199 190/86/199 187/83/168
f 175/71/199 190/86/199 186/82/199
f 190/86/199 191/87/169 187/83/205
f 192/88/199 188/84/199 189/85/125
f 175/71/199 188/84/199 192/88/199
f 175/71/199 193/89/199 190/86/199
f 190/86/199 193/89/199 191/87/169
f 175/71/199 192/88/199 194/90/199
f 192/88/199 189/85/125 195/91/130
f 194/90/199 192/88/199 195/91/130
f 193/89/199 196/92/160 191/87/163
f 194/90/199 195/91/130 197/93/134
f 193/89/199 198/94/199 196/92/160
f 175/71/199 198/94/199 193/89/199
f 198/94/199 199/95/157 196/92/160
f 200/96/199 194/90/199 197/93/134
f 175/71/199 194/90/199 200/96/199
f 200/96/199 197/93/134 201/97/140
f 198/94/199 202/98/199 199/95/157
f 175/71/199 202/98/199 198/94/199
f 202/98/199 203/99/155 199/95/157
f 204/100/199 200/96/199 201/97/138
f 175/71/199 200/96/199 204/100/199
f 204/100/199 201/97/138 205/101/143
f 202/98/199 206/102/199 203/99/155
f 175/71/199 206/102/199 202/98/199
f 206/102/199 207/103/150 203/99/206
f 208/104/199 205/101/146 207/103/148
f 208/104/199 204/100/199 205/101/207
f 175/71/199 204/100/199 208/104/199
f 175/71/199 208/104/199 206/102/199
f 206/102/199 208/104/199 207/103/150
