# Blender 4.0.2
# www.blender.org
mtllib Eyes2.mtl
o Chef_Axolotl_yellow
v 0.135619 0.999620 0.319256
v 0.136211 0.998023 0.314057
v 0.139687 1.002296 0.305272
v 0.136086 0.992449 0.316842
v 0.142035 1.007730 0.309726
v 0.162289 1.007230 0.282935
v 0.135953 0.993462 0.323156
v 0.140653 0.989298 0.316830
v 0.165897 1.015507 0.288434
v 0.194108 1.004206 0.262908
v 0.140384 1.001746 0.320598
v 0.199621 1.012178 0.266859
v 0.223764 0.991359 0.244200
v 0.230132 0.998915 0.247789
v 0.248984 0.972859 0.231308
v 0.254017 0.978268 0.233906
v 0.256034 0.966960 0.231838
v 0.141422 0.989621 0.322060
v 0.140953 0.996792 0.324474
v 0.146477 1.008348 0.315898
v 0.172631 1.016452 0.297248
v 0.206329 1.012693 0.276032
v 0.236047 1.000159 0.257145
v 0.258341 0.979711 0.241048
v 0.261528 0.968062 0.232625
v 0.262454 0.961773 0.236852
v 0.256271 0.961191 0.234517
v 0.258451 0.959765 0.244151
v 0.254040 0.959747 0.240998
v 0.251188 0.962403 0.252080
v 0.246863 0.960960 0.244938
v 0.228334 0.973662 0.270855
v 0.222503 0.972380 0.261449
v 0.204388 0.982350 0.287754
v 0.197781 0.981790 0.278529
v 0.178380 0.986182 0.301696
v 0.171663 0.985236 0.292873
v 0.150417 0.988466 0.316597
v 0.145974 0.987848 0.310425
v 0.152762 0.993900 0.321052
v 0.181977 0.994459 0.307203
v 0.209806 0.990367 0.291755
v 0.234613 0.981256 0.274495
v 0.144826 0.993021 0.323371
v 0.150750 1.002132 0.320247
v 0.179026 1.006993 0.304612
v 0.210085 1.002952 0.286091
v 0.237361 0.992181 0.267987
v 0.256220 0.967812 0.254678
v 0.258842 0.974904 0.249486
v 0.260117 0.964198 0.247326
v 0.263711 0.966637 0.242258
v 0.262112 0.971411 0.238165
v -0.135619 0.999620 0.319256
v -0.139687 1.002296 0.305272
v -0.136211 0.998023 0.314057
v -0.136086 0.992449 0.316842
v -0.142035 1.007730 0.309726
v -0.162289 1.007230 0.282935
v -0.135953 0.993462 0.323156
v -0.140653 0.989298 0.316830
v -0.165897 1.015507 0.288434
v -0.194108 1.004206 0.262908
v -0.140384 1.001746 0.320598
v -0.199621 1.012178 0.266859
v -0.223764 0.991359 0.244200
v -0.230132 0.998915 0.247789
v -0.248984 0.972859 0.231308
v -0.254017 0.978268 0.233906
v -0.256034 0.966960 0.231838
v -0.141422 0.989621 0.322060
v -0.140953 0.996792 0.324474
v -0.146477 1.008348 0.315898
v -0.172631 1.016452 0.297248
v -0.206329 1.012693 0.276032
v -0.236047 1.000159 0.257145
v -0.258341 0.979711 0.241048
v -0.150417 0.988466 0.316597
v -0.145974 0.987848 0.310425
v -0.171663 0.985236 0.292873
v -0.178380 0.986182 0.301696
v -0.197781 0.981790 0.278529
v -0.152762 0.993900 0.321052
v -0.204388 0.982350 0.287754
v -0.222503 0.972380 0.261449
v -0.261528 0.968062 0.232625
v -0.144826 0.993021 0.323371
v -0.150750 1.002132 0.320247
v -0.181977 0.994459 0.307203
v -0.179026 1.006993 0.304612
v -0.228334 0.973662 0.270855
v -0.246863 0.960960 0.244938
v -0.209806 0.990367 0.291755
v -0.210085 1.002952 0.286091
v -0.251188 0.962403 0.252080
v -0.254040 0.959747 0.240998
v -0.234613 0.981256 0.274495
v -0.237361 0.992181 0.267987
v -0.258451 0.959765 0.244151
v -0.256271 0.961191 0.234517
v -0.256220 0.967812 0.254678
v -0.258842 0.974904 0.249486
v -0.262454 0.961773 0.236852
v -0.260117 0.964198 0.247326
v -0.263711 0.966637 0.242258
v -0.262112 0.971411 0.238165
vn -0.6758 0.5974 -0.4317
vn -0.9297 0.3389 -0.1442
vn -0.8320 0.4967 0.2470
vn -0.8320 0.4967 0.2471
vn -0.9297 0.3388 -0.1442
vn -0.8941 -0.4467 0.0322
vn -0.5141 0.8437 -0.1542
vn -0.6758 0.5974 -0.4316
vn -0.6758 0.5975 -0.4316
vn -0.5142 0.8437 -0.1542
vn -0.4844 0.6244 -0.6127
vn -0.7457 -0.2390 0.6220
vn -0.8941 -0.4467 0.0321
vn -0.8941 -0.4468 0.0322
vn -0.2355 -0.9639 0.1245
vn -0.2983 0.8930 -0.3370
vn -0.3174 0.5954 -0.7380
vn -0.3003 0.7003 0.6476
vn -0.7456 -0.2390 0.6220
vn -0.0784 0.8741 -0.4794
vn -0.1753 0.5361 -0.8258
vn 0.1052 0.7862 -0.6090
vn -0.0379 0.4441 -0.8952
vn 0.2457 0.6545 -0.7150
vn 0.2265 0.0015 -0.9740
vn 0.2457 0.6546 -0.7150
vn -0.0967 -0.8331 0.5447
vn -0.2355 -0.9639 0.1244
vn -0.0376 0.2768 0.9602
vn -0.0375 0.2768 0.9602
vn -0.0967 -0.8331 0.5446
vn -0.0164 0.8800 0.4747
vn 0.1636 0.9320 0.3236
vn 0.1636 0.9319 0.3236
vn 0.3609 0.9117 0.1963
vn -0.2982 0.8930 -0.3371
vn 0.3608 0.9117 0.1963
vn 0.5513 0.8320 0.0610
vn 0.5513 0.8321 0.0610
vn 0.6939 0.7168 -0.0686
vn 0.5513 0.8320 0.0609
vn 0.6510 0.1403 -0.7460
vn 0.6509 0.1403 -0.7461
vn 0.6940 0.7167 -0.0686
vn 0.2266 0.0016 -0.9740
vn 0.6509 0.1403 -0.7460
vn 0.7372 -0.6044 -0.3022
vn 0.2415 -0.7921 -0.5607
vn 0.2265 0.0016 -0.9740
vn 0.7371 -0.6044 -0.3022
vn 0.2415 -0.7921 -0.5606
vn 0.3613 -0.8909 0.2751
vn 0.0066 -0.9983 0.0586
vn 0.3613 -0.8910 0.2751
vn 0.0481 -0.8495 0.5254
vn -0.2020 -0.9390 0.2782
vn 0.0481 -0.8495 0.5255
vn -0.2020 -0.9390 0.2783
vn 0.0488 -0.8406 0.5395
vn -0.2123 -0.9423 0.2590
vn 0.1012 -0.8529 0.5122
vn -0.1315 -0.9751 0.1788
vn 0.1471 -0.8784 0.4547
vn -0.0430 -0.9912 0.1248
vn 0.1470 -0.8784 0.4547
vn -0.0430 -0.9912 0.1249
vn 0.1470 -0.8784 0.4548
vn 0.1539 -0.8911 0.4269
vn -0.0280 -0.9926 0.1181
vn 0.4158 -0.1686 0.8937
vn 0.4636 -0.0918 0.8813
vn 0.1471 -0.8784 0.4548
vn 0.1012 -0.8529 0.5121
vn 0.5172 -0.0562 0.8540
vn 0.5172 -0.0563 0.8540
vn 0.0480 -0.8495 0.5254
vn 0.5783 -0.1050 0.8090
vn 0.5783 -0.1051 0.8091
vn 0.2717 -0.2631 0.9257
vn 0.2718 -0.2631 0.9257
vn -0.0968 -0.8331 0.5447
vn 0.3197 0.4832 0.8151
vn 0.3196 0.4832 0.8151
vn 0.3196 0.4833 0.8150
vn 0.4242 0.5420 0.7254
vn 0.4242 0.5421 0.7254
vn 0.5409 0.5485 0.6376
vn 0.4243 0.5420 0.7254
vn 0.4243 0.5421 0.7254
vn 0.5409 0.5485 0.6377
vn 0.5783 -0.1050 0.8091
vn 0.1636 0.9320 0.3235
vn 0.5409 0.5484 0.6377
vn 0.6786 0.4891 0.5480
vn 0.5783 -0.1051 0.8090
vn 0.5514 0.8320 0.0610
vn 0.6329 -0.1833 0.7522
vn 0.6329 -0.1832 0.7522
vn 0.0480 -0.8495 0.5255
vn 0.7944 0.3984 0.4584
vn 0.3612 -0.8910 0.2751
vn 0.7547 -0.3656 0.5447
vn 0.7548 -0.3656 0.5447
vn 0.7372 -0.6043 -0.3022
vn 0.9762 0.0077 0.2166
vn 0.9762 0.0078 0.2167
vn 0.9762 0.0077 0.2167
vn 0.6939 0.7167 -0.0686
vn 0.6509 0.1404 -0.7460
vn 0.8942 0.4085 -0.1828
vn 0.9297 0.3388 -0.1443
vn 0.6758 0.5974 -0.4316
vn 0.8320 0.4967 0.2470
vn 0.9297 0.3388 -0.1442
vn 0.8320 0.4967 0.2471
vn 0.8941 -0.4467 0.0322
vn 0.5141 0.8437 -0.1542
vn 0.5142 0.8437 -0.1542
vn 0.6758 0.5975 -0.4316
vn 0.4844 0.6244 -0.6127
vn 0.7457 -0.2390 0.6220
vn 0.8941 -0.4467 0.0321
vn 0.8941 -0.4468 0.0322
vn 0.2355 -0.9639 0.1245
vn 0.2983 0.8930 -0.3370
vn 0.4844 0.6244 -0.6128
vn 0.3174 0.5954 -0.7380
vn 0.3003 0.7003 0.6476
vn 0.7456 -0.2390 0.6220
vn 0.0784 0.8741 -0.4794
vn 0.1753 0.5361 -0.8258
vn -0.1052 0.7862 -0.6090
vn 0.0379 0.4441 -0.8952
vn -0.2457 0.6545 -0.7150
vn -0.2265 0.0015 -0.9740
vn 0.0967 -0.8331 0.5447
vn 0.2355 -0.9639 0.1244
vn 0.0375 0.2769 0.9602
vn 0.0375 0.2768 0.9602
vn 0.0967 -0.8331 0.5446
vn 0.0164 0.8800 0.4747
vn 0.0376 0.2768 0.9602
vn -0.1636 0.9320 0.3236
vn -0.3609 0.9117 0.1963
vn 0.2982 0.8930 -0.3371
vn -0.3608 0.9117 0.1963
vn -0.1636 0.9319 0.3236
vn -0.5513 0.8320 0.0610
vn -0.5513 0.8321 0.0610
vn -0.2457 0.6546 -0.7150
vn -0.6939 0.7167 -0.0686
vn -0.6939 0.7168 -0.0686
vn -0.5513 0.8320 0.0609
vn -0.1539 -0.8911 0.4269
vn 0.0280 -0.9926 0.1181
vn 0.0431 -0.9912 0.1249
vn 0.0280 -0.9926 0.1180
vn -0.1470 -0.8784 0.4548
vn 0.0430 -0.9912 0.1249
vn 0.1315 -0.9751 0.1788
vn 0.0430 -0.9912 0.1248
vn -0.1470 -0.8784 0.4547
vn -0.4158 -0.1686 0.8937
vn -0.1012 -0.8529 0.5122
vn 0.1320 -0.9751 0.1784
vn 0.2123 -0.9423 0.2590
vn -0.1012 -0.8529 0.5121
vn -0.6509 0.1403 -0.7461
vn -0.6940 0.7167 -0.0686
vn -0.6510 0.1403 -0.7460
vn -0.2717 -0.2631 0.9257
vn -0.2718 -0.2631 0.9257
vn 0.0968 -0.8331 0.5447
vn -0.3196 0.4832 0.8151
vn -0.3197 0.4832 0.8151
vn -0.4636 -0.0918 0.8813
vn -0.1471 -0.8784 0.4548
vn -0.3196 0.4833 0.8150
vn -0.4242 0.5421 0.7254
vn -0.4242 0.5420 0.7254
vn -0.4243 0.5421 0.7254
vn -0.0488 -0.8406 0.5395
vn 0.2020 -0.9390 0.2782
vn -0.5172 -0.0563 0.8540
vn -0.5172 -0.0562 0.8540
vn -0.5409 0.5485 0.6377
vn -0.4243 0.5420 0.7254
vn -0.5409 0.5485 0.6376
vn -0.1636 0.9320 0.3235
vn -0.0481 -0.8495 0.5254
vn 0.2020 -0.9390 0.2783
vn -0.0066 -0.9983 0.0586
vn -0.0481 -0.8495 0.5255
vn -0.5783 -0.1051 0.8091
vn -0.5783 -0.1050 0.8091
vn -0.0480 -0.8495 0.5254
vn -0.0487 -0.8406 0.5395
vn -0.5783 -0.1050 0.8090
vn -0.6786 0.4891 0.5480
vn -0.5783 -0.1051 0.8090
vn -0.5514 0.8320 0.0610
vn -0.3613 -0.8910 0.2751
vn -0.2415 -0.7921 -0.5606
vn -0.6329 -0.1832 0.7522
vn -0.6329 -0.1833 0.7522
vn -0.0480 -0.8495 0.5255
vn -0.7944 0.3984 0.4584
vn -0.7372 -0.6044 -0.3022
vn -0.3613 -0.8909 0.2751
vn -0.2265 0.0016 -0.9740
vn -0.2415 -0.7921 -0.5607
vn -0.7371 -0.6044 -0.3022
vn -0.6509 0.1403 -0.7460
vn -0.2266 0.0015 -0.9740
vn -0.7547 -0.3656 0.5447
vn -0.3612 -0.8910 0.2751
vn -0.7548 -0.3656 0.5447
vn -0.7372 -0.6043 -0.3022
vn -0.9762 0.0077 0.2166
vn -0.9762 0.0078 0.2167
vn -0.9762 0.0077 0.2167
vn -0.6509 0.1404 -0.7460
vn -0.8942 0.4085 -0.1828
vt 0.959961 0.488525
vt 0.956543 0.490234
vt 0.956055 0.489502
vt 0.954102 0.490723
vt 0.958496 0.487549
vt 0.964356 0.480957
vt 0.954102 0.489502
vt 0.952148 0.489502
vt 0.961914 0.480225
vt 0.965332 0.470703
vt 0.956055 0.488281
vt 0.962402 0.470459
vt 0.964356 0.460693
vt 0.961914 0.461426
vt 0.960449 0.452148
vt 0.958984 0.453369
vt 0.957519 0.450684
vt 0.953125 0.488770
vt 0.954590 0.488281
vt 0.957031 0.486572
vt 0.958984 0.479492
vt 0.959961 0.470459
vt 0.958984 0.461914
vt 0.957519 0.454590
vt 0.956543 0.451416
vt 0.955078 0.451416
vt 0.955078 0.450195
vt 0.953125 0.452393
vt 0.952637 0.451416
vt 0.951660 0.454834
vt 0.950195 0.453369
vt 0.950195 0.462891
vt 0.947266 0.462158
vt 0.950195 0.470703
vt 0.947266 0.470947
vt 0.950195 0.478516
vt 0.947266 0.479248
vt 0.951660 0.486572
vt 0.949707 0.487549
vt 0.953125 0.486084
vt 0.952637 0.478272
vt 0.952637 0.470459
vt 0.952637 0.462891
vt 0.953613 0.487793
vt 0.955078 0.486084
vt 0.956055 0.478760
vt 0.956055 0.470459
vt 0.956055 0.462647
vt 0.953125 0.455322
vt 0.955566 0.455322
vt 0.953613 0.453613
vt 0.955078 0.452881
vt 0.956543 0.452881
s 0
usemtl æè´¨
f 3/1/1 2/2/2 1/3/3
f 1/3/4 2/2/5 4/4/6
f 5/5/7 3/1/8 1/3/3
f 3/1/9 5/5/10 6/6/11
f 7/7/12 1/3/3 4/4/13
f 7/7/12 4/4/14 8/8/15
f 5/5/10 9/9/16 6/6/11
f 6/6/11 9/9/16 10/10/17
f 5/5/10 1/3/3 11/11/18
f 11/11/18 1/3/4 7/7/19
f 9/9/16 12/12/20 10/10/17
f 10/10/17 12/12/20 13/13/21
f 12/12/20 14/14/22 13/13/21
f 13/13/21 14/14/22 15/15/23
f 14/14/22 16/16/24 15/15/23
f 17/17/25 15/15/23 16/16/26
f 18/18/27 7/7/12 8/8/28
f 19/19/29 11/11/18 7/7/12
f 19/19/30 7/7/12 18/18/31
f 20/20/32 5/5/7 11/11/18
f 20/20/32 11/11/18 19/19/30
f 21/21/33 9/9/16 5/5/7
f 20/20/32 21/21/34 5/5/10
f 22/22/35 12/12/20 9/9/36
f 21/21/34 22/22/37 9/9/16
f 23/23/38 14/14/22 12/12/20
f 22/22/37 23/23/39 12/12/20
f 24/24/40 16/16/26 14/14/22
f 23/23/41 24/24/40 14/14/22
f 25/25/42 17/17/25 16/16/26
f 25/25/43 16/16/24 24/24/44
f 17/17/45 25/25/46 26/26/47
f 27/27/48 17/17/49 26/26/50
f 27/27/51 26/26/47 28/28/52
f 29/29/53 27/27/51 28/28/54
f 29/29/53 28/28/54 30/30/55
f 31/31/56 29/29/53 30/30/57
f 31/31/58 30/30/57 32/32/59
f 33/33/60 31/31/56 32/32/59
f 33/33/60 32/32/59 34/34/61
f 35/35/62 33/33/60 34/34/61
f 35/35/62 34/34/61 36/36/63
f 37/37/64 35/35/62 36/36/65
f 37/37/66 36/36/67 38/38/68
f 39/39/69 37/37/66 38/38/68
f 39/39/69 38/38/68 8/8/15
f 38/38/68 18/18/27 8/8/15
f 38/38/68 36/36/65 40/40/70
f 38/38/68 40/40/70 18/18/31
f 36/36/67 34/34/61 41/41/71
f 36/36/72 41/41/71 40/40/70
f 34/34/73 32/32/59 42/42/74
f 34/34/61 42/42/75 41/41/71
f 32/32/59 30/30/76 43/43/77
f 32/32/59 43/43/78 42/42/74
f 40/40/70 44/44/79 18/18/31
f 44/44/80 19/19/29 18/18/81
f 40/40/70 45/45/82 44/44/80
f 45/45/83 19/19/30 44/44/79
f 40/40/70 41/41/71 45/45/84
f 45/45/83 20/20/32 19/19/29
f 41/41/71 46/46/85 45/45/83
f 45/45/83 46/46/86 20/20/32
f 41/41/71 42/42/74 46/46/85
f 46/46/85 21/21/34 20/20/32
f 42/42/74 47/47/87 46/46/88
f 46/46/89 47/47/90 21/21/34
f 42/42/74 43/43/91 47/47/87
f 47/47/90 22/22/37 21/21/92
f 47/47/93 48/48/94 22/22/37
f 43/43/95 48/48/94 47/47/87
f 48/48/94 23/23/96 22/22/37
f 43/43/78 49/49/97 48/48/94
f 30/30/76 49/49/98 43/43/91
f 30/30/99 28/28/54 49/49/98
f 48/48/94 50/50/100 23/23/96
f 49/49/98 50/50/100 48/48/94
f 50/50/100 24/24/40 23/23/38
f 28/28/101 51/51/102 49/49/98
f 49/49/98 51/51/103 50/50/100
f 28/28/54 26/26/104 51/51/102
f 51/51/102 52/52/105 50/50/100
f 26/26/104 52/52/106 51/51/103
f 50/50/100 52/52/107 24/24/108
f 26/26/47 25/25/109 52/52/107
f 53/53/110 25/25/42 24/24/44
f 25/25/46 53/53/110 52/52/105
f 52/52/107 53/53/110 24/24/44
f 56/2/111 55/1/112 54/3/113
f 56/2/114 54/3/115 57/4/116
f 55/1/112 58/5/117 54/3/113
f 58/5/118 55/1/119 59/6/120
f 54/3/113 60/7/121 57/4/122
f 57/4/123 60/7/121 61/8/124
f 62/9/125 58/5/118 59/6/126
f 62/9/125 59/6/120 63/10/127
f 54/3/113 58/5/118 64/11/128
f 54/3/115 64/11/128 60/7/129
f 65/12/130 62/9/125 63/10/127
f 65/12/130 63/10/127 66/13/131
f 67/14/132 65/12/130 66/13/131
f 67/14/132 66/13/131 68/15/133
f 69/16/134 67/14/132 68/15/133
f 68/15/133 70/17/135 69/16/134
f 60/7/121 71/18/136 61/8/137
f 64/11/128 72/19/138 60/7/121
f 60/7/121 72/19/139 71/18/140
f 58/5/117 73/20/141 64/11/128
f 64/11/128 73/20/141 72/19/142
f 62/9/125 74/21/143 58/5/117
f 74/21/143 73/20/141 58/5/117
f 65/12/130 75/22/144 62/9/145
f 75/22/146 74/21/147 62/9/125
f 67/14/132 76/23/148 65/12/130
f 76/23/149 75/22/146 65/12/130
f 69/16/150 77/24/151 67/14/132
f 77/24/152 76/23/153 67/14/132
f 71/18/136 78/38/154 61/8/124
f 78/38/154 79/39/155 61/8/137
f 80/37/156 79/39/157 78/38/154
f 81/36/158 80/37/159 78/38/154
f 82/35/160 80/37/161 81/36/162
f 83/40/163 78/38/154 71/18/140
f 81/36/162 78/38/154 83/40/163
f 84/34/164 82/35/165 81/36/158
f 85/33/166 82/35/160 84/34/167
f 69/16/134 86/25/168 77/24/169
f 70/17/135 86/25/170 69/16/150
f 87/44/171 83/40/163 71/18/136
f 72/19/142 87/44/172 71/18/173
f 72/19/139 88/45/174 87/44/171
f 88/45/175 83/40/163 87/44/172
f 73/20/141 88/45/174 72/19/142
f 89/41/176 81/36/177 83/40/163
f 89/41/176 83/40/163 88/45/178
f 84/34/164 81/36/158 89/41/176
f 90/46/179 88/45/174 73/20/141
f 90/46/180 89/41/176 88/45/174
f 74/21/147 90/46/181 73/20/141
f 91/32/182 85/33/166 84/34/164
f 92/31/183 85/33/166 91/32/182
f 93/42/184 84/34/164 89/41/176
f 93/42/185 89/41/176 90/46/180
f 91/32/182 84/34/164 93/42/185
f 94/47/186 90/46/187 74/21/143
f 94/47/188 93/42/185 90/46/187
f 75/22/146 94/47/186 74/21/189
f 95/30/190 92/31/191 91/32/182
f 96/29/192 92/31/183 95/30/193
f 97/43/194 91/32/182 93/42/185
f 97/43/195 93/42/185 94/47/188
f 95/30/196 91/32/197 97/43/198
f 98/48/199 94/47/186 75/22/146
f 98/48/199 97/43/200 94/47/186
f 76/23/201 98/48/199 75/22/146
f 99/28/202 96/29/192 95/30/190
f 100/27/203 96/29/192 99/28/202
f 101/49/204 95/30/196 97/43/195
f 101/49/205 97/43/194 98/48/199
f 99/28/202 95/30/206 101/49/204
f 102/50/207 98/48/199 76/23/201
f 102/50/207 101/49/204 98/48/199
f 77/24/152 102/50/207 76/23/148
f 103/26/208 100/27/203 99/28/209
f 70/17/210 100/27/211 103/26/212
f 86/25/213 70/17/214 103/26/208
f 104/51/215 99/28/216 101/49/205
f 104/51/217 101/49/204 102/50/207
f 103/26/218 99/28/202 104/51/217
f 105/52/219 104/51/215 102/50/207
f 105/52/220 103/26/218 104/51/217
f 105/52/221 102/50/207 77/24/151
f 86/25/222 103/26/208 105/52/221
f 86/25/170 106/53/223 77/24/169
f 106/53/223 86/25/213 105/52/219
f 106/53/223 105/52/221 77/24/169
