# Blender 4.0.2
# www.blender.org
mtllib Eyes2_Blinks.mtl
o blink
v -0.302260 1.078760 0.364588
v -0.325305 1.095383 0.358499
v -0.294084 1.081929 0.342126
v -0.317128 1.098552 0.336036
v -0.196546 1.113060 0.409563
v -0.190970 1.132089 0.415299
v -0.187901 1.116183 0.394199
v -0.182325 1.135213 0.399935
v -0.304881 1.068399 0.341171
v -0.309477 1.064419 0.346539
v -0.309756 1.066833 0.354533
v -0.315318 1.078115 0.361383
v -0.326360 1.081025 0.358589
v -0.328991 1.087978 0.357771
v -0.333098 1.093446 0.349882
v -0.335423 1.093090 0.341185
v -0.328247 1.095327 0.336555
v -0.319621 1.091609 0.332032
v -0.316392 1.084889 0.331204
v -0.305949 1.081747 0.335644
v -0.214487 1.121256 0.380376
v -0.246042 1.114098 0.363256
v -0.273032 1.104067 0.351561
v -0.301316 1.120802 0.343485
v -0.255561 1.141039 0.363745
v -0.204549 1.145791 0.388929
v -0.176501 1.132400 0.400456
v -0.174660 1.127285 0.399602
v -0.179809 1.121109 0.397053
v -0.183559 1.109836 0.410543
v -0.178182 1.109612 0.406996
v -0.178299 1.111491 0.401453
v -0.177349 1.136795 0.406285
v -0.176531 1.136982 0.412464
v -0.182479 1.134942 0.415401
v -0.186408 1.128821 0.418061
v -0.185200 1.123478 0.418333
v -0.189716 1.117531 0.414658
v -0.282394 1.100630 0.377331
v -0.258309 1.109931 0.389680
v -0.226074 1.117242 0.400750
v -0.216136 1.141777 0.409303
v -0.267828 1.136872 0.390169
v -0.310679 1.117365 0.369254
v -0.321196 1.062323 0.350240
v -0.335572 1.064199 0.345462
v -0.339551 1.071462 0.344642
v -0.322696 1.058902 0.340909
v -0.337818 1.060617 0.335381
v -0.341984 1.068378 0.335009
v -0.316000 1.063992 0.336000
v -0.330098 1.065958 0.330456
v -0.334355 1.073132 0.330402
v -0.280066 1.107101 0.345299
v -0.289155 1.110846 0.341060
v -0.295674 1.116335 0.340842
v -0.246467 1.120795 0.359633
v -0.248488 1.128354 0.358516
v -0.251669 1.135519 0.359900
v -0.208706 1.127390 0.380371
v -0.203709 1.134422 0.382534
v -0.203222 1.140929 0.385091
v -0.169627 1.113314 0.405286
v -0.162072 1.120157 0.409333
v -0.163206 1.126045 0.410201
v -0.168063 1.111517 0.411848
v -0.160048 1.118539 0.416457
v -0.161257 1.124817 0.417027
v -0.175233 1.111550 0.414974
v -0.167978 1.118298 0.419542
v -0.168811 1.124280 0.419888
v -0.223449 1.122282 0.406293
v -0.219521 1.128944 0.410335
v -0.217965 1.135821 0.411013
v -0.262201 1.115451 0.393524
v -0.265382 1.122616 0.394908
v -0.267403 1.130175 0.393792
v -0.291979 1.102728 0.378087
v -0.301931 1.106156 0.376225
v -0.307587 1.111963 0.373630
v -0.273249 1.099833 0.357492
v -0.247478 1.109346 0.369178
v -0.216461 1.117104 0.384630
v -0.276244 1.097083 0.364153
v -0.250380 1.106933 0.376375
v -0.218396 1.114943 0.390599
v -0.278416 1.097937 0.371712
v -0.254183 1.107069 0.383619
v -0.222855 1.114889 0.395872
v -0.203816 1.148322 0.395512
v -0.259687 1.143901 0.369805
v -0.309238 1.121127 0.347216
v -0.204834 1.148423 0.402270
v -0.263490 1.144037 0.377049
v -0.314842 1.119920 0.353132
v -0.210210 1.146107 0.406755
v -0.266392 1.141623 0.384247
v -0.314404 1.119230 0.361436
v 0.287079 1.078760 0.364588
v 0.310123 1.095383 0.358499
v 0.278902 1.081929 0.342126
v 0.301946 1.098552 0.336036
v 0.181365 1.113060 0.409563
v 0.175789 1.132089 0.415299
v 0.172719 1.116183 0.394199
v 0.167143 1.135213 0.399935
v 0.289699 1.068399 0.341171
v 0.294295 1.064419 0.346539
v 0.294574 1.066833 0.354533
v 0.300137 1.078115 0.361383
v 0.311178 1.081025 0.358589
v 0.313809 1.087978 0.357771
v 0.317916 1.093446 0.349882
v 0.320241 1.093090 0.341185
v 0.313065 1.095327 0.336555
v 0.304440 1.091609 0.332032
v 0.301210 1.084889 0.331204
v 0.290767 1.081747 0.335644
v 0.199305 1.121256 0.380376
v 0.230860 1.114098 0.363256
v 0.257850 1.104067 0.351561
v 0.286134 1.120802 0.343485
v 0.240379 1.141039 0.363745
v 0.189367 1.145791 0.388929
v 0.161319 1.132400 0.400456
v 0.159478 1.127285 0.399602
v 0.164628 1.121109 0.397053
v 0.168377 1.109836 0.410543
v 0.163000 1.109612 0.406996
v 0.163117 1.111491 0.401453
v 0.162167 1.136795 0.406285
v 0.161350 1.136982 0.412464
v 0.167297 1.134942 0.415401
v 0.171226 1.128821 0.418061
v 0.170018 1.123478 0.418333
v 0.174534 1.117531 0.414658
v 0.267213 1.100630 0.377331
v 0.243127 1.109931 0.389680
v 0.210892 1.117242 0.400750
v 0.200954 1.141777 0.409303
v 0.252646 1.136872 0.390169
v 0.295497 1.117365 0.369254
v 0.306014 1.062323 0.350240
v 0.320390 1.064199 0.345462
v 0.324369 1.071462 0.344642
v 0.307514 1.058902 0.340909
v 0.322636 1.060617 0.335381
v 0.326802 1.068378 0.335009
v 0.300819 1.063992 0.336000
v 0.314916 1.065958 0.330456
v 0.319174 1.073132 0.330402
v 0.264884 1.107101 0.345299
v 0.273973 1.110846 0.341060
v 0.280492 1.116335 0.340842
v 0.231285 1.120795 0.359633
v 0.233306 1.128354 0.358516
v 0.236487 1.135519 0.359900
v 0.193524 1.127390 0.380371
v 0.188528 1.134422 0.382534
v 0.188040 1.140929 0.385091
v 0.154445 1.113314 0.405286
v 0.146890 1.120157 0.409333
v 0.148024 1.126045 0.410201
v 0.152881 1.111517 0.411848
v 0.144866 1.118539 0.416457
v 0.146076 1.124817 0.417027
v 0.160051 1.111550 0.414974
v 0.152796 1.118298 0.419542
v 0.153629 1.124280 0.419888
v 0.208267 1.122282 0.406293
v 0.204339 1.128944 0.410335
v 0.202783 1.135821 0.411013
v 0.247019 1.115451 0.393524
v 0.250201 1.122616 0.394908
v 0.252221 1.130175 0.393792
v 0.276797 1.102728 0.378087
v 0.286749 1.106156 0.376225
v 0.292405 1.111963 0.373630
v 0.258067 1.099833 0.357492
v 0.232297 1.109346 0.369178
v 0.201279 1.117104 0.384630
v 0.261062 1.097083 0.364153
v 0.235198 1.106933 0.376375
v 0.203214 1.114943 0.390599
v 0.263234 1.097937 0.371712
v 0.239001 1.107069 0.383619
v 0.207673 1.114889 0.395872
v 0.188634 1.148322 0.395512
v 0.244505 1.143901 0.369805
v 0.294056 1.121127 0.347216
v 0.189653 1.148423 0.402270
v 0.248308 1.144037 0.377049
v 0.299660 1.119920 0.353132
v 0.195028 1.146107 0.406755
v 0.251210 1.141623 0.384247
v 0.299223 1.119230 0.361436
vn -0.0372 -0.8332 0.5517
vn -0.4524 -0.6926 0.5618
vn -0.2125 -0.8884 -0.4069
vn 0.0597 -0.9981 -0.0131
vn -0.8397 -0.1145 0.5308
vn -0.7919 -0.1896 -0.5804
vn -0.0117 -0.3788 -0.9254
vn 0.3252 -0.6674 -0.6699
vn -0.2326 0.1126 -0.9660
vn 0.0962 -0.6095 0.7869
vn -0.2186 -0.4699 0.8552
vn 0.1571 -0.7461 0.6471
vn -0.4427 -0.3103 0.8413
vn -0.6725 0.0008 0.7401
vn -0.7733 0.2346 0.5890
vn -0.8699 0.3332 0.3636
vn -0.8098 0.4831 -0.3329
vn -0.4229 0.4774 -0.7702
vn -0.2271 0.4649 -0.8558
vn -0.0529 0.2822 -0.9579
vn 0.1675 -0.0015 -0.9859
vn 0.4161 -0.1921 -0.8888
vn 0.6037 -0.6443 -0.4694
vn 0.6318 -0.3830 -0.6739
vn 0.4284 -0.8960 0.1170
vn 0.4486 -0.1430 -0.8822
vn 0.2800 0.1192 -0.9526
vn 0.3737 0.1754 -0.9108
vn 0.4694 -0.1987 -0.8604
vn 0.0418 0.4089 -0.9116
vn 0.2268 0.5148 -0.8267
vn 0.4808 0.1709 -0.8600
vn 0.4761 -0.1747 -0.8618
vn 0.4221 0.5579 -0.7146
vn 0.5624 -0.4776 -0.6750
vn -0.0949 0.6417 -0.7611
vn 0.0455 0.8059 -0.5903
vn 0.2718 0.8403 -0.4691
vn 0.5394 0.7034 -0.4630
vn 0.5904 0.5189 -0.6182
vn 0.5840 0.1050 -0.8049
vn 0.4881 -0.1946 -0.8509
vn 0.4235 -0.5410 -0.7267
vn 0.3212 -0.5332 -0.7826
vn 0.4907 -0.5781 -0.6519
vn 0.5086 -0.6448 -0.5706
vn 0.7961 -0.1363 -0.5897
vn 0.6466 -0.4761 0.5961
vn 0.3270 -0.9327 0.1521
vn 0.7527 0.5382 -0.3791
vn 0.5703 0.4795 0.6670
vn 0.0837 -0.3627 0.9281
vn 0.0086 -0.7604 0.6494
vn 0.1040 0.1889 0.9765
vn 0.2071 -0.8227 -0.5295
vn 0.5169 0.8294 -0.2120
vn 0.3135 0.8395 0.4438
vn 0.0647 0.5657 0.8221
vn -0.0687 0.4236 0.9032
vn -0.1160 0.2172 0.9692
vn -0.1771 -0.1797 0.9677
vn -0.2384 -0.4689 0.8505
vn -0.0895 -0.9385 0.3335
vn -0.2620 -0.7583 0.5969
vn 0.0901 -0.9873 -0.1306
vn -0.2504 -0.4564 0.8538
vn -0.2748 -0.1461 0.9503
vn -0.3394 -0.1650 0.9261
vn -0.2045 -0.5133 0.8335
vn -0.2250 0.2649 0.9377
vn -0.4158 0.2133 0.8841
vn -0.3980 -0.2063 0.8939
vn -0.2140 -0.4592 0.8622
vn -0.5712 0.1219 0.8117
vn -0.1548 -0.7776 0.6094
vn -0.1931 0.5317 0.8246
vn -0.4154 0.6162 0.6691
vn -0.6398 0.4728 0.6060
vn 0.0075 -0.7161 0.6979
vn -0.0323 -0.7854 0.6181
vn 0.5911 -0.7596 -0.2715
vn 0.4256 -0.8384 -0.3405
vn 0.3034 -0.9529 -0.0038
vn 0.5135 -0.8558 0.0620
vn 0.2616 -0.8443 -0.4677
vn 0.0928 -0.9867 -0.1336
vn 0.1437 -0.9342 0.3266
vn 0.3365 -0.8631 0.3766
vn -0.0239 -0.9758 0.2172
vn 0.1632 0.9701 -0.1794
vn -0.0970 0.9549 -0.2807
vn -0.2202 0.9751 0.0263
vn 0.0664 0.9748 0.2130
vn -0.3231 0.7859 -0.5273
vn -0.5552 0.8205 -0.1363
vn -0.3309 0.8816 0.3366
vn -0.0813 0.7949 0.6013
vn -0.6474 0.7044 0.2910
vn 0.0372 -0.8332 0.5517
vn -0.0597 -0.9981 -0.0131
vn 0.2125 -0.8884 -0.4069
vn 0.4524 -0.6926 0.5618
vn 0.7919 -0.1896 -0.5804
vn 0.8397 -0.1145 0.5308
vn -0.3252 -0.6674 -0.6699
vn 0.0117 -0.3788 -0.9254
vn 0.2326 0.1126 -0.9660
vn -0.0962 -0.6095 0.7869
vn -0.1571 -0.7461 0.6471
vn 0.2186 -0.4699 0.8552
vn 0.4427 -0.3103 0.8413
vn 0.6725 0.0008 0.7401
vn 0.8699 0.3332 0.3636
vn 0.7733 0.2346 0.5890
vn 0.8098 0.4831 -0.3329
vn 0.4229 0.4774 -0.7702
vn 0.0529 0.2822 -0.9579
vn 0.2271 0.4649 -0.8558
vn -0.1675 -0.0015 -0.9859
vn -0.4161 -0.1921 -0.8888
vn -0.6037 -0.6443 -0.4694
vn -0.6318 -0.3830 -0.6739
vn -0.4284 -0.8960 0.1170
vn -0.4486 -0.1430 -0.8822
vn -0.4694 -0.1987 -0.8604
vn -0.3737 0.1754 -0.9108
vn -0.2800 0.1192 -0.9526
vn -0.2268 0.5148 -0.8267
vn -0.0418 0.4089 -0.9116
vn -0.4761 -0.1747 -0.8618
vn -0.4808 0.1709 -0.8600
vn -0.4221 0.5579 -0.7146
vn -0.5624 -0.4776 -0.6750
vn 0.0949 0.6417 -0.7611
vn -0.0455 0.8059 -0.5903
vn -0.2718 0.8403 -0.4691
vn -0.5904 0.5189 -0.6182
vn -0.5394 0.7034 -0.4630
vn -0.5840 0.1050 -0.8049
vn -0.4881 -0.1946 -0.8509
vn -0.4235 -0.5410 -0.7267
vn -0.3212 -0.5332 -0.7826
vn -0.4907 -0.5781 -0.6519
vn -0.5086 -0.6448 -0.5706
vn -0.3270 -0.9327 0.1521
vn -0.6466 -0.4761 0.5961
vn -0.7961 -0.1363 -0.5897
vn -0.5703 0.4795 0.6670
vn -0.7527 0.5382 -0.3791
vn -0.0086 -0.7604 0.6494
vn -0.0837 -0.3627 0.9281
vn -0.1040 0.1889 0.9765
vn -0.2071 -0.8227 -0.5295
vn -0.5169 0.8294 -0.2120
vn -0.3135 0.8395 0.4438
vn -0.0647 0.5657 0.8221
vn 0.1160 0.2172 0.9692
vn 0.0687 0.4236 0.9032
vn 0.1771 -0.1797 0.9677
vn 0.2384 -0.4689 0.8505
vn 0.0895 -0.9385 0.3335
vn 0.2620 -0.7583 0.5969
vn -0.0901 -0.9873 -0.1306
vn 0.2504 -0.4564 0.8538
vn 0.2045 -0.5133 0.8335
vn 0.3394 -0.1650 0.9261
vn 0.2748 -0.1461 0.9503
vn 0.4158 0.2133 0.8841
vn 0.2250 0.2649 0.9377
vn 0.2140 -0.4592 0.8622
vn 0.3980 -0.2063 0.8939
vn 0.5712 0.1219 0.8117
vn 0.1548 -0.7776 0.6094
vn 0.1931 0.5317 0.8246
vn 0.4154 0.6162 0.6691
vn 0.6398 0.4728 0.6060
vn -0.0075 -0.7161 0.6979
vn 0.0323 -0.7854 0.6181
vn -0.5911 -0.7596 -0.2715
vn -0.5135 -0.8558 0.0620
vn -0.3034 -0.9529 -0.0038
vn -0.4256 -0.8384 -0.3405
vn -0.0928 -0.9867 -0.1336
vn -0.2616 -0.8443 -0.4677
vn -0.3365 -0.8631 0.3766
vn -0.1437 -0.9342 0.3266
vn 0.0239 -0.9758 0.2172
vn -0.1632 0.9701 -0.1794
vn -0.0664 0.9748 0.2130
vn 0.2202 0.9751 0.0263
vn 0.0970 0.9549 -0.2807
vn 0.5552 0.8205 -0.1363
vn 0.3232 0.7859 -0.5272
vn 0.0813 0.7949 0.6013
vn 0.3309 0.8816 0.3366
vn 0.6474 0.7044 0.2910
vt 0.367146 0.050579
vt 0.375984 0.050579
vt 0.375984 0.059418
vt 0.367146 0.059418
vt 0.384823 0.050579
vt 0.384823 0.059418
vt 0.375984 0.068257
vt 0.367146 0.068257
vt 0.384823 0.068257
vt 0.358307 0.041740
vt 0.367146 0.041740
vt 0.358307 0.050579
vt 0.375984 0.041740
vt 0.384823 0.041740
vt 0.393662 0.041740
vt 0.393662 0.050579
vt 0.393662 0.059418
vt 0.393662 0.068257
vt 0.393662 0.077096
vt 0.384823 0.077096
vt 0.375984 0.077096
vt 0.367146 0.077096
vt 0.358307 0.068257
vt 0.358307 0.077096
vt 0.358307 0.059418
vt 0.367146 0.085935
vt 0.375984 0.085935
vt 0.375984 0.094773
vt 0.367146 0.094773
vt 0.384823 0.085935
vt 0.384823 0.094773
vt 0.375984 0.103612
vt 0.367146 0.103612
vt 0.384823 0.103612
vt 0.358307 0.085935
vt 0.393662 0.085935
vt 0.393662 0.094773
vt 0.393662 0.103612
vt 0.393662 0.112451
vt 0.384823 0.112451
vt 0.375984 0.112451
vt 0.367146 0.112451
vt 0.358307 0.103612
vt 0.358307 0.112451
vt 0.358307 0.094773
vt 0.367146 0.121290
vt 0.375984 0.121290
vt 0.375984 0.130129
vt 0.367146 0.130129
vt 0.384823 0.121290
vt 0.384823 0.130129
vt 0.375984 0.138968
vt 0.367146 0.138968
vt 0.384823 0.138968
vt 0.358307 0.121290
vt 0.393662 0.121290
vt 0.393662 0.130129
vt 0.393662 0.138968
vt 0.393662 0.147806
vt 0.384823 0.147806
vt 0.375984 0.147806
vt 0.367146 0.147806
vt 0.358307 0.138968
vt 0.358307 0.147806
vt 0.358307 0.130129
vt 0.367146 0.156645
vt 0.375984 0.156645
vt 0.375984 0.165484
vt 0.367146 0.165484
vt 0.384823 0.156645
vt 0.384823 0.165484
vt 0.375984 0.174323
vt 0.367146 0.174323
vt 0.384823 0.174323
vt 0.358307 0.156645
vt 0.393662 0.156645
vt 0.393662 0.165484
vt 0.393662 0.174323
vt 0.393662 0.183162
vt 0.384823 0.183162
vt 0.375984 0.183162
vt 0.367146 0.183162
vt 0.358307 0.174323
vt 0.358307 0.183162
vt 0.358307 0.165484
vt 0.331790 0.121290
vt 0.340629 0.121290
vt 0.340629 0.130129
vt 0.331790 0.130129
vt 0.349468 0.121290
vt 0.349468 0.130129
vt 0.340629 0.138968
vt 0.331790 0.138968
vt 0.349468 0.138968
vt 0.322951 0.112451
vt 0.331790 0.112451
vt 0.322951 0.121290
vt 0.340629 0.112451
vt 0.349468 0.112451
vt 0.349468 0.147806
vt 0.340629 0.147806
vt 0.331790 0.147806
vt 0.322951 0.138968
vt 0.322951 0.147806
vt 0.322951 0.130129
vt 0.402501 0.121290
vt 0.411340 0.121290
vt 0.411340 0.130129
vt 0.402501 0.130129
vt 0.420179 0.121290
vt 0.420179 0.130129
vt 0.411340 0.138968
vt 0.402501 0.138968
vt 0.420179 0.138968
vt 0.402501 0.112451
vt 0.411340 0.112451
vt 0.420179 0.112451
vt 0.429017 0.112451
vt 0.429017 0.121290
vt 0.429017 0.130129
vt 0.429017 0.138968
vt 0.429017 0.147806
vt 0.420179 0.147806
vt 0.411340 0.147806
vt 0.402501 0.147806
s 1
usemtl æè´¨.013
f 45/1/1 46/2/2 49/3/3 48/4/4
f 46/2/2 47/5/5 50/6/6 49/3/3
f 48/4/4 49/3/3 52/7/7 51/8/8
f 49/3/3 50/6/6 53/9/9 52/7/7
f 1/10/10 12/11/11 45/1/1 11/12/12
f 12/11/11 13/13/13 46/2/2 45/1/1
f 13/13/13 14/14/14 47/5/5 46/2/2
f 14/14/14 2/15/15 15/16/16 47/5/5
f 47/5/5 15/16/16 16/17/17 50/6/6
f 50/6/6 16/17/17 17/18/18 53/9/9
f 53/9/9 17/18/18 4/19/19 18/20/20
f 52/7/7 53/9/9 18/20/20 19/21/21
f 51/8/8 52/7/7 19/21/21 20/22/22
f 9/23/23 51/8/8 20/22/22 3/24/24
f 10/25/25 48/4/4 51/8/8 9/23/23
f 11/12/12 45/1/1 48/4/4 10/25/25
f 54/26/26 55/27/27 58/28/28 57/29/29
f 55/27/27 56/30/30 59/31/31 58/28/28
f 57/29/29 58/28/28 61/32/32 60/33/33
f 58/28/28 59/31/31 62/34/34 61/32/32
f 3/24/24 20/22/22 54/26/26 23/35/35
f 20/22/22 19/21/21 55/27/27 54/26/26
f 19/21/21 18/20/20 56/30/30 55/27/27
f 18/20/20 4/19/19 24/36/36 56/30/30
f 56/30/30 24/36/36 25/37/37 59/31/31
f 59/31/31 25/37/37 26/38/38 62/34/34
f 62/34/34 26/38/38 8/39/39 27/40/40
f 61/32/32 62/34/34 27/40/40 28/41/41
f 60/33/33 61/32/32 28/41/41 29/42/42
f 21/43/43 60/33/33 29/42/42 7/44/44
f 22/45/45 57/29/29 60/33/33 21/43/43
f 23/35/35 54/26/26 57/29/29 22/45/45
f 63/46/46 64/47/47 67/48/48 66/49/49
f 64/47/47 65/50/50 68/51/51 67/48/48
f 66/49/49 67/48/48 70/52/52 69/53/53
f 67/48/48 68/51/51 71/54/54 70/52/52
f 7/44/44 29/42/42 63/46/46 32/55/55
f 29/42/42 28/41/41 64/47/47 63/46/46
f 28/41/41 27/40/40 65/50/50 64/47/47
f 27/40/40 8/39/39 33/56/56 65/50/50
f 65/50/50 33/56/56 34/57/57 68/51/51
f 68/51/51 34/57/57 35/58/58 71/54/54
f 71/54/54 35/58/58 6/59/59 36/60/60
f 70/52/52 71/54/54 36/60/60 37/61/61
f 69/53/53 70/52/52 37/61/61 38/62/62
f 30/63/63 69/53/53 38/62/62 5/64/64
f 31/65/65 66/49/49 69/53/53 30/63/63
f 32/55/55 63/46/46 66/49/49 31/65/65
f 72/66/66 73/67/67 76/68/68 75/69/69
f 73/67/67 74/70/70 77/71/71 76/68/68
f 75/69/69 76/68/68 79/72/72 78/73/73
f 76/68/68 77/71/71 80/74/74 79/72/72
f 5/64/64 38/62/62 72/66/66 41/75/75
f 38/62/62 37/61/61 73/67/67 72/66/66
f 37/61/61 36/60/60 74/70/70 73/67/67
f 36/60/60 6/59/59 42/76/76 74/70/70
f 74/70/70 42/76/76 43/77/77 77/71/71
f 77/71/71 43/77/77 44/78/78 80/74/74
f 80/74/74 44/78/78 2/79/15 14/80/14
f 79/72/72 80/74/74 14/80/14 13/81/13
f 78/73/73 79/72/72 13/81/13 12/82/11
f 39/83/79 78/73/73 12/82/11 1/84/10
f 40/85/80 75/69/69 78/73/73 39/83/79
f 41/75/75 72/66/66 75/69/69 40/85/80
f 81/86/81 82/87/82 85/88/83 84/89/84
f 82/87/82 83/90/85 86/91/86 85/88/83
f 84/89/84 85/88/83 88/92/87 87/93/88
f 85/88/83 86/91/86 89/94/89 88/92/87
f 3/95/24 23/96/35 81/86/81 9/97/23
f 23/96/35 22/98/45 82/87/82 81/86/81
f 22/98/45 21/99/43 83/90/85 82/87/82
f 21/99/43 7/44/44 32/55/55 83/90/85
f 83/90/85 32/55/55 31/65/65 86/91/86
f 86/91/86 31/65/65 30/63/63 89/94/89
f 89/94/89 30/63/63 5/64/64 41/100/75
f 88/92/87 89/94/89 41/100/75 40/101/80
f 87/93/88 88/92/87 40/101/80 39/102/79
f 11/103/12 87/93/88 39/102/79 1/104/10
f 10/105/25 84/89/84 87/93/88 11/103/12
f 9/97/23 81/86/81 84/89/84 10/105/25
f 90/106/90 91/107/91 94/108/92 93/109/93
f 91/107/91 92/110/94 95/111/95 94/108/92
f 93/109/93 94/108/92 97/112/96 96/113/97
f 94/108/92 95/111/95 98/114/98 97/112/96
f 8/39/39 26/115/38 90/106/90 33/56/56
f 26/115/38 25/116/37 91/107/91 90/106/90
f 25/116/37 24/117/36 92/110/94 91/107/91
f 24/117/36 4/118/19 17/119/18 92/110/94
f 92/110/94 17/119/18 16/120/17 95/111/95
f 95/111/95 16/120/17 15/121/16 98/114/98
f 98/114/98 15/121/16 2/122/15 44/123/78
f 97/112/96 98/114/98 44/123/78 43/124/77
f 96/113/97 97/112/96 43/124/77 42/125/76
f 35/58/58 96/113/97 42/125/76 6/59/59
f 34/57/57 93/109/93 96/113/97 35/58/58
f 33/56/56 90/106/90 93/109/93 34/57/57
f 143/1/99 146/4/100 147/3/101 144/2/102
f 144/2/102 147/3/101 148/6/103 145/5/104
f 146/4/100 149/8/105 150/7/106 147/3/101
f 147/3/101 150/7/106 151/9/107 148/6/103
f 99/10/108 109/12/109 143/1/99 110/11/110
f 110/11/110 143/1/99 144/2/102 111/13/111
f 111/13/111 144/2/102 145/5/104 112/14/112
f 112/14/112 145/5/104 113/16/113 100/15/114
f 145/5/104 148/6/103 114/17/115 113/16/113
f 148/6/103 151/9/107 115/18/116 114/17/115
f 151/9/107 116/20/117 102/19/118 115/18/116
f 150/7/106 117/21/119 116/20/117 151/9/107
f 149/8/105 118/22/120 117/21/119 150/7/106
f 107/23/121 101/24/122 118/22/120 149/8/105
f 108/25/123 107/23/121 149/8/105 146/4/100
f 109/12/109 108/25/123 146/4/100 143/1/99
f 152/26/124 155/29/125 156/28/126 153/27/127
f 153/27/127 156/28/126 157/31/128 154/30/129
f 155/29/125 158/33/130 159/32/131 156/28/126
f 156/28/126 159/32/131 160/34/132 157/31/128
f 101/24/122 121/35/133 152/26/124 118/22/120
f 118/22/120 152/26/124 153/27/127 117/21/119
f 117/21/119 153/27/127 154/30/129 116/20/117
f 116/20/117 154/30/129 122/36/134 102/19/118
f 154/30/129 157/31/128 123/37/135 122/36/134
f 157/31/128 160/34/132 124/38/136 123/37/135
f 160/34/132 125/40/137 106/39/138 124/38/136
f 159/32/131 126/41/139 125/40/137 160/34/132
f 158/33/130 127/42/140 126/41/139 159/32/131
f 119/43/141 105/44/142 127/42/140 158/33/130
f 120/45/143 119/43/141 158/33/130 155/29/125
f 121/35/133 120/45/143 155/29/125 152/26/124
f 161/46/144 164/49/145 165/48/146 162/47/147
f 162/47/147 165/48/146 166/51/148 163/50/149
f 164/49/145 167/53/150 168/52/151 165/48/146
f 165/48/146 168/52/151 169/54/152 166/51/148
f 105/44/142 130/55/153 161/46/144 127/42/140
f 127/42/140 161/46/144 162/47/147 126/41/139
f 126/41/139 162/47/147 163/50/149 125/40/137
f 125/40/137 163/50/149 131/56/154 106/39/138
f 163/50/149 166/51/148 132/57/155 131/56/154
f 166/51/148 169/54/152 133/58/156 132/57/155
f 169/54/152 134/60/157 104/59/158 133/58/156
f 168/52/151 135/61/159 134/60/157 169/54/152
f 167/53/150 136/62/160 135/61/159 168/52/151
f 128/63/161 103/64/162 136/62/160 167/53/150
f 129/65/163 128/63/161 167/53/150 164/49/145
f 130/55/153 129/65/163 164/49/145 161/46/144
f 170/66/164 173/69/165 174/68/166 171/67/167
f 171/67/167 174/68/166 175/71/168 172/70/169
f 173/69/165 176/73/170 177/72/171 174/68/166
f 174/68/166 177/72/171 178/74/172 175/71/168
f 103/64/162 139/75/173 170/66/164 136/62/160
f 136/62/160 170/66/164 171/67/167 135/61/159
f 135/61/159 171/67/167 172/70/169 134/60/157
f 134/60/157 172/70/169 140/76/174 104/59/158
f 172/70/169 175/71/168 141/77/175 140/76/174
f 175/71/168 178/74/172 142/78/176 141/77/175
f 178/74/172 112/80/112 100/79/114 142/78/176
f 177/72/171 111/81/111 112/80/112 178/74/172
f 176/73/170 110/82/110 111/81/111 177/72/171
f 137/83/177 99/84/108 110/82/110 176/73/170
f 138/85/178 137/83/177 176/73/170 173/69/165
f 139/75/173 138/85/178 173/69/165 170/66/164
f 179/86/179 182/89/180 183/88/181 180/87/182
f 180/87/182 183/88/181 184/91/183 181/90/184
f 182/89/180 185/93/185 186/92/186 183/88/181
f 183/88/181 186/92/186 187/94/187 184/91/183
f 101/95/122 107/97/121 179/86/179 121/96/133
f 121/96/133 179/86/179 180/87/182 120/98/143
f 120/98/143 180/87/182 181/90/184 119/99/141
f 119/99/141 181/90/184 130/55/153 105/44/142
f 181/90/184 184/91/183 129/65/163 130/55/153
f 184/91/183 187/94/187 128/63/161 129/65/163
f 187/94/187 139/100/173 103/64/162 128/63/161
f 186/92/186 138/101/178 139/100/173 187/94/187
f 185/93/185 137/102/177 138/101/178 186/92/186
f 109/103/109 99/104/108 137/102/177 185/93/185
f 108/105/123 109/103/109 185/93/185 182/89/180
f 107/97/121 108/105/123 182/89/180 179/86/179
f 188/106/188 191/109/189 192/108/190 189/107/191
f 189/107/191 192/108/190 193/111/192 190/110/193
f 191/109/189 194/113/194 195/112/195 192/108/190
f 192/108/190 195/112/195 196/114/196 193/111/192
f 106/39/138 131/56/154 188/106/188 124/115/136
f 124/115/136 188/106/188 189/107/191 123/116/135
f 123/116/135 189/107/191 190/110/193 122/117/134
f 122/117/134 190/110/193 115/119/116 102/118/118
f 190/110/193 193/111/192 114/120/115 115/119/116
f 193/111/192 196/114/196 113/121/113 114/120/115
f 196/114/196 142/123/176 100/122/114 113/121/113
f 195/112/195 141/124/175 142/123/176 196/114/196
f 194/113/194 140/125/174 141/124/175 195/112/195
f 133/58/156 104/59/158 140/125/174 194/113/194
f 132/57/155 133/58/156 194/113/194 191/109/189
f 131/56/154 132/57/155 191/109/189 188/106/188
