# Blender 4.0.2
# www.blender.org
mtllib Eyes2.mtl
o Chef_Squirrel_Grey
v 0.100517 0.960483 0.331967
v 0.102080 0.960869 0.330056
v 0.105714 0.964706 0.328385
v 0.101525 0.957525 0.329898
v 0.105634 0.966117 0.331078
v 0.113938 0.968704 0.326058
v 0.099935 0.956558 0.332106
v 0.103824 0.955626 0.329776
v 0.114017 0.970749 0.329569
v 0.121773 0.970461 0.324450
v 0.102439 0.960815 0.333289
v 0.121972 0.972906 0.328141
v 0.132558 0.971750 0.322521
v 0.133437 0.974391 0.326137
v 0.141968 0.971064 0.320722
v 0.143461 0.973567 0.324054
v 0.151856 0.969541 0.318161
v 0.153663 0.972007 0.321491
v 0.161094 0.966766 0.315359
v 0.163096 0.969082 0.318584
v 0.169623 0.963314 0.312384
v 0.171584 0.965333 0.315450
v 0.176865 0.958731 0.310353
v 0.178521 0.960343 0.312721
v 0.180315 0.955170 0.310148
v 0.123107 0.970766 0.331850
v 0.134566 0.971995 0.329987
v 0.144511 0.971135 0.327796
v 0.154479 0.969681 0.325354
v 0.163700 0.967026 0.322440
v 0.172162 0.963630 0.319168
v 0.178876 0.959029 0.315736
v 0.182750 0.955075 0.311175
v 0.182379 0.950962 0.311456
v 0.179965 0.951726 0.309957
v 0.178778 0.948614 0.313017
v 0.177394 0.949698 0.311543
v 0.173316 0.948640 0.315313
v 0.172961 0.949954 0.312297
v 0.165722 0.949845 0.318230
v 0.165176 0.951548 0.314486
v 0.157504 0.951597 0.321103
v 0.156955 0.953639 0.317233
v 0.149766 0.952849 0.323601
v 0.148992 0.955152 0.319735
v 0.141687 0.953832 0.325696
v 0.140697 0.956245 0.321939
v 0.134334 0.954368 0.327063
v 0.133266 0.956735 0.323228
v 0.125716 0.954564 0.328216
v 0.124589 0.956706 0.324505
v 0.117884 0.954555 0.329212
v 0.116870 0.956484 0.325731
v 0.108617 0.954481 0.330553
v 0.107953 0.955980 0.327992
v 0.102948 0.954503 0.331599
v 0.108536 0.955892 0.333246
v 0.117968 0.956615 0.332802
v 0.125907 0.957008 0.331908
v 0.135202 0.956969 0.330671
v 0.101941 0.957461 0.333669
v 0.104181 0.955571 0.333009
v 0.107515 0.960240 0.334318
v 0.106300 0.964618 0.333639
v 0.116705 0.962846 0.334044
v 0.114996 0.968883 0.333018
v 0.124728 0.963938 0.333112
v 0.135232 0.964501 0.331574
v 0.143120 0.956352 0.329042
v 0.144230 0.963759 0.329601
v 0.151496 0.955331 0.326944
v 0.153403 0.962529 0.327353
v 0.159452 0.953926 0.324343
v 0.162001 0.960522 0.324574
v 0.167677 0.951892 0.321300
v 0.170252 0.957858 0.321355
v 0.174972 0.950252 0.317680
v 0.177259 0.954691 0.317605
v 0.178700 0.949891 0.315040
v 0.181563 0.951963 0.314235
v 0.181622 0.955363 0.313645
vn -0.5732 0.7061 -0.4158
vn -0.7639 0.4698 -0.4424
vn -0.8894 0.4439 0.1091
vn -0.7639 0.4699 -0.4424
vn -0.7310 -0.2166 -0.6470
vn -0.5515 0.8304 0.0797
vn -0.5732 0.7060 -0.4158
vn -0.3950 0.7930 -0.4638
vn -0.9225 -0.3706 0.1077
vn -0.7311 -0.2166 -0.6470
vn -0.2477 -0.7898 -0.5611
vn -0.3575 0.9332 0.0375
vn -0.3575 0.9332 0.0374
vn -0.2381 0.8181 -0.5235
vn -0.4138 0.3167 0.8535
vn -0.4138 0.3168 0.8535
vn -0.9225 -0.3707 0.1077
vn -0.1749 0.9846 0.0045
vn -0.1332 0.8172 -0.5607
vn -0.1748 0.9846 0.0045
vn -0.0291 0.9995 -0.0080
vn -0.1332 0.8173 -0.5607
vn -0.0403 0.8095 -0.5857
vn 0.1064 0.9934 -0.0419
vn 0.1063 0.9934 -0.0419
vn 0.0123 0.8005 -0.5992
vn 0.1954 0.9774 -0.0805
vn 0.0822 0.7880 -0.6101
vn 0.2975 0.9456 -0.1320
vn 0.2975 0.9455 -0.1320
vn 0.1798 0.7549 -0.6308
vn 0.4142 0.8899 -0.1913
vn 0.3191 0.6528 -0.6870
vn 0.5740 0.7763 -0.2605
vn 0.4518 0.3473 -0.8218
vn 0.5740 0.7763 -0.2606
vn 0.0485 0.5117 0.8578
vn 0.1492 0.5188 0.8418
vn -0.0290 0.9995 -0.0080
vn 0.1493 0.5188 0.8418
vn 0.2509 0.5083 0.8238
vn 0.1493 0.5187 0.8418
vn 0.2508 0.5083 0.8238
vn 0.3325 0.5069 0.7953
vn 0.3326 0.5070 0.7952
vn 0.4333 0.4925 0.7548
vn 0.3326 0.5069 0.7953
vn 0.5440 0.4683 0.6962
vn 0.5441 0.4683 0.6962
vn 0.6714 0.3998 0.6240
vn 0.8771 0.3307 -0.3484
vn 0.4517 0.3474 -0.8217
vn 0.4517 0.3474 -0.8218
vn 0.8771 0.3307 -0.3485
vn 0.8120 -0.5112 -0.2817
vn 0.3351 -0.4270 -0.8399
vn 0.4518 0.3473 -0.8217
vn 0.8119 -0.5113 -0.2817
vn 0.3351 -0.4269 -0.8399
vn 0.2627 -0.9637 -0.0485
vn -0.0325 -0.8505 -0.5249
vn 0.2626 -0.9637 -0.0485
vn -0.0777 -0.9936 0.0825
vn -0.2406 -0.8934 -0.3795
vn -0.0777 -0.9936 0.0826
vn -0.1553 -0.9818 0.1089
vn -0.3084 -0.8765 -0.3695
vn -0.3084 -0.8766 -0.3695
vn -0.1606 -0.9820 0.0999
vn -0.3106 -0.8606 -0.4035
vn -0.3107 -0.8606 -0.4035
vn -0.1606 -0.9819 0.1000
vn -0.1233 -0.9891 0.0799
vn -0.2594 -0.8532 -0.4525
vn -0.1234 -0.9891 0.0800
vn -0.0842 -0.9942 0.0664
vn -0.1908 -0.8532 -0.4855
vn -0.1907 -0.8532 -0.4855
vn -0.0841 -0.9942 0.0663
vn -0.0298 -0.9977 0.0613
vn -0.1086 -0.8611 -0.4966
vn -0.1085 -0.8613 -0.4963
vn 0.0035 -0.9992 0.0403
vn -0.0668 -0.8709 -0.4870
vn -0.0667 -0.8708 -0.4871
vn 0.0137 -0.9998 0.0167
vn -0.0614 -0.8758 -0.4787
vn 0.0001 -1.0000 0.0032
vn -0.0800 -0.8696 -0.4872
vn -0.0614 -0.8758 -0.4788
vn -0.0000 -1.0000 0.0033
vn 0.0001 -1.0000 0.0033
vn -0.2478 -0.7898 -0.5611
vn -0.2919 -0.9562 0.0226
vn -0.2477 -0.7898 -0.5610
vn -0.2920 -0.9562 0.0226
vn -0.2478 -0.7898 -0.5610
vn 0.0136 -0.9998 0.0167
vn 0.0702 -0.5008 0.8627
vn 0.0703 -0.5008 0.8627
vn 0.0137 -0.9998 0.0168
vn 0.1047 -0.4765 0.8729
vn 0.1235 -0.4240 0.8972
vn 0.0034 -0.9992 0.0403
vn 0.1426 -0.3883 0.9105
vn 0.1427 -0.3883 0.9104
vn -0.2724 -0.1464 0.9510
vn 0.0703 -0.5007 0.8627
vn -0.0260 -0.5538 0.8322
vn -0.0057 -0.0287 0.9996
vn -0.0260 -0.5538 0.8323
vn 0.0702 -0.5007 0.8627
vn -0.0056 -0.0288 0.9996
vn -0.0057 -0.0288 0.9996
vn -0.0259 -0.5538 0.8322
vn -0.2167 0.4152 0.8836
vn -0.2167 0.4152 0.8835
vn 0.0715 0.0096 0.9974
vn 0.0715 0.0097 0.9974
vn -0.0775 0.4853 0.8709
vn -0.0776 0.4853 0.8709
vn 0.0484 0.5116 0.8578
vn 0.1271 0.0457 0.9908
vn 0.0485 0.5116 0.8578
vn 0.1766 0.0660 0.9821
vn 0.1428 -0.3883 0.9104
vn 0.1696 -0.3837 0.9077
vn 0.1697 -0.3837 0.9077
vn -0.1233 -0.9891 0.0800
vn 0.2329 0.0684 0.9701
vn 0.1951 -0.3976 0.8965
vn 0.1697 -0.3838 0.9077
vn 0.1951 -0.3976 0.8966
vn -0.1605 -0.9820 0.0999
vn 0.2836 0.0593 0.9571
vn 0.3326 0.5069 0.7952
vn 0.2158 -0.4253 0.8789
vn 0.2835 0.0593 0.9571
vn 0.2159 -0.4253 0.8789
vn 0.3454 0.0388 0.9377
vn 0.3453 0.0388 0.9377
vn 0.2519 -0.4574 0.8529
vn 0.2518 -0.4574 0.8529
vn 0.4164 0.0137 0.9091
vn 0.3341 -0.4916 0.8042
vn 0.2627 -0.9637 -0.0486
vn 0.5119 -0.0307 0.8585
vn 0.5441 0.4682 0.6962
vn 0.3341 -0.4915 0.8042
vn 0.2626 -0.9637 -0.0486
vn 0.4629 -0.5656 0.6825
vn 0.3340 -0.4916 0.8042
vn 0.4630 -0.5655 0.6825
vn 0.7199 -0.2126 0.6607
vn 0.8119 -0.5112 -0.2817
vn 0.8141 0.2542 0.5222
vn 0.8771 0.3306 -0.3485
vn 0.8140 0.2542 0.5222
vt 0.329834 0.714356
vt 0.326416 0.714844
vt 0.325684 0.713867
vt 0.323730 0.714356
vt 0.329102 0.712891
vt 0.333740 0.709473
vt 0.324463 0.713379
vt 0.322510 0.712402
vt 0.332275 0.708496
vt 0.336914 0.705566
vt 0.326172 0.712891
vt 0.334717 0.704590
vt 0.337402 0.699707
vt 0.335205 0.699219
vt 0.338135 0.694336
vt 0.335693 0.694336
vt 0.336426 0.688477
vt 0.334228 0.689453
vt 0.334717 0.683106
vt 0.332764 0.684082
vt 0.330322 0.679199
vt 0.329102 0.680176
vt 0.326416 0.675293
vt 0.325928 0.676758
vt 0.322998 0.675293
vt 0.332764 0.704102
vt 0.333008 0.699219
vt 0.333496 0.694336
vt 0.332031 0.689453
vt 0.330566 0.685059
vt 0.327881 0.681641
vt 0.325195 0.678223
vt 0.322754 0.676269
vt 0.321533 0.676758
vt 0.320801 0.676269
vt 0.320312 0.678711
vt 0.319336 0.678223
vt 0.320312 0.681152
vt 0.318603 0.681152
vt 0.321289 0.684570
vt 0.319336 0.685059
vt 0.322266 0.688477
vt 0.320068 0.688965
vt 0.322998 0.691894
vt 0.320801 0.692383
vt 0.323975 0.695312
vt 0.321777 0.695801
vt 0.323975 0.698731
vt 0.321533 0.698731
vt 0.323730 0.702637
vt 0.321533 0.702148
vt 0.323486 0.706055
vt 0.321533 0.705566
vt 0.322998 0.709961
vt 0.321289 0.709961
vt 0.323486 0.712402
vt 0.324463 0.709961
vt 0.325195 0.706055
vt 0.325928 0.702637
vt 0.326172 0.698731
vt 0.324951 0.712402
vt 0.324219 0.711914
vt 0.326172 0.710938
vt 0.328125 0.711914
vt 0.327881 0.707031
vt 0.330566 0.707519
vt 0.329346 0.703613
vt 0.329590 0.698731
vt 0.326172 0.695312
vt 0.329834 0.694824
vt 0.325195 0.691406
vt 0.328613 0.690430
vt 0.324463 0.687500
vt 0.327393 0.686035
vt 0.322998 0.684082
vt 0.325440 0.682617
vt 0.321777 0.680664
vt 0.323486 0.679688
vt 0.321289 0.679199
vt 0.322266 0.677734
vt 0.323242 0.677246
s 0
usemtl æè´¨
f 3/1/1 2/2/2 1/3/3
f 1/3/3 2/2/4 4/4/5
f 5/5/6 3/1/1 1/3/3
f 3/1/7 5/5/6 6/6/8
f 7/7/9 1/3/3 4/4/5
f 7/7/9 4/4/10 8/8/11
f 5/5/6 9/9/12 6/6/8
f 6/6/8 9/9/13 10/10/14
f 5/5/6 1/3/3 11/11/15
f 11/11/16 1/3/3 7/7/17
f 9/9/13 12/12/18 10/10/14
f 10/10/14 12/12/18 13/13/19
f 12/12/20 14/14/21 13/13/19
f 13/13/22 14/14/21 15/15/23
f 14/14/21 16/16/24 15/15/23
f 15/15/23 16/16/25 17/17/26
f 16/16/25 18/18/27 17/17/26
f 17/17/26 18/18/27 19/19/28
f 18/18/27 20/20/29 19/19/28
f 19/19/28 20/20/30 21/21/31
f 20/20/30 22/22/32 21/21/31
f 21/21/31 22/22/32 23/23/33
f 22/22/32 24/24/34 23/23/33
f 25/25/35 23/23/33 24/24/36
f 26/26/37 12/12/18 9/9/13
f 27/27/38 14/14/39 12/12/18
f 26/26/37 27/27/40 12/12/18
f 28/28/41 16/16/25 14/14/21
f 27/27/42 28/28/43 14/14/21
f 29/29/44 18/18/27 16/16/24
f 28/28/43 29/29/45 16/16/24
f 30/30/46 20/20/29 18/18/27
f 29/29/47 30/30/46 18/18/27
f 31/31/48 22/22/32 20/20/29
f 30/30/46 31/31/49 20/20/29
f 32/32/50 24/24/34 22/22/32
f 31/31/48 32/32/50 22/22/32
f 33/33/51 25/25/52 24/24/34
f 33/33/51 24/24/36 32/32/50
f 25/25/53 33/33/54 34/34/55
f 35/35/56 25/25/57 34/34/58
f 35/35/59 34/34/55 36/36/60
f 37/37/61 35/35/59 36/36/62
f 37/37/61 36/36/62 38/38/63
f 39/39/64 37/37/61 38/38/63
f 39/39/64 38/38/65 40/40/66
f 41/41/67 39/39/64 40/40/66
f 41/41/68 40/40/66 42/42/69
f 43/43/70 41/41/68 42/42/69
f 43/43/71 42/42/72 44/44/73
f 45/45/74 43/43/70 44/44/75
f 45/45/74 44/44/73 46/46/76
f 47/47/77 45/45/74 46/46/76
f 47/47/78 46/46/79 48/48/80
f 49/49/81 47/47/77 48/48/80
f 49/49/82 48/48/80 50/50/83
f 51/51/84 49/49/82 50/50/83
f 51/51/85 50/50/83 52/52/86
f 53/53/87 51/51/85 52/52/86
f 53/53/87 52/52/86 54/54/88
f 55/55/89 53/53/90 54/54/91
f 55/55/89 54/54/92 8/8/93
f 54/54/88 56/56/94 8/8/95
f 56/56/96 7/7/9 8/8/97
f 54/54/92 52/52/98 57/57/99
f 54/54/88 57/57/100 56/56/96
f 52/52/101 50/50/83 58/58/102
f 52/52/86 58/58/102 57/57/99
f 50/50/83 48/48/80 59/59/103
f 50/50/104 59/59/103 58/58/102
f 48/48/80 46/46/79 60/60/105
f 48/48/80 60/60/106 59/59/103
f 61/61/107 7/7/9 56/56/94
f 61/61/107 11/11/16 7/7/9
f 57/57/108 62/62/109 56/56/96
f 62/62/109 61/61/107 56/56/96
f 57/57/99 63/63/110 62/62/111
f 57/57/112 58/58/102 63/63/113
f 63/63/114 61/61/107 62/62/115
f 64/64/116 11/11/16 61/61/107
f 63/63/113 64/64/117 61/61/107
f 64/64/116 5/5/6 11/11/16
f 58/58/102 65/65/118 63/63/113
f 58/58/102 59/59/103 65/65/119
f 63/63/114 65/65/118 64/64/116
f 64/64/116 66/66/120 5/5/6
f 65/65/118 66/66/120 64/64/117
f 66/66/120 9/9/13 5/5/6
f 66/66/121 26/26/122 9/9/13
f 59/59/103 67/67/123 65/65/118
f 65/65/118 67/67/123 66/66/121
f 67/67/123 26/26/124 66/66/121
f 59/59/103 60/60/106 67/67/123
f 67/67/123 68/68/125 26/26/37
f 60/60/126 68/68/125 67/67/123
f 68/68/125 27/27/42 26/26/124
f 60/60/106 69/69/127 68/68/125
f 46/46/76 69/69/128 60/60/126
f 46/46/76 44/44/129 69/69/127
f 68/68/125 70/70/130 27/27/42
f 69/69/127 70/70/130 68/68/125
f 70/70/130 28/28/43 27/27/42
f 44/44/75 71/71/131 69/69/132
f 69/69/127 71/71/133 70/70/130
f 44/44/73 42/42/134 71/71/133
f 70/70/130 72/72/135 28/28/43
f 71/71/133 72/72/135 70/70/130
f 72/72/135 29/29/136 28/28/43
f 42/42/72 73/73/137 71/71/133
f 71/71/133 73/73/137 72/72/138
f 42/42/134 40/40/66 73/73/139
f 72/72/135 74/74/140 29/29/136
f 73/73/137 74/74/141 72/72/138
f 74/74/141 30/30/46 29/29/136
f 40/40/66 75/75/142 73/73/139
f 73/73/137 75/75/142 74/74/141
f 40/40/66 38/38/65 75/75/143
f 74/74/141 76/76/144 30/30/46
f 75/75/142 76/76/144 74/74/141
f 76/76/144 31/31/49 30/30/46
f 38/38/63 77/77/145 75/75/143
f 75/75/142 77/77/145 76/76/144
f 38/38/63 36/36/146 77/77/145
f 76/76/144 78/78/147 31/31/148
f 77/77/149 78/78/147 76/76/144
f 78/78/147 32/32/50 31/31/148
f 36/36/150 79/79/151 77/77/152
f 77/77/145 79/79/151 78/78/147
f 36/36/146 34/34/55 79/79/153
f 79/79/151 80/80/154 78/78/147
f 34/34/58 80/80/154 79/79/151
f 78/78/147 80/80/154 32/32/50
f 34/34/155 33/33/51 80/80/154
f 81/81/156 33/33/157 32/32/50
f 33/33/54 81/81/158 80/80/154
f 80/80/154 81/81/158 32/32/50
