# WaveFront *.obj file (generated by Cinema 4D)

mtllib ./Eyes.mtl

v -0.117159 0.899333 0.306083
v -0.125765 0.905818 0.332852
v -0.182565 0.896491 0.285743
v -0.184717 0.898112 0.292435
v -0.186868 0.899734 0.299128
v -0.189020 0.901355 0.305820
v -0.180711 0.880517 0.321317
v -0.176846 0.922248 0.281342
v -0.178998 0.923869 0.288034
v -0.181149 0.925491 0.294726
v -0.183301 0.927112 0.301419
v -0.185205 0.876349 0.314633
v -0.162040 0.944516 0.280707
v -0.164191 0.946138 0.287399
v -0.166343 0.947759 0.294092
v -0.168495 0.949380 0.300784
v -0.168539 0.861621 0.329808
v -0.140401 0.959906 0.283936
v -0.142553 0.961527 0.290628
v -0.144704 0.963149 0.297320
v -0.146856 0.964770 0.304013
v -0.171654 0.855313 0.324086
v -0.115224 0.966074 0.290536
v -0.117375 0.967695 0.297229
v -0.119527 0.969317 0.303921
v -0.121679 0.970938 0.310613
v -0.149855 0.849453 0.338763
v -0.090341 0.962081 0.299503
v -0.092493 0.963703 0.306196
v -0.094644 0.965324 0.312888
v -0.096796 0.966945 0.319581
v -0.150854 0.841767 0.334055
v -0.069541 0.948536 0.309472
v -0.071693 0.950157 0.316165
v -0.073844 0.951778 0.322857
v -0.075996 0.953400 0.329550
v -0.127503 0.845867 0.346818
v -0.055990 0.927499 0.318925
v -0.058142 0.929121 0.325618
v -0.060293 0.930742 0.332310
v -0.062445 0.932363 0.339002
v -0.125971 0.837774 0.343022
v -0.051752 0.902175 0.326423
v -0.053904 0.903796 0.333116
v -0.056055 0.905417 0.339808
v -0.058207 0.907039 0.346500
v -0.104887 0.851407 0.352747
v -0.057471 0.876418 0.330825
v -0.059623 0.878039 0.337517
v -0.061774 0.879660 0.344209
v -0.063926 0.881282 0.350902
v -0.100794 0.843942 0.349623
v -0.072277 0.854149 0.331459
v -0.074429 0.855771 0.338151
v -0.076580 0.857392 0.344844
v -0.078732 0.859013 0.351536
v -0.085450 0.865231 0.355647
v -0.093916 0.838760 0.328230
v -0.096068 0.840381 0.334923
v -0.098219 0.842002 0.341615
v -0.100371 0.843624 0.348307
v -0.079155 0.859332 0.352851
v -0.119093 0.832592 0.321630
v -0.121245 0.834213 0.328322
v -0.123397 0.835834 0.335015
v -0.125548 0.837456 0.341707
v -0.072150 0.885234 0.355077
v -0.143976 0.836585 0.312663
v -0.146128 0.838206 0.319355
v -0.148279 0.839827 0.326047
v -0.150431 0.841449 0.332740
v -0.064349 0.881600 0.352217
v -0.164776 0.850130 0.302694
v -0.166928 0.851752 0.309386
v -0.169079 0.853373 0.316078
v -0.171231 0.854994 0.322771
v -0.067012 0.908371 0.351123
v -0.178327 0.871167 0.293241
v -0.180478 0.872788 0.299933
v -0.182630 0.874409 0.306625
v -0.184782 0.876031 0.313318
v -0.058630 0.907357 0.347815
v -0.106114 0.886035 0.343963
v -0.099631 0.895785 0.343685
v -0.097127 0.907063 0.341758
v -0.098983 0.918151 0.338475
v -0.104916 0.927361 0.334337
v -0.114023 0.933292 0.329972
v -0.124918 0.935041 0.326045
v -0.135942 0.932340 0.323155
v -0.145416 0.925602 0.321742
v -0.151899 0.915851 0.322020
v -0.154403 0.904574 0.323947
v -0.152547 0.893486 0.327229
v -0.146614 0.884275 0.331368
v -0.137507 0.878344 0.335733
v -0.126612 0.876596 0.339660
v -0.115588 0.879296 0.342550
v -0.189443 0.901674 0.307135
v -0.184518 0.903265 0.314581
v -0.183724 0.927431 0.302734
v -0.179380 0.926402 0.310628
v -0.168918 0.949699 0.302099
v -0.166081 0.946405 0.310058
v -0.147279 0.965089 0.305328
v -0.146643 0.960229 0.312958
v -0.122101 0.971257 0.311928
v -0.124027 0.965770 0.318887
v -0.097219 0.967264 0.320896
v -0.101676 0.962183 0.326942
v -0.076419 0.953718 0.330865
v -0.082992 0.950015 0.335897
v -0.062868 0.932682 0.340318
v -0.070819 0.931119 0.344388
# 114 vertices

vn 0.298247 -0.224737 -0.927654
vn 0.298247 -0.224737 -0.927654
vn -0.954071 -0.041455 -0.296698
vn -0.870646 0.334257 -0.360898
vn -0.870646 0.334257 -0.360898
vn -0.298247 0.224737 0.927654
vn -0.654673 0.659082 -0.370154
vn -0.654673 0.659082 -0.370154
vn -0.339032 0.883567 -0.323058
vn 0.028223 0.973537 -0.226779
vn 0.028223 0.973537 -0.226779
vn 0.391182 0.915295 -0.095975
vn 0.391182 0.915295 -0.095975
vn 0.694587 0.717708 0.049440
vn 0.892248 0.410856 0.187328
vn 0.954071 0.041455 0.296698
vn 0.954071 0.041455 0.296698
vn 0.870646 -0.334257 0.360898
vn 0.870646 -0.334257 0.360898
vn 0.654673 -0.659082 0.370154
vn 0.654673 -0.659082 0.370154
vn 0.339032 -0.883567 0.323058
vn -0.028223 -0.973537 0.226779
vn -0.028223 -0.973537 0.226779
vn -0.391182 -0.915295 0.095975
vn -0.391182 -0.915295 0.095975
vn -0.694587 -0.717708 -0.049440
vn -0.892248 -0.410856 -0.187328
vn -0.298247 0.224737 0.927654
vn -0.839204 0.146335 0.523759
vn -0.785879 0.386489 0.482723
vn -0.647830 0.594115 0.476806
vn -0.446073 0.737605 0.506909
vn -0.211325 0.795114 0.568450
vn 0.020677 0.757886 0.652060
vn 0.214612 0.631588 0.745009
vn 0.340955 0.435450 0.833146
vn 0.380473 0.199330 0.903055
vn 0.327148 -0.040823 0.944091
vn 0.189099 -0.248449 0.950008
vn -0.012657 -0.391939 0.919904
vn -0.247406 -0.449448 0.858363
vn -0.479407 -0.412220 0.774754
vn -0.673343 -0.285923 0.681805
vn -0.799686 -0.089784 0.593667
# 45 normals

vt 0.264148 0.592348 0.000000
vt 0.281017 0.581550 0.000000
vt 0.283732 0.588828 0.000000
vt 0.000000 1.000000 0.000000
vt 0.283256 0.580109 0.000000
vt 0.286456 0.588344 0.000000
vt 0.285877 0.578430 0.000000
vt 0.289418 0.587847 0.000000
vt 0.288798 0.576583 0.000000
vt 0.292946 0.587252 0.000000
vt 0.289429 0.576188 0.000000
vt 0.293677 0.587127 0.000000
vt 0.142923 0.538762 0.000000
vt 0.160384 0.556203 0.000000
vt 0.133613 0.574031 0.000000
vt 0.125097 0.565478 0.000000
vt 0.275379 0.576088 0.000000
vt 0.277014 0.573683 0.000000
vt 0.278811 0.571062 0.000000
vt 0.280874 0.568073 0.000000
vt 0.281307 0.567451 0.000000
vt 0.169932 0.578838 0.000000
vt 0.138236 0.585171 0.000000
vt 0.268149 0.572870 0.000000
vt 0.268694 0.570121 0.000000
vt 0.269326 0.567053 0.000000
vt 0.270032 0.563559 0.000000
vt 0.270179 0.562819 0.000000
vt 0.169832 0.603398 0.000000
vt 0.138228 0.597236 0.000000
vt 0.260322 0.572794 0.000000
vt 0.259757 0.570083 0.000000
vt 0.259150 0.567050 0.000000
vt 0.258451 0.563607 0.000000
vt 0.258302 0.562878 0.000000
vt 0.160294 0.626171 0.000000
vt 0.133602 0.608375 0.000000
vt 0.253121 0.575749 0.000000
vt 0.251567 0.573483 0.000000
vt 0.249855 0.570943 0.000000
vt 0.247906 0.568061 0.000000
vt 0.247492 0.567452 0.000000
vt 0.142953 0.643752 0.000000
vt 0.125092 0.616928 0.000000
vt 0.247634 0.581213 0.000000
vt 0.245323 0.579719 0.000000
vt 0.242827 0.578064 0.000000
vt 0.239933 0.576146 0.000000
vt 0.239322 0.575741 0.000000
vt 0.120318 0.653324 0.000000
vt 0.113945 0.621573 0.000000
vt 0.244722 0.588384 0.000000
vt 0.242036 0.587893 0.000000
vt 0.238977 0.587298 0.000000
vt 0.235582 0.586638 0.000000
vt 0.234861 0.586498 0.000000
vt 0.095746 0.653264 0.000000
vt 0.101864 0.621586 0.000000
vt 0.244711 0.596130 0.000000
vt 0.242038 0.596697 0.000000
vt 0.239047 0.597305 0.000000
vt 0.235659 0.597997 0.000000
vt 0.234943 0.598145 0.000000
vt 0.072924 0.643900 0.000000
vt 0.090695 0.616975 0.000000
vt 0.247651 0.603251 0.000000
vt 0.245408 0.604789 0.000000
vt 0.242894 0.606481 0.000000
vt 0.240047 0.608402 0.000000
vt 0.239445 0.608810 0.000000
vt 0.055421 0.626381 0.000000
vt 0.082146 0.608433 0.000000
vt 0.253060 0.608695 0.000000
vt 0.251576 0.610957 0.000000
vt 0.249903 0.613460 0.000000
vt 0.248014 0.616298 0.000000
vt 0.247616 0.616899 0.000000
vt 0.045657 0.603656 0.000000
vt 0.077482 0.597275 0.000000
vt 0.260094 0.611683 0.000000
vt 0.259573 0.614319 0.000000
vt 0.258971 0.617242 0.000000
vt 0.258298 0.620548 0.000000
vt 0.258157 0.621248 0.000000
vt 0.045856 0.578915 0.000000
vt 0.077489 0.585176 0.000000
vt 0.267696 0.611827 0.000000
vt 0.268207 0.614476 0.000000
vt 0.268727 0.617356 0.000000
vt 0.269311 0.620606 0.000000
vt 0.269437 0.621304 0.000000
vt 0.055082 0.555953 0.000000
vt 0.082097 0.573986 0.000000
vt 0.274787 0.609040 0.000000
vt 0.276254 0.611299 0.000000
vt 0.277846 0.613834 0.000000
vt 0.279638 0.616713 0.000000
vt 0.280016 0.617323 0.000000
vt 0.072762 0.538628 0.000000
vt 0.090670 0.565444 0.000000
vt 0.280397 0.603790 0.000000
vt 0.282531 0.605298 0.000000
vt 0.285065 0.607095 0.000000
vt 0.287863 0.609104 0.000000
vt 0.288454 0.609532 0.000000
vt 0.095603 0.529052 0.000000
vt 0.101850 0.560803 0.000000
vt 0.283393 0.596633 0.000000
vt 0.286200 0.597265 0.000000
vt 0.289188 0.597948 0.000000
vt 0.292589 0.598736 0.000000
vt 0.293309 0.598904 0.000000
vt 0.120255 0.529061 0.000000
vt 0.113954 0.560829 0.000000
vt 0.107879 0.591206 0.000000
vt 0.148820 0.530026 0.000000
vt 0.169053 0.550523 0.000000
vt 0.179922 0.576839 0.000000
vt 0.180021 0.605327 0.000000
vt 0.169099 0.632035 0.000000
vt 0.148663 0.652413 0.000000
vt 0.122327 0.663314 0.000000
vt 0.093851 0.663431 0.000000
vt 0.067249 0.652647 0.000000
vt 0.046646 0.632313 0.000000
vt 0.035555 0.605689 0.000000
vt 0.035493 0.576868 0.000000
vt 0.046507 0.550230 0.000000
vt 0.066896 0.529806 0.000000
vt 0.093685 0.518823 0.000000
vt 0.122300 0.519011 0.000000
# 131 texture coordinates

o ???_1
usemtl ??.5
f 3/3/2 8/2/2 1/1/1
f 4/6/3 9/5/5 8/2/4 3/3/3
f 5/8/3 10/7/5 9/5/5 4/6/3
f 6/10/3 11/9/5 10/7/5 5/8/3
f 99/12/3 101/11/4 11/9/5 6/10/3
f 93/16/6 92/15/6 102/14/6 100/13/6
f 8/2/2 13/17/2 1/1/1
f 9/5/5 14/18/8 13/17/7 8/2/4
f 10/7/5 15/19/8 14/18/8 9/5/5
f 11/9/5 16/20/8 15/19/8 10/7/5
f 101/11/4 103/21/7 16/20/8 11/9/5
f 92/15/6 91/23/6 104/22/6 102/14/6
f 13/17/2 18/24/2 1/1/1
f 14/18/8 19/25/9 18/24/9 13/17/7
f 15/19/8 20/26/9 19/25/9 14/18/8
f 16/20/8 21/27/9 20/26/9 15/19/8
f 103/21/7 105/28/9 21/27/9 16/20/8
f 91/23/6 90/30/6 106/29/6 104/22/6
f 18/24/2 23/31/2 1/1/1
f 19/25/9 24/32/11 23/31/10 18/24/9
f 20/26/9 25/33/11 24/32/11 19/25/9
f 21/27/9 26/34/11 25/33/11 20/26/9
f 105/28/9 107/35/10 26/34/11 21/27/9
f 90/30/6 89/37/6 108/36/6 106/29/6
f 23/31/2 28/38/2 1/1/1
f 24/32/11 29/39/13 28/38/12 23/31/10
f 25/33/11 30/40/13 29/39/13 24/32/11
f 26/34/11 31/41/13 30/40/13 25/33/11
f 107/35/10 109/42/12 31/41/13 26/34/11
f 89/37/6 88/44/6 110/43/6 108/36/6
f 28/38/2 33/45/2 1/1/1
f 29/39/13 34/46/14 33/45/14 28/38/12
f 30/40/13 35/47/14 34/46/14 29/39/13
f 31/41/13 36/48/14 35/47/14 30/40/13
f 109/42/12 111/49/14 36/48/14 31/41/13
f 88/44/6 87/51/6 112/50/6 110/43/6
f 33/45/2 38/52/2 1/1/1
f 34/46/14 39/53/15 38/52/15 33/45/14
f 35/47/14 40/54/15 39/53/15 34/46/14
f 36/48/14 41/55/15 40/54/15 35/47/14
f 111/49/14 113/56/15 41/55/15 36/48/14
f 87/51/6 86/58/6 114/57/6 112/50/6
f 38/52/2 43/59/2 1/1/1
f 39/53/15 44/60/17 43/59/16 38/52/15
f 40/54/15 45/61/17 44/60/17 39/53/15
f 41/55/15 46/62/17 45/61/17 40/54/15
f 113/56/15 82/63/16 46/62/17 41/55/15
f 86/58/6 85/65/6 77/64/6 114/57/6
f 43/59/2 48/66/2 1/1/1
f 44/60/17 49/67/19 48/66/18 43/59/16
f 45/61/17 50/68/19 49/67/19 44/60/17
f 46/62/17 51/69/19 50/68/19 45/61/17
f 82/63/16 72/70/18 51/69/19 46/62/17
f 85/65/6 84/72/6 67/71/6 77/64/6
f 48/66/2 53/73/2 1/1/1
f 49/67/19 54/74/21 53/73/20 48/66/18
f 50/68/19 55/75/21 54/74/21 49/67/19
f 51/69/19 56/76/21 55/75/21 50/68/19
f 72/70/18 62/77/20 56/76/21 51/69/19
f 84/72/6 83/79/6 57/78/6 67/71/6
f 53/73/2 58/80/2 1/1/1
f 54/74/21 59/81/22 58/80/22 53/73/20
f 55/75/21 60/82/22 59/81/22 54/74/21
f 56/76/21 61/83/22 60/82/22 55/75/21
f 62/77/20 52/84/22 61/83/22 56/76/21
f 83/79/6 98/86/6 47/85/6 57/78/6
f 58/80/2 63/87/2 1/1/1
f 59/81/22 64/88/24 63/87/23 58/80/22
f 60/82/22 65/89/24 64/88/24 59/81/22
f 61/83/22 66/90/24 65/89/24 60/82/22
f 52/84/22 42/91/23 66/90/24 61/83/22
f 98/86/6 97/93/6 37/92/6 47/85/6
f 63/87/2 68/94/2 1/1/1
f 64/88/24 69/95/26 68/94/25 63/87/23
f 65/89/24 70/96/26 69/95/26 64/88/24
f 66/90/24 71/97/26 70/96/26 65/89/24
f 42/91/23 32/98/25 71/97/26 66/90/24
f 97/93/6 96/100/6 27/99/6 37/92/6
f 68/94/2 73/101/2 1/1/1
f 69/95/26 74/102/27 73/101/27 68/94/25
f 70/96/26 75/103/27 74/102/27 69/95/26
f 71/97/26 76/104/27 75/103/27 70/96/26
f 32/98/25 22/105/27 76/104/27 71/97/26
f 96/100/6 95/107/6 17/106/6 27/99/6
f 73/101/2 78/108/2 1/1/1
f 74/102/27 79/109/28 78/108/28 73/101/27
f 75/103/27 80/110/28 79/109/28 74/102/27
f 76/104/27 81/111/28 80/110/28 75/103/27
f 22/105/27 12/112/28 81/111/28 76/104/27
f 95/107/6 94/114/6 7/113/6 17/106/6
f 78/108/2 3/3/2 1/1/1
f 79/109/28 4/6/3 3/3/3 78/108/28
f 80/110/28 5/8/3 4/6/3 79/109/28
f 81/111/28 6/10/3 5/8/3 80/110/28
f 12/112/28 99/12/3 6/10/3 81/111/28
f 94/114/6 93/16/6 100/13/6 7/113/6
f 2/115/29 83/79/6 84/72/6
f 2/115/29 84/72/6 85/65/6
f 2/115/29 85/65/6 86/58/6
f 2/115/29 86/58/6 87/51/6
f 2/115/29 87/51/6 88/44/6
f 2/115/29 88/44/6 89/37/6
f 2/115/29 89/37/6 90/30/6
f 2/115/29 90/30/6 91/23/6
f 2/115/29 91/23/6 92/15/6
f 2/115/29 92/15/6 93/16/6
f 2/115/29 93/16/6 94/114/6
f 2/115/29 94/114/6 95/107/6
f 2/115/29 95/107/6 96/100/6
f 2/115/29 96/100/6 97/93/6
f 2/115/29 97/93/6 98/86/6
f 2/115/29 98/86/6 83/79/6
f 102/14/31 101/117/31 99/116/30 100/13/30
f 104/22/32 103/118/32 101/117/31 102/14/31
f 106/29/33 105/119/33 103/118/32 104/22/32
f 108/36/34 107/120/34 105/119/33 106/29/33
f 110/43/35 109/121/35 107/120/34 108/36/34
f 112/50/36 111/122/36 109/121/35 110/43/35
f 114/57/37 113/123/37 111/122/36 112/50/36
f 77/64/38 82/124/38 113/123/37 114/57/37
f 67/71/39 72/125/39 82/124/38 77/64/38
f 57/78/40 62/126/40 72/125/39 67/71/39
f 47/85/41 52/127/41 62/126/40 57/78/40
f 37/92/42 42/128/42 52/127/41 47/85/41
f 27/99/43 32/129/43 42/128/42 37/92/42
f 17/106/44 22/130/44 32/129/43 27/99/43
f 7/113/45 12/131/45 22/130/44 17/106/44
f 100/13/30 99/116/30 12/131/45 7/113/45

v 0.117159 0.899333 0.306083
v 0.125765 0.905818 0.332852
v 0.182565 0.896491 0.285743
v 0.184717 0.898112 0.292435
v 0.186868 0.899734 0.299128
v 0.189020 0.901355 0.305820
v 0.180711 0.880517 0.321317
v 0.176846 0.922248 0.281342
v 0.178998 0.923869 0.288034
v 0.181149 0.925491 0.294726
v 0.183301 0.927112 0.301419
v 0.185205 0.876349 0.314633
v 0.162040 0.944516 0.280707
v 0.164191 0.946138 0.287399
v 0.166343 0.947759 0.294092
v 0.168495 0.949380 0.300784
v 0.168539 0.861621 0.329808
v 0.140401 0.959906 0.283936
v 0.142553 0.961527 0.290628
v 0.144704 0.963149 0.297320
v 0.146856 0.964770 0.304013
v 0.171654 0.855313 0.324086
v 0.115224 0.966074 0.290536
v 0.117375 0.967695 0.297229
v 0.119527 0.969317 0.303921
v 0.121679 0.970938 0.310613
v 0.149855 0.849453 0.338763
v 0.090341 0.962081 0.299503
v 0.092493 0.963703 0.306196
v 0.094644 0.965324 0.312888
v 0.096796 0.966945 0.319581
v 0.150854 0.841767 0.334055
v 0.069541 0.948536 0.309472
v 0.071693 0.950157 0.316165
v 0.073844 0.951778 0.322857
v 0.075996 0.953400 0.329550
v 0.127503 0.845867 0.346818
v 0.055990 0.927499 0.318925
v 0.058142 0.929121 0.325618
v 0.060293 0.930742 0.332310
v 0.062445 0.932363 0.339002
v 0.125971 0.837774 0.343022
v 0.051752 0.902175 0.326423
v 0.053904 0.903796 0.333116
v 0.056055 0.905417 0.339808
v 0.058207 0.907039 0.346500
v 0.104887 0.851407 0.352747
v 0.057471 0.876418 0.330825
v 0.059623 0.878039 0.337517
v 0.061774 0.879660 0.344209
v 0.063926 0.881282 0.350902
v 0.100794 0.843942 0.349623
v 0.072277 0.854149 0.331459
v 0.074429 0.855771 0.338151
v 0.076580 0.857392 0.344844
v 0.078732 0.859013 0.351536
v 0.085450 0.865231 0.355647
v 0.093916 0.838760 0.328230
v 0.096068 0.840381 0.334923
v 0.098219 0.842002 0.341615
v 0.100371 0.843624 0.348307
v 0.079155 0.859332 0.352851
v 0.119093 0.832592 0.321630
v 0.121245 0.834213 0.328322
v 0.123397 0.835834 0.335015
v 0.125548 0.837456 0.341707
v 0.072150 0.885234 0.355077
v 0.143976 0.836585 0.312663
v 0.146128 0.838206 0.319355
v 0.148279 0.839827 0.326047
v 0.150431 0.841449 0.332740
v 0.064349 0.881600 0.352217
v 0.164776 0.850130 0.302694
v 0.166928 0.851752 0.309386
v 0.169079 0.853373 0.316078
v 0.171231 0.854994 0.322771
v 0.067012 0.908371 0.351123
v 0.178327 0.871167 0.293241
v 0.180478 0.872788 0.299933
v 0.182630 0.874409 0.306625
v 0.184782 0.876031 0.313318
v 0.058630 0.907357 0.347815
v 0.106114 0.886035 0.343963
v 0.099631 0.895785 0.343685
v 0.097127 0.907063 0.341758
v 0.098983 0.918151 0.338475
v 0.104916 0.927361 0.334337
v 0.114023 0.933292 0.329972
v 0.124918 0.935041 0.326045
v 0.135942 0.932340 0.323155
v 0.145416 0.925602 0.321742
v 0.151899 0.915851 0.322020
v 0.154403 0.904574 0.323947
v 0.152547 0.893486 0.327229
v 0.146614 0.884275 0.331368
v 0.137507 0.878344 0.335733
v 0.126612 0.876596 0.339660
v 0.115588 0.879296 0.342550
v 0.189443 0.901674 0.307135
v 0.184518 0.903265 0.314581
v 0.183724 0.927431 0.302734
v 0.179380 0.926402 0.310628
v 0.168918 0.949699 0.302099
v 0.166081 0.946405 0.310058
v 0.147279 0.965089 0.305328
v 0.146643 0.960229 0.312958
v 0.122101 0.971257 0.311928
v 0.124027 0.965770 0.318887
v 0.097219 0.967264 0.320896
v 0.101676 0.962183 0.326942
v 0.076419 0.953718 0.330865
v 0.082992 0.950015 0.335897
v 0.062868 0.932682 0.340318
v 0.070819 0.931119 0.344388
# 114 vertices

vn -0.298247 -0.224737 -0.927654
vn -0.298247 -0.224737 -0.927654
vn 0.954071 -0.041455 -0.296698
vn 0.870646 0.334257 -0.360898
vn 0.870646 0.334257 -0.360898
vn 0.298247 0.224737 0.927654
vn 0.654673 0.659082 -0.370154
vn 0.654673 0.659082 -0.370154
vn 0.339032 0.883567 -0.323058
vn -0.028223 0.973537 -0.226779
vn -0.028223 0.973537 -0.226779
vn -0.391182 0.915295 -0.095975
vn -0.391182 0.915295 -0.095975
vn -0.694587 0.717708 0.049440
vn -0.892248 0.410856 0.187328
vn -0.954071 0.041455 0.296698
vn -0.954071 0.041455 0.296698
vn -0.870646 -0.334257 0.360898
vn -0.870646 -0.334257 0.360898
vn -0.654673 -0.659082 0.370154
vn -0.654673 -0.659082 0.370154
vn -0.339032 -0.883567 0.323058
vn 0.028223 -0.973537 0.226779
vn 0.028223 -0.973537 0.226779
vn 0.391182 -0.915295 0.095975
vn 0.391182 -0.915295 0.095975
vn 0.694587 -0.717708 -0.049440
vn 0.892248 -0.410856 -0.187328
vn 0.298247 0.224737 0.927654
vn 0.839204 0.146335 0.523759
vn 0.785879 0.386489 0.482723
vn 0.647830 0.594115 0.476806
vn 0.446073 0.737605 0.506909
vn 0.211325 0.795114 0.568450
vn -0.020677 0.757886 0.652060
vn -0.214612 0.631588 0.745009
vn -0.340955 0.435450 0.833146
vn -0.380473 0.199330 0.903055
vn -0.327148 -0.040823 0.944091
vn -0.189099 -0.248449 0.950008
vn 0.012657 -0.391939 0.919904
vn 0.247406 -0.449448 0.858363
vn 0.479407 -0.412220 0.774754
vn 0.673343 -0.285923 0.681805
vn 0.799686 -0.089784 0.593667
# 45 normals

vt 0.437708 0.621722 0.000000
vt 0.385363 0.571013 0.000000
vt 0.318240 0.541141 0.000000
vt 0.245566 0.540429 0.000000
vt 0.178718 0.567870 0.000000
vt 0.127771 0.618596 0.000000
vt 0.100735 0.685171 0.000000
vt 0.100636 0.757082 0.000000
vt 0.127930 0.823200 0.000000
vt 0.178145 0.873745 0.000000
vt 0.243449 0.901479 0.000000
vt 0.314028 0.902819 0.000000
vt 0.379869 0.876944 0.000000
vt 0.431953 0.828205 0.000000
vt 0.459762 0.761759 0.000000
vt 0.462908 0.689292 0.000000
vt 0.131216 0.237181 0.000000
vt 0.144771 0.269608 0.000000
vt 0.169615 0.294434 0.000000
vt 0.202073 0.307834 0.000000
vt 0.237180 0.307795 0.000000
vt 0.269575 0.294295 0.000000
vt 0.294307 0.269441 0.000000
vt 0.307749 0.237069 0.000000
vt 0.307773 0.202007 0.000000
vt 0.294340 0.169632 0.000000
vt 0.269591 0.144776 0.000000
vt 0.237208 0.131266 0.000000
vt 0.202032 0.131190 0.000000
vt 0.169543 0.144678 0.000000
vt 0.144627 0.169502 0.000000
vt 0.131235 0.202021 0.000000
# 32 texture coordinates

o ???_2
usemtl ??.5
f 122/2/47 117/3/47 115/1/46
f 122/2/50 123/5/49 118/6/48 117/3/48
f 123/5/49 124/7/49 119/8/48 118/6/48
f 124/7/49 125/9/49 120/10/48 119/8/48
f 125/9/49 215/11/50 213/12/48 120/10/48
f 216/14/51 206/15/51 207/16/51 214/13/51
f 127/17/47 122/2/47 115/1/46
f 127/17/53 128/18/52 123/5/49 122/2/50
f 128/18/52 129/19/52 124/7/49 123/5/49
f 129/19/52 130/20/52 125/9/49 124/7/49
f 130/20/52 217/21/53 215/11/50 125/9/49
f 218/22/51 205/23/51 206/15/51 216/14/51
f 132/24/47 127/17/47 115/1/46
f 132/24/54 133/25/54 128/18/52 127/17/53
f 133/25/54 134/26/54 129/19/52 128/18/52
f 134/26/54 135/27/54 130/20/52 129/19/52
f 135/27/54 219/28/54 217/21/53 130/20/52
f 220/29/51 204/30/51 205/23/51 218/22/51
f 137/31/47 132/24/47 115/1/46
f 137/31/56 138/32/55 133/25/54 132/24/54
f 138/32/55 139/33/55 134/26/54 133/25/54
f 139/33/55 140/34/55 135/27/54 134/26/54
f 140/34/55 221/35/56 219/28/54 135/27/54
f 222/36/51 203/37/51 204/30/51 220/29/51
f 142/38/47 137/31/47 115/1/46
f 142/38/58 143/39/57 138/32/55 137/31/56
f 143/39/57 144/40/57 139/33/55 138/32/55
f 144/40/57 145/41/57 140/34/55 139/33/55
f 145/41/57 223/42/58 221/35/56 140/34/55
f 224/43/51 202/44/51 203/37/51 222/36/51
f 147/45/47 142/38/47 115/1/46
f 147/45/59 148/46/59 143/39/57 142/38/58
f 148/46/59 149/47/59 144/40/57 143/39/57
f 149/47/59 150/48/59 145/41/57 144/40/57
f 150/48/59 225/49/59 223/42/58 145/41/57
f 226/50/51 201/51/51 202/44/51 224/43/51
f 152/52/47 147/45/47 115/1/46
f 152/52/60 153/53/60 148/46/59 147/45/59
f 153/53/60 154/54/60 149/47/59 148/46/59
f 154/54/60 155/55/60 150/48/59 149/47/59
f 155/55/60 227/56/60 225/49/59 150/48/59
f 228/57/51 200/58/51 201/51/51 226/50/51
f 157/59/47 152/52/47 115/1/46
f 157/59/62 158/60/61 153/53/60 152/52/60
f 158/60/61 159/61/61 154/54/60 153/53/60
f 159/61/61 160/62/61 155/55/60 154/54/60
f 160/62/61 196/63/62 227/56/60 155/55/60
f 191/64/51 199/65/51 200/58/51 228/57/51
f 162/66/47 157/59/47 115/1/46
f 162/66/64 163/67/63 158/60/61 157/59/62
f 163/67/63 164/68/63 159/61/61 158/60/61
f 164/68/63 165/69/63 160/62/61 159/61/61
f 165/69/63 186/70/64 196/63/62 160/62/61
f 181/71/51 198/72/51 199/65/51 191/64/51
f 167/73/47 162/66/47 115/1/46
f 167/73/66 168/74/65 163/67/63 162/66/64
f 168/74/65 169/75/65 164/68/63 163/67/63
f 169/75/65 170/76/65 165/69/63 164/68/63
f 170/76/65 176/77/66 186/70/64 165/69/63
f 171/78/51 197/79/51 198/72/51 181/71/51
f 172/80/47 167/73/47 115/1/46
f 172/80/67 173/81/67 168/74/65 167/73/66
f 173/81/67 174/82/67 169/75/65 168/74/65
f 174/82/67 175/83/67 170/76/65 169/75/65
f 175/83/67 166/84/67 176/77/66 170/76/65
f 161/85/51 212/86/51 197/79/51 171/78/51
f 177/87/47 172/80/47 115/1/46
f 177/87/69 178/88/68 173/81/67 172/80/67
f 178/88/68 179/89/68 174/82/67 173/81/67
f 179/89/68 180/90/68 175/83/67 174/82/67
f 180/90/68 156/91/69 166/84/67 175/83/67
f 151/92/51 211/93/51 212/86/51 161/85/51
f 182/94/47 177/87/47 115/1/46
f 182/94/71 183/95/70 178/88/68 177/87/69
f 183/95/70 184/96/70 179/89/68 178/88/68
f 184/96/70 185/97/70 180/90/68 179/89/68
f 185/97/70 146/98/71 156/91/69 180/90/68
f 141/99/51 210/100/51 211/93/51 151/92/51
f 187/101/47 182/94/47 115/1/46
f 187/101/72 188/102/72 183/95/70 182/94/71
f 188/102/72 189/103/72 184/96/70 183/95/70
f 189/103/72 190/104/72 185/97/70 184/96/70
f 190/104/72 136/105/72 146/98/71 185/97/70
f 131/106/51 209/107/51 210/100/51 141/99/51
f 192/108/47 187/101/47 115/1/46
f 192/108/73 193/109/73 188/102/72 187/101/72
f 193/109/73 194/110/73 189/103/72 188/102/72
f 194/110/73 195/111/73 190/104/72 189/103/72
f 195/111/73 126/112/73 136/105/72 190/104/72
f 121/113/51 208/114/51 209/107/51 131/106/51
f 117/3/47 192/108/47 115/1/46
f 117/3/48 118/6/48 193/109/73 192/108/73
f 118/6/48 119/8/48 194/110/73 193/109/73
f 119/8/48 120/10/48 195/111/73 194/110/73
f 120/10/48 213/12/48 126/112/73 195/111/73
f 214/13/51 207/16/51 208/114/51 121/113/51
f 197/79/51 116/115/74 198/72/51
f 198/72/51 116/115/74 199/65/51
f 199/65/51 116/115/74 200/58/51
f 200/58/51 116/115/74 201/51/51
f 201/51/51 116/115/74 202/44/51
f 202/44/51 116/115/74 203/37/51
f 203/37/51 116/115/74 204/30/51
f 204/30/51 116/115/74 205/23/51
f 205/23/51 116/115/74 206/15/51
f 206/15/51 116/115/74 207/16/51
f 207/16/51 116/115/74 208/114/51
f 208/114/51 116/115/74 209/107/51
f 209/107/51 116/115/74 210/100/51
f 210/100/51 116/115/74 211/93/51
f 211/93/51 116/115/74 212/86/51
f 212/86/51 116/115/74 197/79/51
f 213/116/75 215/117/76 216/14/76 214/13/75
f 215/117/76 217/118/77 218/22/77 216/14/76
f 217/118/77 219/119/78 220/29/78 218/22/77
f 219/119/78 221/120/79 222/36/79 220/29/78
f 221/120/79 223/121/80 224/43/80 222/36/79
f 223/121/80 225/122/81 226/50/81 224/43/80
f 225/122/81 227/123/82 228/57/82 226/50/81
f 227/123/82 196/124/83 191/64/83 228/57/82
f 196/124/83 186/125/84 181/71/84 191/64/83
f 186/125/84 176/126/85 171/78/85 181/71/84
f 176/126/85 166/127/86 161/85/86 171/78/85
f 166/127/86 156/128/87 151/92/87 161/85/86
f 156/128/87 146/129/88 141/99/88 151/92/87
f 146/129/88 136/130/89 131/106/89 141/99/88
f 136/130/89 126/131/90 121/113/90 131/106/89
f 126/131/90 213/116/75 214/13/75 121/113/90

