# Blender 4.0.2
# www.blender.org
mtllib Eyes11.mtl
o Chef_Dog_Brown
v 0.220665 0.950279 0.238206
v 0.211914 0.942704 0.246263
v 0.219565 0.952188 0.242217
v 0.212408 0.940043 0.242574
v 0.201948 0.936355 0.251283
v 0.209179 0.939760 0.235806
v 0.217437 0.949996 0.231438
v 0.198422 0.932906 0.241224
v 0.201650 0.933189 0.247992
v 0.190640 0.933761 0.256786
v 0.186218 0.930107 0.247164
v 0.189446 0.930390 0.253931
v 0.179100 0.935177 0.262232
v 0.173762 0.931636 0.253042
v 0.176990 0.931919 0.259810
v 0.168455 0.940465 0.267089
v 0.162272 0.937343 0.258284
v 0.165501 0.937626 0.265052
v 0.159749 0.949106 0.270881
v 0.152875 0.946670 0.262377
v 0.156104 0.946953 0.269145
v 0.153833 0.960256 0.273238
v 0.146490 0.958703 0.264920
v 0.149719 0.958987 0.271688
v 0.151286 0.972821 0.273927
v 0.143741 0.972266 0.265665
v 0.146970 0.972549 0.272433
v 0.152358 0.985573 0.272883
v 0.144898 0.986030 0.264537
v 0.148127 0.986313 0.271305
v 0.156944 0.997264 0.270206
v 0.149848 0.998647 0.261648
v 0.153077 0.998930 0.268416
v 0.164595 1.006748 0.266160
v 0.158106 1.008884 0.257281
v 0.161334 1.009167 0.264049
v 0.174562 1.013097 0.261140
v 0.168863 1.015737 0.251862
v 0.172092 1.016020 0.258630
v 0.185869 1.015691 0.255637
v 0.181067 1.018536 0.245923
v 0.184296 1.018819 0.252691
v 0.197409 1.014274 0.250190
v 0.193523 1.017007 0.240045
v 0.196752 1.017291 0.246813
v 0.208054 1.008987 0.245333
v 0.205012 1.011300 0.234803
v 0.208241 1.011583 0.241570
v 0.216760 1.000345 0.241541
v 0.214410 1.001974 0.230710
v 0.217638 1.002257 0.237477
v 0.222676 0.989196 0.239185
v 0.220795 0.989940 0.228166
v 0.224024 0.990223 0.234934
v 0.225223 0.976630 0.238496
v 0.223544 0.976377 0.227422
v 0.226772 0.976660 0.234190
v 0.224151 0.963878 0.239540
v 0.222386 0.962614 0.228549
v 0.225615 0.962897 0.235317
v 0.219565 0.952188 0.242217
v 0.217437 0.949996 0.231438
v 0.220665 0.950279 0.238206
v -0.224151 0.963878 0.239540
v -0.219565 0.952188 0.242217
v -0.220665 0.950279 0.238206
v -0.225615 0.962897 0.235317
v -0.217437 0.949996 0.231438
v -0.225223 0.976630 0.238496
v -0.222386 0.962614 0.228550
v -0.226772 0.976660 0.234190
v -0.222676 0.989196 0.239185
v -0.223544 0.976377 0.227422
v -0.224024 0.990223 0.234934
v -0.216760 1.000345 0.241541
v -0.220795 0.989940 0.228166
v -0.217638 1.002256 0.237477
v -0.208054 1.008987 0.245333
v -0.214410 1.001974 0.230710
v -0.208241 1.011583 0.241570
v -0.197409 1.014274 0.250190
v -0.205012 1.011300 0.234803
v -0.196752 1.017291 0.246813
v -0.185869 1.015691 0.255637
v -0.193523 1.017007 0.240045
v -0.184296 1.018819 0.252691
v -0.174562 1.013097 0.261140
v -0.181067 1.018536 0.245923
v -0.172092 1.016020 0.258630
v -0.164595 1.006748 0.266160
v -0.168863 1.015737 0.251862
v -0.161334 1.009167 0.264049
v -0.156944 0.997264 0.270206
v -0.158106 1.008884 0.257281
v -0.153077 0.998930 0.268416
v -0.152358 0.985573 0.272883
v -0.149848 0.998647 0.261648
v -0.148127 0.986313 0.271305
v -0.151286 0.972821 0.273927
v -0.144898 0.986030 0.264537
v -0.146970 0.972549 0.272433
v -0.153833 0.960256 0.273238
v -0.143741 0.972266 0.265665
v -0.149719 0.958986 0.271688
v -0.159749 0.949106 0.270881
v -0.146490 0.958703 0.264920
v -0.156104 0.946953 0.269145
v -0.168455 0.940465 0.267089
v -0.152875 0.946670 0.262377
v -0.165501 0.937626 0.265052
v -0.179100 0.935177 0.262232
v -0.162272 0.937343 0.258284
v -0.176990 0.931919 0.259810
v -0.190640 0.933761 0.256786
v -0.173762 0.931636 0.253042
v -0.189446 0.930390 0.253931
v -0.201948 0.936355 0.251283
v -0.186218 0.930107 0.247164
v -0.201650 0.933189 0.247992
v -0.211914 0.942704 0.246263
v -0.198422 0.932906 0.241224
v -0.212408 0.940043 0.242574
v -0.219565 0.952188 0.242217
v -0.209179 0.939760 0.235806
v -0.220665 0.950279 0.238206
v -0.217437 0.949996 0.231438
v 0.219565 0.952188 0.242217
v 0.188255 0.974726 0.256211
v 0.224151 0.963878 0.239540
v 0.211914 0.942704 0.246263
v 0.225223 0.976630 0.238496
v 0.201948 0.936355 0.251283
v 0.222676 0.989196 0.239185
v 0.190640 0.933761 0.256786
v 0.216760 1.000345 0.241541
v 0.179100 0.935177 0.262232
v 0.208054 1.008987 0.245333
v 0.168455 0.940465 0.267089
v 0.197409 1.014274 0.250190
v 0.159749 0.949106 0.270881
v 0.185869 1.015691 0.255637
v 0.153833 0.960256 0.273238
v 0.174562 1.013097 0.261140
v 0.151286 0.972821 0.273927
v 0.164595 1.006748 0.266160
v 0.152358 0.985573 0.272883
v 0.156944 0.997264 0.270206
v -0.219565 0.952188 0.242217
v -0.224151 0.963878 0.239540
v -0.188255 0.974726 0.256211
v -0.211914 0.942704 0.246263
v -0.225223 0.976630 0.238496
v -0.201948 0.936355 0.251283
v -0.222676 0.989196 0.239185
v -0.190640 0.933761 0.256786
v -0.216760 1.000345 0.241541
v -0.179100 0.935177 0.262232
v -0.208054 1.008987 0.245333
v -0.168455 0.940465 0.267089
v -0.197409 1.014274 0.250190
v -0.159749 0.949106 0.270881
v -0.185869 1.015691 0.255637
v -0.153833 0.960256 0.273238
v -0.174562 1.013097 0.261140
v -0.151286 0.972821 0.273927
v -0.164595 1.006748 0.266160
v -0.152358 0.985573 0.272883
v -0.156944 0.997264 0.270206
vn 0.5468 -0.0506 0.8357
vn 0.5170 -0.0876 0.8515
vn 0.8508 -0.5186 -0.0847
vn 0.6713 -0.7411 0.0103
vn 0.8508 -0.5186 -0.0846
vn 0.6714 -0.7411 0.0103
vn 0.4781 -0.1123 0.8711
vn 0.5765 -0.7803 -0.2424
vn 0.7630 -0.5492 -0.3410
vn 0.3337 -0.9350 -0.1200
vn 0.4375 -0.8901 0.1281
vn 0.4375 -0.8901 0.1280
vn 0.3336 -0.9350 -0.1201
vn 0.4375 -0.8900 0.1280
vn 0.4781 -0.1124 0.8711
vn 0.4340 -0.1225 0.8925
vn 0.3337 -0.9350 -0.1201
vn 0.0581 -0.9982 0.0140
vn 0.1722 -0.9509 0.2572
vn 0.4375 -0.8900 0.1281
vn 0.4341 -0.1224 0.8925
vn 0.3891 -0.1169 0.9138
vn -0.2231 -0.9637 0.1467
vn -0.0986 -0.9177 0.3849
vn 0.3891 -0.1170 0.9138
vn -0.0985 -0.9177 0.3849
vn 0.3476 -0.0963 0.9327
vn -0.4825 -0.8348 0.2651
vn -0.3482 -0.7936 0.4989
vn -0.0985 -0.9177 0.3850
vn -0.3483 -0.7936 0.4989
vn 0.3475 -0.0963 0.9327
vn 0.3136 -0.0627 0.9475
vn -0.4825 -0.8349 0.2650
vn -0.6946 -0.6243 0.3574
vn -0.5525 -0.5909 0.5879
vn -0.6946 -0.6243 0.3575
vn -0.5526 -0.5909 0.5878
vn 0.2905 -0.0192 0.9567
vn -0.8388 -0.3526 0.4149
vn -0.6913 -0.3293 0.6431
vn -0.5525 -0.5909 0.5878
vn -0.6913 -0.3293 0.6432
vn 0.2806 0.0298 0.9594
vn -0.9008 -0.0464 0.4317
vn -0.7511 -0.0345 0.6593
vn 0.2848 0.0795 0.9553
vn -0.8747 0.2643 0.4063
vn -0.7259 0.2647 0.6348
vn -0.8747 0.2643 0.4062
vn 0.3027 0.1251 0.9449
vn -0.7629 0.5492 0.3410
vn -0.6183 0.5390 0.5720
vn -0.6183 0.5389 0.5720
vn 0.3325 0.1621 0.9291
vn -0.7630 0.5492 0.3410
vn -0.5765 0.7803 0.2424
vn -0.4388 0.7615 0.4771
vn 0.3325 0.1620 0.9291
vn -0.4388 0.7614 0.4771
vn 0.3713 0.1868 0.9095
vn -0.3337 0.9350 0.1201
vn -0.2050 0.9104 0.3593
vn 0.4154 0.1969 0.8881
vn -0.0581 0.9982 -0.0140
vn 0.0603 0.9713 0.2302
vn 0.4604 0.1914 0.8668
vn 0.2231 0.9637 -0.1467
vn 0.3311 0.9380 0.1024
vn 0.4605 0.1914 0.8668
vn 0.3310 0.9380 0.1024
vn 0.3310 0.9380 0.1025
vn 0.5019 0.1708 0.8479
vn 0.4825 0.8348 -0.2651
vn 0.5808 0.8140 -0.0115
vn 0.4824 0.8349 -0.2651
vn 0.5358 0.1371 0.8331
vn 0.6946 0.6243 -0.3575
vn 0.7850 0.6113 -0.1005
vn 0.5359 0.1371 0.8331
vn 0.5589 0.0937 0.8239
vn 0.8388 0.3526 -0.4149
vn 0.9238 0.3497 -0.1558
vn 0.7850 0.6112 -0.1005
vn 0.5589 0.0936 0.8239
vn 0.5688 0.0447 0.8212
vn 0.9008 0.0464 -0.4317
vn 0.9836 0.0549 -0.1719
vn 0.9238 0.3497 -0.1557
vn 0.9836 0.0548 -0.1719
vn 0.5688 0.0446 0.8212
vn 0.5647 -0.0051 0.8253
vn 0.8747 -0.2643 -0.4062
vn 0.9584 -0.2443 -0.1474
vn 0.9836 0.0549 -0.1720
vn 0.9584 -0.2443 -0.1475
vn 0.8508 -0.5185 -0.0847
vn -0.8508 -0.5186 -0.0846
vn -0.5468 -0.0506 0.8357
vn -0.5647 -0.0051 0.8253
vn -0.9584 -0.2443 -0.1474
vn -0.7630 -0.5492 -0.3410
vn -0.5688 0.0446 0.8212
vn -0.8747 -0.2643 -0.4062
vn -0.9836 0.0549 -0.1719
vn -0.5589 0.0936 0.8239
vn -0.9008 0.0464 -0.4317
vn -0.9238 0.3496 -0.1558
vn -0.9238 0.3497 -0.1558
vn -0.5359 0.1371 0.8331
vn -0.8388 0.3526 -0.4149
vn -0.7851 0.6112 -0.1005
vn -0.9238 0.3497 -0.1557
vn -0.7850 0.6113 -0.1005
vn -0.5019 0.1708 0.8479
vn -0.7850 0.6112 -0.1005
vn -0.6946 0.6243 -0.3574
vn -0.5808 0.8140 -0.0115
vn -0.5807 0.8140 -0.0115
vn -0.6946 0.6243 -0.3575
vn -0.4604 0.1914 0.8668
vn -0.4824 0.8349 -0.2651
vn -0.3310 0.9380 0.1024
vn -0.4155 0.1969 0.8880
vn -0.3311 0.9380 0.1024
vn -0.2230 0.9637 -0.1468
vn -0.4825 0.8348 -0.2651
vn -0.4154 0.1969 0.8881
vn -0.0603 0.9713 0.2302
vn -0.2231 0.9637 -0.1467
vn -0.3713 0.1868 0.9095
vn 0.0582 0.9982 -0.0141
vn -0.3714 0.1868 0.9095
vn 0.2050 0.9104 0.3593
vn 0.0581 0.9982 -0.0140
vn -0.3325 0.1620 0.9291
vn 0.3337 0.9350 0.1201
vn 0.0582 0.9982 -0.0140
vn 0.4388 0.7614 0.4771
vn -0.3325 0.1621 0.9291
vn -0.3027 0.1251 0.9448
vn 0.4389 0.7614 0.4771
vn 0.4388 0.7615 0.4771
vn 0.5765 0.7803 0.2424
vn 0.6183 0.5390 0.5720
vn 0.6183 0.5389 0.5720
vn -0.2848 0.0795 0.9553
vn 0.7630 0.5492 0.3410
vn 0.7259 0.2647 0.6348
vn -0.2806 0.0298 0.9594
vn 0.8747 0.2643 0.4063
vn 0.7511 -0.0345 0.6593
vn 0.8747 0.2643 0.4062
vn -0.2905 -0.0192 0.9567
vn 0.9008 -0.0464 0.4317
vn 0.6913 -0.3293 0.6431
vn 0.7510 -0.0345 0.6593
vn -0.3136 -0.0626 0.9475
vn 0.8388 -0.3526 0.4149
vn 0.5525 -0.5909 0.5879
vn -0.3475 -0.0963 0.9327
vn 0.5525 -0.5909 0.5878
vn 0.6946 -0.6243 0.3575
vn 0.3483 -0.7936 0.4989
vn -0.3476 -0.0963 0.9327
vn -0.3890 -0.1169 0.9138
vn 0.3482 -0.7936 0.4989
vn 0.4824 -0.8349 0.2651
vn 0.0985 -0.9177 0.3849
vn 0.4825 -0.8348 0.2651
vn -0.3890 -0.1170 0.9138
vn -0.4340 -0.1225 0.8925
vn 0.2230 -0.9637 0.1468
vn -0.1722 -0.9509 0.2572
vn 0.2231 -0.9637 0.1467
vn -0.4781 -0.1124 0.8711
vn -0.1723 -0.9509 0.2571
vn -0.0581 -0.9982 0.0140
vn -0.4781 -0.1123 0.8711
vn -0.4375 -0.8900 0.1281
vn -0.1722 -0.9509 0.2571
vn -0.4375 -0.8901 0.1280
vn -0.5170 -0.0876 0.8515
vn -0.4375 -0.8900 0.1280
vn -0.3337 -0.9350 -0.1201
vn -0.5169 -0.0876 0.8515
vn -0.6714 -0.7411 0.0103
vn -0.6713 -0.7411 0.0103
vn -0.3336 -0.9350 -0.1201
vn -0.5468 -0.0507 0.8357
vn -0.5765 -0.7803 -0.2424
vn -0.8509 -0.5185 -0.0846
vn -0.8508 -0.5186 -0.0847
vn 0.4303 0.0377 0.9019
vn 0.5646 -0.0051 0.8253
vn 0.5688 0.0447 0.8213
vn 0.3890 -0.1169 0.9138
vn 0.3890 -0.1170 0.9138
vn 0.3475 -0.0964 0.9327
vn 0.4604 0.1914 0.8669
vn 0.4154 0.1969 0.8880
vn 0.3135 -0.0626 0.9475
vn 0.2906 -0.0192 0.9567
vn 0.3026 0.1251 0.9449
vn -0.4303 0.0377 0.9019
vn -0.5468 -0.0506 0.8358
vn -0.5646 -0.0051 0.8253
vn -0.5689 0.0447 0.8212
vn -0.4341 -0.1225 0.8925
vn -0.4340 -0.1224 0.8925
vn -0.3891 -0.1169 0.9138
vn -0.3475 -0.0964 0.9327
vn -0.3136 -0.0627 0.9475
vn -0.4604 0.1914 0.8669
vn -0.2906 -0.0192 0.9567
vn -0.3027 0.1251 0.9449
vt 0.999023 0.326660
vt 0.999023 0.338135
vt 0.996094 0.326172
vt 0.996094 0.338135
vt 0.999023 0.350098
vt 0.989746 0.338135
vt 0.989746 0.326172
vt 0.989746 0.350098
vt 0.996094 0.350098
vt 0.999023 0.362060
vt 0.989746 0.362060
vt 0.996094 0.362060
vt 0.999023 0.373779
vt 0.989746 0.373779
vt 0.996094 0.373779
vt 0.999023 0.385742
vt 0.989746 0.385742
vt 0.996094 0.385742
vt 0.999023 0.397705
vt 0.989746 0.397705
vt 0.996094 0.397705
vt 0.999023 0.409668
vt 0.989746 0.409668
vt 0.996094 0.409668
vt 0.999023 0.421631
vt 0.989746 0.421631
vt 0.996094 0.421631
vt 0.999023 0.433350
vt 0.989746 0.433350
vt 0.996094 0.433350
vt 0.999023 0.445312
vt 0.989746 0.445312
vt 0.996094 0.445312
vt 0.999023 0.457275
vt 0.989746 0.457275
vt 0.996094 0.457275
vt 0.999023 0.469238
vt 0.989746 0.469238
vt 0.996094 0.469238
vt 0.999023 0.481201
vt 0.989746 0.481201
vt 0.996094 0.481201
vt 0.999023 0.492920
vt 0.989746 0.492920
vt 0.996094 0.492920
vt 0.999023 0.504883
vt 0.989746 0.504883
vt 0.996094 0.504883
vt 0.999023 0.516602
vt 0.989746 0.516602
vt 0.996094 0.516602
vt 0.999023 0.528809
vt 0.989746 0.528809
vt 0.996094 0.528809
vt 0.999023 0.540527
vt 0.989746 0.540527
vt 0.996094 0.540527
vt 0.999023 0.552734
vt 0.989746 0.552734
vt 0.996094 0.552734
vt 0.999023 0.563965
vt 0.989746 0.564453
vt 0.996094 0.564453
vt 0.979004 0.458740
vt 0.955566 0.470703
vt 0.974121 0.452148
vt 0.967285 0.447510
vt 0.981445 0.466553
vt 0.959473 0.444824
vt 0.981445 0.474853
vt 0.951660 0.444824
vt 0.979004 0.482666
vt 0.943848 0.447510
vt 0.974121 0.489258
vt 0.937012 0.452148
vt 0.967285 0.494141
vt 0.932129 0.458740
vt 0.959473 0.496582
vt 0.929688 0.466553
vt 0.951660 0.496582
vt 0.929688 0.474853
vt 0.943848 0.494141
vt 0.932129 0.482666
vt 0.937012 0.489258
s 0
usemtl æè´¨
f 3/1/1 2/2/2 1/3/3
f 2/2/2 4/4/4 1/3/5
f 4/4/6 2/2/2 5/5/7
f 1/3/5 4/4/4 6/6/8
f 7/7/9 1/3/5 6/6/8
f 6/6/8 4/4/4 8/8/10
f 9/9/11 4/4/4 5/5/7
f 4/4/4 9/9/12 8/8/13
f 9/9/14 5/5/15 10/10/16
f 8/8/17 9/9/12 11/11/18
f 12/12/19 9/9/20 10/10/21
f 9/9/12 12/12/19 11/11/18
f 12/12/19 10/10/16 13/13/22
f 11/11/18 12/12/19 14/14/23
f 15/15/24 12/12/19 13/13/25
f 12/12/19 15/15/26 14/14/23
f 15/15/24 13/13/22 16/16/27
f 14/14/23 15/15/26 17/17/28
f 18/18/29 15/15/30 16/16/27
f 15/15/26 18/18/31 17/17/28
f 18/18/29 16/16/32 19/19/33
f 17/17/34 18/18/31 20/20/35
f 21/21/36 18/18/31 19/19/33
f 18/18/31 21/21/36 20/20/37
f 21/21/38 19/19/33 22/22/39
f 20/20/37 21/21/36 23/23/40
f 24/24/41 21/21/42 22/22/39
f 21/21/36 24/24/41 23/23/40
f 24/24/43 22/22/39 25/25/44
f 23/23/40 24/24/43 26/26/45
f 27/27/46 24/24/43 25/25/44
f 24/24/41 27/27/46 26/26/45
f 27/27/46 25/25/44 28/28/47
f 26/26/45 27/27/46 29/29/48
f 30/30/49 27/27/46 28/28/47
f 27/27/46 30/30/49 29/29/50
f 30/30/49 28/28/47 31/31/51
f 29/29/50 30/30/49 32/32/52
f 33/33/53 30/30/49 31/31/51
f 30/30/49 33/33/54 32/32/52
f 33/33/53 31/31/51 34/34/55
f 32/32/56 33/33/53 35/35/57
f 36/36/58 33/33/54 34/34/59
f 33/33/53 36/36/58 35/35/57
f 36/36/60 34/34/59 37/37/61
f 35/35/57 36/36/58 38/38/62
f 39/39/63 36/36/58 37/37/61
f 36/36/58 39/39/63 38/38/62
f 39/39/63 37/37/61 40/40/64
f 38/38/62 39/39/63 41/41/65
f 42/42/66 39/39/63 40/40/64
f 39/39/63 42/42/66 41/41/65
f 42/42/66 40/40/64 43/43/67
f 41/41/65 42/42/66 44/44/68
f 45/45/69 42/42/66 43/43/70
f 42/42/66 45/45/71 44/44/68
f 45/45/72 43/43/67 46/46/73
f 44/44/68 45/45/69 47/47/74
f 48/48/75 45/45/72 46/46/73
f 45/45/71 48/48/75 47/47/76
f 48/48/75 46/46/73 49/49/77
f 47/47/76 48/48/75 50/50/78
f 51/51/79 48/48/75 49/49/77
f 48/48/75 51/51/79 50/50/78
f 51/51/79 49/49/80 52/52/81
f 50/50/78 51/51/79 53/53/82
f 54/54/83 51/51/84 52/52/85
f 51/51/84 54/54/83 53/53/82
f 54/54/83 52/52/85 55/55/86
f 53/53/82 54/54/83 56/56/87
f 57/57/88 54/54/89 55/55/86
f 54/54/83 57/57/88 56/56/87
f 57/57/90 55/55/91 58/58/92
f 56/56/87 57/57/88 59/59/93
f 60/60/94 57/57/95 58/58/92
f 57/57/88 60/60/94 59/59/93
f 60/60/96 58/58/92 61/61/1
f 59/59/93 60/60/94 62/62/9
f 63/63/97 60/60/94 61/61/1
f 60/60/94 63/63/5 62/62/9
f 66/63/98 65/61/99 64/58/100
f 67/60/101 66/63/98 64/58/100
f 66/63/98 67/60/101 68/62/102
f 64/58/100 69/55/103 67/60/101
f 67/60/101 70/59/104 68/62/102
f 69/55/103 71/57/105 67/60/101
f 67/60/101 71/57/105 70/59/104
f 69/55/103 72/52/106 71/57/105
f 71/57/105 73/56/107 70/59/104
f 72/52/106 74/54/108 71/57/105
f 71/57/105 74/54/109 73/56/107
f 72/52/106 75/49/110 74/54/109
f 74/54/109 76/53/111 73/56/107
f 75/49/110 77/51/112 74/54/113
f 74/54/109 77/51/114 76/53/111
f 75/49/110 78/46/115 77/51/114
f 77/51/116 79/50/117 76/53/111
f 78/46/115 80/48/118 77/51/114
f 77/51/116 80/48/119 79/50/120
f 78/46/115 81/43/121 80/48/118
f 80/48/118 82/47/122 79/50/120
f 81/43/121 83/45/123 80/48/118
f 80/48/118 83/45/123 82/47/122
f 81/43/121 84/40/124 83/45/125
f 83/45/125 85/44/126 82/47/127
f 84/40/128 86/42/129 83/45/125
f 83/45/123 86/42/129 85/44/130
f 84/40/128 87/37/131 86/42/129
f 86/42/129 88/41/132 85/44/130
f 87/37/133 89/39/134 86/42/129
f 86/42/129 89/39/134 88/41/135
f 87/37/133 90/34/136 89/39/134
f 89/39/134 91/38/137 88/41/138
f 90/34/136 92/36/139 89/39/134
f 89/39/134 92/36/139 91/38/137
f 90/34/140 93/31/141 92/36/142
f 92/36/143 94/35/144 91/38/137
f 93/31/141 95/33/145 92/36/143
f 92/36/143 95/33/146 94/35/144
f 93/31/141 96/28/147 95/33/145
f 95/33/146 97/32/148 94/35/144
f 96/28/147 98/30/149 95/33/145
f 95/33/145 98/30/149 97/32/148
f 96/28/147 99/25/150 98/30/149
f 98/30/149 100/29/151 97/32/148
f 99/25/150 101/27/152 98/30/149
f 98/30/149 101/27/152 100/29/153
f 99/25/150 102/22/154 101/27/152
f 101/27/152 103/26/155 100/29/153
f 102/22/154 104/24/156 101/27/157
f 101/27/152 104/24/156 103/26/155
f 102/22/154 105/19/158 104/24/156
f 104/24/156 106/23/159 103/26/155
f 105/19/158 107/21/160 104/24/156
f 104/24/156 107/21/160 106/23/159
f 105/19/158 108/16/161 107/21/162
f 107/21/160 109/20/163 106/23/159
f 108/16/161 110/18/164 107/21/160
f 107/21/160 110/18/164 109/20/163
f 108/16/165 111/13/166 110/18/167
f 110/18/164 112/17/168 109/20/163
f 111/13/166 113/15/169 110/18/164
f 110/18/164 113/15/169 112/17/170
f 111/13/171 114/10/172 113/15/169
f 113/15/169 115/14/173 112/17/170
f 114/10/172 116/12/174 113/15/169
f 113/15/169 116/12/174 115/14/175
f 114/10/172 117/5/176 116/12/177
f 116/12/174 118/11/178 115/14/175
f 117/5/179 119/9/180 116/12/174
f 116/12/181 119/9/182 118/11/178
f 117/5/176 120/2/183 119/9/184
f 119/9/182 121/8/185 118/11/178
f 120/2/186 122/4/187 119/9/180
f 119/9/184 122/4/188 121/8/189
f 122/4/188 120/2/183 123/1/190
f 122/4/188 124/6/191 121/8/185
f 125/3/192 122/4/188 123/1/99
f 122/4/188 125/3/193 124/6/191
f 125/3/193 126/7/102 124/6/191
f 129/64/92 128/65/194 127/66/1
f 127/66/1 128/65/194 130/67/2
f 131/68/91 128/65/194 129/64/195
f 130/67/2 128/65/194 132/69/15
f 133/70/85 128/65/194 131/68/196
f 132/69/15 128/65/194 134/71/16
f 135/72/77 128/65/194 133/70/85
f 134/71/16 128/65/194 136/73/197
f 137/74/73 128/65/194 135/72/80
f 136/73/198 128/65/194 138/75/199
f 139/76/200 128/65/194 137/74/73
f 138/75/32 128/65/194 140/77/33
f 141/78/201 128/65/194 139/76/67
f 140/77/202 128/65/194 142/79/203
f 143/80/61 128/65/194 141/78/64
f 142/79/39 128/65/194 144/81/44
f 145/82/55 128/65/194 143/80/61
f 144/81/44 128/65/194 146/83/47
f 147/84/51 128/65/194 145/82/55
f 146/83/47 128/65/194 147/84/204
f 150/65/205 149/64/100 148/66/99
f 150/65/205 148/66/206 151/67/183
f 150/65/205 152/68/103 149/64/207
f 150/65/205 151/67/183 153/69/176
f 150/65/205 154/70/106 152/68/208
f 150/65/205 153/69/176 155/71/209
f 150/65/205 156/72/110 154/70/106
f 150/65/205 155/71/210 157/73/166
f 150/65/205 158/74/115 156/72/110
f 150/65/205 157/73/211 159/75/212
f 150/65/205 160/76/121 158/74/115
f 150/65/205 159/75/165 161/77/213
f 150/65/205 162/78/128 160/76/214
f 150/65/205 161/77/158 163/79/215
f 150/65/205 164/80/131 162/78/128
f 150/65/205 163/79/215 165/81/150
f 150/65/205 166/82/140 164/80/131
f 150/65/205 165/81/150 167/83/147
f 150/65/205 168/84/216 166/82/140
f 150/65/205 167/83/147 168/84/141
