# WaveFront *.obj file (generated by Cinema 4D)

mtllib ./Eyebrows.mtl

v -0.047459 0.985151 0.292422
v -0.042773 1.016683 0.284260
v -0.182386 0.999616 0.270839
v -0.177700 1.031148 0.262677
v -0.179675 0.996065 0.251515
v -0.174989 1.027597 0.243352
v -0.044748 0.981600 0.273098
v -0.040062 1.013132 0.264935
v -0.077427 0.992721 0.266148
v -0.144890 0.999954 0.255356
v -0.072741 1.024253 0.257986
v -0.140204 1.031486 0.247194
v -0.075451 1.027804 0.277310
v -0.142915 1.035036 0.266518
v -0.080137 0.996272 0.285472
v -0.147601 1.003505 0.274681
v -0.094000 0.996613 0.263019
v -0.127732 1.000229 0.257623
v -0.089314 1.028144 0.254856
v -0.123046 1.031761 0.249460
v -0.092025 1.031695 0.274181
v -0.125756 1.035311 0.268785
v -0.096711 1.000163 0.282343
v -0.130443 1.003780 0.276947
v -0.061074 0.987260 0.269602
v -0.056387 1.018792 0.261440
v -0.059098 1.022342 0.280764
v -0.063784 0.990811 0.288927
v -0.162269 0.998109 0.253415
v -0.164979 1.001660 0.272740
v -0.160293 1.033191 0.264577
v -0.157583 1.029640 0.245253
v -0.110644 1.000005 0.259993
v -0.105958 1.031536 0.251830
v -0.108668 1.035087 0.271155
v -0.113354 1.003555 0.279317
# 36 vertices

vn -0.113267 0.264735 0.957646
vn -0.113553 0.264766 0.957604
vn -0.981960 0.105274 -0.157076
vn 0.135518 -0.267120 -0.954087
vn 0.135232 -0.267090 -0.954136
vn 0.981960 -0.105274 0.157076
vn 0.348316 0.929414 -0.121923
vn 0.343062 0.931226 -0.122992
vn -0.348316 -0.929414 0.121923
vn -0.343062 -0.931226 0.122992
vn 0.116110 -0.265047 -0.957219
vn 0.113553 -0.264766 -0.957604
vn 0.132681 -0.266824 -0.954569
vn 0.129695 -0.266509 -0.955067
vn 0.294910 0.946292 -0.132515
vn 0.237204 0.960835 -0.143281
vn -0.037297 0.981907 -0.185655
vn -0.088058 0.977445 -0.191955
vn -0.116110 0.265047 0.957219
vn -0.119102 0.265373 0.956761
vn -0.132681 0.266824 0.954569
vn -0.135232 0.267090 0.954136
vn -0.294910 -0.946292 0.132515
vn -0.237204 -0.960835 0.143281
vn 0.037297 -0.981907 0.185655
vn 0.088058 -0.977445 0.191955
vn 0.119102 -0.265373 -0.956761
vn 0.124400 -0.265945 -0.955928
vn 0.130690 0.978196 -0.161411
vn 0.022611 0.983842 -0.177608
vn -0.124400 0.265945 0.955928
vn -0.129695 0.266509 0.955067
vn -0.130690 -0.978196 0.161411
vn -0.022611 -0.983842 0.177608
vn 0.113267 -0.264735 -0.957646
vn 0.093641 -0.976795 0.192619
vn -0.135518 0.267120 0.954087
vn -0.093641 0.976795 -0.192619
# 38 normals

vt 0.096026 0.400543 0.000000
vt 0.096909 0.384294 0.000000
vt 0.128039 0.385987 0.000000
vt 0.127156 0.402236 0.000000
vt 0.087029 0.250939 0.000000
vt 0.084332 0.269535 0.000000
vt 0.053202 0.267842 0.000000
vt 0.055899 0.249246 0.000000
vt 0.083448 0.285783 0.000000
vt 0.052318 0.284090 0.000000
vt 0.077263 0.399522 0.000000
vt 0.077927 0.418301 0.000000
vt 0.046797 0.416608 0.000000
vt 0.046133 0.397829 0.000000
vt 0.146802 0.387008 0.000000
vt 0.145919 0.403256 0.000000
vt 0.078146 0.383274 0.000000
vt 0.047900 0.365332 0.000000
vt 0.079030 0.367025 0.000000
vt 0.047016 0.381581 0.000000
vt 0.051435 0.300339 0.000000
vt 0.082565 0.302032 0.000000
vt 0.081681 0.318280 0.000000
vt 0.050551 0.316587 0.000000
vt 0.147686 0.370759 0.000000
vt 0.128923 0.369739 0.000000
vt 0.129807 0.353490 0.000000
vt 0.148570 0.354511 0.000000
vt 0.151221 0.305765 0.000000
vt 0.132458 0.304745 0.000000
vt 0.133341 0.288497 0.000000
vt 0.152105 0.289517 0.000000
vt 0.097793 0.368046 0.000000
vt 0.098677 0.351797 0.000000
vt 0.101328 0.303052 0.000000
vt 0.102211 0.286804 0.000000
vt 0.079914 0.350777 0.000000
vt 0.048784 0.349084 0.000000
vt 0.080797 0.334529 0.000000
vt 0.049667 0.332835 0.000000
vt 0.130690 0.337242 0.000000
vt 0.149454 0.338262 0.000000
vt 0.150337 0.322014 0.000000
vt 0.131574 0.320994 0.000000
vt 0.099560 0.335549 0.000000
vt 0.100444 0.319301 0.000000
vt 0.103095 0.270555 0.000000
vt 0.134225 0.272248 0.000000
vt 0.152988 0.273269 0.000000
# 49 texture coordinates

o ???_1
usemtl ??.6
f 2/4/1 27/3/2 28/2/2 1/1/1
f 4/8/3 6/7/3 5/6/3 3/5/3
f 6/7/4 32/10/5 29/9/5 5/6/4
f 8/14/6 2/13/6 1/12/6 7/11/6
f 8/16/7 26/15/8 27/3/8 2/4/7
f 1/1/9 28/2/10 25/17/10 7/11/9
f 26/20/12 25/17/12 9/19/11 11/18/11
f 20/24/14 18/23/14 10/22/13 12/21/13
f 19/28/16 21/27/16 13/26/15 11/25/15
f 32/32/18 31/31/18 14/30/17 12/29/17
f 21/27/20 23/34/20 15/33/19 13/26/19
f 31/31/22 30/36/22 16/35/21 14/30/21
f 23/34/24 17/37/24 9/19/23 15/33/23
f 30/36/26 29/9/26 10/22/25 16/35/25
f 11/18/11 9/19/11 17/37/27 19/38/27
f 34/40/28 33/39/28 18/23/14 20/24/14
f 34/42/29 35/41/29 21/27/16 19/28/16
f 12/29/17 14/30/17 22/44/30 20/43/30
f 35/41/31 36/45/31 23/34/20 21/27/20
f 14/30/21 16/35/21 24/46/32 22/44/32
f 36/45/33 33/39/33 17/37/24 23/34/24
f 16/35/25 10/22/25 18/23/34 24/46/34
f 8/14/35 7/11/35 25/17/12 26/20/12
f 11/25/15 13/26/15 27/3/8 26/15/8
f 13/26/19 15/33/19 28/2/2 27/3/2
f 15/33/23 9/19/23 25/17/10 28/2/10
f 3/47/36 5/6/36 29/9/26 30/36/26
f 4/48/37 3/47/37 30/36/22 31/31/22
f 6/49/38 4/48/38 31/31/18 32/32/18
f 12/21/13 10/22/13 29/9/5 32/10/5
f 19/38/27 17/37/27 33/39/28 34/40/28
f 20/43/30 22/44/30 35/41/29 34/42/29
f 22/44/32 24/46/32 36/45/31 35/41/31
f 24/46/34 18/23/34 33/39/33 36/45/33

v 0.047459 0.985151 0.292422
v 0.042773 1.016683 0.284260
v 0.182386 0.999616 0.270839
v 0.177700 1.031148 0.262677
v 0.179675 0.996065 0.251515
v 0.174989 1.027597 0.243352
v 0.044748 0.981600 0.273098
v 0.040062 1.013132 0.264935
v 0.077427 0.992721 0.266148
v 0.144890 0.999954 0.255356
v 0.072741 1.024253 0.257986
v 0.140204 1.031486 0.247194
v 0.075451 1.027804 0.277310
v 0.142915 1.035036 0.266518
v 0.080137 0.996272 0.285472
v 0.147601 1.003505 0.274681
v 0.094000 0.996613 0.263019
v 0.127732 1.000229 0.257623
v 0.089314 1.028144 0.254856
v 0.123046 1.031761 0.249460
v 0.092025 1.031695 0.274181
v 0.125756 1.035311 0.268785
v 0.096711 1.000163 0.282343
v 0.130443 1.003780 0.276947
v 0.061074 0.987260 0.269602
v 0.056387 1.018792 0.261440
v 0.059098 1.022342 0.280764
v 0.063784 0.990811 0.288927
v 0.162269 0.998109 0.253415
v 0.164979 1.001660 0.272740
v 0.160293 1.033191 0.264577
v 0.157583 1.029640 0.245253
v 0.110644 1.000005 0.259993
v 0.105958 1.031536 0.251830
v 0.108668 1.035087 0.271155
v 0.113354 1.003555 0.279317
# 36 vertices

vn 0.113267 0.264735 0.957646
vn 0.113553 0.264766 0.957604
vn 0.981960 0.105274 -0.157076
vn -0.135518 -0.267120 -0.954087
vn -0.135232 -0.267090 -0.954136
vn -0.981960 -0.105274 0.157076
vn -0.348316 0.929414 -0.121923
vn -0.343062 0.931226 -0.122992
vn 0.348316 -0.929414 0.121923
vn 0.343062 -0.931226 0.122992
vn -0.116110 -0.265047 -0.957219
vn -0.113553 -0.264766 -0.957604
vn -0.132681 -0.266824 -0.954569
vn -0.129695 -0.266509 -0.955067
vn -0.294910 0.946292 -0.132515
vn -0.237204 0.960835 -0.143281
vn 0.037297 0.981907 -0.185655
vn 0.088058 0.977445 -0.191955
vn 0.116110 0.265047 0.957219
vn 0.119102 0.265373 0.956761
vn 0.132681 0.266824 0.954569
vn 0.135232 0.267090 0.954136
vn 0.294910 -0.946292 0.132515
vn 0.237204 -0.960835 0.143281
vn -0.037297 -0.981907 0.185655
vn -0.088058 -0.977445 0.191955
vn -0.119102 -0.265373 -0.956761
vn -0.124400 -0.265945 -0.955928
vn -0.130690 0.978196 -0.161411
vn -0.022611 0.983842 -0.177608
vn 0.124400 0.265945 0.955928
vn 0.129695 0.266509 0.955067
vn 0.130690 -0.978196 0.161411
vn 0.022611 -0.983842 0.177608
vn -0.113267 -0.264735 -0.957646
vn -0.093641 -0.976795 0.192619
vn 0.135518 0.267120 0.954087
vn 0.093641 0.976795 -0.192619
# 38 normals

# 0 texture coordinate

o ???_2
usemtl ??.6
f 64/2/40 63/3/40 38/4/39 37/1/39
f 41/6/41 42/7/41 40/8/41 39/5/41
f 65/9/43 68/10/43 42/7/42 41/6/42
f 37/12/44 38/13/44 44/14/44 43/11/44
f 63/3/46 62/15/46 44/16/45 38/4/45
f 61/17/48 64/2/48 37/1/47 43/11/47
f 45/19/49 61/17/50 62/20/50 47/18/49
f 46/22/51 54/23/52 56/24/52 48/21/51
f 49/26/53 57/27/54 55/28/54 47/25/53
f 50/30/55 67/31/56 68/32/56 48/29/55
f 51/33/57 59/34/58 57/27/58 49/26/57
f 52/35/59 66/36/60 67/31/60 50/30/59
f 45/19/61 53/37/62 59/34/62 51/33/61
f 46/22/63 65/9/64 66/36/64 52/35/63
f 53/37/65 45/19/49 47/18/49 55/38/65
f 54/23/52 69/39/66 70/40/66 56/24/52
f 57/27/54 71/41/67 70/42/67 55/28/54
f 58/44/68 50/30/55 48/29/55 56/43/68
f 59/34/58 72/45/69 71/41/69 57/27/58
f 60/46/70 52/35/59 50/30/59 58/44/70
f 53/37/62 69/39/71 72/45/71 59/34/62
f 54/23/72 46/22/63 52/35/63 60/46/72
f 61/17/50 43/11/73 44/14/73 62/20/50
f 63/3/46 49/26/53 47/25/53 62/15/46
f 64/2/40 51/33/57 49/26/57 63/3/40
f 61/17/48 45/19/61 51/33/61 64/2/48
f 65/9/64 41/6/74 39/47/74 66/36/64
f 66/36/60 39/47/75 40/48/75 67/31/60
f 67/31/56 40/48/76 42/49/76 68/32/56
f 65/9/43 46/22/51 48/21/51 68/10/43
f 69/39/66 53/37/65 55/38/65 70/40/66
f 71/41/67 58/44/68 56/43/68 70/42/67
f 72/45/69 60/46/70 58/44/70 71/41/69
f 69/39/71 54/23/72 60/46/72 72/45/71

