# Blender 4.0.2
# www.blender.org
mtllib Eyes.mtl
o Chef_Polarbear
v 0.188156 0.921939 0.214290
v 0.211600 0.927032 0.225508
v 0.198299 0.922142 0.206962
v 0.201457 0.926829 0.232836
v 0.177986 0.925527 0.220638
v 0.191287 0.930416 0.239184
v 0.168783 0.932554 0.225386
v 0.182084 0.937444 0.243932
v 0.161448 0.942334 0.228068
v 0.174749 0.947223 0.246613
v 0.156701 0.953907 0.228421
v 0.170002 0.958797 0.246967
v 0.155004 0.966143 0.226412
v 0.168305 0.971032 0.244958
v 0.156525 0.977842 0.222237
v 0.169826 0.982732 0.240783
v 0.161114 0.987860 0.216304
v 0.174415 0.992750 0.234850
v 0.168323 0.995216 0.209195
v 0.181624 1.000106 0.227741
v 0.177445 0.999190 0.201605
v 0.190746 1.004080 0.220150
v 0.187588 0.999393 0.194277
v 0.200889 1.004283 0.212822
v 0.197759 0.995805 0.187928
v 0.211060 1.000695 0.206474
v 0.206962 0.988778 0.183181
v 0.220263 0.993667 0.201726
v 0.214296 0.978998 0.180499
v 0.227597 0.983888 0.199045
v 0.219044 0.967425 0.180145
v 0.232345 0.972314 0.198691
v 0.220740 0.955189 0.182154
v 0.234041 0.960079 0.200700
v 0.219220 0.943490 0.186330
v 0.232521 0.948380 0.204875
v 0.214630 0.933472 0.192262
v 0.227931 0.938362 0.210808
v 0.207421 0.926116 0.199372
v 0.220722 0.931006 0.217918
v 0.198299 0.922142 0.206962
v 0.211600 0.927032 0.225508
v -0.188156 0.921939 0.214290
v -0.198299 0.922142 0.206962
v -0.211600 0.927032 0.225508
v -0.201457 0.926829 0.232836
v -0.177986 0.925527 0.220638
v -0.191287 0.930416 0.239184
v -0.168783 0.932554 0.225386
v -0.182084 0.937444 0.243932
v -0.161448 0.942334 0.228068
v -0.174749 0.947223 0.246613
v -0.156701 0.953907 0.228421
v -0.170002 0.958797 0.246967
v -0.155004 0.966143 0.226412
v -0.168305 0.971032 0.244958
v -0.156525 0.977842 0.222237
v -0.169826 0.982732 0.240783
v -0.161114 0.987860 0.216304
v -0.174415 0.992750 0.234850
v -0.168323 0.995216 0.209195
v -0.181624 1.000106 0.227741
v -0.177445 0.999190 0.201605
v -0.190746 1.004080 0.220150
v -0.187588 0.999393 0.194277
v -0.200889 1.004283 0.212822
v -0.197759 0.995805 0.187928
v -0.211060 1.000695 0.206474
v -0.206962 0.988778 0.183181
v -0.220263 0.993667 0.201726
v -0.214296 0.978998 0.180499
v -0.227597 0.983888 0.199045
v -0.219044 0.967425 0.180145
v -0.232345 0.972314 0.198691
v -0.220740 0.955189 0.182154
v -0.234041 0.960079 0.200700
v -0.219220 0.943490 0.186330
v -0.232521 0.948380 0.204875
v -0.214630 0.933472 0.192262
v -0.227931 0.938362 0.210808
v -0.207421 0.926116 0.199372
v -0.220722 0.931006 0.217918
v -0.198299 0.922142 0.206962
v -0.211600 0.927032 0.225508
v 0.232345 0.972314 0.198691
v 0.201173 0.965556 0.222829
v 0.227597 0.983888 0.199045
v 0.234041 0.960079 0.200700
v 0.220263 0.993667 0.201726
v 0.232521 0.948380 0.204875
v 0.211060 1.000695 0.206474
v 0.227931 0.938362 0.210808
v 0.200889 1.004283 0.212822
v 0.220722 0.931006 0.217918
v 0.190746 1.004080 0.220150
v 0.211600 0.927032 0.225508
v 0.181624 1.000106 0.227741
v 0.201457 0.926829 0.232836
v 0.174415 0.992750 0.234850
v 0.191287 0.930416 0.239184
v 0.169826 0.982732 0.240783
v 0.182084 0.937444 0.243932
v 0.168305 0.971032 0.244958
v 0.174749 0.947223 0.246613
v 0.170002 0.958797 0.246967
v -0.232345 0.972314 0.198691
v -0.227597 0.983888 0.199045
v -0.201173 0.965556 0.222829
v -0.234041 0.960079 0.200700
v -0.220263 0.993667 0.201726
v -0.232521 0.948380 0.204875
v -0.211060 1.000695 0.206474
v -0.227931 0.938362 0.210808
v -0.200889 1.004283 0.212822
v -0.220722 0.931006 0.217918
v -0.190746 1.004080 0.220150
v -0.211600 0.927032 0.225508
v -0.181624 1.000106 0.227741
v -0.201457 0.926829 0.232836
v -0.174415 0.992750 0.234850
v -0.191287 0.930416 0.239184
v -0.169826 0.982732 0.240783
v -0.182084 0.937444 0.243932
v -0.168305 0.971032 0.244958
v -0.174749 0.947223 0.246613
v -0.170002 0.958797 0.246967
vn 0.2607 -0.9631 0.0670
vn 0.5544 -0.6347 0.5383
vn 0.0071 -0.9682 0.2502
vn 0.3536 -0.6387 0.6833
vn 0.3536 -0.6387 0.6834
vn -0.2472 -0.8785 0.4089
vn 0.1523 -0.5677 0.8090
vn -0.2471 -0.8785 0.4089
vn -0.4772 -0.7028 0.5276
vn -0.0299 -0.4286 0.9030
vn -0.6606 -0.4583 0.5946
vn -0.1751 -0.2350 0.9561
vn -0.1751 -0.2349 0.9561
vn -0.7793 -0.1689 0.6035
vn -0.2691 -0.0059 0.9631
vn -0.7793 -0.1690 0.6035
vn -0.2691 -0.0058 0.9631
vn -0.8217 0.1369 0.5532
vn -0.3027 0.2364 0.9233
vn -0.7837 0.4294 0.4488
vn -0.2726 0.4680 0.8407
vn -0.7837 0.4294 0.4489
vn -0.2725 0.4680 0.8406
vn -0.6689 0.6799 0.3005
vn -0.2726 0.4680 0.8406
vn -0.1817 0.6663 0.7232
vn -0.6689 0.6798 0.3005
vn -0.4887 0.8638 0.1228
vn -0.0390 0.8119 0.5825
vn -0.4887 0.8637 0.1228
vn -0.0390 0.8119 0.5824
vn -0.2607 0.9631 -0.0670
vn 0.1416 0.8906 0.4322
vn -0.0070 0.9682 -0.2501
vn 0.3424 0.8946 0.2871
vn -0.0071 0.9682 -0.2502
vn 0.2472 0.8785 -0.4089
vn 0.5437 0.8236 0.1614
vn 0.5438 0.8236 0.1614
vn 0.4773 0.7028 -0.5275
vn 0.7259 0.6845 0.0675
vn 0.4772 0.7028 -0.5276
vn 0.7260 0.6844 0.0675
vn 0.6606 0.4583 -0.5946
vn 0.8711 0.4908 0.0144
vn 0.7793 0.1690 -0.6035
vn 0.9651 0.2617 0.0074
vn 0.7793 0.1689 -0.6034
vn 0.7793 0.1690 -0.6034
vn 0.9651 0.2618 0.0074
vn 0.8217 -0.1369 -0.5532
vn 0.9987 0.0195 0.0471
vn 0.9987 0.0195 0.0472
vn 0.7837 -0.4294 -0.4488
vn 0.9686 -0.2121 0.1298
vn 0.7837 -0.4294 -0.4489
vn 0.9686 -0.2121 0.1299
vn 0.6689 -0.6799 -0.3005
vn 0.8777 -0.4104 0.2473
vn 0.6690 -0.6798 -0.3005
vn 0.8777 -0.4105 0.2473
vn 0.4887 -0.8638 -0.1228
vn 0.7350 -0.5561 0.3880
vn 0.4887 -0.8637 -0.1228
vn 0.7350 -0.5560 0.3881
vn -0.5544 -0.6347 0.5383
vn -0.2607 -0.9631 0.0670
vn -0.0071 -0.9682 0.2502
vn -0.3536 -0.6387 0.6833
vn -0.3536 -0.6387 0.6834
vn 0.2472 -0.8785 0.4089
vn -0.1523 -0.5677 0.8090
vn 0.2471 -0.8785 0.4089
vn 0.4772 -0.7028 0.5276
vn 0.0299 -0.4286 0.9030
vn 0.6606 -0.4583 0.5946
vn 0.1751 -0.2350 0.9561
vn 0.1751 -0.2349 0.9561
vn 0.7793 -0.1690 0.6035
vn 0.2691 -0.0059 0.9631
vn 0.2691 -0.0058 0.9631
vn 0.8217 0.1369 0.5532
vn 0.3027 0.2364 0.9233
vn 0.7837 0.4294 0.4488
vn 0.2726 0.4680 0.8407
vn 0.2725 0.4680 0.8406
vn 0.7837 0.4294 0.4489
vn 0.6689 0.6799 0.3005
vn 0.1817 0.6663 0.7232
vn 0.2726 0.4680 0.8406
vn 0.6689 0.6798 0.3005
vn 0.4887 0.8638 0.1228
vn 0.0390 0.8119 0.5825
vn 0.4887 0.8637 0.1228
vn 0.0390 0.8119 0.5824
vn 0.2607 0.9631 -0.0670
vn -0.1416 0.8906 0.4322
vn 0.0071 0.9682 -0.2502
vn -0.3424 0.8946 0.2871
vn -0.2472 0.8785 -0.4089
vn -0.5437 0.8236 0.1614
vn -0.5438 0.8236 0.1614
vn -0.4772 0.7028 -0.5276
vn -0.7259 0.6845 0.0675
vn -0.7260 0.6844 0.0675
vn -0.4773 0.7028 -0.5275
vn -0.6606 0.4583 -0.5946
vn -0.8711 0.4908 0.0144
vn -0.7793 0.1690 -0.6034
vn -0.9651 0.2617 0.0074
vn -0.7793 0.1689 -0.6034
vn -0.9651 0.2618 0.0074
vn -0.8217 -0.1369 -0.5532
vn -0.9987 0.0195 0.0471
vn -0.9987 0.0195 0.0472
vn -0.7837 -0.4294 -0.4488
vn -0.9686 -0.2121 0.1298
vn -0.9686 -0.2121 0.1299
vn -0.7837 -0.4294 -0.4489
vn -0.6690 -0.6799 -0.3005
vn -0.8777 -0.4104 0.2473
vn -0.6690 -0.6798 -0.3005
vn -0.8777 -0.4105 0.2473
vn -0.4887 -0.8638 -0.1228
vn -0.7350 -0.5560 0.3880
vn -0.7350 -0.5560 0.3881
vn -0.4888 -0.8637 -0.1227
vn -0.7350 -0.5561 0.3880
vn 0.5699 0.2095 0.7946
vn 0.7263 0.6840 0.0673
vn 0.5437 0.8236 0.1615
vn 0.7259 0.6844 0.0675
vn 0.3427 0.8945 0.2870
vn 0.7350 -0.5560 0.3880
vn 0.3424 0.8946 0.2872
vn 0.7352 -0.5559 0.3879
vn 0.5543 -0.6347 0.5384
vn 0.3534 -0.6387 0.6835
vn -0.2725 0.4680 0.8407
vn -0.5699 0.2095 0.7946
vn -0.7259 0.6844 0.0675
vn -0.8710 0.4912 0.0144
vn -0.5437 0.8236 0.1615
vn -0.7257 0.6847 0.0676
vn -0.3424 0.8946 0.2872
vn -0.3427 0.8945 0.2870
vn -0.3539 -0.6388 0.6832
vn 0.0392 0.8118 0.5826
vn -0.1525 -0.5678 0.8089
vn 0.2725 0.4680 0.8407
vt 0.011177 0.032867
vt 0.011177 0.010994
vt 0.022903 0.032867
vt 0.022903 0.010994
vt 0.034637 0.032867
vt 0.034637 0.010994
vt 0.046356 0.032867
vt 0.046356 0.010994
vt 0.058075 0.032867
vt 0.058075 0.010994
vt 0.069824 0.032867
vt 0.069824 0.010994
vt 0.081543 0.032867
vt 0.081543 0.010994
vt 0.093262 0.032867
vt 0.093262 0.010994
vt 0.104980 0.032867
vt 0.104980 0.010994
vt 0.116699 0.032867
vt 0.116699 0.010994
vt 0.128418 0.032867
vt 0.128418 0.010994
vt 0.140137 0.032867
vt 0.140137 0.010994
vt 0.151855 0.032867
vt 0.151855 0.010994
vt 0.163574 0.032867
vt 0.163574 0.010994
vt 0.175293 0.032867
vt 0.175293 0.010994
vt 0.187012 0.032867
vt 0.187012 0.010994
vt 0.198730 0.032867
vt 0.198730 0.010994
vt 0.210449 0.032867
vt 0.210449 0.010994
vt 0.222168 0.032867
vt 0.222168 0.010994
vt 0.233887 0.032867
vt 0.233887 0.010994
vt 0.245605 0.032867
vt 0.245605 0.010994
vt 0.014839 0.957031
vt 0.051849 0.951172
vt 0.018463 0.967773
vt 0.025360 0.977539
vt 0.014839 0.945312
vt 0.034851 0.984375
vt 0.018463 0.934082
vt 0.045990 0.987793
vt 0.025360 0.924316
vt 0.057709 0.987793
vt 0.034851 0.917481
vt 0.068848 0.984375
vt 0.045990 0.914062
vt 0.078369 0.977539
vt 0.057709 0.914062
vt 0.085266 0.967773
vt 0.068848 0.917481
vt 0.088867 0.957031
vt 0.078369 0.924316
vt 0.088867 0.945312
vt 0.085266 0.934082
s 0
usemtl æè´¨
f 3/1/1 2/2/2 1/3/3
f 2/2/2 4/4/4 1/3/3
f 1/3/3 4/4/5 5/5/6
f 4/4/5 6/6/7 5/5/6
f 5/5/8 6/6/7 7/7/9
f 6/6/7 8/8/10 7/7/9
f 7/7/9 8/8/10 9/9/11
f 8/8/10 10/10/12 9/9/11
f 9/9/11 10/10/13 11/11/14
f 10/10/12 12/12/15 11/11/16
f 11/11/16 12/12/17 13/13/18
f 12/12/17 14/14/19 13/13/18
f 13/13/18 14/14/19 15/15/20
f 14/14/19 16/16/21 15/15/20
f 15/15/22 16/16/23 17/17/24
f 16/16/25 18/18/26 17/17/24
f 17/17/27 18/18/26 19/19/28
f 18/18/26 20/20/29 19/19/30
f 19/19/30 20/20/31 21/21/32
f 20/20/29 22/22/33 21/21/32
f 21/21/32 22/22/33 23/23/34
f 22/22/33 24/24/35 23/23/36
f 23/23/36 24/24/35 25/25/37
f 24/24/35 26/26/38 25/25/37
f 25/25/37 26/26/39 27/27/40
f 26/26/39 28/28/41 27/27/42
f 27/27/42 28/28/43 29/29/44
f 28/28/41 30/30/45 29/29/44
f 29/29/44 30/30/45 31/31/46
f 30/30/45 32/32/47 31/31/48
f 31/31/49 32/32/50 33/33/51
f 32/32/47 34/34/52 33/33/51
f 33/33/51 34/34/53 35/35/54
f 34/34/53 36/36/55 35/35/54
f 35/35/56 36/36/57 37/37/58
f 36/36/55 38/38/59 37/37/58
f 37/37/60 38/38/61 39/39/62
f 38/38/61 40/40/63 39/39/62
f 39/39/64 40/40/65 41/41/1
f 40/40/63 42/42/2 41/41/1
f 45/2/66 44/1/67 43/3/68
f 46/4/69 45/2/66 43/3/68
f 46/4/70 43/3/68 47/5/71
f 48/6/72 46/4/70 47/5/71
f 48/6/72 47/5/73 49/7/74
f 50/8/75 48/6/72 49/7/74
f 50/8/75 49/7/74 51/9/76
f 52/10/77 50/8/75 51/9/76
f 52/10/78 51/9/76 53/11/79
f 54/12/80 52/10/78 53/11/79
f 54/12/81 53/11/79 55/13/82
f 56/14/83 54/12/81 55/13/82
f 56/14/83 55/13/82 57/15/84
f 58/16/85 56/14/83 57/15/84
f 58/16/86 57/15/87 59/17/88
f 60/18/89 58/16/90 59/17/88
f 60/18/89 59/17/91 61/19/92
f 62/20/93 60/18/89 61/19/94
f 62/20/95 61/19/94 63/21/96
f 64/22/97 62/20/93 63/21/96
f 64/22/97 63/21/96 65/23/98
f 66/24/99 64/22/97 65/23/98
f 66/24/99 65/23/98 67/25/100
f 68/26/101 66/24/99 67/25/100
f 68/26/102 67/25/100 69/27/103
f 70/28/104 68/26/102 69/27/103
f 70/28/105 69/27/106 71/29/107
f 72/30/108 70/28/104 71/29/107
f 72/30/108 71/29/107 73/31/109
f 74/32/110 72/30/108 73/31/111
f 74/32/112 73/31/109 75/33/113
f 76/34/114 74/32/110 75/33/113
f 76/34/115 75/33/113 77/35/116
f 78/36/117 76/34/115 77/35/116
f 78/36/118 77/35/119 79/37/120
f 80/38/121 78/36/117 79/37/122
f 80/38/123 79/37/122 81/39/124
f 82/40/125 80/38/123 81/39/124
f 82/40/126 81/39/127 83/41/67
f 84/42/66 82/40/128 83/41/67
f 87/43/45 86/44/129 85/45/47
f 85/45/47 86/44/129 88/46/53
f 89/47/130 86/44/129 87/43/45
f 88/46/53 86/44/129 90/48/55
f 91/49/131 86/44/129 89/47/132
f 90/48/55 86/44/129 92/50/59
f 93/51/133 86/44/129 91/49/131
f 92/50/59 86/44/129 94/52/134
f 95/53/33 86/44/129 93/51/135
f 94/52/136 86/44/129 96/54/2
f 97/55/29 86/44/129 95/53/33
f 96/54/137 86/44/129 98/56/5
f 99/57/26 86/44/129 97/55/29
f 98/56/138 86/44/129 100/58/7
f 101/59/139 86/44/129 99/57/26
f 100/58/7 86/44/129 102/60/10
f 103/61/19 86/44/129 101/59/139
f 102/60/10 86/44/129 104/62/12
f 105/63/15 86/44/129 103/61/19
f 104/62/12 86/44/129 105/63/15
f 108/44/140 107/43/108 106/45/110
f 108/44/140 106/45/110 109/46/115
f 108/44/140 110/47/141 107/43/142
f 108/44/140 109/46/115 111/48/117
f 108/44/140 112/49/143 110/47/144
f 108/44/140 111/48/117 113/50/121
f 108/44/140 114/51/145 112/49/143
f 108/44/140 113/50/121 115/52/125
f 108/44/140 116/53/97 114/51/146
f 108/44/140 115/52/125 117/54/66
f 108/44/140 118/55/93 116/53/97
f 108/44/140 117/54/66 119/56/147
f 108/44/140 120/57/89 118/55/148
f 108/44/140 119/56/70 121/58/149
f 108/44/140 122/59/150 120/57/89
f 108/44/140 121/58/72 123/60/75
f 108/44/140 124/61/83 122/59/150
f 108/44/140 123/60/75 125/62/77
f 108/44/140 126/63/80 124/61/83
f 108/44/140 125/62/77 126/63/80
