# Blender 4.0.2
# www.blender.org
mtllib Eyes2.mtl
o Chef_Polarbear
v 0.161230 0.957868 0.250618
v 0.161868 0.957911 0.247814
v 0.164487 0.961899 0.243578
v 0.161488 0.954091 0.248547
v 0.165625 0.964040 0.246102
v 0.171520 0.965906 0.236334
v 0.161017 0.953450 0.251774
v 0.163964 0.951899 0.247615
v 0.173177 0.968931 0.239497
v 0.178691 0.967523 0.230432
v 0.163848 0.958497 0.250938
v 0.180528 0.971035 0.233643
v 0.188795 0.968524 0.222804
v 0.191283 0.972238 0.225561
v 0.197702 0.967321 0.216363
v 0.200697 0.970817 0.218547
v 0.206794 0.965013 0.209060
v 0.210116 0.968466 0.211091
v 0.215197 0.961242 0.202067
v 0.218681 0.964502 0.203921
v 0.222835 0.956674 0.195379
v 0.226223 0.959565 0.197147
v 0.229701 0.951022 0.190510
v 0.232459 0.953314 0.191793
v 0.233465 0.946921 0.189220
v 0.183720 0.969347 0.237246
v 0.194560 0.970290 0.229357
v 0.203841 0.968807 0.222280
v 0.213069 0.966600 0.215044
v 0.221389 0.962943 0.207924
v 0.228806 0.958379 0.200958
v 0.234431 0.952429 0.194929
v 0.236503 0.947002 0.189060
v 0.236595 0.942400 0.190288
v 0.233288 0.942980 0.189834
v 0.233834 0.940076 0.194122
v 0.231580 0.941018 0.193117
v 0.229315 0.940605 0.199205
v 0.227343 0.941490 0.196068
v 0.222800 0.942608 0.205776
v 0.220238 0.943789 0.201921
v 0.215575 0.945228 0.212515
v 0.212917 0.946767 0.208473
v 0.208699 0.947201 0.218723
v 0.205790 0.949039 0.214750
v 0.201293 0.948790 0.224741
v 0.198205 0.950777 0.220967
v 0.194314 0.949722 0.229735
v 0.191110 0.951642 0.225929
v 0.185945 0.950235 0.235208
v 0.182761 0.951923 0.231600
v 0.178330 0.950477 0.240165
v 0.175395 0.951971 0.236773
v 0.169407 0.950726 0.246206
v 0.167325 0.951914 0.243655
v 0.164054 0.950999 0.250120
v 0.170544 0.952867 0.248732
v 0.180031 0.953534 0.243402
v 0.187775 0.953747 0.238425
v 0.196790 0.953390 0.232496
v 0.163796 0.954775 0.252192
v 0.165943 0.952485 0.250740
v 0.169663 0.958018 0.249538
v 0.167708 0.962852 0.248653
v 0.178828 0.960855 0.244158
v 0.176056 0.967503 0.242862
v 0.186584 0.961851 0.238972
v 0.196651 0.962109 0.232017
v 0.204231 0.952311 0.226967
v 0.205050 0.960811 0.225616
v 0.211946 0.950675 0.220803
v 0.213534 0.958903 0.218937
v 0.219009 0.948506 0.214409
v 0.221222 0.956011 0.212150
v 0.226182 0.945533 0.207544
v 0.228386 0.952289 0.205208
v 0.232073 0.942897 0.200487
v 0.234040 0.947898 0.198445
v 0.234652 0.941932 0.195987
v 0.237048 0.944099 0.193347
v 0.236537 0.947834 0.192091
v -0.161230 0.957868 0.250618
v -0.164487 0.961899 0.243578
v -0.161868 0.957911 0.247814
v -0.161488 0.954091 0.248547
v -0.165625 0.964040 0.246102
v -0.171520 0.965906 0.236334
v -0.161017 0.953450 0.251774
v -0.163964 0.951899 0.247615
v -0.173177 0.968931 0.239497
v -0.178691 0.967523 0.230432
v -0.163848 0.958497 0.250938
v -0.180528 0.971035 0.233643
v -0.188795 0.968524 0.222804
v -0.191283 0.972238 0.225561
v -0.197702 0.967321 0.216363
v -0.200697 0.970817 0.218547
v -0.206794 0.965013 0.209060
v -0.210116 0.968466 0.211091
v -0.215197 0.961242 0.202067
v -0.218681 0.964502 0.203921
v -0.222835 0.956674 0.195379
v -0.226223 0.959565 0.197147
v -0.229701 0.951022 0.190510
v -0.232459 0.953314 0.191793
v -0.233465 0.946921 0.189220
v -0.183720 0.969347 0.237246
v -0.194560 0.970290 0.229357
v -0.203841 0.968807 0.222280
v -0.213069 0.966600 0.215044
v -0.221389 0.962943 0.207924
v -0.228806 0.958379 0.200958
v -0.234431 0.952429 0.194929
v -0.176056 0.967503 0.242862
v -0.236503 0.947002 0.189060
v -0.167708 0.962852 0.248653
v -0.236595 0.942400 0.190288
v -0.233288 0.942980 0.189834
v -0.163796 0.954775 0.252192
v -0.233834 0.940076 0.194122
v -0.231580 0.941018 0.193117
v -0.164054 0.950999 0.250120
v -0.229315 0.940605 0.199205
v -0.227343 0.941490 0.196068
v -0.169407 0.950726 0.246206
v -0.167325 0.951914 0.243655
v -0.175395 0.951971 0.236773
v -0.178330 0.950477 0.240165
v -0.182761 0.951923 0.231600
v -0.170544 0.952867 0.248732
v -0.165943 0.952485 0.250740
v -0.169663 0.958018 0.249538
v -0.185945 0.950235 0.235208
v -0.191110 0.951642 0.225929
v -0.180031 0.953534 0.243402
v -0.178828 0.960855 0.244158
v -0.194314 0.949722 0.229735
v -0.198205 0.950777 0.220967
v -0.187775 0.953747 0.238425
v -0.186584 0.961851 0.238972
v -0.201293 0.948790 0.224741
v -0.205790 0.949039 0.214750
v -0.196790 0.953390 0.232496
v -0.196651 0.962109 0.232017
v -0.208699 0.947201 0.218723
v -0.212917 0.946767 0.208473
v -0.204231 0.952311 0.226967
v -0.205050 0.960811 0.225616
v -0.215575 0.945228 0.212515
v -0.220238 0.943789 0.201921
v -0.211946 0.950675 0.220803
v -0.213534 0.958903 0.218937
v -0.222800 0.942608 0.205776
v -0.219009 0.948506 0.214409
v -0.221222 0.956011 0.212150
v -0.226182 0.945533 0.207544
v -0.228386 0.952289 0.205208
v -0.232073 0.942897 0.200487
v -0.234040 0.947898 0.198445
v -0.234652 0.941932 0.195987
v -0.237048 0.944099 0.193347
v -0.236537 0.947834 0.192091
vn -0.7451 0.6259 -0.2303
vn -0.9113 0.3898 -0.1329
vn -0.7846 0.4613 0.4143
vn -0.9113 0.3897 -0.1329
vn -0.9211 -0.3221 -0.2188
vn -0.5208 0.8347 0.1789
vn -0.6117 0.7020 -0.3646
vn -0.7570 -0.3407 0.5576
vn -0.4085 -0.8743 -0.2622
vn -0.3719 0.9274 0.0403
vn -0.3718 0.9274 0.0403
vn -0.4981 0.7154 -0.4900
vn -0.7846 0.4612 0.4143
vn -0.0268 0.4634 0.8857
vn -0.7569 -0.3408 0.5576
vn -0.2255 0.9712 -0.0768
vn -0.4198 0.7075 -0.5686
vn -0.2254 0.9712 -0.0768
vn -0.1008 0.9829 -0.1540
vn -0.3464 0.6949 -0.6301
vn 0.0068 0.9702 -0.2421
vn 0.0069 0.9702 -0.2422
vn -0.3042 0.6834 -0.6636
vn 0.0715 0.9472 -0.3127
vn -0.3043 0.6834 -0.6636
vn -0.2452 0.6688 -0.7018
vn 0.1434 0.9062 -0.3979
vn 0.1434 0.9062 -0.3978
vn -0.1640 0.6320 -0.7574
vn 0.2267 0.8403 -0.4924
vn -0.1640 0.6320 -0.7575
vn -0.0556 0.5209 -0.8518
vn 0.3487 0.7155 -0.6054
vn -0.0557 0.5209 -0.8518
vn 0.0273 0.1958 -0.9803
vn 0.3770 0.6534 0.6564
vn 0.4603 0.6570 0.5971
vn -0.1007 0.9829 -0.1540
vn 0.3770 0.6534 0.6565
vn 0.5446 0.6430 0.5385
vn 0.0068 0.9702 -0.2422
vn 0.6059 0.6362 0.4777
vn 0.6059 0.6361 0.4777
vn 0.6801 0.6143 0.4001
vn 0.0715 0.9471 -0.3127
vn 0.7562 0.5795 0.3038
vn 0.8445 0.4988 0.1952
vn 0.8445 0.4987 0.1951
vn 0.6151 0.2596 -0.7445
vn 0.6151 0.2595 -0.7445
vn 0.6452 -0.5573 -0.5225
vn -0.0304 -0.5691 -0.8217
vn 0.6453 -0.5573 -0.5225
vn -0.0303 -0.5691 -0.8217
vn 0.2839 -0.9588 -0.0039
vn -0.1950 -0.9290 -0.3147
vn -0.1951 -0.9289 -0.3147
vn 0.2839 -0.9589 -0.0038
vn 0.0365 -0.9634 0.2657
vn -0.3164 -0.9445 -0.0882
vn -0.1950 -0.9289 -0.3147
vn 0.0364 -0.9634 0.2657
vn -0.3164 -0.9445 -0.0881
vn -0.0228 -0.9468 0.3211
vn -0.3743 -0.9258 -0.0524
vn -0.0314 -0.9484 0.3155
vn -0.3921 -0.9161 -0.0840
vn -0.0314 -0.9484 0.3154
vn -0.0061 -0.9592 0.2827
vn -0.3676 -0.9176 -0.1509
vn -0.0061 -0.9592 0.2826
vn -0.0060 -0.9592 0.2826
vn 0.0237 -0.9668 0.2543
vn -0.3202 -0.9238 -0.2101
vn -0.3201 -0.9238 -0.2101
vn 0.0706 -0.9714 0.2267
vn -0.2505 -0.9340 -0.2547
vn 0.0707 -0.9714 0.2266
vn -0.2503 -0.9342 -0.2543
vn 0.0916 -0.9768 0.1937
vn -0.2080 -0.9421 -0.2629
vn 0.0907 -0.9815 0.1685
vn -0.1993 -0.9456 -0.2571
vn 0.0727 -0.9840 0.1625
vn -0.2201 -0.9409 -0.2575
vn 0.0726 -0.9840 0.1626
vn -0.2202 -0.9409 -0.2575
vn -0.4085 -0.8743 -0.2623
vn 0.0726 -0.9840 0.1625
vn -0.1848 -0.9358 0.3002
vn 0.4708 -0.3427 0.8130
vn -0.1849 -0.9358 0.3003
vn 0.5044 -0.3172 0.8031
vn 0.5045 -0.3172 0.8031
vn 0.4708 -0.3427 0.8129
vn 0.0706 -0.9714 0.2266
vn 0.5281 -0.2614 0.8080
vn 0.0916 -0.9768 0.1938
vn 0.5486 -0.2241 0.8055
vn 0.5485 -0.2240 0.8055
vn 0.5281 -0.2614 0.8079
vn 0.1754 0.0236 0.9842
vn -0.1849 -0.9358 0.3002
vn 0.3749 -0.3997 0.8365
vn 0.1754 0.0237 0.9842
vn 0.4279 0.1464 0.8919
vn 0.4280 0.1464 0.8919
vn 0.1565 0.5645 0.8105
vn 0.1565 0.5644 0.8105
vn 0.4937 0.1833 0.8501
vn 0.4937 0.1834 0.8501
vn 0.2712 0.6305 0.7273
vn 0.2712 0.6304 0.7273
vn 0.5383 0.2174 0.8142
vn 0.5383 0.2174 0.8143
vn 0.5776 0.2356 0.7816
vn 0.5486 -0.2240 0.8055
vn 0.5776 0.2355 0.7816
vn 0.5713 -0.2202 0.7907
vn 0.6229 0.2355 0.7460
vn 0.4602 0.6570 0.5971
vn 0.5903 -0.2360 0.7719
vn 0.5712 -0.2202 0.7907
vn 0.5904 -0.2360 0.7719
vn 0.6635 0.2240 0.7139
vn 0.6033 -0.2665 0.7517
vn 0.6033 -0.2665 0.7516
vn 0.6034 -0.2665 0.7516
vn 0.7122 0.2001 0.6729
vn 0.7122 0.2000 0.6729
vn -0.0229 -0.9468 0.3211
vn 0.6268 -0.3028 0.7179
vn 0.6034 -0.2664 0.7516
vn 0.7121 0.2000 0.6729
vn 0.7655 0.1699 0.6206
vn 0.6822 -0.3454 0.6444
vn 0.6268 -0.3027 0.7179
vn 0.6268 -0.3028 0.7180
vn 0.8328 0.1168 0.5411
vn 0.2840 -0.9588 -0.0039
vn 0.7509 -0.4403 0.4922
vn 0.9475 -0.0980 0.3043
vn 0.6452 -0.5574 -0.5225
vn 0.9475 -0.0981 0.3042
vn 0.8328 0.1168 0.5412
vn 0.9475 -0.0981 0.3043
vn 0.8445 0.4987 0.1952
vn 0.9393 0.3367 0.0660
vn 0.9393 0.3368 0.0660
vn 0.9113 0.3898 -0.1329
vn 0.7451 0.6259 -0.2303
vn 0.7846 0.4613 0.4143
vn 0.9113 0.3897 -0.1329
vn 0.9211 -0.3221 -0.2188
vn 0.5208 0.8347 0.1789
vn 0.6117 0.7020 -0.3646
vn 0.7570 -0.3407 0.5576
vn 0.4085 -0.8743 -0.2622
vn 0.3719 0.9274 0.0403
vn 0.4981 0.7154 -0.4900
vn 0.7846 0.4612 0.4143
vn 0.0268 0.4635 0.8857
vn 0.0268 0.4634 0.8857
vn 0.7569 -0.3408 0.5576
vn 0.2255 0.9712 -0.0768
vn 0.4198 0.7075 -0.5686
vn 0.1007 0.9829 -0.1541
vn 0.2254 0.9712 -0.0768
vn 0.1008 0.9829 -0.1540
vn 0.3464 0.6949 -0.6301
vn -0.0069 0.9702 -0.2422
vn -0.0068 0.9702 -0.2422
vn 0.3042 0.6834 -0.6636
vn -0.0715 0.9472 -0.3127
vn -0.0715 0.9471 -0.3127
vn 0.2452 0.6688 -0.7018
vn -0.1434 0.9062 -0.3979
vn -0.1434 0.9062 -0.3978
vn 0.1640 0.6320 -0.7574
vn -0.2267 0.8403 -0.4924
vn 0.1640 0.6320 -0.7575
vn 0.0557 0.5209 -0.8518
vn -0.3487 0.7155 -0.6054
vn 0.0556 0.5209 -0.8518
vn -0.0273 0.1958 -0.9803
vn -0.3770 0.6534 0.6565
vn 0.1007 0.9829 -0.1540
vn -0.4603 0.6570 0.5971
vn -0.5446 0.6430 0.5385
vn -0.6059 0.6362 0.4777
vn -0.6059 0.6361 0.4777
vn -0.6801 0.6143 0.4001
vn -0.7562 0.5795 0.3038
vn -0.8445 0.4988 0.1952
vn -0.8445 0.4987 0.1951
vn -0.7562 0.5796 0.3038
vn -0.2712 0.6304 0.7273
vn 0.3718 0.9274 0.0403
vn -0.6151 0.2595 -0.7445
vn -0.2712 0.6305 0.7273
vn -0.1565 0.5644 0.8105
vn -0.6452 -0.5573 -0.5225
vn 0.0304 -0.5691 -0.8217
vn -0.6453 -0.5573 -0.5225
vn -0.1565 0.5645 0.8105
vn -0.1754 0.0236 0.9842
vn 0.0303 -0.5691 -0.8217
vn -0.2839 -0.9588 -0.0039
vn 0.1950 -0.9289 -0.3147
vn 0.1849 -0.9358 0.3003
vn 0.1848 -0.9358 0.3002
vn 0.4085 -0.8743 -0.2623
vn -0.0365 -0.9634 0.2657
vn 0.3164 -0.9445 -0.0882
vn -0.0364 -0.9634 0.2657
vn 0.1848 -0.9358 0.3003
vn -0.0726 -0.9840 0.1625
vn -0.0726 -0.9840 0.1626
vn 0.2202 -0.9409 -0.2575
vn 0.1993 -0.9456 -0.2571
vn 0.2201 -0.9409 -0.2575
vn -0.0907 -0.9815 0.1685
vn -0.0727 -0.9840 0.1625
vn 0.2080 -0.9421 -0.2629
vn -0.4708 -0.3427 0.8130
vn -0.1754 0.0237 0.9842
vn -0.3749 -0.3997 0.8365
vn -0.4279 0.1464 0.8919
vn -0.0916 -0.9768 0.1937
vn 0.2503 -0.9342 -0.2543
vn -0.5045 -0.3172 0.8031
vn -0.4708 -0.3427 0.8129
vn -0.5044 -0.3172 0.8031
vn -0.4280 0.1464 0.8919
vn -0.0906 -0.9815 0.1685
vn -0.4937 0.1834 0.8501
vn -0.4937 0.1833 0.8501
vn -0.0706 -0.9714 0.2266
vn 0.2503 -0.9342 -0.2544
vn 0.3202 -0.9238 -0.2101
vn -0.5281 -0.2614 0.8080
vn -0.5382 0.2174 0.8143
vn -0.5383 0.2174 0.8142
vn -0.5281 -0.2614 0.8079
vn -0.5383 0.2174 0.8143
vn -0.0237 -0.9668 0.2543
vn 0.3201 -0.9238 -0.2101
vn -0.0707 -0.9714 0.2266
vn 0.3676 -0.9176 -0.1509
vn -0.5485 -0.2241 0.8055
vn -0.5486 -0.2241 0.8055
vn -0.5776 0.2356 0.7816
vn 0.0060 -0.9592 0.2826
vn 0.3921 -0.9161 -0.0840
vn 0.0060 -0.9592 0.2827
vn -0.5713 -0.2202 0.7907
vn 0.0061 -0.9592 0.2826
vn -0.6229 0.2355 0.7460
vn -0.4602 0.6570 0.5971
vn 0.0314 -0.9484 0.3154
vn 0.0061 -0.9592 0.2827
vn 0.3743 -0.9258 -0.0524
vn -0.5904 -0.2360 0.7718
vn -0.5712 -0.2202 0.7907
vn -0.5904 -0.2360 0.7719
vn -0.6635 0.2240 0.7139
vn 0.0228 -0.9468 0.3211
vn -0.6033 -0.2665 0.7517
vn 0.0315 -0.9484 0.3155
vn -0.6034 -0.2665 0.7516
vn 0.0229 -0.9468 0.3211
vn -0.7122 0.2001 0.6729
vn -0.7122 0.2000 0.6729
vn -0.6033 -0.2665 0.7516
vn -0.6268 -0.3028 0.7179
vn -0.6034 -0.2664 0.7516
vn -0.7655 0.1699 0.6206
vn -0.7121 0.2000 0.6729
vn -0.6822 -0.3454 0.6444
vn -0.6822 -0.3454 0.6445
vn -0.6268 -0.3028 0.7180
vn -0.8328 0.1168 0.5411
vn -0.7509 -0.4403 0.4922
vn -0.2840 -0.9588 -0.0039
vn -0.9475 -0.0980 0.3043
vn -0.6452 -0.5574 -0.5225
vn -0.9475 -0.0981 0.3043
vn -0.8328 0.1168 0.5412
vn -0.6151 0.2596 -0.7445
vn -0.9393 0.3368 0.0660
vn -0.8445 0.4987 0.1952
vt 0.052002 0.920410
vt 0.054321 0.922852
vt 0.053864 0.923828
vt 0.055145 0.925293
vt 0.051147 0.921387
vt 0.046082 0.919434
vt 0.054077 0.925293
vt 0.054413 0.927246
vt 0.045868 0.921387
vt 0.041077 0.918457
vt 0.052765 0.924316
vt 0.041412 0.920898
vt 0.035553 0.920898
vt 0.036377 0.923340
vt 0.030777 0.923340
vt 0.032043 0.925293
vt 0.026703 0.927734
vt 0.028320 0.929199
vt 0.022720 0.931641
vt 0.024689 0.933106
vt 0.021439 0.937500
vt 0.023239 0.937988
vt 0.020264 0.942871
vt 0.021881 0.942871
vt 0.021881 0.945801
vt 0.041992 0.922852
vt 0.037292 0.925293
vt 0.033203 0.927246
vt 0.029785 0.930664
vt 0.026413 0.934570
vt 0.024857 0.938477
vt 0.023407 0.942871
vt 0.022919 0.945312
vt 0.024246 0.946289
vt 0.023880 0.947266
vt 0.026077 0.946289
vt 0.026489 0.947754
vt 0.028564 0.945312
vt 0.029282 0.946777
vt 0.031021 0.942871
vt 0.032227 0.944336
vt 0.033661 0.939941
vt 0.035370 0.941406
vt 0.036255 0.937500
vt 0.037842 0.938965
vt 0.038910 0.935059
vt 0.040375 0.936523
vt 0.041748 0.933106
vt 0.042969 0.935059
vt 0.045044 0.931152
vt 0.045929 0.933594
vt 0.048126 0.930176
vt 0.049042 0.931641
vt 0.051788 0.928223
vt 0.052734 0.929688
vt 0.053772 0.926758
vt 0.051208 0.927246
vt 0.047424 0.928223
vt 0.044220 0.929199
vt 0.040588 0.931152
vt 0.053192 0.925293
vt 0.052826 0.926269
vt 0.050842 0.924805
vt 0.050781 0.922852
vt 0.046631 0.925781
vt 0.046021 0.922852
vt 0.043091 0.926269
vt 0.038910 0.928223
vt 0.037445 0.933106
vt 0.035309 0.930176
vt 0.034607 0.936035
vt 0.032196 0.933594
vt 0.031830 0.938477
vt 0.029144 0.936523
vt 0.029541 0.941406
vt 0.027237 0.939941
vt 0.027405 0.944336
vt 0.025467 0.943359
vt 0.026031 0.945312
vt 0.024658 0.945312
vt 0.023590 0.944824
s 0
usemtl æè´¨
f 3/1/1 2/2/2 1/3/3
f 1/3/3 2/2/4 4/4/5
f 5/5/6 3/1/1 1/3/3
f 3/1/1 5/5/6 6/6/7
f 7/7/8 1/3/3 4/4/5
f 7/7/8 4/4/5 8/8/9
f 5/5/6 9/9/10 6/6/7
f 6/6/7 9/9/11 10/10/12
f 5/5/6 1/3/13 11/11/14
f 11/11/14 1/3/3 7/7/15
f 9/9/10 12/12/16 10/10/12
f 10/10/12 12/12/16 13/13/17
f 12/12/18 14/14/19 13/13/17
f 13/13/17 14/14/19 15/15/20
f 14/14/19 16/16/21 15/15/20
f 15/15/20 16/16/22 17/17/23
f 16/16/22 18/18/24 17/17/25
f 17/17/23 18/18/24 19/19/26
f 18/18/24 20/20/27 19/19/26
f 19/19/26 20/20/28 21/21/29
f 20/20/27 22/22/30 21/21/31
f 21/21/31 22/22/30 23/23/32
f 22/22/30 24/24/33 23/23/34
f 25/25/35 23/23/32 24/24/33
f 26/26/36 12/12/18 9/9/11
f 27/27/37 14/14/38 12/12/16
f 26/26/39 27/27/37 12/12/16
f 28/28/40 16/16/41 14/14/38
f 27/27/37 28/28/40 14/14/38
f 29/29/42 18/18/24 16/16/22
f 28/28/40 29/29/43 16/16/22
f 30/30/44 20/20/27 18/18/24
f 29/29/42 30/30/44 18/18/45
f 31/31/46 22/22/30 20/20/28
f 30/30/44 31/31/46 20/20/28
f 32/32/47 24/24/33 22/22/30
f 31/31/46 32/32/48 22/22/30
f 33/33/49 25/25/35 24/24/33
f 33/33/50 24/24/33 32/32/48
f 25/25/35 33/33/50 34/34/51
f 35/35/52 25/25/35 34/34/53
f 35/35/54 34/34/53 36/36/55
f 37/37/56 35/35/54 36/36/55
f 37/37/57 36/36/58 38/38/59
f 39/39/60 37/37/61 38/38/62
f 39/39/63 38/38/62 40/40/64
f 41/41/65 39/39/60 40/40/64
f 41/41/65 40/40/64 42/42/66
f 43/43/67 41/41/65 42/42/68
f 43/43/67 42/42/68 44/44/69
f 45/45/70 43/43/67 44/44/71
f 45/45/70 44/44/72 46/46/73
f 47/47/74 45/45/70 46/46/73
f 47/47/75 46/46/73 48/48/76
f 49/49/77 47/47/74 48/48/78
f 49/49/79 48/48/78 50/50/80
f 51/51/81 49/49/79 50/50/80
f 51/51/81 50/50/80 52/52/82
f 53/53/83 51/51/81 52/52/82
f 53/53/83 52/52/82 54/54/84
f 55/55/85 53/53/83 54/54/86
f 55/55/87 54/54/86 8/8/88
f 54/54/89 56/56/90 8/8/88
f 56/56/90 7/7/8 8/8/88
f 54/54/89 52/52/82 57/57/91
f 54/54/86 57/57/91 56/56/92
f 52/52/82 50/50/80 58/58/93
f 52/52/82 58/58/94 57/57/95
f 50/50/80 48/48/96 59/59/97
f 50/50/98 59/59/97 58/58/94
f 48/48/96 46/46/73 60/60/99
f 48/48/96 60/60/100 59/59/101
f 61/61/102 7/7/8 56/56/103
f 61/61/102 11/11/14 7/7/8
f 57/57/91 62/62/104 56/56/90
f 62/62/104 61/61/105 56/56/90
f 57/57/91 63/63/106 62/62/104
f 57/57/91 58/58/93 63/63/107
f 63/63/107 61/61/105 62/62/104
f 64/64/108 11/11/14 61/61/102
f 63/63/106 64/64/109 61/61/105
f 64/64/108 5/5/6 11/11/14
f 58/58/93 65/65/110 63/63/106
f 58/58/93 59/59/97 65/65/111
f 63/63/106 65/65/111 64/64/108
f 64/64/109 66/66/112 5/5/6
f 65/65/110 66/66/113 64/64/108
f 66/66/113 9/9/10 5/5/6
f 66/66/113 26/26/39 9/9/11
f 59/59/101 67/67/114 65/65/111
f 65/65/110 67/67/115 66/66/113
f 67/67/115 26/26/39 66/66/112
f 59/59/97 60/60/99 67/67/115
f 67/67/115 68/68/116 26/26/39
f 60/60/117 68/68/116 67/67/115
f 68/68/118 27/27/37 26/26/39
f 60/60/99 69/69/119 68/68/116
f 46/46/73 69/69/119 60/60/99
f 46/46/73 44/44/71 69/69/119
f 68/68/116 70/70/120 27/27/121
f 69/69/119 70/70/120 68/68/116
f 70/70/120 28/28/40 27/27/37
f 44/44/72 71/71/122 69/69/123
f 69/69/119 71/71/124 70/70/120
f 44/44/69 42/42/68 71/71/124
f 70/70/120 72/72/125 28/28/40
f 71/71/124 72/72/125 70/70/120
f 72/72/125 29/29/43 28/28/40
f 42/42/68 73/73/126 71/71/124
f 71/71/124 73/73/127 72/72/125
f 42/42/68 40/40/64 73/73/128
f 72/72/125 74/74/129 29/29/42
f 73/73/128 74/74/130 72/72/125
f 74/74/129 30/30/44 29/29/42
f 40/40/131 75/75/132 73/73/128
f 73/73/133 75/75/132 74/74/130
f 40/40/64 38/38/62 75/75/132
f 74/74/134 76/76/135 30/30/44
f 75/75/132 76/76/135 74/74/134
f 76/76/135 31/31/46 30/30/44
f 38/38/59 77/77/136 75/75/137
f 75/75/138 77/77/136 76/76/135
f 38/38/62 36/36/55 77/77/136
f 76/76/135 78/78/139 31/31/46
f 77/77/136 78/78/139 76/76/135
f 78/78/139 32/32/48 31/31/46
f 36/36/140 79/79/141 77/77/136
f 77/77/136 79/79/141 78/78/139
f 36/36/55 34/34/51 79/79/141
f 79/79/141 80/80/142 78/78/139
f 34/34/143 80/80/144 79/79/141
f 78/78/145 80/80/146 32/32/147
f 34/34/53 33/33/49 80/80/146
f 81/81/148 33/33/50 32/32/147
f 33/33/50 81/81/149 80/80/146
f 80/80/142 81/81/149 32/32/147
f 84/2/150 83/1/151 82/3/152
f 84/2/153 82/3/152 85/4/154
f 83/1/151 86/5/155 82/3/152
f 86/5/155 83/1/151 87/6/156
f 82/3/152 88/7/157 85/4/154
f 85/4/154 88/7/157 89/8/158
f 90/9/159 86/5/155 87/6/156
f 90/9/159 87/6/156 91/10/160
f 82/3/161 86/5/155 92/11/162
f 82/3/152 92/11/163 88/7/164
f 93/12/165 90/9/159 91/10/160
f 93/12/165 91/10/160 94/13/166
f 95/14/167 93/12/168 94/13/166
f 95/14/169 94/13/166 96/15/170
f 97/16/171 95/14/169 96/15/170
f 97/16/172 96/15/170 98/17/173
f 99/18/174 97/16/172 98/17/173
f 99/18/175 98/17/173 100/19/176
f 101/20/177 99/18/174 100/19/176
f 101/20/178 100/19/176 102/21/179
f 103/22/180 101/20/177 102/21/181
f 103/22/180 102/21/181 104/23/182
f 105/24/183 103/22/180 104/23/182
f 104/23/184 106/25/185 105/24/183
f 93/12/165 107/26/186 90/9/159
f 95/14/187 108/27/188 93/12/165
f 108/27/188 107/26/186 93/12/165
f 97/16/172 109/28/189 95/14/187
f 109/28/189 108/27/188 95/14/187
f 99/18/174 110/29/190 97/16/171
f 110/29/191 109/28/189 97/16/171
f 101/20/177 111/30/192 99/18/174
f 111/30/192 110/29/190 99/18/174
f 103/22/180 112/31/193 101/20/178
f 112/31/193 111/30/192 101/20/178
f 105/24/183 113/32/194 103/22/180
f 113/32/195 112/31/196 103/22/180
f 107/26/186 114/66/197 90/9/198
f 90/9/159 114/66/197 86/5/155
f 105/24/183 115/33/199 113/32/195
f 106/25/185 115/33/199 105/24/183
f 114/66/200 116/64/201 86/5/155
f 86/5/155 116/64/201 92/11/163
f 115/33/199 106/25/185 117/34/202
f 106/25/185 118/35/203 117/34/204
f 92/11/163 116/64/205 119/61/206
f 92/11/163 119/61/206 88/7/157
f 117/34/204 118/35/207 120/36/208
f 118/35/207 121/37/209 120/36/208
f 88/7/157 119/61/206 122/56/210
f 88/7/157 122/56/211 89/8/212
f 120/36/208 121/37/209 123/38/213
f 121/37/209 124/39/214 123/38/215
f 122/56/216 125/54/217 89/8/212
f 125/54/218 126/55/219 89/8/212
f 127/53/220 126/55/221 125/54/218
f 128/52/222 127/53/220 125/54/223
f 129/51/224 127/53/220 128/52/222
f 130/57/225 125/54/218 122/56/210
f 128/52/222 125/54/218 130/57/225
f 119/61/226 131/62/227 122/56/211
f 131/62/227 130/57/225 122/56/211
f 119/61/226 132/63/228 131/62/227
f 132/63/228 130/57/225 131/62/227
f 116/64/201 132/63/228 119/61/206
f 133/50/229 129/51/224 128/52/222
f 134/49/230 129/51/224 133/50/229
f 135/58/231 128/52/222 130/57/232
f 135/58/233 130/57/225 132/63/234
f 133/50/229 128/52/235 135/58/233
f 136/65/236 132/63/228 116/64/205
f 136/65/237 135/58/233 132/63/228
f 114/66/197 136/65/237 116/64/205
f 137/48/238 134/49/239 133/50/229
f 138/47/240 134/49/239 137/48/238
f 139/59/241 133/50/229 135/58/231
f 139/59/241 135/58/233 136/65/236
f 137/48/238 133/50/229 139/59/241
f 140/67/242 136/65/237 114/66/197
f 140/67/243 139/59/244 136/65/236
f 107/26/186 140/67/245 114/66/200
f 141/46/246 138/47/247 137/48/248
f 142/45/249 138/47/240 141/46/246
f 143/60/250 137/48/238 139/59/244
f 143/60/251 139/59/241 140/67/245
f 141/46/246 137/48/238 143/60/251
f 144/68/252 140/67/242 107/26/186
f 144/68/252 143/60/251 140/67/245
f 108/27/188 144/68/252 107/26/186
f 145/44/253 142/45/249 141/46/246
f 146/43/254 142/45/249 145/44/255
f 147/69/256 141/46/246 143/60/251
f 147/69/256 143/60/251 144/68/252
f 145/44/257 141/46/246 147/69/256
f 148/70/258 144/68/252 108/27/259
f 148/70/258 147/69/256 144/68/252
f 109/28/189 148/70/258 108/27/188
f 149/42/260 146/43/254 145/44/261
f 150/41/262 146/43/254 149/42/260
f 151/71/263 145/44/257 147/69/264
f 151/71/265 147/69/256 148/70/258
f 149/42/260 145/44/261 151/71/265
f 152/72/266 148/70/258 109/28/189
f 152/72/266 151/71/265 148/70/258
f 110/29/191 152/72/266 109/28/189
f 153/40/267 150/41/262 149/42/260
f 124/39/214 150/41/262 153/40/267
f 123/38/215 124/39/214 153/40/267
f 154/73/268 149/42/269 151/71/265
f 154/73/270 151/71/265 152/72/266
f 153/40/271 149/42/260 154/73/270
f 155/74/272 152/72/266 110/29/190
f 155/74/273 154/73/274 152/72/266
f 111/30/192 155/74/272 110/29/191
f 156/75/275 153/40/271 154/73/270
f 123/38/215 153/40/271 156/75/275
f 156/75/275 154/73/276 155/74/273
f 157/76/277 155/74/278 111/30/192
f 157/76/277 156/75/275 155/74/278
f 112/31/193 157/76/277 111/30/192
f 158/77/279 123/38/215 156/75/275
f 158/77/280 156/75/281 157/76/277
f 120/36/208 123/38/213 158/77/279
f 159/78/282 157/76/277 112/31/193
f 159/78/282 158/77/279 157/76/277
f 113/32/195 159/78/282 112/31/193
f 160/79/283 120/36/284 158/77/279
f 160/79/283 158/77/279 159/78/282
f 117/34/202 120/36/208 160/79/283
f 161/80/285 160/79/283 159/78/282
f 161/80/285 117/34/286 160/79/283
f 161/80/287 159/78/288 113/32/194
f 115/33/289 117/34/204 161/80/287
f 115/33/199 162/81/290 113/32/291
f 162/81/290 115/33/199 161/80/287
f 162/81/290 161/80/285 113/32/291
