# WaveFront *.obj file (generated by Cinema 4D)

mtllib ./Eyes.mtl

v -0.140704 0.824955 0.342945
v -0.140871 0.938888 0.335491
v -0.154064 0.828481 0.338551
v -0.163854 0.838693 0.334835
v -0.167453 0.852857 0.332793
v -0.167495 0.881340 0.330929
v -0.167537 0.909823 0.329065
v -0.163980 0.924143 0.329244
v -0.154219 0.934781 0.331596
v -0.150967 0.828247 0.334913
v -0.158491 0.838289 0.328533
v -0.161260 0.852390 0.325516
v -0.161302 0.880873 0.323652
v -0.161344 0.909356 0.321788
v -0.158616 0.923738 0.322942
v -0.151123 0.934547 0.327957
v -0.145122 0.828154 0.333360
v -0.148367 0.838128 0.325843
v -0.149570 0.852204 0.322410
v -0.149612 0.880687 0.320546
v -0.149654 0.909170 0.318682
v -0.148493 0.923577 0.320252
v -0.145278 0.934454 0.326404
v -0.138095 0.828227 0.334308
v -0.136196 0.838253 0.327486
v -0.135516 0.852349 0.324307
v -0.135558 0.880832 0.322443
v -0.135600 0.909315 0.320580
v -0.136321 0.923702 0.321895
v -0.138251 0.934527 0.327353
v -0.131768 0.828445 0.337504
v -0.125238 0.838631 0.333022
v -0.122863 0.852785 0.330699
v -0.122905 0.881268 0.328835
v -0.122947 0.909752 0.326971
v -0.125363 0.924081 0.327431
v -0.131924 0.934745 0.330549
v -0.127838 0.828751 0.342091
v -0.118430 0.839161 0.340967
v -0.115002 0.853397 0.339873
v -0.115044 0.881880 0.338009
v -0.115086 0.910363 0.336145
v -0.118555 0.924610 0.335376
v -0.127994 0.935051 0.335136
v -0.127356 0.829062 0.346840
v -0.117596 0.839701 0.349192
v -0.114039 0.854020 0.349371
v -0.114081 0.882503 0.347507
v -0.114122 0.910986 0.345643
v -0.117721 0.925150 0.343601
v -0.127512 0.935363 0.339885
v -0.130453 0.829296 0.350479
v -0.122960 0.840105 0.355494
v -0.120232 0.854487 0.356648
v -0.120274 0.882970 0.354784
v -0.120316 0.911453 0.352920
v -0.123085 0.925554 0.349903
v -0.130609 0.935596 0.343523
v -0.136298 0.829389 0.352032
v -0.133083 0.840266 0.358184
v -0.131922 0.854673 0.359754
v -0.131964 0.883156 0.357890
v -0.132005 0.911639 0.356026
v -0.133208 0.925716 0.352593
v -0.136454 0.935689 0.345076
v -0.143325 0.829316 0.351083
v -0.145255 0.840141 0.356541
v -0.145976 0.854528 0.357856
v -0.146018 0.883012 0.355993
v -0.146060 0.911495 0.354129
v -0.145380 0.925590 0.350950
v -0.143481 0.935617 0.344128
v -0.149651 0.829098 0.347887
v -0.156212 0.839763 0.351005
v -0.158629 0.854092 0.351464
v -0.158671 0.882575 0.349601
v -0.158713 0.911058 0.347737
v -0.156338 0.925212 0.345414
v -0.149807 0.935398 0.340932
v -0.153582 0.828792 0.343300
v -0.163020 0.839233 0.343060
v -0.166490 0.853480 0.342291
v -0.166532 0.881963 0.340427
v -0.166574 0.910446 0.338563
v -0.163146 0.924682 0.337469
v -0.153738 0.935092 0.336345
# 86 vertices

vn 0.001463 -0.997865 0.065292
vn -0.285466 -0.861987 -0.418913
vn -0.478231 -0.873364 -0.092357
vn -0.471682 -0.495955 -0.729071
vn -0.827663 -0.514310 -0.224633
vn -0.529921 -0.166679 -0.831506
vn -0.756672 -0.161065 -0.633644
vn -0.534078 -0.055980 -0.843580
vn -0.762192 -0.043380 -0.645896
vn -0.530246 0.055360 -0.846034
vn -0.757018 0.074915 -0.649085
vn -0.472989 0.395346 -0.787390
vn -0.829118 0.478235 -0.289577
vn -0.287902 0.799214 -0.527608
vn -0.480762 0.852483 -0.205282
vn -0.001463 0.997865 -0.065292
vn -0.033487 -0.818147 -0.574033
vn -0.055307 -0.435927 -0.898281
vn -0.062134 -0.153987 -0.986117
vn -0.062753 -0.065255 -0.995894
vn -0.062395 0.023996 -0.997763
vn -0.056408 0.314996 -0.947415
vn -0.035766 0.736271 -0.675741
vn 0.195371 -0.795438 -0.573679
vn 0.278699 -0.408148 -0.869334
vn 0.296203 -0.143342 -0.944308
vn 0.297079 -0.061911 -0.952844
vn 0.295963 0.019936 -0.954991
vn 0.277673 0.292202 -0.915159
vn 0.193157 0.714470 -0.672475
vn 0.384934 -0.809036 -0.444169
vn 0.571234 -0.422284 -0.703824
vn 0.615373 -0.139235 -0.775842
vn 0.617891 -0.050435 -0.784644
vn 0.615112 0.038748 -0.787487
vn 0.570133 0.328638 -0.752958
vn 0.382654 0.745381 -0.545877
vn 0.506385 -0.844745 -0.173148
vn 0.820731 -0.467814 -0.327949
vn 0.913589 -0.135248 -0.383488
vn 0.919450 -0.024331 -0.392453
vn 0.913263 0.086792 -0.398017
vn 0.819424 0.423487 -0.386268
vn 0.503949 0.816456 -0.281844
vn 0.480762 -0.852483 0.205282
vn 0.829118 -0.478235 0.289577
vn 0.988113 -0.123074 -0.092121
vn 0.994919 -0.005120 -0.100546
vn 0.987767 0.112906 -0.107561
vn 0.827663 0.514310 0.224633
vn 0.478231 0.873364 0.092357
vn 0.287902 -0.799214 0.527608
vn 0.472989 -0.395346 0.787390
vn 0.530246 -0.055360 0.846034
vn 0.757018 -0.074915 0.649085
vn 0.534078 0.055980 0.843580
vn 0.762192 0.043380 0.645896
vn 0.529921 0.166679 0.831506
vn 0.756672 0.161065 0.633644
vn 0.471682 0.495955 0.729071
vn 0.285466 0.861987 0.418913
vn 0.035766 -0.736271 0.675741
vn 0.056408 -0.314996 0.947415
vn 0.062395 -0.023996 0.997763
vn 0.062753 0.065255 0.995894
vn 0.062134 0.153987 0.986117
vn 0.055307 0.435927 0.898281
vn 0.033487 0.818147 0.574033
vn -0.193157 -0.714470 0.672475
vn -0.277673 -0.292202 0.915159
vn -0.295963 -0.019936 0.954991
vn -0.297079 0.061911 0.952844
vn -0.296203 0.143342 0.944308
vn -0.278699 0.408148 0.869334
vn -0.195371 0.795438 0.573679
vn -0.382654 -0.745381 0.545878
vn -0.570133 -0.328638 0.752958
vn -0.615112 -0.038748 0.787487
vn -0.617891 0.050435 0.784644
vn -0.615373 0.139235 0.775842
vn -0.571234 0.422284 0.703824
vn -0.384934 0.809036 0.444169
vn -0.503949 -0.816456 0.281844
vn -0.819424 -0.423487 0.386268
vn -0.913263 -0.086792 0.398017
vn -0.919450 0.024331 0.392453
vn -0.913589 0.135248 0.383488
vn -0.820731 0.467814 0.327949
vn -0.506385 0.844745 0.173148
vn -0.987767 -0.112906 0.107561
vn -0.994919 0.005120 0.100546
vn -0.988113 0.123074 0.092121
# 92 normals

vt 0.312681 0.872310 0.000000
vt 0.322279 0.879379 0.000000
vt 0.325609 0.876451 0.000000
vt 0.000000 1.000000 0.000000
vt 0.328830 0.888905 0.000000
vt 0.335682 0.886162 0.000000
vt 0.331933 0.900446 0.000000
vt 0.340191 0.899274 0.000000
vt 0.332013 0.924932 0.000000
vt 0.340648 0.925401 0.000000
vt 0.329150 0.949285 0.000000
vt 0.337448 0.951400 0.000000
vt 0.324696 0.960582 0.000000
vt 0.331302 0.964177 0.000000
vt 0.316946 0.969375 0.000000
vt 0.319936 0.972731 0.000000
vt 0.306435 0.975279 0.000000
vt 0.317550 0.880724 0.000000
vt 0.320712 0.890014 0.000000
vt 0.322087 0.901025 0.000000
vt 0.321519 0.924319 0.000000
vt 0.319295 0.947629 0.000000
vt 0.316655 0.958502 0.000000
vt 0.312360 0.967443 0.000000
vt 0.312160 0.880836 0.000000
vt 0.311616 0.889928 0.000000
vt 0.310977 0.900838 0.000000
vt 0.309594 0.923627 0.000000
vt 0.308199 0.946508 0.000000
vt 0.307534 0.957495 0.000000
vt 0.306970 0.966667 0.000000
vt 0.306818 0.880074 0.000000
vt 0.302565 0.888939 0.000000
vt 0.299943 0.899729 0.000000
vt 0.297671 0.922919 0.000000
vt 0.297034 0.946276 0.000000
vt 0.298364 0.957383 0.000000
vt 0.301529 0.966773 0.000000
vt 0.302273 0.878162 0.000000
vt 0.294591 0.886876 0.000000
vt 0.290159 0.898075 0.000000
vt 0.287176 0.922246 0.000000
vt 0.287146 0.946779 0.000000
vt 0.290163 0.958469 0.000000
vt 0.296748 0.968122 0.000000
vt 0.299311 0.874838 0.000000
vt 0.288047 0.883308 0.000000
vt 0.281942 0.895963 0.000000
vt 0.278699 0.921719 0.000000
vt 0.278693 0.947851 0.000000
vt 0.283194 0.961213 0.000000
vt 0.293374 0.971076 0.000000
vt 0.366478 0.843172 0.000000
vt 0.358092 0.851645 0.000000
vt 0.354346 0.849269 0.000000
vt 0.353106 0.862078 0.000000
vt 0.345903 0.860440 0.000000
vt 0.351852 0.873967 0.000000
vt 0.343509 0.874112 0.000000
vt 0.355656 0.898180 0.000000
vt 0.347204 0.900003 0.000000
vt 0.362305 0.921748 0.000000
vt 0.354437 0.925146 0.000000
vt 0.368497 0.932228 0.000000
vt 0.362521 0.936829 0.000000
vt 0.377566 0.939717 0.000000
vt 0.375133 0.943518 0.000000
vt 0.388927 0.943903 0.000000
vt 0.362973 0.852239 0.000000
vt 0.361296 0.861904 0.000000
vt 0.361663 0.872985 0.000000
vt 0.365927 0.895930 0.000000
vt 0.371786 0.918539 0.000000
vt 0.376129 0.928898 0.000000
vt 0.381804 0.937074 0.000000
vt 0.368313 0.851513 0.000000
vt 0.370260 0.860402 0.000000
vt 0.372575 0.871047 0.000000
vt 0.377573 0.893333 0.000000
vt 0.382606 0.915725 0.000000
vt 0.385002 0.926457 0.000000
vt 0.387022 0.935448 0.000000
vt 0.373470 0.849933 0.000000
vt 0.379045 0.858026 0.000000
vt 0.383322 0.868283 0.000000
vt 0.389215 0.890705 0.000000
vt 0.393549 0.913701 0.000000
vt 0.394053 0.924877 0.000000
vt 0.392431 0.934683 0.000000
vt 0.377661 0.847342 0.000000
vt 0.386591 0.854754 0.000000
vt 0.392704 0.865108 0.000000
vt 0.399430 0.888413 0.000000
vt 0.403448 0.912523 0.000000
vt 0.402358 0.924613 0.000000
vt 0.397388 0.935252 0.000000
vt 0.380072 0.843603 0.000000
vt 0.392491 0.850224 0.000000
vt 0.400462 0.861745 0.000000
vt 0.407685 0.886535 0.000000
vt 0.411971 0.912208 0.000000
vt 0.409713 0.926196 0.000000
vt 0.401213 0.937639 0.000000
# 103 texture coordinates

o ??_1
usemtl ??.6
f 3/3/3 10/2/2 1/1/1
f 4/6/5 11/5/4 10/2/2 3/3/3
f 5/8/7 12/7/6 11/5/4 4/6/5
f 6/10/9 13/9/8 12/7/6 5/8/7
f 7/12/11 14/11/10 13/9/8 6/10/9
f 8/14/13 15/13/12 14/11/10 7/12/11
f 9/16/15 16/15/14 15/13/12 8/14/13
f 2/17/16 16/15/14 9/16/15
f 10/2/2 17/18/17 1/1/1
f 11/5/4 18/19/18 17/18/17 10/2/2
f 12/7/6 19/20/19 18/19/18 11/5/4
f 13/9/8 20/21/20 19/20/19 12/7/6
f 14/11/10 21/22/21 20/21/20 13/9/8
f 15/13/12 22/23/22 21/22/21 14/11/10
f 16/15/14 23/24/23 22/23/22 15/13/12
f 2/17/16 23/24/23 16/15/14
f 17/18/17 24/25/24 1/1/1
f 18/19/18 25/26/25 24/25/24 17/18/17
f 19/20/19 26/27/26 25/26/25 18/19/18
f 20/21/20 27/28/27 26/27/26 19/20/19
f 21/22/21 28/29/28 27/28/27 20/21/20
f 22/23/22 29/30/29 28/29/28 21/22/21
f 23/24/23 30/31/30 29/30/29 22/23/22
f 2/17/16 30/31/30 23/24/23
f 24/25/24 31/32/31 1/1/1
f 25/26/25 32/33/32 31/32/31 24/25/24
f 26/27/26 33/34/33 32/33/32 25/26/25
f 27/28/27 34/35/34 33/34/33 26/27/26
f 28/29/28 35/36/35 34/35/34 27/28/27
f 29/30/29 36/37/36 35/36/35 28/29/28
f 30/31/30 37/38/37 36/37/36 29/30/29
f 2/17/16 37/38/37 30/31/30
f 31/32/31 38/39/38 1/1/1
f 32/33/32 39/40/39 38/39/38 31/32/31
f 33/34/33 40/41/40 39/40/39 32/33/32
f 34/35/34 41/42/41 40/41/40 33/34/33
f 35/36/35 42/43/42 41/42/41 34/35/34
f 36/37/36 43/44/43 42/43/42 35/36/35
f 37/38/37 44/45/44 43/44/43 36/37/36
f 2/17/16 44/45/44 37/38/37
f 38/39/38 45/46/45 1/1/1
f 39/40/39 46/47/46 45/46/45 38/39/38
f 40/41/40 47/48/47 46/47/46 39/40/39
f 41/42/41 48/49/48 47/48/47 40/41/40
f 42/43/42 49/50/49 48/49/48 41/42/41
f 43/44/43 50/51/50 49/50/49 42/43/42
f 44/45/44 51/52/51 50/51/50 43/44/43
f 2/17/16 51/52/51 44/45/44
f 45/55/45 52/54/52 1/53/1
f 46/57/46 53/56/53 52/54/52 45/55/45
f 47/59/55 54/58/54 53/56/53 46/57/46
f 48/61/57 55/60/56 54/58/54 47/59/55
f 49/63/59 56/62/58 55/60/56 48/61/57
f 50/65/50 57/64/60 56/62/58 49/63/59
f 51/67/51 58/66/61 57/64/60 50/65/50
f 2/68/16 58/66/61 51/67/51
f 52/54/52 59/69/62 1/53/1
f 53/56/53 60/70/63 59/69/62 52/54/52
f 54/58/54 61/71/64 60/70/63 53/56/53
f 55/60/56 62/72/65 61/71/64 54/58/54
f 56/62/58 63/73/66 62/72/65 55/60/56
f 57/64/60 64/74/67 63/73/66 56/62/58
f 58/66/61 65/75/68 64/74/67 57/64/60
f 2/68/16 65/75/68 58/66/61
f 59/69/62 66/76/69 1/53/1
f 60/70/63 67/77/70 66/76/69 59/69/62
f 61/71/64 68/78/71 67/77/70 60/70/63
f 62/72/65 69/79/72 68/78/71 61/71/64
f 63/73/66 70/80/73 69/79/72 62/72/65
f 64/74/67 71/81/74 70/80/73 63/73/66
f 65/75/68 72/82/75 71/81/74 64/74/67
f 2/68/16 72/82/75 65/75/68
f 66/76/69 73/83/76 1/53/1
f 67/77/70 74/84/77 73/83/76 66/76/69
f 68/78/71 75/85/78 74/84/77 67/77/70
f 69/79/72 76/86/79 75/85/78 68/78/71
f 70/80/73 77/87/80 76/86/79 69/79/72
f 71/81/74 78/88/81 77/87/80 70/80/73
f 72/82/75 79/89/82 78/88/81 71/81/74
f 2/68/16 79/89/82 72/82/75
f 73/83/76 80/90/83 1/53/1
f 74/84/77 81/91/84 80/90/83 73/83/76
f 75/85/78 82/92/85 81/91/84 74/84/77
f 76/86/79 83/93/86 82/92/85 75/85/78
f 77/87/80 84/94/87 83/93/86 76/86/79
f 78/88/81 85/95/88 84/94/87 77/87/80
f 79/89/82 86/96/89 85/95/88 78/88/81
f 2/68/16 86/96/89 79/89/82
f 80/90/83 3/97/3 1/53/1
f 81/91/84 4/98/5 3/97/3 80/90/83
f 82/92/85 5/99/90 4/98/5 81/91/84
f 83/93/86 6/100/91 5/99/90 82/92/85
f 84/94/87 7/101/92 6/100/91 83/93/86
f 85/95/88 8/102/13 7/101/92 84/94/87
f 86/96/89 9/103/15 8/102/13 85/95/88
f 2/68/16 9/103/15 86/96/89

v 0.140704 0.824955 0.342945
v 0.140871 0.938888 0.335491
v 0.154064 0.828481 0.338551
v 0.163854 0.838693 0.334835
v 0.167453 0.852857 0.332793
v 0.167495 0.881340 0.330929
v 0.167537 0.909823 0.329065
v 0.163980 0.924143 0.329244
v 0.154219 0.934781 0.331596
v 0.150967 0.828247 0.334913
v 0.158491 0.838289 0.328533
v 0.161260 0.852390 0.325516
v 0.161302 0.880873 0.323652
v 0.161344 0.909356 0.321788
v 0.158616 0.923738 0.322942
v 0.151123 0.934547 0.327957
v 0.145122 0.828154 0.333360
v 0.148367 0.838128 0.325843
v 0.149570 0.852204 0.322410
v 0.149612 0.880687 0.320546
v 0.149654 0.909170 0.318682
v 0.148493 0.923577 0.320252
v 0.145278 0.934454 0.326404
v 0.138095 0.828227 0.334308
v 0.136196 0.838253 0.327486
v 0.135516 0.852349 0.324307
v 0.135558 0.880832 0.322443
v 0.135600 0.909315 0.320580
v 0.136321 0.923702 0.321895
v 0.138251 0.934527 0.327353
v 0.131768 0.828445 0.337504
v 0.125238 0.838631 0.333022
v 0.122863 0.852785 0.330699
v 0.122905 0.881268 0.328835
v 0.122947 0.909752 0.326971
v 0.125363 0.924081 0.327431
v 0.131924 0.934745 0.330549
v 0.127838 0.828751 0.342091
v 0.118430 0.839161 0.340967
v 0.115002 0.853397 0.339873
v 0.115044 0.881880 0.338009
v 0.115086 0.910363 0.336145
v 0.118555 0.924610 0.335376
v 0.127994 0.935051 0.335136
v 0.127356 0.829062 0.346840
v 0.117596 0.839701 0.349192
v 0.114039 0.854020 0.349371
v 0.114081 0.882503 0.347507
v 0.114122 0.910986 0.345643
v 0.117721 0.925150 0.343601
v 0.127512 0.935363 0.339885
v 0.130453 0.829296 0.350479
v 0.122960 0.840105 0.355494
v 0.120232 0.854487 0.356648
v 0.120274 0.882970 0.354784
v 0.120316 0.911453 0.352920
v 0.123085 0.925554 0.349903
v 0.130609 0.935596 0.343523
v 0.136298 0.829389 0.352032
v 0.133083 0.840266 0.358184
v 0.131922 0.854673 0.359754
v 0.131964 0.883156 0.357890
v 0.132005 0.911639 0.356026
v 0.133208 0.925716 0.352593
v 0.136454 0.935689 0.345076
v 0.143325 0.829316 0.351083
v 0.145255 0.840141 0.356541
v 0.145976 0.854528 0.357856
v 0.146018 0.883012 0.355993
v 0.146060 0.911495 0.354129
v 0.145380 0.925590 0.350950
v 0.143481 0.935617 0.344128
v 0.149651 0.829098 0.347887
v 0.156212 0.839763 0.351005
v 0.158629 0.854092 0.351464
v 0.158671 0.882575 0.349601
v 0.158713 0.911058 0.347737
v 0.156338 0.925212 0.345414
v 0.149807 0.935398 0.340932
v 0.153582 0.828792 0.343300
v 0.163020 0.839233 0.343060
v 0.166490 0.853480 0.342291
v 0.166532 0.881963 0.340427
v 0.166574 0.910446 0.338563
v 0.163146 0.924682 0.337469
v 0.153738 0.935092 0.336345
# 86 vertices

vn -0.001463 -0.997865 0.065292
vn 0.478231 -0.873364 -0.092357
vn 0.285466 -0.861987 -0.418913
vn 0.827663 -0.514310 -0.224633
vn 0.471682 -0.495955 -0.729071
vn 0.756672 -0.161065 -0.633644
vn 0.529921 -0.166679 -0.831506
vn 0.762192 -0.043380 -0.645896
vn 0.534078 -0.055980 -0.843580
vn 0.757018 0.074915 -0.649085
vn 0.530246 0.055360 -0.846034
vn 0.829118 0.478235 -0.289577
vn 0.472989 0.395346 -0.787390
vn 0.480762 0.852483 -0.205282
vn 0.287902 0.799214 -0.527608
vn 0.001463 0.997865 -0.065292
vn 0.033487 -0.818147 -0.574033
vn 0.055307 -0.435927 -0.898281
vn 0.062134 -0.153987 -0.986117
vn 0.062753 -0.065255 -0.995894
vn 0.062395 0.023996 -0.997763
vn 0.056408 0.314996 -0.947415
vn 0.035766 0.736271 -0.675741
vn -0.195371 -0.795438 -0.573679
vn -0.278699 -0.408148 -0.869334
vn -0.296203 -0.143342 -0.944308
vn -0.297079 -0.061911 -0.952844
vn -0.295963 0.019936 -0.954991
vn -0.277673 0.292202 -0.915159
vn -0.193157 0.714470 -0.672475
vn -0.384934 -0.809036 -0.444169
vn -0.571234 -0.422284 -0.703824
vn -0.615373 -0.139235 -0.775842
vn -0.617891 -0.050435 -0.784644
vn -0.615112 0.038748 -0.787487
vn -0.570133 0.328638 -0.752958
vn -0.382654 0.745381 -0.545877
vn -0.506385 -0.844745 -0.173148
vn -0.820731 -0.467814 -0.327949
vn -0.913589 -0.135248 -0.383488
vn -0.919450 -0.024331 -0.392453
vn -0.913263 0.086792 -0.398017
vn -0.819424 0.423487 -0.386268
vn -0.503949 0.816456 -0.281844
vn -0.480762 -0.852483 0.205282
vn -0.829118 -0.478235 0.289577
vn -0.988113 -0.123074 -0.092121
vn -0.994919 -0.005120 -0.100546
vn -0.987767 0.112906 -0.107561
vn -0.827663 0.514310 0.224633
vn -0.478231 0.873364 0.092357
vn -0.287902 -0.799214 0.527608
vn -0.472989 -0.395346 0.787390
vn -0.757018 -0.074915 0.649085
vn -0.530246 -0.055360 0.846034
vn -0.762192 0.043380 0.645896
vn -0.534078 0.055980 0.843580
vn -0.756672 0.161065 0.633644
vn -0.529921 0.166679 0.831506
vn -0.471682 0.495955 0.729071
vn -0.285466 0.861987 0.418913
vn -0.035766 -0.736271 0.675741
vn -0.056408 -0.314996 0.947415
vn -0.062395 -0.023996 0.997763
vn -0.062753 0.065255 0.995894
vn -0.062134 0.153987 0.986117
vn -0.055307 0.435927 0.898281
vn -0.033487 0.818147 0.574033
vn 0.193157 -0.714470 0.672475
vn 0.277673 -0.292202 0.915159
vn 0.295963 -0.019936 0.954991
vn 0.297079 0.061911 0.952844
vn 0.296203 0.143342 0.944308
vn 0.278699 0.408148 0.869334
vn 0.195371 0.795438 0.573679
vn 0.382654 -0.745381 0.545878
vn 0.570133 -0.328638 0.752958
vn 0.615112 -0.038748 0.787487
vn 0.617891 0.050435 0.784644
vn 0.615373 0.139235 0.775842
vn 0.571234 0.422284 0.703824
vn 0.384934 0.809036 0.444169
vn 0.503949 -0.816456 0.281844
vn 0.819424 -0.423487 0.386268
vn 0.913263 -0.086792 0.398017
vn 0.919450 0.024331 0.392453
vn 0.913589 0.135248 0.383488
vn 0.820731 0.467814 0.327949
vn 0.506385 0.844745 0.173148
vn 0.987767 -0.112906 0.107561
vn 0.994919 0.005120 0.100546
vn 0.988113 0.123074 0.092121
# 92 normals

vt 0.854013 0.287539 0.000000
vt 0.815047 0.945083 0.000000
vt 0.819458 0.297367 0.000000
vt 0.781542 0.930966 0.000000
vt 0.780080 0.298188 0.000000
vt 0.742158 0.925303 0.000000
vt 0.741045 0.292620 0.000000
vt 0.702405 0.926071 0.000000
vt 0.707837 0.278649 0.000000
vt 0.667473 0.935931 0.000000
vt 0.686195 0.254360 0.000000
vt 0.642820 0.957510 0.000000
vt 0.118332 0.314147 0.000000
vt 0.260616 0.957638 0.000000
vt 0.153993 0.318486 0.000000
vt 0.291584 0.938328 0.000000
vt 0.193009 0.313186 0.000000
vt 0.329709 0.926446 0.000000
vt 0.230691 0.301643 0.000000
vt 0.369227 0.920853 0.000000
vt 0.261314 0.282711 0.000000
vt 0.405447 0.925014 0.000000
vt 0.278923 0.255389 0.000000
vt 0.433390 0.942451 0.000000
# 24 texture coordinates

o ??_2
usemtl ??.6
f 96/2/95 89/3/94 87/1/93
f 96/2/95 97/5/97 90/6/96 89/3/94
f 97/5/97 98/7/99 91/8/98 90/6/96
f 98/7/99 99/9/101 92/10/100 91/8/98
f 99/9/101 100/11/103 93/12/102 92/10/100
f 100/11/103 101/13/105 94/14/104 93/12/102
f 101/13/105 102/15/107 95/16/106 94/14/104
f 102/15/107 88/17/108 95/16/106
f 103/18/109 96/2/95 87/1/93
f 103/18/109 104/19/110 97/5/97 96/2/95
f 104/19/110 105/20/111 98/7/99 97/5/97
f 105/20/111 106/21/112 99/9/101 98/7/99
f 106/21/112 107/22/113 100/11/103 99/9/101
f 107/22/113 108/23/114 101/13/105 100/11/103
f 108/23/114 109/24/115 102/15/107 101/13/105
f 109/24/115 88/17/108 102/15/107
f 110/25/116 103/18/109 87/1/93
f 110/25/116 111/26/117 104/19/110 103/18/109
f 111/26/117 112/27/118 105/20/111 104/19/110
f 112/27/118 113/28/119 106/21/112 105/20/111
f 113/28/119 114/29/120 107/22/113 106/21/112
f 114/29/120 115/30/121 108/23/114 107/22/113
f 115/30/121 116/31/122 109/24/115 108/23/114
f 116/31/122 88/17/108 109/24/115
f 117/32/123 110/25/116 87/1/93
f 117/32/123 118/33/124 111/26/117 110/25/116
f 118/33/124 119/34/125 112/27/118 111/26/117
f 119/34/125 120/35/126 113/28/119 112/27/118
f 120/35/126 121/36/127 114/29/120 113/28/119
f 121/36/127 122/37/128 115/30/121 114/29/120
f 122/37/128 123/38/129 116/31/122 115/30/121
f 123/38/129 88/17/108 116/31/122
f 124/39/130 117/32/123 87/1/93
f 124/39/130 125/40/131 118/33/124 117/32/123
f 125/40/131 126/41/132 119/34/125 118/33/124
f 126/41/132 127/42/133 120/35/126 119/34/125
f 127/42/133 128/43/134 121/36/127 120/35/126
f 128/43/134 129/44/135 122/37/128 121/36/127
f 129/44/135 130/45/136 123/38/129 122/37/128
f 130/45/136 88/17/108 123/38/129
f 131/46/137 124/39/130 87/1/93
f 131/46/137 132/47/138 125/40/131 124/39/130
f 132/47/138 133/48/139 126/41/132 125/40/131
f 133/48/139 134/49/140 127/42/133 126/41/132
f 134/49/140 135/50/141 128/43/134 127/42/133
f 135/50/141 136/51/142 129/44/135 128/43/134
f 136/51/142 137/52/143 130/45/136 129/44/135
f 137/52/143 88/17/108 130/45/136
f 138/54/144 131/55/137 87/53/93
f 138/54/144 139/56/145 132/57/138 131/55/137
f 139/56/145 140/58/147 133/59/146 132/57/138
f 140/58/147 141/60/149 134/61/148 133/59/146
f 141/60/149 142/62/151 135/63/150 134/61/148
f 142/62/151 143/64/152 136/65/142 135/63/150
f 143/64/152 144/66/153 137/67/143 136/65/142
f 144/66/153 88/68/108 137/67/143
f 145/69/154 138/54/144 87/53/93
f 145/69/154 146/70/155 139/56/145 138/54/144
f 146/70/155 147/71/156 140/58/147 139/56/145
f 147/71/156 148/72/157 141/60/149 140/58/147
f 148/72/157 149/73/158 142/62/151 141/60/149
f 149/73/158 150/74/159 143/64/152 142/62/151
f 150/74/159 151/75/160 144/66/153 143/64/152
f 151/75/160 88/68/108 144/66/153
f 152/76/161 145/69/154 87/53/93
f 152/76/161 153/77/162 146/70/155 145/69/154
f 153/77/162 154/78/163 147/71/156 146/70/155
f 154/78/163 155/79/164 148/72/157 147/71/156
f 155/79/164 156/80/165 149/73/158 148/72/157
f 156/80/165 157/81/166 150/74/159 149/73/158
f 157/81/166 158/82/167 151/75/160 150/74/159
f 158/82/167 88/68/108 151/75/160
f 159/83/168 152/76/161 87/53/93
f 159/83/168 160/84/169 153/77/162 152/76/161
f 160/84/169 161/85/170 154/78/163 153/77/162
f 161/85/170 162/86/171 155/79/164 154/78/163
f 162/86/171 163/87/172 156/80/165 155/79/164
f 163/87/172 164/88/173 157/81/166 156/80/165
f 164/88/173 165/89/174 158/82/167 157/81/166
f 165/89/174 88/68/108 158/82/167
f 166/90/175 159/83/168 87/53/93
f 166/90/175 167/91/176 160/84/169 159/83/168
f 167/91/176 168/92/177 161/85/170 160/84/169
f 168/92/177 169/93/178 162/86/171 161/85/170
f 169/93/178 170/94/179 163/87/172 162/86/171
f 170/94/179 171/95/180 164/88/173 163/87/172
f 171/95/180 172/96/181 165/89/174 164/88/173
f 172/96/181 88/68/108 165/89/174
f 89/97/94 166/90/175 87/53/93
f 89/97/94 90/98/96 167/91/176 166/90/175
f 90/98/96 91/99/182 168/92/177 167/91/176
f 91/99/182 92/100/183 169/93/178 168/92/177
f 92/100/183 93/101/184 170/94/179 169/93/178
f 93/101/184 94/102/104 171/95/180 170/94/179
f 94/102/104 95/103/106 172/96/181 171/95/180
f 95/103/106 88/68/108 172/96/181

