# Blender 4.0.2
# www.blender.org
mtllib Eyes2_Blinks.mtl
o blink
v -0.210315 0.885309 0.363674
v -0.225050 0.896093 0.363186
v -0.206286 0.889707 0.349728
v -0.221020 0.900491 0.349241
v -0.140592 0.900944 0.390056
v -0.136546 0.911831 0.395648
v -0.135891 0.904527 0.380472
v -0.131845 0.915414 0.386064
v -0.213326 0.881631 0.348051
v -0.215999 0.878631 0.351129
v -0.215727 0.879208 0.356387
v -0.218762 0.885293 0.362312
v -0.225874 0.887384 0.361532
v -0.227506 0.891692 0.362023
v -0.230464 0.895886 0.358034
v -0.232399 0.896639 0.352735
v -0.228074 0.898497 0.349760
v -0.222888 0.896732 0.346042
v -0.220961 0.892746 0.344530
v -0.214146 0.890334 0.346331
v -0.153407 0.909175 0.373968
v -0.174380 0.906784 0.364186
v -0.192205 0.902044 0.357162
v -0.210365 0.913124 0.355740
v -0.180086 0.923070 0.368313
v -0.146388 0.923079 0.381746
v -0.128159 0.913643 0.385728
v -0.127095 0.910635 0.384472
v -0.130560 0.907183 0.382411
v -0.132349 0.898862 0.389571
v -0.129131 0.899111 0.387060
v -0.129479 0.900864 0.383868
v -0.128341 0.915661 0.389920
v -0.127494 0.915088 0.393723
v -0.131129 0.913536 0.395608
v -0.133547 0.909537 0.396711
v -0.132826 0.906268 0.396157
v -0.135946 0.903078 0.393393
v -0.196814 0.897118 0.373185
v -0.180802 0.901348 0.380679
v -0.159717 0.904501 0.386701
v -0.152697 0.918406 0.394478
v -0.186508 0.917635 0.384806
v -0.214973 0.908199 0.371761
v -0.223251 0.876968 0.353789
v -0.232589 0.878657 0.351834
v -0.235072 0.883155 0.352433
v -0.224731 0.875932 0.347676
v -0.234584 0.877608 0.345277
v -0.237155 0.882358 0.346224
v -0.220691 0.879550 0.344906
v -0.229893 0.881378 0.342473
v -0.232513 0.885738 0.343550
v -0.196959 0.904587 0.354038
v -0.202899 0.907341 0.352363
v -0.206979 0.910701 0.353252
v -0.174765 0.911245 0.362791
v -0.176021 0.915952 0.363138
v -0.177883 0.920146 0.365047
v -0.149676 0.912884 0.374411
v -0.146319 0.916897 0.376346
v -0.145804 0.920556 0.378703
v -0.123762 0.901531 0.386000
v -0.118686 0.905217 0.388941
v -0.119293 0.908691 0.390263
v -0.122445 0.899712 0.389755
v -0.117047 0.903444 0.393041
v -0.117712 0.907187 0.394231
v -0.126822 0.899396 0.392076
v -0.121909 0.902968 0.395345
v -0.122352 0.906556 0.396339
v -0.157705 0.906937 0.390610
v -0.154930 0.910520 0.393719
v -0.153832 0.914609 0.394902
v -0.183004 0.904273 0.383944
v -0.184866 0.908466 0.385853
v -0.186121 0.913174 0.386201
v -0.202824 0.898320 0.374424
v -0.209189 0.900620 0.374227
v -0.212844 0.904435 0.373639
v -0.192077 0.898821 0.360323
v -0.175029 0.903250 0.367343
v -0.154479 0.906190 0.376195
v -0.193654 0.896420 0.364266
v -0.176515 0.900994 0.371653
v -0.155414 0.904222 0.379726
v -0.194621 0.896103 0.369164
v -0.178539 0.900279 0.376356
v -0.157962 0.903611 0.383221
v -0.145547 0.923882 0.386091
v -0.182347 0.924139 0.372635
v -0.215183 0.912920 0.358512
v -0.145835 0.923195 0.390339
v -0.184373 0.923424 0.377338
v -0.218433 0.911541 0.362324
v -0.149030 0.921303 0.393118
v -0.185858 0.921168 0.381649
v -0.217726 0.910201 0.367353
v 0.171570 0.884399 0.364761
v 0.186326 0.895112 0.364361
v 0.167607 0.888822 0.350791
v 0.182361 0.899535 0.350390
v 0.101783 0.900361 0.390747
v 0.097735 0.911265 0.396318
v 0.097128 0.903970 0.381134
v 0.093081 0.914875 0.386705
v 0.174637 0.880712 0.349154
v 0.177290 0.877698 0.352247
v 0.176998 0.878274 0.357503
v 0.180024 0.884343 0.363447
v 0.187139 0.886399 0.362710
v 0.188777 0.890699 0.363210
v 0.191758 0.894881 0.359240
v 0.193717 0.895626 0.353950
v 0.189406 0.897506 0.350951
v 0.184234 0.895768 0.347202
v 0.182306 0.891793 0.345678
v 0.175480 0.889412 0.347440
v 0.114676 0.908536 0.374732
v 0.135680 0.906048 0.365069
v 0.153522 0.901224 0.358147
v 0.171704 0.912217 0.356830
v 0.141399 0.922305 0.369232
v 0.107652 0.922471 0.382473
v 0.089393 0.913121 0.386348
v 0.088329 0.910119 0.385085
v 0.091796 0.906651 0.383043
v 0.093538 0.898318 0.390213
v 0.090333 0.898584 0.387684
v 0.090696 0.900337 0.384493
v 0.089561 0.915137 0.390543
v 0.088700 0.914566 0.394340
v 0.092323 0.912995 0.396246
v 0.094727 0.908985 0.397362
v 0.094004 0.905719 0.396804
v 0.097129 0.902516 0.394057
v 0.158057 0.896270 0.374197
v 0.142025 0.900574 0.381601
v 0.120924 0.903826 0.387502
v 0.113901 0.917762 0.395243
v 0.147743 0.916831 0.385764
v 0.176239 0.907263 0.372881
v 0.184527 0.876000 0.354949
v 0.193875 0.877644 0.353048
v 0.196364 0.882130 0.353662
v 0.186030 0.874959 0.348843
v 0.195894 0.876588 0.346500
v 0.198471 0.881326 0.347464
v 0.182011 0.878598 0.346050
v 0.191223 0.880382 0.343669
v 0.193847 0.884729 0.344763
v 0.158292 0.903746 0.355050
v 0.164243 0.906471 0.353410
v 0.168324 0.909812 0.354323
v 0.136080 0.910507 0.363676
v 0.137342 0.915208 0.364032
v 0.139205 0.919392 0.365953
v 0.110951 0.912263 0.375152
v 0.107594 0.916292 0.377070
v 0.107076 0.919952 0.379425
v 0.084973 0.901030 0.386591
v 0.079894 0.904740 0.389505
v 0.080501 0.908210 0.390831
v 0.083637 0.899216 0.390340
v 0.078234 0.902973 0.393596
v 0.078902 0.906712 0.394790
v 0.088002 0.898879 0.392688
v 0.083086 0.902473 0.395928
v 0.083531 0.906058 0.396927
v 0.118902 0.906270 0.391399
v 0.116120 0.909865 0.394494
v 0.115027 0.913960 0.395671
v 0.144219 0.903487 0.384881
v 0.146081 0.907670 0.386801
v 0.147342 0.912371 0.387156
v 0.164061 0.897442 0.375472
v 0.170430 0.899711 0.375312
v 0.174094 0.903509 0.374745
v 0.153375 0.898000 0.361306
v 0.136310 0.902509 0.368229
v 0.115733 0.905545 0.376965
v 0.154930 0.895591 0.365258
v 0.137774 0.900244 0.372549
v 0.116649 0.903571 0.380502
v 0.155877 0.895267 0.370163
v 0.139778 0.899518 0.377263
v 0.119181 0.902946 0.384011
v 0.106796 0.923276 0.386814
v 0.143645 0.923361 0.373569
v 0.176510 0.911988 0.359632
v 0.107066 0.922586 0.391064
v 0.145650 0.922634 0.378284
v 0.179742 0.910592 0.363464
v 0.110245 0.920677 0.393860
v 0.147113 0.920369 0.382604
v 0.179012 0.909254 0.368489
vn -0.0060 -0.9235 0.3835
vn -0.4057 -0.7928 0.4549
vn -0.2572 -0.8052 -0.5343
vn 0.0396 -0.9806 -0.1922
vn -0.7909 -0.2209 0.5707
vn -0.8398 -0.0743 -0.5378
vn -0.0947 -0.1966 -0.9759
vn 0.2554 -0.5382 -0.8032
vn -0.3066 0.3055 -0.9015
vn 0.1462 -0.7549 0.6393
vn -0.1520 -0.6334 0.7588
vn 0.1910 -0.8592 0.4747
vn -0.3712 -0.4756 0.7975
vn -0.6057 -0.1468 0.7820
vn -0.7167 0.1195 0.6871
vn -0.8298 0.2646 0.4913
vn -0.8171 0.5509 -0.1700
vn -0.4674 0.6263 -0.6239
vn -0.2828 0.6295 -0.7237
vn -0.1249 0.4709 -0.8733
vn 0.0845 0.1953 -0.9771
vn 0.3364 -0.0158 -0.9416
vn 0.5481 -0.5550 -0.6258
vn 0.5661 -0.2522 -0.7848
vn 0.4105 -0.9083 -0.0804
vn 0.3699 0.0323 -0.9285
vn 0.2000 0.3088 -0.9299
vn 0.2965 0.3563 -0.8861
vn 0.3917 -0.0282 -0.9197
vn -0.0261 0.5852 -0.8105
vn 0.1627 0.6712 -0.7232
vn 0.4064 0.3419 -0.8473
vn 0.3985 -0.0037 -0.9171
vn 0.3627 0.6919 -0.6243
vn 0.4950 -0.3473 -0.7965
vn -0.1422 0.7808 -0.6084
vn 0.0104 0.9047 -0.4260
vn 0.2393 0.9155 -0.3234
vn 0.4992 0.7853 -0.3661
vn 0.5358 0.6367 -0.5546
vn 0.5128 0.2656 -0.8164
vn 0.4111 -0.0260 -0.9112
vn 0.3513 -0.4005 -0.8463
vn 0.2452 -0.3814 -0.8913
vn 0.4232 -0.4528 -0.7848
vn 0.4458 -0.5355 -0.7173
vn 0.7406 -0.0199 -0.6716
vn 0.6746 -0.5933 0.4392
vn 0.3132 -0.9486 -0.0447
vn 0.7171 0.6110 -0.3353
vn 0.6305 0.3498 0.6929
vn 0.1509 -0.5438 0.8255
vn 0.0474 -0.8726 0.4862
vn 0.1870 -0.0055 0.9823
vn 0.1464 -0.7187 -0.6797
vn 0.4997 0.8603 -0.1011
vn 0.3595 0.7507 0.5543
vn 0.1421 0.4058 0.9028
vn 0.0137 0.2465 0.9690
vn -0.0315 0.0247 0.9992
vn -0.0983 -0.3717 0.9231
vn -0.1715 -0.6315 0.7561
vn -0.0755 -0.9840 0.1616
vn -0.2183 -0.8610 0.4594
vn 0.0600 -0.9500 -0.3064
vn -0.1828 -0.6201 0.7629
vn -0.1954 -0.3351 0.9217
vn -0.2612 -0.3490 0.9000
vn -0.1405 -0.6710 0.7280
vn -0.1414 0.0793 0.9868
vn -0.3363 0.0382 0.9410
vn -0.3221 -0.3835 0.8656
vn -0.1467 -0.6243 0.7673
vn -0.4979 -0.0394 0.8663
vn -0.1139 -0.8814 0.4584
vn -0.1144 0.3714 0.9214
vn -0.3462 0.4874 0.8016
vn -0.5777 0.3563 0.7344
vn 0.0511 -0.8395 0.5409
vn 0.0049 -0.8904 0.4552
vn 0.5467 -0.7067 -0.4491
vn 0.3760 -0.7701 -0.5154
vn 0.2781 -0.9403 -0.1961
vn 0.4911 -0.8608 -0.1338
vn 0.2046 -0.7517 -0.6270
vn 0.0625 -0.9489 -0.3095
vn 0.1488 -0.9794 0.1368
vn 0.3410 -0.9224 0.1815
vn -0.0224 -0.9990 0.0391
vn 0.1598 0.9870 -0.0155
vn -0.0997 0.9906 -0.0933
vn -0.1949 0.9571 0.2146
vn 0.0988 0.9233 0.3712
vn -0.3415 0.8762 -0.3401
vn -0.5384 0.8406 0.0594
vn -0.2818 0.8125 0.5103
vn -0.0172 0.6777 0.7351
vn -0.6029 0.6490 0.4640
vn -0.0007 -0.9237 0.3831
vn -0.0433 -0.9803 -0.1928
vn 0.2565 -0.8058 -0.5338
vn 0.3999 -0.7947 0.4567
vn 0.8421 -0.0757 -0.5339
vn 0.7876 -0.2228 0.5745
vn -0.2534 -0.5376 -0.8042
vn 0.0993 -0.1967 -0.9754
vn 0.3131 0.3049 -0.8994
vn -0.1535 -0.7545 0.6381
vn -0.1978 -0.8584 0.4733
vn 0.1446 -0.6342 0.7595
vn 0.3647 -0.4770 0.7996
vn 0.6012 -0.1483 0.7852
vn 0.8283 0.2629 0.4947
vn 0.7138 0.1181 0.6903
vn 0.8195 0.5485 -0.1662
vn 0.4735 0.6247 -0.6209
vn 0.1323 0.4707 -0.8723
vn 0.2899 0.6286 -0.7217
vn -0.0781 0.1957 -0.9776
vn -0.3314 -0.0150 -0.9434
vn -0.5470 -0.5537 -0.6278
vn -0.5631 -0.2511 -0.7874
vn -0.4140 -0.9065 -0.0825
vn -0.3648 0.0332 -0.9305
vn -0.3868 -0.0273 -0.9218
vn -0.2900 0.3573 -0.8878
vn -0.1933 0.3096 -0.9310
vn -0.1555 0.6722 -0.7239
vn 0.0335 0.5854 -0.8101
vn -0.3936 -0.0028 -0.9193
vn -0.4004 0.3432 -0.8497
vn -0.3563 0.6936 -0.6261
vn -0.4922 -0.3463 -0.7986
vn 0.1495 0.7804 -0.6072
vn -0.0035 0.9049 -0.4255
vn -0.2332 0.9168 -0.3243
vn -0.5304 0.6388 -0.5574
vn -0.4941 0.7875 -0.3683
vn -0.5075 0.2670 -0.8192
vn -0.4064 -0.0251 -0.9134
vn -0.3484 -0.3998 -0.8478
vn -0.2420 -0.3809 -0.8924
vn -0.4210 -0.4520 -0.7865
vn -0.4442 -0.5345 -0.7190
vn -0.3174 -0.9472 -0.0462
vn -0.6789 -0.5911 0.4355
vn -0.7375 -0.0184 -0.6750
vn -0.6328 0.3508 0.6903
vn -0.7135 0.6135 -0.3384
vn -0.0541 -0.8724 0.4858
vn -0.1583 -0.5435 0.8243
vn -0.1928 -0.0053 0.9812
vn -0.1460 -0.7182 -0.6803
vn -0.4957 0.8624 -0.1028
vn -0.3592 0.7516 0.5532
vn -0.1454 0.4059 0.9023
vn 0.0258 0.0245 0.9994
vn -0.0183 0.2463 0.9690
vn 0.0912 -0.3722 0.9237
vn 0.1643 -0.6324 0.7570
vn 0.0700 -0.9844 0.1616
vn 0.2117 -0.8622 0.4602
vn -0.0629 -0.9496 -0.3070
vn 0.1756 -0.6210 0.7639
vn 0.1331 -0.6718 0.7286
vn 0.2546 -0.3499 0.9015
vn 0.1887 -0.3358 0.9228
vn 0.3311 0.0374 0.9428
vn 0.1362 0.0789 0.9875
vn 0.1394 -0.6251 0.7680
vn 0.3156 -0.3846 0.8674
vn 0.4932 -0.0405 0.8690
vn 0.1070 -0.8821 0.4587
vn 0.1109 0.3710 0.9220
vn 0.3440 0.4866 0.8031
vn 0.5753 0.3552 0.7368
vn -0.0582 -0.8395 0.5402
vn -0.0119 -0.8906 0.4547
vn -0.5473 -0.7050 -0.4511
vn -0.4939 -0.8588 -0.1359
vn -0.2814 -0.9391 -0.1974
vn -0.3766 -0.7689 -0.5167
vn -0.0653 -0.9485 -0.3100
vn -0.2046 -0.7509 -0.6279
vn -0.3463 -0.9208 0.1794
vn -0.1543 -0.9787 0.1356
vn 0.0173 -0.9991 0.0387
vn -0.1551 0.9878 -0.0157
vn -0.0966 0.9235 0.3712
vn 0.1982 0.9562 0.2155
vn 0.1050 0.9902 -0.0923
vn 0.5415 0.8384 0.0619
vn 0.3476 0.8747 -0.3379
vn 0.0161 0.6774 0.7355
vn 0.2828 0.8115 0.5114
vn 0.6030 0.6473 0.4663
vt 0.100677 0.875644
vt 0.104841 0.875644
vt 0.104841 0.879808
vt 0.100677 0.879808
vt 0.109006 0.875644
vt 0.109006 0.879808
vt 0.104841 0.883973
vt 0.100677 0.883973
vt 0.109006 0.883973
vt 0.096512 0.871479
vt 0.100677 0.871479
vt 0.096512 0.875644
vt 0.104841 0.871479
vt 0.109006 0.871479
vt 0.113170 0.871479
vt 0.113170 0.875644
vt 0.113170 0.879808
vt 0.113170 0.883973
vt 0.113170 0.888138
vt 0.109006 0.888138
vt 0.104841 0.888138
vt 0.100677 0.888138
vt 0.096512 0.883973
vt 0.096512 0.888138
vt 0.096512 0.879808
vt 0.100677 0.892302
vt 0.104841 0.892302
vt 0.104841 0.896467
vt 0.100677 0.896467
vt 0.109006 0.892302
vt 0.109006 0.896467
vt 0.104841 0.900631
vt 0.100677 0.900631
vt 0.109006 0.900631
vt 0.096512 0.892302
vt 0.113170 0.892302
vt 0.113170 0.896467
vt 0.113170 0.900631
vt 0.113170 0.904796
vt 0.109006 0.904796
vt 0.104841 0.904796
vt 0.100677 0.904796
vt 0.096512 0.900631
vt 0.096512 0.904796
vt 0.096512 0.896467
vt 0.100677 0.908961
vt 0.104841 0.908961
vt 0.104841 0.913125
vt 0.100677 0.913125
vt 0.109006 0.908961
vt 0.109006 0.913125
vt 0.104841 0.917290
vt 0.100677 0.917290
vt 0.109006 0.917290
vt 0.096512 0.908961
vt 0.113170 0.908961
vt 0.113170 0.913125
vt 0.113170 0.917290
vt 0.113170 0.921454
vt 0.109006 0.921454
vt 0.104841 0.921454
vt 0.100677 0.921454
vt 0.096512 0.917290
vt 0.096512 0.921454
vt 0.096512 0.913125
vt 0.100677 0.925619
vt 0.104841 0.925619
vt 0.104841 0.929783
vt 0.100677 0.929783
vt 0.109006 0.925619
vt 0.109006 0.929783
vt 0.104841 0.933948
vt 0.100677 0.933948
vt 0.109006 0.933948
vt 0.096512 0.925619
vt 0.113170 0.925619
vt 0.113170 0.929783
vt 0.113170 0.933948
vt 0.113170 0.938113
vt 0.109006 0.938113
vt 0.104841 0.938113
vt 0.100677 0.938113
vt 0.096512 0.933948
vt 0.096512 0.938113
vt 0.096512 0.929783
vt 0.084018 0.908961
vt 0.088183 0.908961
vt 0.088183 0.913125
vt 0.084018 0.913125
vt 0.092347 0.908961
vt 0.092347 0.913125
vt 0.088183 0.917290
vt 0.084018 0.917290
vt 0.092347 0.917290
vt 0.079853 0.904796
vt 0.084018 0.904796
vt 0.079853 0.908961
vt 0.088183 0.904796
vt 0.092347 0.904796
vt 0.092347 0.921454
vt 0.088183 0.921454
vt 0.084018 0.921454
vt 0.079853 0.917290
vt 0.079853 0.921454
vt 0.079853 0.913125
vt 0.117335 0.908961
vt 0.121500 0.908961
vt 0.121500 0.913125
vt 0.117335 0.913125
vt 0.125664 0.908961
vt 0.125664 0.913125
vt 0.121500 0.917290
vt 0.117335 0.917290
vt 0.125664 0.917290
vt 0.117335 0.904796
vt 0.121500 0.904796
vt 0.125664 0.904796
vt 0.129828 0.904796
vt 0.129828 0.908961
vt 0.129828 0.913125
vt 0.129828 0.917290
vt 0.129828 0.921454
vt 0.125664 0.921454
vt 0.121500 0.921454
vt 0.117335 0.921454
s 1
usemtl æè´¨.013
f 45/1/1 46/2/2 49/3/3 48/4/4
f 46/2/2 47/5/5 50/6/6 49/3/3
f 48/4/4 49/3/3 52/7/7 51/8/8
f 49/3/3 50/6/6 53/9/9 52/7/7
f 1/10/10 12/11/11 45/1/1 11/12/12
f 12/11/11 13/13/13 46/2/2 45/1/1
f 13/13/13 14/14/14 47/5/5 46/2/2
f 14/14/14 2/15/15 15/16/16 47/5/5
f 47/5/5 15/16/16 16/17/17 50/6/6
f 50/6/6 16/17/17 17/18/18 53/9/9
f 53/9/9 17/18/18 4/19/19 18/20/20
f 52/7/7 53/9/9 18/20/20 19/21/21
f 51/8/8 52/7/7 19/21/21 20/22/22
f 9/23/23 51/8/8 20/22/22 3/24/24
f 10/25/25 48/4/4 51/8/8 9/23/23
f 11/12/12 45/1/1 48/4/4 10/25/25
f 54/26/26 55/27/27 58/28/28 57/29/29
f 55/27/27 56/30/30 59/31/31 58/28/28
f 57/29/29 58/28/28 61/32/32 60/33/33
f 58/28/28 59/31/31 62/34/34 61/32/32
f 3/24/24 20/22/22 54/26/26 23/35/35
f 20/22/22 19/21/21 55/27/27 54/26/26
f 19/21/21 18/20/20 56/30/30 55/27/27
f 18/20/20 4/19/19 24/36/36 56/30/30
f 56/30/30 24/36/36 25/37/37 59/31/31
f 59/31/31 25/37/37 26/38/38 62/34/34
f 62/34/34 26/38/38 8/39/39 27/40/40
f 61/32/32 62/34/34 27/40/40 28/41/41
f 60/33/33 61/32/32 28/41/41 29/42/42
f 21/43/43 60/33/33 29/42/42 7/44/44
f 22/45/45 57/29/29 60/33/33 21/43/43
f 23/35/35 54/26/26 57/29/29 22/45/45
f 63/46/46 64/47/47 67/48/48 66/49/49
f 64/47/47 65/50/50 68/51/51 67/48/48
f 66/49/49 67/48/48 70/52/52 69/53/53
f 67/48/48 68/51/51 71/54/54 70/52/52
f 7/44/44 29/42/42 63/46/46 32/55/55
f 29/42/42 28/41/41 64/47/47 63/46/46
f 28/41/41 27/40/40 65/50/50 64/47/47
f 27/40/40 8/39/39 33/56/56 65/50/50
f 65/50/50 33/56/56 34/57/57 68/51/51
f 68/51/51 34/57/57 35/58/58 71/54/54
f 71/54/54 35/58/58 6/59/59 36/60/60
f 70/52/52 71/54/54 36/60/60 37/61/61
f 69/53/53 70/52/52 37/61/61 38/62/62
f 30/63/63 69/53/53 38/62/62 5/64/64
f 31/65/65 66/49/49 69/53/53 30/63/63
f 32/55/55 63/46/46 66/49/49 31/65/65
f 72/66/66 73/67/67 76/68/68 75/69/69
f 73/67/67 74/70/70 77/71/71 76/68/68
f 75/69/69 76/68/68 79/72/72 78/73/73
f 76/68/68 77/71/71 80/74/74 79/72/72
f 5/64/64 38/62/62 72/66/66 41/75/75
f 38/62/62 37/61/61 73/67/67 72/66/66
f 37/61/61 36/60/60 74/70/70 73/67/67
f 36/60/60 6/59/59 42/76/76 74/70/70
f 74/70/70 42/76/76 43/77/77 77/71/71
f 77/71/71 43/77/77 44/78/78 80/74/74
f 80/74/74 44/78/78 2/79/15 14/80/14
f 79/72/72 80/74/74 14/80/14 13/81/13
f 78/73/73 79/72/72 13/81/13 12/82/11
f 39/83/79 78/73/73 12/82/11 1/84/10
f 40/85/80 75/69/69 78/73/73 39/83/79
f 41/75/75 72/66/66 75/69/69 40/85/80
f 81/86/81 82/87/82 85/88/83 84/89/84
f 82/87/82 83/90/85 86/91/86 85/88/83
f 84/89/84 85/88/83 88/92/87 87/93/88
f 85/88/83 86/91/86 89/94/89 88/92/87
f 3/95/24 23/96/35 81/86/81 9/97/23
f 23/96/35 22/98/45 82/87/82 81/86/81
f 22/98/45 21/99/43 83/90/85 82/87/82
f 21/99/43 7/44/44 32/55/55 83/90/85
f 83/90/85 32/55/55 31/65/65 86/91/86
f 86/91/86 31/65/65 30/63/63 89/94/89
f 89/94/89 30/63/63 5/64/64 41/100/75
f 88/92/87 89/94/89 41/100/75 40/101/80
f 87/93/88 88/92/87 40/101/80 39/102/79
f 11/103/12 87/93/88 39/102/79 1/104/10
f 10/105/25 84/89/84 87/93/88 11/103/12
f 9/97/23 81/86/81 84/89/84 10/105/25
f 90/106/90 91/107/91 94/108/92 93/109/93
f 91/107/91 92/110/94 95/111/95 94/108/92
f 93/109/93 94/108/92 97/112/96 96/113/97
f 94/108/92 95/111/95 98/114/98 97/112/96
f 8/39/39 26/115/38 90/106/90 33/56/56
f 26/115/38 25/116/37 91/107/91 90/106/90
f 25/116/37 24/117/36 92/110/94 91/107/91
f 24/117/36 4/118/19 17/119/18 92/110/94
f 92/110/94 17/119/18 16/120/17 95/111/95
f 95/111/95 16/120/17 15/121/16 98/114/98
f 98/114/98 15/121/16 2/122/15 44/123/78
f 97/112/96 98/114/98 44/123/78 43/124/77
f 96/113/97 97/112/96 43/124/77 42/125/76
f 35/58/58 96/113/97 42/125/76 6/59/59
f 34/57/57 93/109/93 96/113/97 35/58/58
f 33/56/56 90/106/90 93/109/93 34/57/57
f 143/1/99 146/4/100 147/3/101 144/2/102
f 144/2/102 147/3/101 148/6/103 145/5/104
f 146/4/100 149/8/105 150/7/106 147/3/101
f 147/3/101 150/7/106 151/9/107 148/6/103
f 99/10/108 109/12/109 143/1/99 110/11/110
f 110/11/110 143/1/99 144/2/102 111/13/111
f 111/13/111 144/2/102 145/5/104 112/14/112
f 112/14/112 145/5/104 113/16/113 100/15/114
f 145/5/104 148/6/103 114/17/115 113/16/113
f 148/6/103 151/9/107 115/18/116 114/17/115
f 151/9/107 116/20/117 102/19/118 115/18/116
f 150/7/106 117/21/119 116/20/117 151/9/107
f 149/8/105 118/22/120 117/21/119 150/7/106
f 107/23/121 101/24/122 118/22/120 149/8/105
f 108/25/123 107/23/121 149/8/105 146/4/100
f 109/12/109 108/25/123 146/4/100 143/1/99
f 152/26/124 155/29/125 156/28/126 153/27/127
f 153/27/127 156/28/126 157/31/128 154/30/129
f 155/29/125 158/33/130 159/32/131 156/28/126
f 156/28/126 159/32/131 160/34/132 157/31/128
f 101/24/122 121/35/133 152/26/124 118/22/120
f 118/22/120 152/26/124 153/27/127 117/21/119
f 117/21/119 153/27/127 154/30/129 116/20/117
f 116/20/117 154/30/129 122/36/134 102/19/118
f 154/30/129 157/31/128 123/37/135 122/36/134
f 157/31/128 160/34/132 124/38/136 123/37/135
f 160/34/132 125/40/137 106/39/138 124/38/136
f 159/32/131 126/41/139 125/40/137 160/34/132
f 158/33/130 127/42/140 126/41/139 159/32/131
f 119/43/141 105/44/142 127/42/140 158/33/130
f 120/45/143 119/43/141 158/33/130 155/29/125
f 121/35/133 120/45/143 155/29/125 152/26/124
f 161/46/144 164/49/145 165/48/146 162/47/147
f 162/47/147 165/48/146 166/51/148 163/50/149
f 164/49/145 167/53/150 168/52/151 165/48/146
f 165/48/146 168/52/151 169/54/152 166/51/148
f 105/44/142 130/55/153 161/46/144 127/42/140
f 127/42/140 161/46/144 162/47/147 126/41/139
f 126/41/139 162/47/147 163/50/149 125/40/137
f 125/40/137 163/50/149 131/56/154 106/39/138
f 163/50/149 166/51/148 132/57/155 131/56/154
f 166/51/148 169/54/152 133/58/156 132/57/155
f 169/54/152 134/60/157 104/59/158 133/58/156
f 168/52/151 135/61/159 134/60/157 169/54/152
f 167/53/150 136/62/160 135/61/159 168/52/151
f 128/63/161 103/64/162 136/62/160 167/53/150
f 129/65/163 128/63/161 167/53/150 164/49/145
f 130/55/153 129/65/163 164/49/145 161/46/144
f 170/66/164 173/69/165 174/68/166 171/67/167
f 171/67/167 174/68/166 175/71/168 172/70/169
f 173/69/165 176/73/170 177/72/171 174/68/166
f 174/68/166 177/72/171 178/74/172 175/71/168
f 103/64/162 139/75/173 170/66/164 136/62/160
f 136/62/160 170/66/164 171/67/167 135/61/159
f 135/61/159 171/67/167 172/70/169 134/60/157
f 134/60/157 172/70/169 140/76/174 104/59/158
f 172/70/169 175/71/168 141/77/175 140/76/174
f 175/71/168 178/74/172 142/78/176 141/77/175
f 178/74/172 112/80/112 100/79/114 142/78/176
f 177/72/171 111/81/111 112/80/112 178/74/172
f 176/73/170 110/82/110 111/81/111 177/72/171
f 137/83/177 99/84/108 110/82/110 176/73/170
f 138/85/178 137/83/177 176/73/170 173/69/165
f 139/75/173 138/85/178 173/69/165 170/66/164
f 179/86/179 182/89/180 183/88/181 180/87/182
f 180/87/182 183/88/181 184/91/183 181/90/184
f 182/89/180 185/93/185 186/92/186 183/88/181
f 183/88/181 186/92/186 187/94/187 184/91/183
f 101/95/122 107/97/121 179/86/179 121/96/133
f 121/96/133 179/86/179 180/87/182 120/98/143
f 120/98/143 180/87/182 181/90/184 119/99/141
f 119/99/141 181/90/184 130/55/153 105/44/142
f 181/90/184 184/91/183 129/65/163 130/55/153
f 184/91/183 187/94/187 128/63/161 129/65/163
f 187/94/187 139/100/173 103/64/162 128/63/161
f 186/92/186 138/101/178 139/100/173 187/94/187
f 185/93/185 137/102/177 138/101/178 186/92/186
f 109/103/109 99/104/108 137/102/177 185/93/185
f 108/105/123 109/103/109 185/93/185 182/89/180
f 107/97/121 108/105/123 182/89/180 179/86/179
f 188/106/188 191/109/189 192/108/190 189/107/191
f 189/107/191 192/108/190 193/111/192 190/110/193
f 191/109/189 194/113/194 195/112/195 192/108/190
f 192/108/190 195/112/195 196/114/196 193/111/192
f 106/39/138 131/56/154 188/106/188 124/115/136
f 124/115/136 188/106/188 189/107/191 123/116/135
f 123/116/135 189/107/191 190/110/193 122/117/134
f 122/117/134 190/110/193 115/119/116 102/118/118
f 190/110/193 193/111/192 114/120/115 115/119/116
f 193/111/192 196/114/196 113/121/113 114/120/115
f 196/114/196 142/123/176 100/122/114 113/121/113
f 195/112/195 141/124/175 142/123/176 196/114/196
f 194/113/194 140/125/174 141/124/175 195/112/195
f 133/58/156 104/59/158 140/125/174 194/113/194
f 132/57/155 133/58/156 194/113/194 191/109/189
f 131/56/154 132/57/155 191/109/189 188/106/188
