# Blender 4.0.2
# www.blender.org
mtllib Eyes.mtl
o Chef_Beaver_grey
v -0.166651 0.941235 0.322275
v -0.183738 0.947773 0.317412
v -0.167907 0.947318 0.323873
v -0.183958 0.941786 0.315188
v -0.162750 0.936353 0.312297
v -0.197940 0.952938 0.309188
v -0.180057 0.936904 0.305209
v -0.199336 0.947535 0.306213
v -0.209110 0.962418 0.299954
v -0.195435 0.942652 0.296235
v -0.211279 0.957919 0.296229
v -0.216044 0.975346 0.290627
v -0.207379 0.953036 0.286251
v -0.218620 0.971921 0.286214
v -0.217966 0.990437 0.282168
v -0.214719 0.967039 0.276235
v -0.220638 0.988172 0.277147
v -0.214654 1.006151 0.275450
v -0.216737 0.983290 0.267168
v -0.217137 1.005080 0.269915
v -0.206472 1.020879 0.271152
v -0.213236 1.000198 0.259937
v -0.208459 1.020991 0.265228
v -0.194321 1.033137 0.269675
v -0.204558 1.016109 0.255250
v -0.195453 1.034346 0.263544
v -0.179496 1.041760 0.271107
v -0.191553 1.029464 0.253565
v -0.179394 1.043839 0.265027
v -0.163452 1.046011 0.275249
v -0.175493 1.038957 0.255048
v -0.161852 1.048540 0.269533
v -0.147621 1.045556 0.281710
v -0.157951 1.043658 0.259554
v -0.144545 1.047990 0.276620
v -0.133419 1.040392 0.289934
v -0.140644 1.043107 0.266641
v -0.129167 1.042241 0.285594
v -0.122249 1.030911 0.299168
v -0.125266 1.037358 0.275616
v -0.117223 1.031857 0.295578
v -0.115315 1.017984 0.308495
v -0.113322 1.026975 0.285600
v -0.109883 1.017854 0.305594
v -0.113393 1.002892 0.316954
v -0.105982 1.012972 0.295616
v -0.107865 1.001603 0.314661
v -0.116705 0.987178 0.323672
v -0.103964 0.996721 0.304683
v -0.111366 0.984695 0.321892
v -0.124887 0.972450 0.327971
v -0.107465 0.979813 0.311914
v -0.120044 0.968785 0.326580
v -0.137038 0.960192 0.329447
v -0.116143 0.963902 0.316601
v -0.133049 0.955429 0.328264
v -0.151863 0.951570 0.328016
v -0.129148 0.950547 0.318285
v -0.149109 0.945937 0.326781
v -0.167907 0.947318 0.323873
v -0.145208 0.941054 0.316802
v -0.166651 0.941235 0.322275
v -0.162750 0.936353 0.312297
v 0.151863 0.951570 0.328016
v 0.167907 0.947318 0.323873
v 0.166651 0.941235 0.322275
v 0.149109 0.945937 0.326781
v 0.137038 0.960192 0.329447
v 0.145208 0.941054 0.316802
v 0.162750 0.936353 0.312297
v 0.129148 0.950547 0.318285
v 0.133049 0.955429 0.328264
v 0.124887 0.972450 0.327971
v 0.116143 0.963902 0.316601
v 0.120044 0.968785 0.326580
v 0.116705 0.987178 0.323672
v 0.107465 0.979813 0.311914
v 0.111366 0.984695 0.321892
v 0.113393 1.002892 0.316954
v 0.103964 0.996721 0.304683
v 0.107865 1.001603 0.314661
v 0.115315 1.017984 0.308495
v 0.105982 1.012972 0.295616
v 0.109883 1.017854 0.305594
v 0.122249 1.030911 0.299168
v 0.113322 1.026975 0.285600
v 0.117223 1.031857 0.295578
v 0.133419 1.040392 0.289934
v 0.125266 1.037358 0.275616
v 0.129167 1.042241 0.285594
v 0.147621 1.045556 0.281710
v 0.140644 1.043107 0.266641
v 0.144545 1.047990 0.276620
v 0.163452 1.046011 0.275249
v 0.157951 1.043658 0.259554
v 0.161852 1.048540 0.269533
v 0.179496 1.041760 0.271107
v 0.175493 1.038957 0.255048
v 0.179394 1.043839 0.265027
v 0.194321 1.033137 0.269675
v 0.191553 1.029464 0.253565
v 0.195453 1.034346 0.263544
v 0.206472 1.020879 0.271152
v 0.204558 1.016109 0.255250
v 0.208459 1.020991 0.265228
v 0.214654 1.006151 0.275450
v 0.213236 1.000198 0.259937
v 0.217137 1.005080 0.269915
v 0.217966 0.990437 0.282168
v 0.216737 0.983290 0.267168
v 0.220638 0.988172 0.277147
v 0.216044 0.975346 0.290627
v 0.214719 0.967039 0.276235
v 0.218620 0.971921 0.286214
v 0.209110 0.962418 0.299954
v 0.207379 0.953036 0.286251
v 0.211279 0.957919 0.296229
v 0.197940 0.952938 0.309188
v 0.195435 0.942652 0.296235
v 0.199336 0.947535 0.306213
v 0.183738 0.947773 0.317412
v 0.180057 0.936904 0.305209
v 0.183958 0.941786 0.315188
v 0.167907 0.947318 0.323873
v 0.162750 0.936353 0.312297
v 0.166651 0.941235 0.322275
v -0.214654 1.006151 0.275450
v -0.206472 1.020879 0.271152
v -0.165679 0.996665 0.299561
v -0.217966 0.990437 0.282168
v -0.194321 1.033137 0.269675
v -0.216044 0.975346 0.290627
v -0.179496 1.041760 0.271107
v -0.209110 0.962418 0.299954
v -0.163452 1.046011 0.275249
v -0.197940 0.952938 0.309188
v -0.147621 1.045556 0.281710
v -0.183738 0.947773 0.317412
v -0.133419 1.040392 0.289934
v -0.167907 0.947318 0.323873
v -0.122249 1.030911 0.299168
v -0.151863 0.951570 0.328016
v -0.115315 1.017984 0.308495
v -0.137038 0.960192 0.329447
v -0.113393 1.002892 0.316954
v -0.124887 0.972450 0.327971
v -0.116705 0.987178 0.323672
v 0.214654 1.006151 0.275450
v 0.165679 0.996665 0.299561
v 0.206472 1.020879 0.271152
v 0.217966 0.990437 0.282168
v 0.194321 1.033137 0.269675
v 0.216044 0.975346 0.290627
v 0.179496 1.041760 0.271107
v 0.209110 0.962418 0.299954
v 0.163452 1.046011 0.275249
v 0.197940 0.952938 0.309188
v 0.147621 1.045556 0.281710
v 0.183738 0.947773 0.317412
v 0.133419 1.040392 0.289934
v 0.167907 0.947318 0.323873
v 0.122249 1.030911 0.299168
v 0.151863 0.951570 0.328016
v 0.115315 1.017984 0.308495
v 0.137038 0.960192 0.329447
v 0.113393 1.002892 0.316954
v 0.124887 0.972450 0.327971
v 0.116705 0.987178 0.323672
vn -0.3225 0.0710 0.9439
vn -0.4279 0.0730 0.9009
vn -0.1666 -0.6563 0.7359
vn -0.4279 0.0730 0.9008
vn -0.4320 -0.6487 0.6265
vn -0.1666 -0.6564 0.7358
vn -0.0349 -0.9030 0.4282
vn -0.5236 0.1048 0.8455
vn -0.4320 -0.6487 0.6266
vn -0.3247 -0.8935 0.3103
vn -0.6683 -0.5624 0.4869
vn -0.3246 -0.8935 0.3103
vn -0.6007 0.1654 0.7822
vn -0.5826 -0.7964 0.1619
vn -0.6007 0.1653 0.7822
vn -0.8525 -0.4048 0.3307
vn -0.6496 0.2514 0.7175
vn -0.8525 -0.4048 0.3308
vn -0.7835 -0.6214 -0.0022
vn -0.9662 -0.1896 0.1747
vn -0.8525 -0.4047 0.3307
vn -0.9662 -0.1896 0.1748
vn -0.6625 0.3546 0.6598
vn -0.9076 -0.3856 -0.1661
vn -0.7835 -0.6214 -0.0023
vn -0.6625 0.3546 0.6599
vn -0.9974 0.0626 0.0366
vn -0.9076 -0.3856 -0.1662
vn -0.6369 0.4619 0.6172
vn -0.9429 -0.1120 -0.3138
vn -0.9429 0.3260 -0.0684
vn -0.6369 0.4620 0.6172
vn -0.9429 0.3259 -0.0684
vn -0.9429 -0.1121 -0.3138
vn -0.5780 0.5597 0.5939
vn -0.8859 0.1724 -0.4306
vn -0.9429 -0.1121 -0.3137
vn -0.8093 0.5727 -0.1308
vn -0.8859 0.1724 -0.4307
vn -0.5780 0.5596 0.5939
vn -0.4953 0.6377 0.5900
vn -0.7423 0.4400 -0.5054
vn -0.4952 0.6377 0.5900
vn -0.6109 0.7779 -0.1469
vn -0.8092 0.5727 -0.1308
vn -0.6110 0.7779 -0.1469
vn -0.7423 0.4399 -0.5054
vn -0.3984 0.6909 0.6033
vn -0.5260 0.6645 -0.5308
vn -0.3983 0.6910 0.6033
vn -0.3678 0.9224 -0.1177
vn -0.3984 0.6909 0.6032
vn -0.2954 0.7172 0.6312
vn -0.3678 0.9224 -0.1178
vn -0.2583 0.8241 -0.5042
vn -0.1026 0.9936 -0.0472
vn -0.1026 0.9936 -0.0473
vn -0.2582 0.8241 -0.5042
vn -0.2954 0.7172 0.6311
vn -0.1932 0.7154 0.6715
vn 0.0349 0.9030 -0.4282
vn -0.1931 0.7154 0.6715
vn 0.1605 0.9853 0.0580
vn -0.0987 0.6849 0.7219
vn 0.3247 0.8935 -0.3103
vn 0.3976 0.8979 0.1886
vn 0.1605 0.9853 0.0579
vn 0.3976 0.8980 0.1886
vn -0.0200 0.6260 0.7796
vn 0.5826 0.7964 -0.1619
vn 0.5859 0.7386 0.3334
vn 0.5826 0.7965 -0.1619
vn -0.0200 0.6260 0.7795
vn 0.0327 0.5416 0.8400
vn 0.7835 0.6214 0.0022
vn 0.7052 0.5218 0.4800
vn 0.7052 0.5219 0.4800
vn 0.0328 0.5416 0.8400
vn 0.0501 0.4393 0.8970
vn 0.9076 0.3856 0.1661
vn 0.7410 0.2693 0.6151
vn 0.7410 0.2692 0.6151
vn 0.9076 0.3855 0.1662
vn 0.0501 0.4392 0.8970
vn 0.0277 0.3319 0.9429
vn 0.9429 0.1121 0.3137
vn 0.9076 0.3855 0.1661
vn 0.6884 0.0071 0.7253
vn 0.7411 0.2692 0.6151
vn 0.9429 0.1120 0.3138
vn 0.0278 0.3319 0.9429
vn -0.0304 0.2332 0.9719
vn 0.8859 -0.1724 0.4306
vn -0.0304 0.2332 0.9720
vn 0.5532 -0.2376 0.7985
vn 0.5532 -0.2375 0.7985
vn -0.1150 0.1534 0.9815
vn 0.7423 -0.4400 0.5054
vn 0.3509 -0.4411 0.8260
vn -0.2154 0.0983 0.9716
vn 0.5260 -0.6645 0.5308
vn 0.7423 -0.4399 0.5054
vn 0.1028 -0.5850 0.8045
vn 0.1029 -0.5850 0.8045
vn 0.5261 -0.6645 0.5308
vn 0.2583 -0.8241 0.5042
vn -0.3224 0.0710 0.9439
vn -0.1666 -0.6563 0.7358
vn 0.2582 -0.8241 0.5042
vn 0.1666 -0.6564 0.7358
vn 0.3224 0.0710 0.9439
vn 0.2154 0.0983 0.9716
vn -0.1029 -0.5850 0.8045
vn 0.2154 0.0984 0.9716
vn 0.1150 0.1534 0.9815
vn 0.1666 -0.6563 0.7358
vn -0.2582 -0.8241 0.5042
vn 0.0349 -0.9030 0.4282
vn 0.1666 -0.6563 0.7359
vn -0.2583 -0.8241 0.5042
vn -0.1028 -0.5850 0.8045
vn -0.5260 -0.6645 0.5308
vn -0.3509 -0.4411 0.8260
vn -0.5261 -0.6645 0.5308
vn 0.1150 0.1534 0.9814
vn 0.0304 0.2332 0.9720
vn -0.7423 -0.4399 0.5054
vn -0.5532 -0.2375 0.7985
vn -0.5532 -0.2376 0.7985
vn -0.0277 0.3319 0.9429
vn -0.7423 -0.4400 0.5054
vn -0.8859 -0.1724 0.4306
vn -0.6884 0.0071 0.7253
vn -0.0278 0.3319 0.9429
vn -0.8859 -0.1724 0.4307
vn -0.0501 0.4393 0.8970
vn -0.9429 0.1120 0.3138
vn -0.7411 0.2693 0.6151
vn -0.7410 0.2692 0.6151
vn -0.0327 0.5415 0.8400
vn -0.9429 0.1121 0.3137
vn -0.9076 0.3855 0.1661
vn -0.7052 0.5219 0.4800
vn -0.7411 0.2692 0.6151
vn -0.7052 0.5218 0.4800
vn -0.9076 0.3855 0.1662
vn -0.0328 0.5415 0.8400
vn 0.0200 0.6260 0.7796
vn -0.9076 0.3856 0.1661
vn -0.7835 0.6214 0.0022
vn -0.5859 0.7386 0.3334
vn 0.0986 0.6849 0.7220
vn -0.5826 0.7964 -0.1619
vn -0.3976 0.8980 0.1886
vn -0.5859 0.7387 0.3334
vn 0.0986 0.6849 0.7219
vn -0.5826 0.7965 -0.1619
vn 0.1932 0.7154 0.6715
vn -0.5827 0.7964 -0.1619
vn -0.3246 0.8935 -0.3103
vn -0.1605 0.9853 0.0580
vn -0.3247 0.8935 -0.3103
vn 0.2953 0.7172 0.6312
vn -0.0349 0.9030 -0.4282
vn 0.1026 0.9936 -0.0473
vn 0.2954 0.7172 0.6311
vn 0.1026 0.9936 -0.0472
vn 0.2954 0.7172 0.6312
vn 0.3983 0.6910 0.6032
vn 0.2582 0.8241 -0.5042
vn 0.3678 0.9224 -0.1178
vn 0.3983 0.6909 0.6033
vn 0.4952 0.6377 0.5900
vn 0.2583 0.8241 -0.5042
vn 0.3678 0.9224 -0.1177
vn 0.5260 0.6645 -0.5308
vn 0.6109 0.7779 -0.1469
vn 0.6110 0.7779 -0.1469
vn 0.5780 0.5596 0.5939
vn 0.7423 0.4399 -0.5054
vn 0.8092 0.5727 -0.1308
vn 0.6109 0.7780 -0.1469
vn 0.8093 0.5727 -0.1308
vn 0.6369 0.4620 0.6172
vn 0.7423 0.4400 -0.5054
vn 0.8859 0.1724 -0.4307
vn 0.9429 0.3260 -0.0684
vn 0.6369 0.4619 0.6172
vn 0.9429 0.3259 -0.0684
vn 0.8859 0.1724 -0.4306
vn 0.6625 0.3546 0.6598
vn 0.9429 -0.1121 -0.3137
vn 0.9974 0.0626 0.0366
vn 0.9429 -0.1121 -0.3138
vn 0.9974 0.0627 0.0366
vn 0.6496 0.2514 0.7175
vn 0.9429 -0.1120 -0.3138
vn 0.9076 -0.3856 -0.1662
vn 0.9662 -0.1895 0.1747
vn 0.9662 -0.1896 0.1747
vn 0.6007 0.1654 0.7822
vn 0.9076 -0.3856 -0.1661
vn 0.7835 -0.6214 -0.0023
vn 0.8525 -0.4048 0.3307
vn 0.9662 -0.1896 0.1748
vn 0.8525 -0.4047 0.3307
vn 0.7835 -0.6214 -0.0022
vn 0.5236 0.1048 0.8455
vn 0.8525 -0.4048 0.3308
vn 0.5826 -0.7964 0.1619
vn 0.6683 -0.5624 0.4869
vn 0.4279 0.0730 0.9009
vn 0.3247 -0.8935 0.3102
vn 0.4320 -0.6487 0.6266
vn 0.4280 0.0730 0.9008
vn 0.4320 -0.6487 0.6265
vn 0.3247 -0.8935 0.3103
vn 0.3225 0.0710 0.9439
vn -0.3307 0.4291 0.8406
vn -0.3307 0.4290 0.8406
vn -0.3983 0.6909 0.6033
vn -0.4951 0.6378 0.5900
vn -0.6007 0.1654 0.7821
vn -0.2953 0.7172 0.6312
vn -0.4280 0.0730 0.9008
vn -0.3307 0.4291 0.8405
vn -0.0986 0.6849 0.7219
vn -0.1933 0.7154 0.6714
vn -0.0986 0.6849 0.7220
vn -0.0200 0.6261 0.7795
vn 0.0328 0.5414 0.8401
vn 0.3307 0.4291 0.8406
vn 0.6369 0.4621 0.6171
vn 0.4951 0.6378 0.5900
vn 0.6625 0.3547 0.6598
vn 0.3984 0.6909 0.6033
vn 0.3307 0.4290 0.8406
vn 0.6007 0.1654 0.7821
vn 0.1933 0.7154 0.6714
vn 0.4279 0.0730 0.9008
vn 0.0987 0.6850 0.7219
vn 0.3307 0.4291 0.8405
vn 0.0200 0.6261 0.7795
vn 0.0987 0.6849 0.7219
vn 0.2153 0.0983 0.9716
vn -0.0328 0.5415 0.8401
vn 0.0200 0.6260 0.7795
vn 0.2155 0.0983 0.9716
vn 0.1149 0.1534 0.9815
vn -0.0501 0.4393 0.8969
vn 0.1148 0.1535 0.9815
vn 0.0304 0.2332 0.9719
vt 0.503906 0.004807
vt 0.496338 0.004807
vt 0.504394 0.007744
vt 0.496338 0.007744
vt 0.504394 0.015778
vt 0.488037 0.004803
vt 0.496338 0.015778
vt 0.488037 0.007744
vt 0.479492 0.004803
vt 0.488037 0.015778
vt 0.479492 0.007744
vt 0.470215 0.004803
vt 0.479492 0.015778
vt 0.470215 0.007744
vt 0.460693 0.004803
vt 0.470215 0.015778
vt 0.460693 0.007744
vt 0.451172 0.004803
vt 0.460693 0.015778
vt 0.451172 0.007744
vt 0.442139 0.004803
vt 0.451172 0.015778
vt 0.442139 0.007744
vt 0.433350 0.004803
vt 0.442139 0.015778
vt 0.433350 0.007744
vt 0.425049 0.004803
vt 0.433350 0.015778
vt 0.425049 0.007744
vt 0.416992 0.004803
vt 0.425049 0.015778
vt 0.416992 0.007744
vt 0.409180 0.004803
vt 0.416992 0.015778
vt 0.409180 0.007744
vt 0.400879 0.004803
vt 0.409180 0.015778
vt 0.400879 0.007744
vt 0.392090 0.004803
vt 0.400879 0.015778
vt 0.392090 0.007744
vt 0.382812 0.004803
vt 0.392090 0.015778
vt 0.382812 0.007744
vt 0.373291 0.004803
vt 0.382812 0.015778
vt 0.373291 0.007744
vt 0.363770 0.004803
vt 0.373291 0.015778
vt 0.363770 0.007744
vt 0.354736 0.004803
vt 0.363770 0.015778
vt 0.354736 0.007744
vt 0.345947 0.004803
vt 0.354736 0.015778
vt 0.345947 0.007744
vt 0.337647 0.004807
vt 0.345947 0.015778
vt 0.337647 0.007744
vt 0.330078 0.004803
vt 0.337647 0.015778
vt 0.329590 0.007744
vt 0.329590 0.015778
vt 0.565918 0.546875
vt 0.544922 0.532715
vt 0.542481 0.541016
vt 0.542481 0.550293
vt 0.549316 0.525879
vt 0.544922 0.559082
vt 0.555176 0.520996
vt 0.549316 0.566406
vt 0.562500 0.519043
vt 0.555664 0.571777
vt 0.569336 0.519043
vt 0.562500 0.575195
vt 0.576660 0.522461
vt 0.569824 0.575195
vt 0.582519 0.527832
vt 0.576660 0.573242
vt 0.586914 0.535156
vt 0.582519 0.568359
vt 0.589356 0.543945
vt 0.586914 0.561523
vt 0.589356 0.553223
s 0
usemtl æè´¨
f 3/1/1 2/2/2 1/3/3
f 2/2/4 4/4/5 1/3/6
f 1/3/6 4/4/5 5/5/7
f 2/2/2 6/6/8 4/4/5
f 4/4/9 7/7/10 5/5/7
f 6/6/8 8/8/11 4/4/9
f 4/4/9 8/8/11 7/7/12
f 6/6/8 9/9/13 8/8/11
f 8/8/11 10/10/14 7/7/10
f 9/9/15 11/11/16 8/8/11
f 8/8/11 11/11/16 10/10/14
f 9/9/13 12/12/17 11/11/16
f 11/11/18 13/13/19 10/10/14
f 12/12/17 14/14/20 11/11/21
f 11/11/21 14/14/22 13/13/19
f 12/12/17 15/15/23 14/14/20
f 14/14/20 16/16/24 13/13/25
f 15/15/26 17/17/27 14/14/20
f 14/14/20 17/17/27 16/16/28
f 17/17/27 15/15/23 18/18/29
f 17/17/27 19/19/30 16/16/28
f 20/20/31 17/17/27 18/18/32
f 17/17/27 20/20/33 19/19/34
f 18/18/32 21/21/35 20/20/33
f 20/20/33 22/22/36 19/19/37
f 21/21/35 23/23/38 20/20/33
f 20/20/33 23/23/38 22/22/39
f 21/21/40 24/24/41 23/23/38
f 23/23/38 25/25/42 22/22/39
f 24/24/43 26/26/44 23/23/38
f 23/23/45 26/26/46 25/25/47
f 24/24/43 27/27/48 26/26/44
f 26/26/44 28/28/49 25/25/47
f 27/27/50 29/29/51 26/26/44
f 26/26/44 29/29/51 28/28/49
f 27/27/52 30/30/53 29/29/54
f 29/29/51 31/31/55 28/28/49
f 30/30/53 32/32/56 29/29/54
f 29/29/54 32/32/57 31/31/58
f 30/30/59 33/33/60 32/32/56
f 32/32/57 34/34/61 31/31/58
f 33/33/62 35/35/63 32/32/56
f 32/32/57 35/35/63 34/34/61
f 33/33/60 36/36/64 35/35/63
f 35/35/63 37/37/65 34/34/61
f 36/36/64 38/38/66 35/35/67
f 35/35/63 38/38/68 37/37/65
f 36/36/64 39/39/69 38/38/66
f 38/38/68 40/40/70 37/37/65
f 39/39/69 41/41/71 38/38/68
f 38/38/68 41/41/71 40/40/72
f 39/39/73 42/42/74 41/41/71
f 41/41/71 43/43/75 40/40/70
f 42/42/74 44/44/76 41/41/71
f 41/41/71 44/44/77 43/43/75
f 42/42/78 45/45/79 44/44/76
f 44/44/77 46/46/80 43/43/75
f 45/45/79 47/47/81 44/44/77
f 44/44/76 47/47/82 46/46/83
f 45/45/84 48/48/85 47/47/82
f 47/47/82 49/49/86 46/46/87
f 48/48/85 50/50/88 47/47/89
f 47/47/82 50/50/88 49/49/90
f 48/48/91 51/51/92 50/50/88
f 50/50/88 52/52/93 49/49/90
f 51/51/94 53/53/95 50/50/88
f 50/50/88 53/53/96 52/52/93
f 51/51/92 54/54/97 53/53/96
f 53/53/95 55/55/98 52/52/93
f 54/54/97 56/56/99 53/53/95
f 53/53/95 56/56/99 55/55/98
f 54/54/97 57/57/100 56/56/99
f 56/56/99 58/58/101 55/55/102
f 57/57/100 59/59/103 56/56/99
f 56/56/99 59/59/104 58/58/105
f 57/57/100 60/60/1 59/59/104
f 59/59/103 61/61/106 58/58/101
f 60/60/107 62/62/108 59/59/103
f 59/59/104 62/62/108 61/61/109
f 62/62/3 63/63/7 61/61/109
f 66/62/110 65/60/111 64/57/112
f 67/59/113 66/62/110 64/57/114
f 67/59/113 64/57/112 68/54/115
f 66/62/116 67/59/113 69/61/117
f 70/63/118 66/62/119 69/61/117
f 69/61/120 67/59/121 71/58/122
f 72/56/123 67/59/113 68/54/115
f 67/59/113 72/56/123 71/58/124
f 72/56/123 68/54/125 73/51/126
f 71/58/122 72/56/123 74/55/127
f 75/53/128 72/56/123 73/51/126
f 72/56/123 75/53/129 74/55/127
f 75/53/129 73/51/126 76/48/130
f 74/55/131 75/53/129 77/52/132
f 78/50/133 75/53/129 76/48/134
f 75/53/128 78/50/133 77/52/135
f 78/50/133 76/48/130 79/45/136
f 77/52/132 78/50/133 80/49/137
f 81/47/138 78/50/133 79/45/136
f 78/50/133 81/47/139 80/49/137
f 81/47/139 79/45/136 82/42/140
f 80/49/141 81/47/139 83/46/142
f 84/44/143 81/47/144 82/42/140
f 81/47/139 84/44/145 83/46/146
f 84/44/143 82/42/147 85/39/148
f 83/46/149 84/44/143 86/43/150
f 87/41/151 84/44/143 85/39/148
f 84/44/143 87/41/151 86/43/150
f 87/41/151 85/39/148 88/36/152
f 86/43/150 87/41/151 89/40/153
f 90/38/154 87/41/155 88/36/156
f 87/41/151 90/38/154 89/40/157
f 90/38/154 88/36/152 91/33/158
f 89/40/159 90/38/154 92/37/160
f 93/35/161 90/38/154 91/33/158
f 90/38/154 93/35/161 92/37/162
f 93/35/161 91/33/158 94/30/163
f 92/37/162 93/35/161 95/34/164
f 96/32/165 93/35/161 94/30/166
f 93/35/161 96/32/167 95/34/164
f 96/32/165 94/30/168 97/27/169
f 95/34/164 96/32/165 98/31/170
f 99/29/171 96/32/165 97/27/172
f 96/32/165 99/29/171 98/31/170
f 99/29/171 97/27/169 100/24/173
f 98/31/174 99/29/175 101/28/176
f 102/26/177 99/29/171 100/24/173
f 99/29/175 102/26/177 101/28/176
f 102/26/178 100/24/173 103/21/179
f 101/28/176 102/26/177 104/25/180
f 105/23/181 102/26/177 103/21/179
f 102/26/182 105/23/181 104/25/180
f 105/23/183 103/21/179 106/18/184
f 104/25/185 105/23/183 107/22/186
f 108/20/187 105/23/183 106/18/188
f 105/23/183 108/20/189 107/22/190
f 106/18/188 109/15/191 108/20/189
f 107/22/190 108/20/189 110/19/192
f 109/15/191 111/17/193 108/20/189
f 108/20/189 111/17/193 110/19/194
f 111/17/195 109/15/191 112/12/196
f 110/19/197 111/17/193 113/16/198
f 114/14/199 111/17/193 112/12/196
f 111/17/193 114/14/200 113/16/198
f 114/14/200 112/12/196 115/9/201
f 113/16/202 114/14/199 116/13/203
f 117/11/204 114/14/200 115/9/201
f 114/14/205 117/11/206 116/13/207
f 117/11/206 115/9/201 118/6/208
f 116/13/207 117/11/209 119/10/210
f 120/8/211 117/11/206 118/6/208
f 117/11/204 120/8/211 119/10/210
f 120/8/211 118/6/208 121/2/212
f 119/10/210 120/8/211 122/7/213
f 123/4/214 120/8/211 121/2/215
f 120/8/211 123/4/216 122/7/217
f 123/4/216 121/2/212 124/1/111
f 122/7/217 123/4/214 125/5/118
f 126/3/116 123/4/214 124/1/218
f 123/4/216 126/3/110 125/5/118
f 129/64/219 128/65/40 127/66/32
f 129/64/219 127/66/32 130/67/23
f 129/64/219 131/68/43 128/65/35
f 129/64/219 130/67/23 132/69/17
f 129/64/220 133/70/221 131/68/222
f 129/64/219 132/69/17 134/71/223
f 129/64/219 135/72/59 133/70/50
f 129/64/219 134/71/13 136/73/8
f 129/64/219 137/74/60 135/72/224
f 129/64/219 136/73/8 138/75/225
f 129/64/226 139/76/227 137/74/228
f 129/64/219 138/75/4 140/77/1
f 129/64/219 141/78/73 139/76/229
f 129/64/219 140/77/107 142/79/100
f 129/64/219 143/80/78 141/78/230
f 129/64/219 142/79/100 144/81/97
f 129/64/220 145/82/79 143/80/231
f 129/64/219 144/81/97 146/83/94
f 129/64/219 147/84/91 145/82/79
f 129/64/219 146/83/92 147/84/91
f 150/65/179 149/64/232 148/66/184
f 148/66/233 149/64/232 151/67/191
f 152/68/234 149/64/232 150/65/179
f 151/67/235 149/64/232 153/69/196
f 154/70/236 149/64/237 152/68/173
f 153/69/196 149/64/232 155/71/201
f 156/72/163 149/64/232 154/70/236
f 155/71/238 149/64/232 157/73/208
f 158/74/239 149/64/232 156/72/166
f 157/73/208 149/64/232 159/75/240
f 160/76/241 149/64/242 158/74/158
f 159/75/215 149/64/232 161/77/111
f 162/78/243 149/64/232 160/76/244
f 161/77/218 149/64/232 163/79/245
f 164/80/246 149/64/232 162/78/247
f 163/79/248 149/64/232 165/81/249
f 166/82/250 149/64/237 164/80/147
f 165/81/251 149/64/232 167/83/126
f 168/84/134 149/64/232 166/82/136
f 167/83/252 149/64/232 168/84/134
