# Blender 4.0.2
# www.blender.org
mtllib Eyes.mtl
o Chef_Werewolf_brown
v 0.259745 0.945128 0.303892
v 0.263587 0.948329 0.314554
v 0.256016 0.968421 0.311249
v 0.252175 0.965219 0.300586
v 0.262004 0.923615 0.309537
v 0.243876 0.985124 0.310608
v 0.240034 0.981922 0.299945
v 0.265846 0.926817 0.320199
v 0.258732 0.902787 0.316970
v 0.228354 0.996804 0.312693
v 0.224513 0.993603 0.302031
v 0.262574 0.905989 0.327633
v 0.250247 0.884683 0.325464
v 0.210971 1.002319 0.317301
v 0.207129 0.999117 0.306639
v 0.254089 0.887884 0.336126
v 0.237382 0.871074 0.334186
v 0.193427 1.001127 0.323980
v 0.189585 0.997925 0.313318
v 0.241224 0.874276 0.344848
v 0.221394 0.863293 0.342283
v 0.177439 0.993346 0.332078
v 0.173597 0.990144 0.321415
v 0.225236 0.866494 0.352945
v 0.203850 0.862101 0.348962
v 0.164573 0.979737 0.340800
v 0.160732 0.976535 0.330137
v 0.207692 0.865303 0.359625
v 0.186466 0.867615 0.353570
v 0.156089 0.961632 0.349293
v 0.152247 0.958431 0.338631
v 0.190308 0.870817 0.364232
v 0.170944 0.879296 0.355656
v 0.152817 0.940804 0.356726
v 0.148975 0.937603 0.346064
v 0.174786 0.882497 0.366318
v 0.158804 0.895999 0.355014
v 0.155076 0.919292 0.362372
v 0.151234 0.916090 0.351709
v 0.162646 0.899201 0.365677
v 0.169442 0.978304 0.344237
v 0.161436 0.961219 0.352252
v 0.158332 0.941468 0.359301
v 0.160475 0.921067 0.364655
v 0.210738 0.934982 0.342366
v 0.181468 0.991024 0.336085
v 0.167619 0.902108 0.367774
v 0.178967 0.886495 0.368373
v 0.196230 0.998209 0.328608
v 0.193298 0.875710 0.366448
v 0.212277 0.999299 0.322499
v 0.209199 0.870666 0.362233
v 0.228177 0.994255 0.318284
v 0.225246 0.871756 0.356123
v 0.242509 0.983470 0.316359
v 0.240007 0.878941 0.348647
v 0.253857 0.967857 0.316958
v 0.252033 0.891661 0.340495
v 0.261001 0.948897 0.320077
v 0.260040 0.908746 0.332479
v 0.263143 0.928497 0.325430
v -0.259745 0.945128 0.303892
v -0.252175 0.965219 0.300586
v -0.256016 0.968421 0.311249
v -0.263587 0.948329 0.314554
v -0.262004 0.923615 0.309537
v -0.243876 0.985124 0.310608
v -0.240034 0.981922 0.299945
v -0.265846 0.926817 0.320199
v -0.258732 0.902787 0.316970
v -0.228354 0.996804 0.312693
v -0.224513 0.993603 0.302031
v -0.262574 0.905989 0.327633
v -0.250247 0.884683 0.325464
v -0.210971 1.002319 0.317301
v -0.207129 0.999117 0.306639
v -0.254089 0.887884 0.336126
v -0.237382 0.871074 0.334186
v -0.193427 1.001127 0.323980
v -0.189585 0.997925 0.313318
v -0.241224 0.874276 0.344848
v -0.221394 0.863293 0.342283
v -0.177439 0.993346 0.332078
v -0.173597 0.990144 0.321415
v -0.225236 0.866494 0.352945
v -0.203850 0.862101 0.348962
v -0.164573 0.979737 0.340800
v -0.160732 0.976535 0.330137
v -0.207692 0.865303 0.359625
v -0.186466 0.867615 0.353570
v -0.156089 0.961632 0.349293
v -0.152247 0.958431 0.338631
v -0.190308 0.870817 0.364232
v -0.170944 0.879296 0.355656
v -0.152817 0.940804 0.356726
v -0.148975 0.937603 0.346064
v -0.174786 0.882497 0.366318
v -0.158804 0.895999 0.355014
v -0.155076 0.919292 0.362372
v -0.151234 0.916090 0.351709
v -0.162646 0.899201 0.365677
v -0.169442 0.978304 0.344237
v -0.161436 0.961219 0.352252
v -0.158332 0.941468 0.359301
v -0.160475 0.921067 0.364655
v -0.210738 0.934982 0.342366
v -0.181468 0.991024 0.336085
v -0.167619 0.902108 0.367774
v -0.178967 0.886495 0.368373
v -0.196230 0.998209 0.328608
v -0.193298 0.875710 0.366448
v -0.212277 0.999299 0.322499
v -0.209199 0.870666 0.362233
v -0.228177 0.994255 0.318284
v -0.225246 0.871756 0.356123
v -0.242509 0.983470 0.316359
v -0.240007 0.878941 0.348647
v -0.253857 0.967857 0.316958
v -0.252033 0.891661 0.340495
v -0.261001 0.948897 0.320077
v -0.260040 0.908746 0.332479
v -0.263143 0.928497 0.325430
vn 0.8809 0.4722 -0.0326
vn 0.9725 0.2329 0.0057
vn 0.9177 0.1388 -0.3723
vn 0.8184 0.3982 -0.4144
vn 0.9450 -0.1170 -0.3054
vn 0.7116 0.7014 -0.0395
vn 0.8808 0.4723 -0.0326
vn 0.6348 0.6466 -0.4229
vn 0.7116 0.7015 -0.0395
vn 0.9977 -0.0031 0.0673
vn 0.9450 -0.1169 -0.3054
vn 0.9977 -0.0031 0.0672
vn 0.9056 -0.3644 -0.2169
vn 0.4597 0.8881 -0.0037
vn 0.3614 0.8491 -0.3852
vn 0.9614 -0.2313 0.1491
vn 0.7945 -0.5978 -0.1068
vn 0.1478 0.9858 0.0798
vn 0.4596 0.8881 -0.0037
vn 0.0228 0.9552 -0.2950
vn 0.1478 0.9858 0.0799
vn 0.3614 0.8491 -0.3851
vn 0.8589 -0.4464 0.2512
vn 0.8589 -0.4464 0.2511
vn 0.6002 -0.7995 0.0238
vn -0.1672 0.9657 0.1989
vn 0.0229 0.9552 -0.2951
vn -0.3187 0.9333 -0.1654
vn 0.6797 -0.6319 0.3724
vn 0.3188 -0.9333 0.1654
vn -0.4271 0.8424 0.3285
vn -0.3188 0.9333 -0.1654
vn -0.6002 0.7995 -0.0238
vn 0.4203 -0.7547 0.5038
vn -0.0228 -0.9552 0.2951
vn -0.6069 0.6564 0.4482
vn -0.7945 0.5978 0.1068
vn 0.1057 -0.7746 0.6236
vn -0.0229 -0.9552 0.2951
vn -0.3614 -0.8491 0.3852
vn -0.7098 0.4410 0.5493
vn -0.9056 0.3644 0.2169
vn -0.7097 0.4411 0.5493
vn -0.2065 -0.6771 0.7063
vn -0.6348 -0.6466 0.4229
vn -0.7462 0.2127 0.6308
vn -0.9450 0.1169 0.3054
vn -0.4591 -0.4910 0.7404
vn -0.6348 -0.6467 0.4229
vn -0.8184 -0.3982 0.4144
vn -0.7208 -0.0232 0.6927
vn -0.9177 -0.1388 0.3723
vn -0.6289 -0.2623 0.7319
vn -0.4590 -0.4910 0.7404
vn -0.7209 -0.0232 0.6927
vn 0.0006 0.4782 0.8782
vn -0.0421 0.3898 0.9199
vn -0.0421 0.3899 0.9199
vn 0.0006 0.4782 0.8783
vn -0.0572 0.2959 0.9535
vn -0.0467 0.1988 0.9789
vn 0.3262 0.2719 0.9054
vn -0.0466 0.1988 0.9789
vn 0.3262 0.2718 0.9054
vn 0.0749 0.5541 0.8291
vn -0.0084 0.1006 0.9949
vn 0.0618 0.0070 0.9981
vn 0.1818 0.6039 0.7760
vn 0.1818 0.6040 0.7760
vn -0.4272 0.8424 0.3285
vn 0.1657 -0.0687 0.9838
vn 0.3108 0.6118 0.7274
vn 0.1056 -0.7746 0.6236
vn 0.2936 -0.1082 0.9498
vn 0.1658 -0.0687 0.9838
vn 0.2935 -0.1082 0.9498
vn 0.4204 -0.7547 0.5038
vn 0.4385 0.5722 0.6931
vn 0.4224 -0.1005 0.9008
vn 0.4204 -0.7547 0.5037
vn 0.2936 -0.1083 0.9498
vn 0.5421 0.4963 0.6781
vn 0.4224 -0.1004 0.9008
vn 0.5422 0.4963 0.6781
vn 0.5290 -0.0508 0.8471
vn 0.6121 0.4025 0.6806
vn 0.6122 0.4025 0.6806
vn 0.6031 0.0249 0.7973
vn 0.9614 -0.2314 0.1491
vn 0.6502 0.3042 0.6962
vn 0.8809 0.4723 -0.0326
vn 0.6457 0.1131 0.7552
vn 0.6031 0.0249 0.7972
vn 0.6456 0.1131 0.7552
vn 0.6607 0.2071 0.7215
vn 0.6607 0.2070 0.7215
vn 0.6608 0.2070 0.7215
vn -0.8809 0.4722 -0.0326
vn -0.8184 0.3982 -0.4144
vn -0.9177 0.1388 -0.3723
vn -0.9725 0.2329 0.0057
vn -0.9450 -0.1169 -0.3054
vn -0.8808 0.4723 -0.0326
vn -0.7116 0.7014 -0.0395
vn -0.7116 0.7015 -0.0395
vn -0.6349 0.6466 -0.4229
vn -0.9977 -0.0031 0.0673
vn -0.9977 -0.0031 0.0672
vn -0.9056 -0.3644 -0.2169
vn -0.4597 0.8881 -0.0037
vn -0.6348 0.6466 -0.4229
vn -0.3614 0.8491 -0.3852
vn -0.9614 -0.2313 0.1491
vn -0.9057 -0.3644 -0.2168
vn -0.7945 -0.5978 -0.1068
vn -0.1478 0.9858 0.0798
vn -0.1478 0.9858 0.0799
vn -0.0228 0.9552 -0.2951
vn -0.8589 -0.4464 0.2512
vn -0.6002 -0.7995 0.0238
vn 0.1672 0.9657 0.1989
vn -0.0229 0.9552 -0.2951
vn 0.3187 0.9333 -0.1654
vn -0.6797 -0.6319 0.3724
vn -0.3188 -0.9333 0.1654
vn 0.4271 0.8424 0.3285
vn 0.3188 0.9333 -0.1654
vn 0.6002 0.7995 -0.0238
vn -0.4203 -0.7547 0.5038
vn 0.0228 -0.9552 0.2950
vn 0.6069 0.6564 0.4482
vn 0.7945 0.5978 0.1068
vn -0.1057 -0.7746 0.6236
vn -0.4204 -0.7547 0.5037
vn 0.0229 -0.9552 0.2951
vn 0.3614 -0.8491 0.3852
vn 0.7098 0.4410 0.5493
vn 0.7097 0.4411 0.5493
vn 0.9056 0.3644 0.2169
vn 0.2065 -0.6771 0.7063
vn 0.6348 -0.6466 0.4229
vn 0.7462 0.2127 0.6308
vn 0.9450 0.1170 0.3054
vn 0.4591 -0.4910 0.7404
vn 0.8184 -0.3982 0.4144
vn 0.7208 -0.0232 0.6927
vn 0.9450 0.1169 0.3054
vn 0.9177 -0.1388 0.3723
vn 0.6289 -0.2623 0.7319
vn 0.4590 -0.4910 0.7404
vn 0.7209 -0.0232 0.6927
vn -0.0006 0.4782 0.8782
vn 0.7098 0.4411 0.5493
vn 0.0421 0.3898 0.9199
vn 0.0421 0.3899 0.9199
vn -0.0006 0.4782 0.8783
vn 0.0572 0.2959 0.9535
vn 0.0467 0.1988 0.9789
vn -0.3262 0.2719 0.9054
vn -0.3262 0.2718 0.9054
vn 0.0466 0.1988 0.9789
vn -0.0749 0.5541 0.8291
vn 0.0084 0.1006 0.9949
vn -0.0618 0.0070 0.9981
vn -0.1818 0.6040 0.7760
vn 0.4272 0.8424 0.3285
vn -0.1818 0.6039 0.7760
vn -0.1657 -0.0687 0.9838
vn -0.3108 0.6118 0.7274
vn -0.2936 -0.1082 0.9498
vn -0.1056 -0.7746 0.6236
vn -0.1658 -0.0687 0.9838
vn -0.2935 -0.1082 0.9498
vn -0.4204 -0.7547 0.5038
vn -0.4385 0.5722 0.6931
vn -0.4224 -0.1005 0.9008
vn -0.4204 -0.7546 0.5038
vn -0.2936 -0.1083 0.9498
vn -0.5421 0.4963 0.6781
vn -0.4596 0.8881 -0.0037
vn -0.4224 -0.1004 0.9008
vn -0.4597 0.8881 -0.0036
vn -0.5290 -0.0508 0.8471
vn -0.6121 0.4025 0.6806
vn -0.6122 0.4025 0.6806
vn -0.6031 0.0249 0.7973
vn -0.6031 0.0249 0.7972
vn -0.9614 -0.2314 0.1491
vn -0.6502 0.3042 0.6962
vn -0.8809 0.4723 -0.0326
vn -0.6457 0.1131 0.7552
vn -0.6456 0.1131 0.7552
vn -0.6607 0.2071 0.7215
vn -0.6608 0.2070 0.7215
vt 0.022751 0.056091
vt 0.031097 0.059601
vt 0.029739 0.064697
vt 0.020004 0.060577
vt 0.040497 0.065979
vt 0.016174 0.050598
vt 0.012207 0.054016
vt 0.040405 0.060730
vt 0.051178 0.064331
vt 0.011978 0.043762
vt 0.007114 0.045654
vt 0.049652 0.059296
vt 0.060822 0.059845
vt 0.010452 0.036224
vt 0.005234 0.036316
vt 0.057892 0.055481
vt 0.068420 0.053009
vt 0.011688 0.028610
vt 0.006756 0.026901
vt 0.064270 0.049744
vt 0.073181 0.044403
vt 0.015625 0.021606
vt 0.011528 0.018372
vt 0.068237 0.042694
vt 0.074707 0.034943
vt 0.021973 0.015884
vt 0.019058 0.011536
vt 0.069458 0.035034
vt 0.072815 0.025543
vt 0.030167 0.012054
vt 0.028610 0.007046
vt 0.067932 0.027451
vt 0.067627 0.017151
vt 0.039398 0.010567
vt 0.039276 0.005325
vt 0.063660 0.020584
vt 0.059814 0.010620
vt 0.048706 0.011635
vt 0.050018 0.006554
vt 0.057068 0.015114
vt 0.023361 0.017975
vt 0.030914 0.014465
vt 0.039459 0.013115
vt 0.048065 0.014084
vt 0.039917 0.035645
vt 0.017578 0.023163
vt 0.055756 0.017273
vt 0.061798 0.022217
vt 0.014008 0.029419
vt 0.065613 0.028351
vt 0.012886 0.036163
vt 0.067017 0.035095
vt 0.014267 0.042877
vt 0.065918 0.041901
vt 0.018082 0.048981
vt 0.062317 0.048187
vt 0.024063 0.053955
vt 0.056488 0.053375
vt 0.031738 0.057159
vt 0.048920 0.056885
vt 0.040344 0.058197
s 0
usemtl æè´¨
f 3/1/1 2/2/2 1/3/3
f 4/4/4 3/1/1 1/3/3
f 1/3/3 2/2/2 5/5/5
f 6/6/6 3/1/7 4/4/4
f 7/7/8 6/6/9 4/4/4
f 2/2/2 8/8/10 5/5/11
f 5/5/5 8/8/12 9/9/13
f 10/10/14 6/6/9 7/7/8
f 11/11/15 10/10/14 7/7/8
f 8/8/12 12/12/16 9/9/13
f 9/9/13 12/12/16 13/13/17
f 14/14/18 10/10/19 11/11/15
f 15/15/20 14/14/21 11/11/22
f 12/12/16 16/16/23 13/13/17
f 13/13/17 16/16/24 17/17/25
f 18/18/26 14/14/18 15/15/27
f 19/19/28 18/18/26 15/15/27
f 16/16/23 20/20/29 17/17/25
f 17/17/25 20/20/29 21/21/30
f 22/22/31 18/18/26 19/19/32
f 23/23/33 22/22/31 19/19/32
f 20/20/29 24/24/34 21/21/30
f 21/21/30 24/24/34 25/25/35
f 26/26/36 22/22/31 23/23/33
f 27/27/37 26/26/36 23/23/33
f 24/24/34 28/28/38 25/25/39
f 25/25/39 28/28/38 29/29/40
f 30/30/41 26/26/36 27/27/37
f 31/31/42 30/30/43 27/27/37
f 28/28/38 32/32/44 29/29/40
f 29/29/40 32/32/44 33/33/45
f 34/34/46 30/30/43 31/31/42
f 35/35/47 34/34/46 31/31/42
f 32/32/44 36/36/48 33/33/49
f 33/33/45 36/36/48 37/37/50
f 38/38/51 34/34/46 35/35/47
f 39/39/52 38/38/51 35/35/47
f 37/37/50 40/40/53 39/39/52
f 36/36/54 40/40/53 37/37/50
f 40/40/53 38/38/55 39/39/52
f 26/26/36 30/30/43 41/41/56
f 30/30/43 34/34/46 42/42/57
f 30/30/43 42/42/58 41/41/59
f 34/34/46 38/38/55 43/43/60
f 34/34/46 43/43/60 42/42/58
f 38/38/51 40/40/53 44/44/61
f 38/38/51 44/44/61 43/43/60
f 43/43/60 45/45/62 42/42/58
f 42/42/58 45/45/62 41/41/56
f 44/44/63 45/45/64 43/43/60
f 41/41/59 45/45/62 46/46/65
f 26/26/36 41/41/56 46/46/65
f 47/47/66 45/45/62 44/44/63
f 40/40/53 47/47/66 44/44/63
f 40/40/53 36/36/48 47/47/66
f 22/22/31 26/26/36 46/46/65
f 36/36/48 48/48/67 47/47/66
f 48/48/67 45/45/62 47/47/66
f 36/36/54 32/32/44 48/48/67
f 22/22/31 46/46/65 49/49/68
f 46/46/65 45/45/62 49/49/69
f 18/18/26 22/22/70 49/49/68
f 32/32/44 50/50/71 48/48/67
f 50/50/71 45/45/62 48/48/67
f 32/32/44 28/28/38 50/50/71
f 18/18/26 49/49/68 51/51/72
f 49/49/69 45/45/62 51/51/72
f 14/14/21 18/18/26 51/51/72
f 28/28/73 52/52/74 50/50/75
f 52/52/76 45/45/62 50/50/71
f 28/28/73 24/24/77 52/52/74
f 14/14/21 51/51/72 53/53/78
f 51/51/72 45/45/62 53/53/78
f 54/54/79 45/45/62 52/52/74
f 24/24/80 54/54/79 52/52/81
f 53/53/78 45/45/62 55/55/82
f 10/10/19 14/14/18 53/53/78
f 10/10/14 53/53/78 55/55/82
f 24/24/77 20/20/29 54/54/83
f 6/6/9 10/10/14 55/55/84
f 20/20/29 56/56/85 54/54/83
f 56/56/85 45/45/62 54/54/79
f 20/20/29 16/16/23 56/56/85
f 6/6/9 55/55/82 57/57/86
f 55/55/82 45/45/62 57/57/86
f 3/1/7 6/6/9 57/57/87
f 16/16/23 58/58/88 56/56/85
f 58/58/88 45/45/62 56/56/85
f 16/16/23 12/12/89 58/58/88
f 3/1/7 57/57/87 59/59/90
f 57/57/86 45/45/64 59/59/90
f 2/2/2 3/1/91 59/59/90
f 12/12/89 60/60/92 58/58/93
f 60/60/94 45/45/62 58/58/88
f 12/12/89 8/8/12 60/60/92
f 59/59/90 61/61/95 2/2/2
f 59/59/90 45/45/62 61/61/96
f 61/61/95 45/45/62 60/60/94
f 61/61/95 8/8/12 2/2/2
f 8/8/12 61/61/97 60/60/94
f 64/1/98 63/4/99 62/3/100
f 65/2/101 64/1/98 62/3/100
f 65/2/101 62/3/100 66/5/102
f 64/1/103 67/6/104 63/4/99
f 67/6/105 68/7/106 63/4/99
f 69/8/107 65/2/101 66/5/102
f 69/8/108 66/5/102 70/9/109
f 67/6/105 71/10/110 68/7/111
f 71/10/110 72/11/112 68/7/111
f 73/12/113 69/8/108 70/9/109
f 73/12/113 70/9/114 74/13/115
f 71/10/110 75/14/116 72/11/112
f 75/14/117 76/15/118 72/11/112
f 77/16/119 73/12/113 74/13/115
f 77/16/119 74/13/115 78/17/120
f 75/14/116 79/18/121 76/15/122
f 79/18/121 80/19/123 76/15/122
f 81/20/124 77/16/119 78/17/120
f 81/20/124 78/17/120 82/21/125
f 79/18/121 83/22/126 80/19/127
f 83/22/126 84/23/128 80/19/127
f 85/24/129 81/20/124 82/21/125
f 85/24/129 82/21/125 86/25/130
f 83/22/126 87/26/131 84/23/128
f 87/26/131 88/27/132 84/23/128
f 89/28/133 85/24/134 86/25/135
f 89/28/133 86/25/135 90/29/136
f 87/26/131 91/30/137 88/27/132
f 91/30/138 92/31/139 88/27/132
f 93/32/140 89/28/133 90/29/136
f 93/32/140 90/29/136 94/33/141
f 91/30/138 95/34/142 92/31/139
f 95/34/142 96/35/143 92/31/139
f 97/36/144 93/32/140 94/33/141
f 97/36/144 94/33/141 98/37/145
f 95/34/142 99/38/146 96/35/147
f 99/38/146 100/39/148 96/35/147
f 101/40/149 98/37/145 100/39/148
f 101/40/149 97/36/150 98/37/145
f 99/38/151 101/40/149 100/39/148
f 91/30/138 87/26/131 102/41/152
f 95/34/142 91/30/153 103/42/154
f 103/42/155 91/30/138 102/41/156
f 99/38/151 95/34/142 104/43/157
f 104/43/157 95/34/142 103/42/155
f 101/40/149 99/38/146 105/44/158
f 105/44/158 99/38/146 104/43/157
f 106/45/159 104/43/157 103/42/155
f 106/45/159 103/42/155 102/41/152
f 106/45/160 105/44/161 104/43/157
f 106/45/159 102/41/156 107/46/162
f 102/41/152 87/26/131 107/46/162
f 106/45/159 108/47/163 105/44/161
f 108/47/163 101/40/149 105/44/161
f 97/36/150 101/40/149 108/47/163
f 87/26/131 83/22/126 107/46/162
f 109/48/164 97/36/144 108/47/163
f 106/45/159 109/48/164 108/47/163
f 93/32/140 97/36/150 109/48/164
f 107/46/162 83/22/126 110/49/165
f 106/45/159 107/46/162 110/49/165
f 83/22/166 79/18/121 110/49/167
f 111/50/168 93/32/140 109/48/164
f 106/45/159 111/50/168 109/48/164
f 89/28/133 93/32/140 111/50/168
f 110/49/167 79/18/121 112/51/169
f 106/45/159 110/49/165 112/51/169
f 79/18/121 75/14/117 112/51/169
f 113/52/170 89/28/171 111/50/172
f 106/45/159 113/52/173 111/50/168
f 85/24/174 89/28/171 113/52/170
f 112/51/169 75/14/117 114/53/175
f 106/45/159 112/51/169 114/53/175
f 106/45/159 115/54/176 113/52/170
f 115/54/176 85/24/177 113/52/178
f 106/45/159 114/53/175 116/55/179
f 75/14/117 71/10/180 114/53/175
f 114/53/175 71/10/110 116/55/179
f 81/20/124 85/24/174 115/54/181
f 71/10/182 67/6/105 116/55/179
f 117/56/183 81/20/124 115/54/181
f 106/45/159 117/56/183 115/54/176
f 77/16/119 81/20/124 117/56/183
f 116/55/179 67/6/105 118/57/184
f 106/45/159 116/55/179 118/57/184
f 67/6/105 64/1/103 118/57/185
f 119/58/186 77/16/119 117/56/183
f 106/45/159 119/58/187 117/56/183
f 73/12/188 77/16/119 119/58/186
f 118/57/185 64/1/103 120/59/189
f 106/45/160 118/57/184 120/59/189
f 64/1/190 65/2/101 120/59/189
f 121/60/191 73/12/113 119/58/187
f 106/45/159 121/60/192 119/58/186
f 69/8/108 73/12/188 121/60/191
f 122/61/193 120/59/189 65/2/101
f 106/45/159 120/59/189 122/61/193
f 106/45/159 122/61/193 121/60/192
f 69/8/108 122/61/193 65/2/101
f 122/61/194 69/8/107 121/60/191
