# Blender 4.0.2
# www.blender.org
mtllib Eyes2_Blinks.mtl
o blink
v 0.189094 0.863308 0.254896
v 0.203731 0.852524 0.253126
v 0.183865 0.858910 0.241355
v 0.198501 0.848126 0.239585
v 0.121936 0.847673 0.287255
v 0.118392 0.836786 0.293178
v 0.116418 0.844090 0.278117
v 0.112874 0.833203 0.284040
v 0.190732 0.866986 0.239071
v 0.193663 0.869986 0.241904
v 0.193850 0.869409 0.247166
v 0.197391 0.863324 0.252803
v 0.204407 0.861233 0.251407
v 0.206076 0.856925 0.251753
v 0.208675 0.852731 0.247522
v 0.210141 0.851978 0.242074
v 0.205572 0.850120 0.239488
v 0.200083 0.851885 0.236236
v 0.198031 0.855871 0.234898
v 0.191399 0.858283 0.237286
v 0.133300 0.839442 0.270111
v 0.153340 0.841833 0.258538
v 0.170486 0.846573 0.249987
v 0.188452 0.835493 0.246988
v 0.159384 0.825547 0.262152
v 0.126985 0.825538 0.278471
v 0.109173 0.834974 0.284027
v 0.108004 0.837982 0.282868
v 0.111276 0.841434 0.280513
v 0.113682 0.849755 0.287490
v 0.110258 0.849506 0.285269
v 0.110325 0.847753 0.282059
v 0.109719 0.832956 0.288187
v 0.109207 0.833529 0.292049
v 0.112993 0.835081 0.293610
v 0.115497 0.839080 0.294498
v 0.114731 0.842349 0.294009
v 0.117599 0.845539 0.290984
v 0.176474 0.851499 0.265547
v 0.161176 0.847269 0.274409
v 0.140695 0.844116 0.282245
v 0.134380 0.830211 0.290605
v 0.167219 0.830982 0.278023
v 0.194440 0.840418 0.262547
v 0.201119 0.871649 0.243922
v 0.210251 0.869960 0.241160
v 0.212777 0.865462 0.241541
v 0.202061 0.872685 0.237702
v 0.211667 0.871009 0.234454
v 0.214312 0.866259 0.235174
v 0.197795 0.869067 0.235295
v 0.206750 0.867239 0.232070
v 0.209454 0.862879 0.232914
v 0.174949 0.844030 0.246461
v 0.180720 0.841276 0.244275
v 0.184863 0.837916 0.244805
v 0.153603 0.837372 0.257115
v 0.154884 0.832665 0.257352
v 0.156906 0.828471 0.259090
v 0.129622 0.835733 0.270877
v 0.126446 0.831720 0.273098
v 0.126138 0.828061 0.275490
v 0.104816 0.847086 0.284681
v 0.100016 0.843400 0.288053
v 0.100736 0.839926 0.289317
v 0.103831 0.848905 0.288536
v 0.098740 0.845173 0.292280
v 0.099507 0.841430 0.293408
v 0.108394 0.849221 0.290468
v 0.103785 0.845649 0.294152
v 0.104313 0.842061 0.295104
v 0.139032 0.841680 0.286315
v 0.136538 0.838097 0.289655
v 0.135547 0.834008 0.290928
v 0.163653 0.844344 0.277470
v 0.165675 0.840151 0.279209
v 0.166956 0.835443 0.279446
v 0.182568 0.850297 0.266258
v 0.188892 0.847997 0.265507
v 0.192482 0.844182 0.264603
v 0.170634 0.849796 0.253147
v 0.154262 0.845367 0.261626
v 0.134562 0.842427 0.272236
v 0.172548 0.852197 0.256938
v 0.156118 0.847623 0.265791
v 0.135801 0.844395 0.275672
v 0.173938 0.852514 0.261733
v 0.158545 0.848338 0.270299
v 0.138643 0.845006 0.278932
v 0.126527 0.824735 0.282873
v 0.162014 0.824478 0.266261
v 0.193493 0.835697 0.249330
v 0.127183 0.825422 0.287080
v 0.164441 0.825193 0.270769
v 0.197064 0.837076 0.252844
v 0.130608 0.827314 0.289569
v 0.166297 0.827449 0.274935
v 0.196797 0.838416 0.257916
v -0.185579 0.864218 0.255983
v -0.200243 0.853505 0.254298
v -0.180412 0.859795 0.242412
v -0.195076 0.849082 0.240726
v -0.118322 0.848256 0.287952
v -0.114775 0.837352 0.293855
v -0.112847 0.844647 0.278782
v -0.109300 0.833742 0.284684
v -0.187273 0.867905 0.240168
v -0.190186 0.870919 0.243018
v -0.190353 0.870343 0.248280
v -0.193885 0.864274 0.253938
v -0.200909 0.862218 0.252583
v -0.202585 0.857918 0.252938
v -0.205208 0.853736 0.248723
v -0.206698 0.852991 0.243283
v -0.202143 0.851111 0.240671
v -0.196664 0.852849 0.237387
v -0.194610 0.856824 0.236037
v -0.187963 0.859205 0.238387
v -0.129769 0.840081 0.270875
v -0.149851 0.842569 0.259418
v -0.167022 0.847393 0.250967
v -0.185020 0.836400 0.248071
v -0.155911 0.826312 0.263067
v -0.123447 0.826146 0.279198
v -0.105596 0.835496 0.284650
v -0.104425 0.838498 0.283484
v -0.107701 0.841966 0.281148
v -0.110062 0.850299 0.288139
v -0.106648 0.850033 0.285899
v -0.106731 0.848280 0.282689
v -0.106129 0.833480 0.288814
v -0.105601 0.834051 0.292672
v -0.109377 0.835622 0.294255
v -0.111869 0.839632 0.295157
v -0.111099 0.842898 0.294664
v -0.113973 0.846101 0.291656
v -0.172939 0.852347 0.266561
v -0.157613 0.848043 0.275334
v -0.137107 0.844791 0.283051
v -0.130785 0.830855 0.291375
v -0.163672 0.831786 0.278983
v -0.190937 0.841354 0.263665
v -0.197631 0.872617 0.245079
v -0.206777 0.870973 0.242370
v -0.209310 0.866487 0.242765
v -0.198596 0.873658 0.238865
v -0.208218 0.872029 0.235672
v -0.210869 0.867291 0.236407
v -0.194348 0.870019 0.236433
v -0.203318 0.868235 0.233259
v -0.206028 0.863888 0.234120
v -0.171504 0.844871 0.247466
v -0.177289 0.842146 0.245313
v -0.181435 0.838805 0.245868
v -0.150128 0.838110 0.257996
v -0.151417 0.833409 0.258240
v -0.153440 0.829225 0.259991
v -0.126096 0.836354 0.271618
v -0.122919 0.832325 0.273821
v -0.122607 0.828665 0.276212
v -0.101213 0.847587 0.285278
v -0.096407 0.843877 0.288623
v -0.097128 0.840407 0.289891
v -0.100209 0.849401 0.289128
v -0.095110 0.845644 0.292843
v -0.095880 0.841905 0.293974
v -0.104763 0.849738 0.291087
v -0.100147 0.846144 0.294743
v -0.100678 0.842559 0.295699
v -0.135432 0.842347 0.287111
v -0.132931 0.838752 0.290436
v -0.131944 0.834657 0.291704
v -0.160084 0.845130 0.278410
v -0.162107 0.840947 0.280160
v -0.163395 0.836246 0.280404
v -0.179032 0.851175 0.267307
v -0.185362 0.848906 0.266593
v -0.188963 0.845108 0.265709
v -0.167151 0.850617 0.254127
v -0.150755 0.846108 0.262511
v -0.131017 0.843072 0.273007
v -0.169045 0.853026 0.257929
v -0.152589 0.848373 0.266687
v -0.132238 0.845046 0.276450
v -0.170416 0.853350 0.262732
v -0.154997 0.849099 0.271209
v -0.135066 0.845671 0.279726
v -0.122973 0.825341 0.283597
v -0.158527 0.825256 0.267191
v -0.190052 0.836629 0.250443
v -0.123612 0.826031 0.287808
v -0.160935 0.825983 0.271713
v -0.193606 0.838025 0.253978
v -0.127022 0.827940 0.290316
v -0.162769 0.828248 0.275890
v -0.193317 0.839363 0.259048
vn 0.0393 0.9235 0.3815
vn 0.4438 0.7928 0.4178
vn 0.2097 0.8052 -0.5547
vn -0.0562 0.9806 -0.1880
vn 0.8376 0.2209 0.4996
vn 0.7898 0.0743 -0.6089
vn 0.0093 0.1966 -0.9804
vn -0.3245 0.5382 -0.7778
vn 0.2268 -0.3055 -0.9248
vn -0.0899 0.7549 0.6496
vn 0.2175 0.6334 0.7427
vn -0.1489 0.8592 0.4896
vn 0.4392 0.4756 0.7621
vn 0.6716 0.1468 0.7262
vn 0.7739 -0.1195 0.6220
vn 0.8695 -0.2646 0.4172
vn 0.7991 -0.5509 -0.2406
vn 0.4112 -0.6263 -0.6623
vn 0.2186 -0.6295 -0.7456
vn 0.0484 -0.4709 -0.8809
vn -0.1694 -0.1953 -0.9660
vn -0.4172 0.0158 -0.9087
vn -0.6005 0.5550 -0.5756
vn -0.6323 0.2522 -0.7325
vn -0.4159 0.9083 -0.0444
vn -0.4494 -0.0323 -0.8927
vn -0.2803 -0.3088 -0.9089
vn -0.3725 -0.3563 -0.8569
vn -0.4703 0.0282 -0.8820
vn -0.0447 -0.5852 -0.8096
vn -0.2251 -0.6712 -0.7062
vn -0.4787 -0.3419 -0.8087
vn -0.4770 0.0037 -0.8789
vn -0.4157 -0.6919 -0.5903
vn -0.5625 0.3473 -0.7503
vn 0.0886 -0.7808 -0.6185
vn -0.0475 -0.9047 -0.4234
vn -0.2665 -0.9155 -0.3013
vn -0.5292 -0.7853 -0.3212
vn -0.5821 -0.6367 -0.5058
vn -0.5820 -0.2656 -0.7686
vn -0.4890 0.0260 -0.8719
vn -0.4237 0.4005 -0.8125
vn -0.3219 0.3814 -0.8665
vn -0.4900 0.4528 -0.7449
vn -0.5066 0.5355 -0.6757
vn -0.7964 0.0199 -0.6045
vn -0.6337 0.5933 0.4963
vn -0.3159 0.9486 -0.0172
vn -0.7436 -0.6110 -0.2715
vn -0.5678 -0.3498 0.7452
vn -0.0784 0.5438 0.8356
vn -0.0048 0.8726 0.4885
vn -0.1007 0.0055 0.9949
vn -0.2051 0.7187 -0.6643
vn -0.5066 -0.8603 -0.0571
vn -0.3097 -0.7507 0.5835
vn -0.0629 -0.4058 0.9118
vn 0.0708 -0.2465 0.9666
vn 0.1184 -0.0247 0.9927
vn 0.1783 0.3717 0.9111
vn 0.2368 0.6315 0.7383
vn 0.0894 0.9840 0.1544
vn 0.2575 0.8610 0.4386
vn -0.0865 0.9500 -0.3000
vn 0.2487 0.6201 0.7441
vn 0.2750 0.3351 0.9012
vn 0.3387 0.3490 0.8738
vn 0.2034 0.6710 0.7130
vn 0.2269 -0.0793 0.9707
vn 0.4170 -0.0382 0.9081
vn 0.3963 0.3835 0.8342
vn 0.2130 0.6243 0.7516
vn 0.5715 0.0394 0.8197
vn 0.1534 0.8814 0.4468
vn 0.1943 -0.3714 0.9079
vn 0.4148 -0.4874 0.7684
vn 0.6395 -0.3563 0.6813
vn -0.0037 0.8395 0.5433
vn 0.0348 0.8904 0.4538
vn -0.5838 0.7067 -0.3997
vn -0.4195 0.7701 -0.4806
vn -0.2941 0.9403 -0.1711
vn -0.5009 0.8608 -0.0905
vn -0.2584 0.7517 -0.6068
vn -0.0892 0.9489 -0.3028
vn -0.1363 0.9794 0.1492
vn -0.3239 0.9224 0.2105
vn 0.0257 0.9990 0.0370
vn -0.1606 -0.9870 -0.0015
vn 0.0912 -0.9906 -0.1016
vn 0.2129 -0.9571 0.1967
vn -0.0661 -0.9233 0.3784
vn 0.3106 -0.8762 -0.3686
vn 0.5416 -0.8406 0.0123
vn 0.3253 -0.8125 0.4838
vn 0.0811 -0.6776 0.7310
vn 0.6411 -0.6490 0.4097
vn -0.0326 0.9237 0.3817
vn 0.0599 0.9803 -0.1882
vn -0.2091 0.8058 -0.5541
vn -0.4382 0.7947 0.4201
vn -0.7924 0.0757 -0.6053
vn -0.8347 0.2228 0.5036
vn 0.3226 0.5376 -0.7791
vn -0.0140 0.1967 -0.9804
vn -0.2335 -0.3049 -0.9233
vn 0.0973 0.7545 0.6491
vn 0.1558 0.8584 0.4887
vn -0.2102 0.6342 0.7440
vn -0.4330 0.4770 0.7648
vn -0.6674 0.1483 0.7298
vn -0.8683 -0.2629 0.4207
vn -0.7713 -0.1181 0.6254
vn -0.8019 -0.5485 -0.2370
vn -0.4176 -0.6247 -0.6598
vn -0.0557 -0.4707 -0.8805
vn -0.2258 -0.6286 -0.7442
vn 0.1629 -0.1957 -0.9670
vn 0.4123 0.0150 -0.9109
vn 0.5997 0.5537 -0.5778
vn 0.6295 0.2511 -0.7353
vn 0.4196 0.9065 -0.0461
vn 0.4444 -0.0332 -0.8952
vn 0.4657 0.0273 -0.8845
vn 0.3662 -0.3573 -0.8592
vn 0.2737 -0.3096 -0.9106
vn 0.2180 -0.6722 -0.7076
vn 0.0372 -0.5854 -0.8099
vn 0.4722 0.0028 -0.8815
vn 0.4729 -0.3432 -0.8115
vn 0.4095 -0.6936 -0.5927
vn 0.5599 0.3463 -0.7527
vn -0.0960 -0.7803 -0.6179
vn 0.0406 -0.9049 -0.4236
vn 0.2605 -0.9168 -0.3027
vn 0.5769 -0.6388 -0.5090
vn 0.5244 -0.7875 -0.3238
vn 0.5770 -0.2670 -0.7719
vn 0.4844 0.0251 -0.8745
vn 0.4209 0.3998 -0.8142
vn 0.3188 0.3809 -0.8679
vn 0.4879 0.4519 -0.7468
vn 0.5052 0.5345 -0.6776
vn 0.3201 0.9472 -0.0184
vn 0.6384 0.5911 0.4929
vn 0.7936 0.0184 -0.6082
vn 0.5703 -0.3508 0.7427
vn 0.7403 -0.6135 -0.2750
vn 0.0116 0.8724 0.4886
vn 0.0858 0.5435 0.8350
vn 0.1065 0.0053 0.9943
vn 0.2047 0.7182 -0.6650
vn 0.5027 -0.8624 -0.0592
vn 0.3096 -0.7516 0.5824
vn 0.0662 -0.4059 0.9115
vn -0.1128 -0.0245 0.9933
vn -0.0663 -0.2463 0.9669
vn -0.1713 0.3722 0.9122
vn -0.2297 0.6324 0.7398
vn -0.0838 0.9844 0.1548
vn -0.2510 0.8622 0.4400
vn 0.0894 0.9497 -0.3003
vn -0.2415 0.6210 0.7456
vn -0.1961 0.6719 0.7143
vn -0.3322 0.3499 0.8759
vn -0.2684 0.3358 0.9029
vn -0.4121 -0.0374 0.9104
vn -0.2217 -0.0789 0.9719
vn -0.2058 0.6251 0.7529
vn -0.3900 0.3846 0.8366
vn -0.5671 0.0405 0.8227
vn -0.1466 0.8821 0.4476
vn -0.1909 -0.3710 0.9088
vn -0.4127 -0.4866 0.7700
vn -0.6373 -0.3552 0.6839
vn 0.0109 0.8395 0.5432
vn -0.0278 0.8906 0.4540
vn 0.5845 0.7050 -0.4017
vn 0.5039 0.8588 -0.0924
vn 0.2975 0.9391 -0.1721
vn 0.4202 0.7689 -0.4820
vn 0.0920 0.9485 -0.3031
vn 0.2585 0.7510 -0.6077
vn 0.3293 0.9208 0.2089
vn 0.1419 0.9787 0.1486
vn -0.0206 0.9991 0.0370
vn 0.1559 -0.9878 -0.0021
vn 0.0638 -0.9235 0.3781
vn -0.2163 -0.9562 0.1974
vn -0.0966 -0.9902 -0.1011
vn -0.5448 -0.8384 0.0144
vn -0.3168 -0.8747 -0.3669
vn -0.0801 -0.6774 0.7313
vn -0.3263 -0.8115 0.4848
vn -0.6413 -0.6473 0.4119
vt 0.878865 0.077923
vt 0.887703 0.077923
vt 0.887703 0.086762
vt 0.878865 0.086762
vt 0.896542 0.077923
vt 0.896542 0.086762
vt 0.887703 0.095601
vt 0.878865 0.095601
vt 0.896542 0.095601
vt 0.870026 0.069084
vt 0.878865 0.069084
vt 0.870026 0.077923
vt 0.887703 0.069084
vt 0.896542 0.069084
vt 0.905381 0.069084
vt 0.905381 0.077923
vt 0.905381 0.086762
vt 0.905381 0.095601
vt 0.905381 0.104440
vt 0.896542 0.104440
vt 0.887703 0.104440
vt 0.878865 0.104440
vt 0.870026 0.095601
vt 0.870026 0.104440
vt 0.870026 0.086762
vt 0.878865 0.113279
vt 0.887703 0.113279
vt 0.887703 0.122117
vt 0.878865 0.122117
vt 0.896542 0.113279
vt 0.896542 0.122117
vt 0.887703 0.130956
vt 0.878865 0.130956
vt 0.896542 0.130956
vt 0.870026 0.113279
vt 0.905381 0.113279
vt 0.905381 0.122117
vt 0.905381 0.130956
vt 0.905381 0.139795
vt 0.896542 0.139795
vt 0.887703 0.139795
vt 0.878865 0.139795
vt 0.870026 0.130956
vt 0.870026 0.139795
vt 0.870026 0.122117
vt 0.878865 0.148634
vt 0.887703 0.148634
vt 0.887703 0.157473
vt 0.878865 0.157473
vt 0.896542 0.148634
vt 0.896542 0.157473
vt 0.887703 0.166312
vt 0.878865 0.166312
vt 0.896542 0.166312
vt 0.870026 0.148634
vt 0.905381 0.148634
vt 0.905381 0.157473
vt 0.905381 0.166312
vt 0.905381 0.175150
vt 0.896542 0.175150
vt 0.887703 0.175150
vt 0.878865 0.175150
vt 0.870026 0.166312
vt 0.870026 0.175150
vt 0.870026 0.157473
vt 0.878865 0.183989
vt 0.887703 0.183989
vt 0.887703 0.192828
vt 0.878865 0.192828
vt 0.896542 0.183989
vt 0.896542 0.192828
vt 0.887703 0.201667
vt 0.878865 0.201667
vt 0.896542 0.201667
vt 0.870026 0.183989
vt 0.905381 0.183989
vt 0.905381 0.192828
vt 0.905381 0.201667
vt 0.905381 0.210506
vt 0.896542 0.210506
vt 0.887703 0.210506
vt 0.878865 0.210506
vt 0.870026 0.201667
vt 0.870026 0.210506
vt 0.870026 0.192828
vt 0.843509 0.148634
vt 0.852348 0.148634
vt 0.852348 0.157473
vt 0.843509 0.157473
vt 0.861187 0.148634
vt 0.861187 0.157473
vt 0.852348 0.166312
vt 0.843509 0.166312
vt 0.861187 0.166312
vt 0.834670 0.139795
vt 0.843509 0.139795
vt 0.834670 0.148634
vt 0.852348 0.139795
vt 0.861187 0.139795
vt 0.861187 0.175150
vt 0.852348 0.175150
vt 0.843509 0.175150
vt 0.834670 0.166312
vt 0.834670 0.175150
vt 0.834670 0.157473
vt 0.914220 0.148634
vt 0.923059 0.148634
vt 0.923059 0.157473
vt 0.914220 0.157473
vt 0.931898 0.148634
vt 0.931898 0.157473
vt 0.923059 0.166312
vt 0.914220 0.166312
vt 0.931898 0.166312
vt 0.914220 0.139795
vt 0.923059 0.139795
vt 0.931898 0.139795
vt 0.940736 0.139795
vt 0.940736 0.148634
vt 0.940736 0.157473
vt 0.940736 0.166312
vt 0.940736 0.175150
vt 0.931898 0.175150
vt 0.923059 0.175150
vt 0.914220 0.175150
s 1
usemtl æè´¨.013
f 45/1/1 46/2/2 49/3/3 48/4/4
f 46/2/2 47/5/5 50/6/6 49/3/3
f 48/4/4 49/3/3 52/7/7 51/8/8
f 49/3/3 50/6/6 53/9/9 52/7/7
f 1/10/10 12/11/11 45/1/1 11/12/12
f 12/11/11 13/13/13 46/2/2 45/1/1
f 13/13/13 14/14/14 47/5/5 46/2/2
f 14/14/14 2/15/15 15/16/16 47/5/5
f 47/5/5 15/16/16 16/17/17 50/6/6
f 50/6/6 16/17/17 17/18/18 53/9/9
f 53/9/9 17/18/18 4/19/19 18/20/20
f 52/7/7 53/9/9 18/20/20 19/21/21
f 51/8/8 52/7/7 19/21/21 20/22/22
f 9/23/23 51/8/8 20/22/22 3/24/24
f 10/25/25 48/4/4 51/8/8 9/23/23
f 11/12/12 45/1/1 48/4/4 10/25/25
f 54/26/26 55/27/27 58/28/28 57/29/29
f 55/27/27 56/30/30 59/31/31 58/28/28
f 57/29/29 58/28/28 61/32/32 60/33/33
f 58/28/28 59/31/31 62/34/34 61/32/32
f 3/24/24 20/22/22 54/26/26 23/35/35
f 20/22/22 19/21/21 55/27/27 54/26/26
f 19/21/21 18/20/20 56/30/30 55/27/27
f 18/20/20 4/19/19 24/36/36 56/30/30
f 56/30/30 24/36/36 25/37/37 59/31/31
f 59/31/31 25/37/37 26/38/38 62/34/34
f 62/34/34 26/38/38 8/39/39 27/40/40
f 61/32/32 62/34/34 27/40/40 28/41/41
f 60/33/33 61/32/32 28/41/41 29/42/42
f 21/43/43 60/33/33 29/42/42 7/44/44
f 22/45/45 57/29/29 60/33/33 21/43/43
f 23/35/35 54/26/26 57/29/29 22/45/45
f 63/46/46 64/47/47 67/48/48 66/49/49
f 64/47/47 65/50/50 68/51/51 67/48/48
f 66/49/49 67/48/48 70/52/52 69/53/53
f 67/48/48 68/51/51 71/54/54 70/52/52
f 7/44/44 29/42/42 63/46/46 32/55/55
f 29/42/42 28/41/41 64/47/47 63/46/46
f 28/41/41 27/40/40 65/50/50 64/47/47
f 27/40/40 8/39/39 33/56/56 65/50/50
f 65/50/50 33/56/56 34/57/57 68/51/51
f 68/51/51 34/57/57 35/58/58 71/54/54
f 71/54/54 35/58/58 6/59/59 36/60/60
f 70/52/52 71/54/54 36/60/60 37/61/61
f 69/53/53 70/52/52 37/61/61 38/62/62
f 30/63/63 69/53/53 38/62/62 5/64/64
f 31/65/65 66/49/49 69/53/53 30/63/63
f 32/55/55 63/46/46 66/49/49 31/65/65
f 72/66/66 73/67/67 76/68/68 75/69/69
f 73/67/67 74/70/70 77/71/71 76/68/68
f 75/69/69 76/68/68 79/72/72 78/73/73
f 76/68/68 77/71/71 80/74/74 79/72/72
f 5/64/64 38/62/62 72/66/66 41/75/75
f 38/62/62 37/61/61 73/67/67 72/66/66
f 37/61/61 36/60/60 74/70/70 73/67/67
f 36/60/60 6/59/59 42/76/76 74/70/70
f 74/70/70 42/76/76 43/77/77 77/71/71
f 77/71/71 43/77/77 44/78/78 80/74/74
f 80/74/74 44/78/78 2/79/15 14/80/14
f 79/72/72 80/74/74 14/80/14 13/81/13
f 78/73/73 79/72/72 13/81/13 12/82/11
f 39/83/79 78/73/73 12/82/11 1/84/10
f 40/85/80 75/69/69 78/73/73 39/83/79
f 41/75/75 72/66/66 75/69/69 40/85/80
f 81/86/81 82/87/82 85/88/83 84/89/84
f 82/87/82 83/90/85 86/91/86 85/88/83
f 84/89/84 85/88/83 88/92/87 87/93/88
f 85/88/83 86/91/86 89/94/89 88/92/87
f 3/95/24 23/96/35 81/86/81 9/97/23
f 23/96/35 22/98/45 82/87/82 81/86/81
f 22/98/45 21/99/43 83/90/85 82/87/82
f 21/99/43 7/44/44 32/55/55 83/90/85
f 83/90/85 32/55/55 31/65/65 86/91/86
f 86/91/86 31/65/65 30/63/63 89/94/89
f 89/94/89 30/63/63 5/64/64 41/100/75
f 88/92/87 89/94/89 41/100/75 40/101/80
f 87/93/88 88/92/87 40/101/80 39/102/79
f 11/103/12 87/93/88 39/102/79 1/104/10
f 10/105/25 84/89/84 87/93/88 11/103/12
f 9/97/23 81/86/81 84/89/84 10/105/25
f 90/106/90 91/107/91 94/108/92 93/109/93
f 91/107/91 92/110/94 95/111/95 94/108/92
f 93/109/93 94/108/92 97/112/96 96/113/97
f 94/108/92 95/111/95 98/114/98 97/112/96
f 8/39/39 26/115/38 90/106/90 33/56/56
f 26/115/38 25/116/37 91/107/91 90/106/90
f 25/116/37 24/117/36 92/110/94 91/107/91
f 24/117/36 4/118/19 17/119/18 92/110/94
f 92/110/94 17/119/18 16/120/17 95/111/95
f 95/111/95 16/120/17 15/121/16 98/114/98
f 98/114/98 15/121/16 2/122/15 44/123/78
f 97/112/96 98/114/98 44/123/78 43/124/77
f 96/113/97 97/112/96 43/124/77 42/125/76
f 35/58/58 96/113/97 42/125/76 6/59/59
f 34/57/57 93/109/93 96/113/97 35/58/58
f 33/56/56 90/106/90 93/109/93 34/57/57
f 143/1/99 146/4/100 147/3/101 144/2/102
f 144/2/102 147/3/101 148/6/103 145/5/104
f 146/4/100 149/8/105 150/7/106 147/3/101
f 147/3/101 150/7/106 151/9/107 148/6/103
f 99/10/108 109/12/109 143/1/99 110/11/110
f 110/11/110 143/1/99 144/2/102 111/13/111
f 111/13/111 144/2/102 145/5/104 112/14/112
f 112/14/112 145/5/104 113/16/113 100/15/114
f 145/5/104 148/6/103 114/17/115 113/16/113
f 148/6/103 151/9/107 115/18/116 114/17/115
f 151/9/107 116/20/117 102/19/118 115/18/116
f 150/7/106 117/21/119 116/20/117 151/9/107
f 149/8/105 118/22/120 117/21/119 150/7/106
f 107/23/121 101/24/122 118/22/120 149/8/105
f 108/25/123 107/23/121 149/8/105 146/4/100
f 109/12/109 108/25/123 146/4/100 143/1/99
f 152/26/124 155/29/125 156/28/126 153/27/127
f 153/27/127 156/28/126 157/31/128 154/30/129
f 155/29/125 158/33/130 159/32/131 156/28/126
f 156/28/126 159/32/131 160/34/132 157/31/128
f 101/24/122 121/35/133 152/26/124 118/22/120
f 118/22/120 152/26/124 153/27/127 117/21/119
f 117/21/119 153/27/127 154/30/129 116/20/117
f 116/20/117 154/30/129 122/36/134 102/19/118
f 154/30/129 157/31/128 123/37/135 122/36/134
f 157/31/128 160/34/132 124/38/136 123/37/135
f 160/34/132 125/40/137 106/39/138 124/38/136
f 159/32/131 126/41/139 125/40/137 160/34/132
f 158/33/130 127/42/140 126/41/139 159/32/131
f 119/43/141 105/44/142 127/42/140 158/33/130
f 120/45/143 119/43/141 158/33/130 155/29/125
f 121/35/133 120/45/143 155/29/125 152/26/124
f 161/46/144 164/49/145 165/48/146 162/47/147
f 162/47/147 165/48/146 166/51/148 163/50/149
f 164/49/145 167/53/150 168/52/151 165/48/146
f 165/48/146 168/52/151 169/54/152 166/51/148
f 105/44/142 130/55/153 161/46/144 127/42/140
f 127/42/140 161/46/144 162/47/147 126/41/139
f 126/41/139 162/47/147 163/50/149 125/40/137
f 125/40/137 163/50/149 131/56/154 106/39/138
f 163/50/149 166/51/148 132/57/155 131/56/154
f 166/51/148 169/54/152 133/58/156 132/57/155
f 169/54/152 134/60/157 104/59/158 133/58/156
f 168/52/151 135/61/159 134/60/157 169/54/152
f 167/53/150 136/62/160 135/61/159 168/52/151
f 128/63/161 103/64/162 136/62/160 167/53/150
f 129/65/163 128/63/161 167/53/150 164/49/145
f 130/55/153 129/65/163 164/49/145 161/46/144
f 170/66/164 173/69/165 174/68/166 171/67/167
f 171/67/167 174/68/166 175/71/168 172/70/169
f 173/69/165 176/73/170 177/72/171 174/68/166
f 174/68/166 177/72/171 178/74/172 175/71/168
f 103/64/162 139/75/173 170/66/164 136/62/160
f 136/62/160 170/66/164 171/67/167 135/61/159
f 135/61/159 171/67/167 172/70/169 134/60/157
f 134/60/157 172/70/169 140/76/174 104/59/158
f 172/70/169 175/71/168 141/77/175 140/76/174
f 175/71/168 178/74/172 142/78/176 141/77/175
f 178/74/172 112/80/112 100/79/114 142/78/176
f 177/72/171 111/81/111 112/80/112 178/74/172
f 176/73/170 110/82/110 111/81/111 177/72/171
f 137/83/177 99/84/108 110/82/110 176/73/170
f 138/85/178 137/83/177 176/73/170 173/69/165
f 139/75/173 138/85/178 173/69/165 170/66/164
f 179/86/179 182/89/180 183/88/181 180/87/182
f 180/87/182 183/88/181 184/91/183 181/90/184
f 182/89/180 185/93/185 186/92/186 183/88/181
f 183/88/181 186/92/186 187/94/187 184/91/183
f 101/95/122 107/97/121 179/86/179 121/96/133
f 121/96/133 179/86/179 180/87/182 120/98/143
f 120/98/143 180/87/182 181/90/184 119/99/141
f 119/99/141 181/90/184 130/55/153 105/44/142
f 181/90/184 184/91/183 129/65/163 130/55/153
f 184/91/183 187/94/187 128/63/161 129/65/163
f 187/94/187 139/100/173 103/64/162 128/63/161
f 186/92/186 138/101/178 139/100/173 187/94/187
f 185/93/185 137/102/177 138/101/178 186/92/186
f 109/103/109 99/104/108 137/102/177 185/93/185
f 108/105/123 109/103/109 185/93/185 182/89/180
f 107/97/121 108/105/123 182/89/180 179/86/179
f 188/106/188 191/109/189 192/108/190 189/107/191
f 189/107/191 192/108/190 193/111/192 190/110/193
f 191/109/189 194/113/194 195/112/195 192/108/190
f 192/108/190 195/112/195 196/114/196 193/111/192
f 106/39/138 131/56/154 188/106/188 124/115/136
f 124/115/136 188/106/188 189/107/191 123/116/135
f 123/116/135 189/107/191 190/110/193 122/117/134
f 122/117/134 190/110/193 115/119/116 102/118/118
f 190/110/193 193/111/192 114/120/115 115/119/116
f 193/111/192 196/114/196 113/121/113 114/120/115
f 196/114/196 142/123/176 100/122/114 113/121/113
f 195/112/195 141/124/175 142/123/176 196/114/196
f 194/113/194 140/125/174 141/124/175 195/112/195
f 133/58/156 104/59/158 140/125/174 194/113/194
f 132/57/155 133/58/156 194/113/194 191/109/189
f 131/56/154 132/57/155 191/109/189 188/106/188
