# Blender 4.0.2
# www.blender.org
mtllib Eyes.mtl
o Chef_Turtle_pale
v -0.306433 0.952785 0.240860
v -0.307154 0.957644 0.246934
v -0.299885 0.943630 0.262142
v -0.298587 0.937660 0.257273
v -0.289119 0.935194 0.279270
v -0.288945 0.934277 0.249547
v -0.296791 0.949403 0.233133
v -0.277325 0.925172 0.268034
v -0.286967 0.928555 0.275761
v -0.275910 0.933161 0.296645
v -0.263068 0.922978 0.286787
v -0.272710 0.926360 0.294514
v -0.261550 0.937731 0.312564
v -0.247570 0.927910 0.303968
v -0.257212 0.931293 0.311695
v -0.247446 0.948455 0.325469
v -0.232347 0.939485 0.317898
v -0.241989 0.942868 0.325624
v -0.234978 0.964285 0.334097
v -0.218890 0.956571 0.327210
v -0.228531 0.959954 0.334936
v -0.225367 0.983671 0.337603
v -0.208516 0.977494 0.330994
v -0.218158 0.980878 0.338721
v -0.219553 1.004715 0.335645
v -0.202240 1.000208 0.328882
v -0.211882 1.003591 0.336608
v -0.218105 1.025357 0.328414
v -0.200678 1.022487 0.321076
v -0.210320 1.025871 0.328802
v -0.221165 1.043577 0.316617
v -0.203981 1.042152 0.308344
v -0.213623 1.045536 0.316070
v -0.228434 1.057591 0.301410
v -0.211827 1.057278 0.291930
v -0.221468 1.060661 0.299657
v -0.239201 1.066027 0.284281
v -0.223447 1.066383 0.273442
v -0.233089 1.069767 0.281169
v -0.252410 1.068059 0.266906
v -0.237704 1.068578 0.254690
v -0.247346 1.071961 0.262416
v -0.266769 1.063490 0.250987
v -0.253202 1.063645 0.237508
v -0.262845 1.067029 0.245234
v -0.280873 1.052765 0.238083
v -0.268425 1.052070 0.223579
v -0.278067 1.055453 0.231305
v -0.293341 1.036935 0.229455
v -0.281882 1.034984 0.214266
v -0.291524 1.038367 0.221993
v -0.302953 1.017549 0.225948
v -0.292256 1.014060 0.210482
v -0.301899 1.017444 0.218208
v -0.308767 0.996505 0.227907
v -0.298532 0.991347 0.212595
v -0.308174 0.994730 0.220322
v -0.310214 0.975863 0.235138
v -0.300094 0.969068 0.220400
v -0.309736 0.972451 0.228127
v -0.307154 0.957644 0.246934
v -0.296791 0.949403 0.233133
v -0.306433 0.952785 0.240860
v -0.307154 0.957644 0.246934
v -0.310214 0.975863 0.235138
v -0.264160 1.000610 0.281776
v -0.299885 0.943630 0.262142
v -0.308767 0.996505 0.227907
v -0.289119 0.935194 0.279270
v -0.302953 1.017549 0.225948
v -0.275910 0.933161 0.296645
v -0.293341 1.036935 0.229455
v -0.261550 0.937731 0.312564
v -0.280873 1.052765 0.238083
v -0.247446 0.948455 0.325469
v -0.266769 1.063490 0.250987
v -0.234978 0.964285 0.334097
v -0.252410 1.068059 0.266906
v -0.225367 0.983671 0.337603
v -0.239201 1.066027 0.284281
v -0.219553 1.004715 0.335645
v -0.228434 1.057591 0.301410
v -0.218105 1.025357 0.328414
v -0.221165 1.043577 0.316617
vn -0.8245 0.1306 0.5505
vn -0.8411 0.1626 0.5158
vn -0.7942 -0.5191 -0.3158
vn -0.6943 -0.7117 -0.1069
vn -0.8000 0.1113 0.5896
vn -0.6943 -0.7117 -0.1068
vn -0.7942 -0.5191 -0.3159
vn -0.5099 -0.8133 -0.2802
vn -0.6137 -0.6133 -0.4973
vn -0.5100 -0.8133 -0.2802
vn -0.3562 -0.9337 -0.0358
vn -0.5464 -0.8276 0.1286
vn -0.5464 -0.8276 0.1285
vn -0.7698 0.1067 0.6293
vn -0.5463 -0.8276 0.1285
vn -0.3563 -0.9337 -0.0358
vn -0.1677 -0.9627 0.2122
vn -0.3648 -0.8556 0.3673
vn -0.7370 0.1171 0.6656
vn -0.3649 -0.8556 0.3673
vn 0.0372 -0.8975 0.4394
vn -0.1675 -0.7928 0.5860
vn -0.7370 0.1171 0.6657
vn -0.1675 -0.7928 0.5861
vn 0.0373 -0.8975 0.4394
vn -0.7048 0.1416 0.6951
vn 0.2386 -0.7444 0.6237
vn 0.0263 -0.6454 0.7634
vn 0.2386 -0.7444 0.6236
vn -0.6763 0.1777 0.7148
vn 0.2385 -0.7444 0.6236
vn 0.4165 -0.5185 0.7468
vn 0.1977 -0.4278 0.8820
vn 0.1976 -0.4279 0.8820
vn -0.6544 0.2220 0.7228
vn 0.5537 -0.2418 0.7968
vn 0.1977 -0.4279 0.8820
vn 0.3297 -0.1615 0.9302
vn 0.3297 -0.1614 0.9302
vn 0.3298 -0.1614 0.9302
vn -0.6411 0.2700 0.7184
vn 0.6367 0.0586 0.7689
vn 0.4096 0.1278 0.9033
vn 0.4097 0.1278 0.9032
vn -0.6378 0.3172 0.7018
vn 0.6573 0.3532 0.6657
vn 0.4295 0.4114 0.8039
vn -0.6378 0.3172 0.7019
vn 0.4096 0.1277 0.9033
vn 0.4295 0.4115 0.8039
vn -0.6448 0.3588 0.6749
vn 0.6574 0.3532 0.6657
vn 0.6137 0.6133 0.4973
vn 0.3875 0.6618 0.6418
vn 0.3875 0.6618 0.6417
vn -0.6614 0.3908 0.6402
vn 0.5099 0.8133 0.2802
vn 0.2876 0.8544 0.4328
vn 0.5099 0.8133 0.2803
vn -0.6860 0.4101 0.6011
vn 0.5098 0.8133 0.2803
vn 0.3563 0.9337 0.0358
vn 0.1396 0.9703 0.1974
vn -0.6860 0.4100 0.6011
vn -0.7162 0.4147 0.5614
vn 0.1397 0.9703 0.1974
vn 0.3563 0.9337 0.0357
vn 0.1677 0.9627 -0.2122
vn -0.0419 0.9983 -0.0414
vn -0.7161 0.4147 0.5614
vn -0.7489 0.4043 0.5251
vn -0.0372 0.8975 -0.4394
vn -0.2392 0.9355 -0.2601
vn -0.0373 0.8975 -0.4395
vn -0.7489 0.4042 0.5251
vn -0.7811 0.3798 0.4956
vn -0.0372 0.8975 -0.4395
vn -0.2386 0.7444 -0.6236
vn -0.4330 0.7881 -0.4375
vn -0.2392 0.9355 -0.2602
vn -0.2385 0.7444 -0.6236
vn -0.8096 0.3436 0.4759
vn -0.4165 0.5185 -0.7468
vn -0.4331 0.7881 -0.4375
vn -0.6044 0.5705 -0.5560
vn -0.6044 0.5706 -0.5560
vn -0.8315 0.2994 0.4679
vn -0.5537 0.2418 -0.7968
vn -0.7365 0.3041 -0.6042
vn -0.8316 0.2993 0.4679
vn -0.8448 0.2513 0.4723
vn -0.6367 -0.0586 -0.7689
vn -0.8164 0.0149 -0.5773
vn -0.8448 0.2513 0.4724
vn -0.8164 0.0150 -0.5773
vn -0.7365 0.3042 -0.6042
vn -0.8481 0.2042 0.4889
vn -0.6574 -0.3532 -0.6657
vn -0.8363 -0.2688 -0.4780
vn -0.8363 -0.2687 -0.4779
vn -0.8363 -0.2688 -0.4779
vn -0.8363 -0.2687 -0.4780
vn -0.6137 -0.6132 -0.4973
vn -0.7527 0.2641 0.6031
vn -0.8411 0.1625 0.5158
vn -0.8412 0.1626 0.5158
vn -0.8246 0.1306 0.5505
vn -0.8246 0.1305 0.5505
vn -0.7999 0.1113 0.5897
vn -0.7698 0.1066 0.6293
vn -0.8316 0.2994 0.4679
vn -0.7811 0.3797 0.4956
vn -0.6411 0.2701 0.7183
vn -0.7526 0.2641 0.6032
vt 0.999023 0.338135
vt 0.999023 0.326660
vt 0.996094 0.326172
vt 0.996094 0.338135
vt 0.999023 0.350098
vt 0.989746 0.338135
vt 0.989746 0.326172
vt 0.989746 0.350098
vt 0.996094 0.350098
vt 0.999023 0.362060
vt 0.989746 0.362060
vt 0.996094 0.362060
vt 0.999023 0.373779
vt 0.989746 0.373779
vt 0.996094 0.373779
vt 0.999023 0.385742
vt 0.989746 0.385742
vt 0.996094 0.385742
vt 0.999023 0.397705
vt 0.989746 0.397705
vt 0.996094 0.397705
vt 0.999023 0.409668
vt 0.989746 0.409668
vt 0.996094 0.409668
vt 0.999023 0.421631
vt 0.989746 0.421631
vt 0.996094 0.421631
vt 0.999023 0.433350
vt 0.989746 0.433350
vt 0.996094 0.433350
vt 0.999023 0.445312
vt 0.989746 0.445312
vt 0.996094 0.445312
vt 0.999023 0.457275
vt 0.989746 0.457275
vt 0.996094 0.457275
vt 0.999023 0.469238
vt 0.989746 0.469238
vt 0.996094 0.469238
vt 0.999023 0.481201
vt 0.989746 0.481201
vt 0.996094 0.481201
vt 0.999023 0.492920
vt 0.989746 0.492920
vt 0.996094 0.492920
vt 0.999023 0.504883
vt 0.989746 0.504883
vt 0.996094 0.504883
vt 0.999023 0.516602
vt 0.989746 0.516602
vt 0.996094 0.516602
vt 0.999023 0.528809
vt 0.989746 0.528809
vt 0.996094 0.528809
vt 0.999023 0.540527
vt 0.989746 0.540527
vt 0.996094 0.540527
vt 0.999023 0.552734
vt 0.989746 0.552734
vt 0.996094 0.552734
vt 0.999023 0.563965
vt 0.989746 0.564453
vt 0.996094 0.564453
vt 0.955566 0.470703
vt 0.979004 0.458740
vt 0.974121 0.452148
vt 0.967285 0.447510
vt 0.981445 0.466553
vt 0.959473 0.444824
vt 0.981445 0.474853
vt 0.951660 0.444824
vt 0.979004 0.482666
vt 0.943848 0.447510
vt 0.974121 0.489258
vt 0.937012 0.452148
vt 0.967285 0.494141
vt 0.932129 0.458740
vt 0.959473 0.496582
vt 0.929688 0.466553
vt 0.951660 0.496582
vt 0.929688 0.474853
vt 0.943848 0.494141
vt 0.932129 0.482666
vt 0.937012 0.489258
s 0
usemtl æè´¨
f 3/1/1 2/2/2 1/3/3
f 4/4/4 3/1/1 1/3/3
f 3/1/1 4/4/4 5/5/5
f 4/4/6 1/3/7 6/6/8
f 1/3/3 7/7/9 6/6/8
f 4/4/4 6/6/10 8/8/11
f 4/4/6 9/9/12 5/5/5
f 9/9/13 4/4/4 8/8/11
f 5/5/5 9/9/13 10/10/14
f 9/9/15 8/8/16 11/11/17
f 9/9/13 12/12/18 10/10/14
f 12/12/18 9/9/15 11/11/17
f 10/10/14 12/12/18 13/13/19
f 12/12/20 11/11/17 14/14/21
f 12/12/18 15/15/22 13/13/23
f 15/15/24 12/12/20 14/14/25
f 13/13/23 15/15/24 16/16/26
f 15/15/24 14/14/21 17/17/27
f 15/15/24 18/18/28 16/16/26
f 18/18/28 15/15/22 17/17/29
f 16/16/26 18/18/28 19/19/30
f 18/18/28 17/17/31 20/20/32
f 18/18/28 21/21/33 19/19/30
f 21/21/33 18/18/28 20/20/32
f 19/19/30 21/21/34 22/22/35
f 21/21/33 20/20/32 23/23/36
f 21/21/37 24/24/38 22/22/35
f 24/24/39 21/21/33 23/23/36
f 22/22/35 24/24/40 25/25/41
f 24/24/39 23/23/36 26/26/42
f 24/24/38 27/27/43 25/25/41
f 27/27/43 24/24/39 26/26/42
f 25/25/41 27/27/44 28/28/45
f 27/27/43 26/26/42 29/29/46
f 27/27/43 30/30/47 28/28/48
f 30/30/47 27/27/49 29/29/46
f 28/28/48 30/30/50 31/31/51
f 30/30/47 29/29/52 32/32/53
f 30/30/47 33/33/54 31/31/51
f 33/33/54 30/30/50 32/32/53
f 31/31/51 33/33/55 34/34/56
f 33/33/54 32/32/53 35/35/57
f 33/33/55 36/36/58 34/34/56
f 36/36/58 33/33/55 35/35/59
f 34/34/56 36/36/58 37/37/60
f 36/36/58 35/35/61 38/38/62
f 36/36/58 39/39/63 37/37/64
f 39/39/63 36/36/58 38/38/62
f 37/37/60 39/39/63 40/40/65
f 39/39/66 38/38/67 41/41/68
f 39/39/66 42/42/69 40/40/70
f 42/42/69 39/39/66 41/41/68
f 40/40/70 42/42/69 43/43/71
f 42/42/69 41/41/68 44/44/72
f 42/42/69 45/45/73 43/43/71
f 45/45/73 42/42/69 44/44/74
f 43/43/75 45/45/73 46/46/76
f 45/45/73 44/44/77 47/47/78
f 45/45/73 48/48/79 46/46/76
f 48/48/79 45/45/80 47/47/81
f 46/46/76 48/48/79 49/49/82
f 48/48/79 47/47/78 50/50/83
f 48/48/84 51/51/85 49/49/82
f 51/51/85 48/48/79 50/50/83
f 49/49/82 51/51/86 52/52/87
f 51/51/86 50/50/83 53/53/88
f 51/51/86 54/54/89 52/52/87
f 54/54/89 51/51/85 53/53/88
f 52/52/90 54/54/89 55/55/91
f 54/54/89 53/53/88 56/56/92
f 54/54/89 57/57/93 55/55/94
f 57/57/95 54/54/96 56/56/92
f 55/55/94 57/57/93 58/58/97
f 57/57/95 56/56/92 59/59/98
f 57/57/95 60/60/99 58/58/97
f 60/60/100 57/57/95 59/59/98
f 58/58/97 60/60/101 61/61/2
f 60/60/102 59/59/98 62/62/9
f 60/60/100 63/63/3 61/61/2
f 63/63/3 60/60/102 62/62/103
f 66/64/104 65/65/97 64/66/105
f 66/64/104 64/66/106 67/67/107
f 66/64/104 68/68/94 65/65/97
f 66/64/104 67/67/108 69/69/109
f 66/64/104 70/70/87 68/68/94
f 66/64/104 69/69/5 71/71/110
f 66/64/104 72/72/82 70/70/111
f 66/64/104 71/71/110 73/73/23
f 66/64/104 74/74/76 72/72/82
f 66/64/104 73/73/23 75/75/26
f 66/64/104 76/76/75 74/74/112
f 66/64/104 75/75/26 77/77/30
f 66/64/104 78/78/65 76/76/71
f 66/64/104 77/77/30 79/79/35
f 66/64/104 80/80/60 78/78/65
f 66/64/104 79/79/35 81/81/113
f 66/64/114 82/82/56 80/80/60
f 66/64/104 81/81/41 83/83/45
f 66/64/104 84/84/51 82/82/56
f 66/64/104 83/83/45 84/84/51
