# Blender 4.0.2
# www.blender.org
mtllib Eyes.mtl
o Chef_Horse
v -0.284590 1.006260 0.388715
v -0.301906 1.009714 0.389869
v -0.295435 1.015410 0.393582
v -0.291061 1.000565 0.385002
v -0.307931 1.005776 0.383846
v -0.297087 0.996626 0.378979
v -0.312922 1.003980 0.376102
v -0.302077 0.994831 0.371235
v -0.316388 1.004502 0.367395
v -0.305544 0.995353 0.362528
v -0.317992 1.007292 0.358578
v -0.307147 0.998143 0.353711
v -0.317575 1.012076 0.350513
v -0.306730 1.002927 0.345646
v -0.315179 1.018385 0.343990
v -0.304334 1.009236 0.339124
v -0.311038 1.025603 0.339648
v -0.300194 1.016454 0.334781
v -0.305558 1.033023 0.337911
v -0.294713 1.023873 0.333044
v -0.299275 1.039918 0.338950
v -0.288430 1.030769 0.334083
v -0.292804 1.045613 0.342663
v -0.281959 1.036464 0.337796
v -0.286778 1.049551 0.348686
v -0.275933 1.040402 0.343819
v -0.281788 1.051347 0.356430
v -0.270943 1.042198 0.351563
v -0.278321 1.050825 0.365137
v -0.267476 1.041676 0.360270
v -0.276718 1.048035 0.373954
v -0.265873 1.038886 0.369087
v -0.277134 1.043252 0.382019
v -0.266290 1.034102 0.377152
v -0.279530 1.036942 0.388542
v -0.268686 1.027793 0.383675
v -0.283671 1.029724 0.392884
v -0.272826 1.020575 0.388017
v -0.289151 1.022305 0.394621
v -0.278307 1.013155 0.389754
v -0.295435 1.015410 0.393582
v -0.284590 1.006260 0.388715
v 0.284590 1.006260 0.388715
v 0.295435 1.015410 0.393582
v 0.301906 1.009714 0.389869
v 0.291061 1.000565 0.385002
v 0.307931 1.005776 0.383846
v 0.297087 0.996626 0.378979
v 0.312922 1.003980 0.376102
v 0.302077 0.994831 0.371235
v 0.316388 1.004502 0.367395
v 0.305544 0.995353 0.362528
v 0.317992 1.007292 0.358578
v 0.307147 0.998143 0.353711
v 0.317575 1.012076 0.350513
v 0.306730 1.002927 0.345646
v 0.315179 1.018385 0.343990
v 0.304334 1.009236 0.339124
v 0.311038 1.025603 0.339648
v 0.300194 1.016454 0.334781
v 0.305558 1.033023 0.337911
v 0.294713 1.023873 0.333044
v 0.299275 1.039918 0.338950
v 0.288430 1.030769 0.334083
v 0.292804 1.045613 0.342663
v 0.281959 1.036464 0.337796
v 0.286778 1.049551 0.348686
v 0.275933 1.040402 0.343819
v 0.281788 1.051347 0.356430
v 0.270943 1.042198 0.351563
v 0.278321 1.050825 0.365137
v 0.267476 1.041676 0.360270
v 0.276718 1.048035 0.373954
v 0.265873 1.038886 0.369087
v 0.277134 1.043252 0.382019
v 0.266290 1.034102 0.377152
v 0.279530 1.036942 0.388542
v 0.268686 1.027793 0.383675
v 0.283671 1.029724 0.392884
v 0.272826 1.020575 0.388017
v 0.289151 1.022305 0.394621
v 0.278307 1.013155 0.389754
v 0.295435 1.015410 0.393582
v 0.284590 1.006260 0.388715
v -0.295435 1.015410 0.393582
v -0.301906 1.009714 0.389869
v -0.297355 1.027664 0.366266
v -0.289151 1.022305 0.394621
v -0.307931 1.005776 0.383846
v -0.283671 1.029724 0.392884
v -0.312922 1.003980 0.376102
v -0.279530 1.036942 0.388542
v -0.316388 1.004502 0.367395
v -0.277134 1.043252 0.382019
v -0.317992 1.007292 0.358578
v -0.276718 1.048035 0.373954
v -0.317575 1.012076 0.350513
v -0.278321 1.050825 0.365137
v -0.315179 1.018385 0.343990
v -0.281788 1.051347 0.356430
v -0.311038 1.025603 0.339648
v -0.286778 1.049551 0.348686
v -0.305558 1.033023 0.337911
v -0.292804 1.045613 0.342663
v -0.299275 1.039918 0.338950
v 0.295435 1.015410 0.393582
v 0.297355 1.027664 0.366266
v 0.301906 1.009714 0.389869
v 0.289151 1.022305 0.394621
v 0.307931 1.005776 0.383846
v 0.283671 1.029724 0.392884
v 0.312922 1.003980 0.376102
v 0.279530 1.036942 0.388542
v 0.316388 1.004502 0.367395
v 0.277134 1.043252 0.382019
v 0.317992 1.007292 0.358578
v 0.276718 1.048035 0.373954
v 0.317575 1.012076 0.350513
v 0.278321 1.050825 0.365137
v 0.315179 1.018385 0.343990
v 0.281788 1.051347 0.356430
v 0.311038 1.025603 0.339648
v 0.286778 1.049551 0.348686
v 0.305558 1.033023 0.337911
v 0.292804 1.045613 0.342663
v 0.299275 1.039918 0.338950
vn 0.0640 -0.4084 0.9105
vn -0.1517 -0.5983 0.7868
vn 0.0640 -0.4085 0.9105
vn -0.3526 -0.7296 0.5860
vn -0.5189 -0.7895 0.3279
vn -0.5189 -0.7895 0.3278
vn -0.3525 -0.7296 0.5860
vn -0.6344 -0.7720 0.0376
vn -0.6345 -0.7720 0.0376
vn -0.6344 -0.7721 0.0376
vn -0.6879 -0.6790 -0.2563
vn -0.6879 -0.6791 -0.2563
vn -0.6740 -0.5196 -0.5251
vn -0.5942 -0.3093 -0.7425
vn -0.5941 -0.3093 -0.7425
vn -0.5942 -0.3092 -0.7425
vn -0.4561 -0.0687 -0.8873
vn -0.2734 0.1786 -0.9452
vn -0.2734 0.1787 -0.9452
vn -0.0640 0.4085 -0.9105
vn -0.2735 0.1786 -0.9452
vn -0.0641 0.4085 -0.9105
vn 0.1517 0.5983 -0.7868
vn 0.3526 0.7296 -0.5860
vn 0.3525 0.7296 -0.5860
vn 0.5189 0.7895 -0.3279
vn 0.5189 0.7895 -0.3278
vn 0.6344 0.7720 -0.0376
vn 0.6344 0.7721 -0.0376
vn 0.6879 0.6791 0.2563
vn 0.6345 0.7720 -0.0377
vn 0.6740 0.5196 0.5251
vn 0.5942 0.3093 0.7425
vn 0.5941 0.3093 0.7425
vn 0.5942 0.3092 0.7425
vn 0.4561 0.0687 0.8873
vn 0.2734 -0.1787 0.9452
vn 0.2735 -0.1786 0.9451
vn 0.2734 -0.1786 0.9452
vn 0.2735 -0.1786 0.9452
vn 0.1517 -0.5983 0.7868
vn -0.0640 -0.4085 0.9105
vn 0.3525 -0.7296 0.5860
vn 0.3526 -0.7296 0.5860
vn 0.5189 -0.7895 0.3279
vn 0.6345 -0.7720 0.0377
vn 0.5189 -0.7895 0.3278
vn 0.6345 -0.7720 0.0376
vn 0.6879 -0.6791 -0.2563
vn 0.6879 -0.6790 -0.2563
vn 0.6740 -0.5196 -0.5251
vn 0.5941 -0.3093 -0.7425
vn 0.5942 -0.3093 -0.7425
vn 0.4561 -0.0687 -0.8873
vn 0.2734 0.1786 -0.9452
vn 0.2734 0.1787 -0.9452
vn 0.0640 0.4085 -0.9105
vn 0.2735 0.1786 -0.9452
vn -0.1517 0.5983 -0.7868
vn -0.3526 0.7296 -0.5860
vn -0.5189 0.7895 -0.3279
vn -0.3525 0.7296 -0.5860
vn -0.6344 0.7720 -0.0376
vn -0.6345 0.7720 -0.0376
vn -0.6344 0.7721 -0.0376
vn -0.6879 0.6791 0.2563
vn -0.6879 0.6790 0.2563
vn -0.6344 0.7721 -0.0377
vn -0.6740 0.5196 0.5251
vn -0.6878 0.6791 0.2563
vn -0.5942 0.3093 0.7425
vn -0.5941 0.3093 0.7425
vn -0.4561 0.0687 0.8873
vn -0.2734 -0.1787 0.9452
vn -0.2735 -0.1786 0.9452
vn -0.2734 -0.1786 0.9452
vn -0.7230 0.6099 0.3244
vn -0.7230 0.6100 0.3245
vn -0.7230 0.6100 0.3244
vn -0.7230 0.6099 0.3245
vn 0.7230 0.6099 0.3244
vn 0.7230 0.6100 0.3245
vn 0.7230 0.6100 0.3244
vn 0.7230 0.6099 0.3245
vt 0.002104 0.041626
vt 0.009628 0.041626
vt 0.002104 0.032898
vt 0.009628 0.032898
vt 0.017151 0.041626
vt 0.017151 0.032898
vt 0.024689 0.041626
vt 0.024673 0.032898
vt 0.032196 0.041626
vt 0.032196 0.032898
vt 0.039734 0.041626
vt 0.039734 0.032898
vt 0.047272 0.041626
vt 0.047272 0.032898
vt 0.054779 0.041626
vt 0.054779 0.032898
vt 0.062317 0.041626
vt 0.062317 0.032898
vt 0.069824 0.041626
vt 0.069824 0.032898
vt 0.077332 0.041626
vt 0.077332 0.032898
vt 0.084900 0.041626
vt 0.084900 0.032898
vt 0.092407 0.041626
vt 0.092407 0.032898
vt 0.099915 0.041626
vt 0.099915 0.032898
vt 0.107483 0.041626
vt 0.107483 0.032898
vt 0.114990 0.041626
vt 0.114990 0.032898
vt 0.122498 0.041626
vt 0.122498 0.032898
vt 0.130005 0.041626
vt 0.130005 0.032898
vt 0.137573 0.041626
vt 0.137573 0.032898
vt 0.145142 0.041626
vt 0.145142 0.032898
vt 0.152588 0.041626
vt 0.152588 0.032898
vt 0.585449 0.331543
vt 0.603027 0.345215
vt 0.605957 0.339111
vt 0.607422 0.332275
vt 0.598144 0.350098
vt 0.605957 0.325440
vt 0.592285 0.353272
vt 0.603027 0.319336
vt 0.585449 0.354248
vt 0.598144 0.314453
vt 0.578613 0.353272
vt 0.592285 0.311523
vt 0.572266 0.350098
vt 0.585449 0.310303
vt 0.567383 0.345215
vt 0.578613 0.311523
vt 0.564453 0.339111
vt 0.572266 0.314453
vt 0.563477 0.332275
vt 0.567383 0.319336
vt 0.564453 0.325440
s 0
usemtl æè´¨
f 3/1/1 2/2/2 1/3/3
f 2/2/2 4/4/2 1/3/3
f 2/2/2 5/5/4 4/4/2
f 5/5/4 6/6/4 4/4/2
f 5/5/4 7/7/5 6/6/4
f 7/7/5 8/8/6 6/6/7
f 7/7/6 9/9/8 8/8/5
f 9/9/9 10/10/9 8/8/5
f 9/9/10 11/11/11 10/10/9
f 11/11/11 12/12/11 10/10/10
f 11/11/12 13/13/13 12/12/12
f 13/13/13 14/14/13 12/12/12
f 13/13/13 15/15/14 14/14/13
f 15/15/14 16/16/15 14/14/13
f 15/15/16 17/17/17 16/16/14
f 17/17/17 18/18/17 16/16/14
f 17/17/17 19/19/18 18/18/17
f 19/19/18 20/20/19 18/18/17
f 19/19/18 21/21/20 20/20/21
f 21/21/20 22/22/22 20/20/18
f 21/21/20 23/23/23 22/22/20
f 23/23/23 24/24/23 22/22/20
f 23/23/23 25/25/24 24/24/23
f 25/25/24 26/26/25 24/24/23
f 25/25/24 27/27/26 26/26/24
f 27/27/26 28/28/26 26/26/25
f 27/27/27 29/29/28 28/28/27
f 29/29/29 30/30/29 28/28/26
f 29/29/28 31/31/30 30/30/29
f 31/31/30 32/32/30 30/30/31
f 31/31/30 33/33/32 32/32/30
f 33/33/32 34/34/32 32/32/30
f 33/33/32 35/35/33 34/34/32
f 35/35/34 36/36/34 34/34/32
f 35/35/35 37/37/36 36/36/33
f 37/37/36 38/38/36 36/36/33
f 37/37/36 39/39/37 38/38/36
f 39/39/38 40/40/39 38/38/36
f 39/39/39 41/41/3 40/40/39
f 41/41/3 42/42/3 40/40/40
f 45/2/41 44/1/42 43/3/42
f 46/4/41 45/2/41 43/3/42
f 47/5/43 45/2/41 46/4/41
f 48/6/44 47/5/44 46/4/41
f 49/7/45 47/5/43 48/6/44
f 50/8/45 49/7/45 48/6/44
f 51/9/46 49/7/47 50/8/45
f 52/10/48 51/9/48 50/8/45
f 53/11/49 51/9/48 52/10/48
f 54/12/49 53/11/50 52/10/46
f 55/13/51 53/11/49 54/12/49
f 56/14/51 55/13/51 54/12/49
f 57/15/52 55/13/51 56/14/51
f 58/16/53 57/15/52 56/14/51
f 59/17/54 57/15/53 58/16/53
f 60/18/54 59/17/54 58/16/53
f 61/19/55 59/17/54 60/18/54
f 62/20/56 61/19/55 60/18/54
f 63/21/57 61/19/58 62/20/58
f 64/22/57 63/21/57 62/20/55
f 65/23/59 63/21/57 64/22/57
f 66/24/59 65/23/59 64/22/57
f 67/25/60 65/23/59 66/24/59
f 68/26/60 67/25/60 66/24/59
f 69/27/61 67/25/60 68/26/60
f 70/28/61 69/27/61 68/26/62
f 71/29/63 69/27/61 70/28/61
f 72/30/64 71/29/65 70/28/61
f 73/31/66 71/29/64 72/30/63
f 74/32/67 73/31/66 72/30/68
f 75/33/69 73/31/66 74/32/66
f 76/34/69 75/33/69 74/32/70
f 77/35/71 75/33/69 76/34/69
f 78/36/71 77/35/72 76/34/69
f 79/37/73 77/35/71 78/36/71
f 80/38/73 79/37/73 78/36/72
f 81/39/74 79/37/73 80/38/73
f 82/40/75 81/39/76 80/38/73
f 83/41/42 81/39/76 82/40/76
f 84/42/42 83/41/42 82/40/76
f 87/43/77 86/44/77 85/45/77
f 87/43/77 85/45/77 88/46/77
f 87/43/78 89/47/78 86/44/78
f 87/43/79 88/46/79 90/48/79
f 87/43/77 91/49/77 89/47/77
f 87/43/80 90/48/80 92/50/80
f 87/43/77 93/51/77 91/49/77
f 87/43/80 92/50/80 94/52/80
f 87/43/80 95/53/80 93/51/80
f 87/43/79 94/52/79 96/54/79
f 87/43/80 97/55/80 95/53/80
f 87/43/80 96/54/80 98/56/80
f 87/43/79 99/57/79 97/55/79
f 87/43/79 98/56/79 100/58/79
f 87/43/77 101/59/77 99/57/77
f 87/43/79 100/58/79 102/60/79
f 87/43/80 103/61/80 101/59/80
f 87/43/78 102/60/78 104/62/78
f 87/43/77 105/63/77 103/61/77
f 87/43/78 104/62/78 105/63/78
f 108/44/81 107/43/81 106/45/81
f 106/45/81 107/43/81 109/46/81
f 110/47/82 107/43/82 108/44/82
f 109/46/83 107/43/83 111/48/83
f 112/49/81 107/43/81 110/47/81
f 111/48/84 107/43/84 113/50/84
f 114/51/81 107/43/81 112/49/81
f 113/50/84 107/43/84 115/52/84
f 116/53/84 107/43/84 114/51/84
f 115/52/83 107/43/83 117/54/83
f 118/55/84 107/43/84 116/53/84
f 117/54/84 107/43/84 119/56/84
f 120/57/83 107/43/83 118/55/83
f 119/56/83 107/43/83 121/58/83
f 122/59/81 107/43/81 120/57/81
f 121/58/83 107/43/83 123/60/83
f 124/61/84 107/43/84 122/59/84
f 123/60/82 107/43/82 125/62/82
f 126/63/81 107/43/81 124/61/81
f 125/62/82 107/43/82 126/63/82
