# Blender 4.0.2
# www.blender.org
mtllib Eyes2.mtl
o Chef_Dino
v 0.236069 1.035913 0.198213
v 0.234522 1.034719 0.195338
v 0.232137 1.037345 0.189784
v 0.236324 1.031402 0.196539
v 0.234274 1.041264 0.191284
v 0.233483 1.042173 0.169971
v 0.238611 1.032356 0.199761
v 0.238940 1.030054 0.194596
v 0.236246 1.048076 0.171606
v 0.241248 1.043418 0.147326
v 0.238590 1.037933 0.197079
v 0.244355 1.049300 0.147427
v 0.249843 1.038366 0.125788
v 0.253274 1.044084 0.125354
v 0.259381 1.029545 0.108656
v 0.262076 1.033701 0.108172
v 0.263777 1.026853 0.105886
v 0.241326 1.030641 0.196895
v 0.241070 1.035152 0.198571
v 0.238752 1.042570 0.192608
v 0.242819 1.050032 0.173344
v 0.251116 1.051006 0.149337
v 0.259628 1.046146 0.127698
v 0.266766 1.035556 0.110058
v 0.266569 1.028306 0.104146
v 0.269542 1.024764 0.105615
v 0.265737 1.023458 0.106883
v 0.270776 1.023389 0.110734
v 0.267422 1.022622 0.110918
v 0.270061 1.024494 0.117646
v 0.265370 1.022639 0.115761
v 0.264970 1.029466 0.136459
v 0.258642 1.027388 0.134055
v 0.258968 1.032599 0.154669
v 0.252241 1.030875 0.152692
v 0.251477 1.032291 0.172031
v 0.244909 1.030336 0.170281
v 0.243641 1.030818 0.190579
v 0.239162 1.029512 0.189256
v 0.245776 1.034736 0.192081
v 0.254238 1.038192 0.173674
v 0.262043 1.038498 0.154835
v 0.268373 1.035197 0.136087
v 0.243008 1.033269 0.196336
v 0.243366 1.039524 0.192816
v 0.250084 1.045422 0.174073
v 0.258218 1.046019 0.152433
v 0.265626 1.041971 0.132222
v 0.272756 1.028651 0.117163
v 0.270993 1.033106 0.113843
v 0.272219 1.026527 0.111829
v 0.271609 1.028237 0.107995
v 0.268574 1.030758 0.106796
v -0.236069 1.035913 0.198213
v -0.232137 1.037345 0.189784
v -0.234522 1.034719 0.195338
v -0.236324 1.031402 0.196539
v -0.234274 1.041264 0.191284
v -0.233483 1.042173 0.169971
v -0.238611 1.032356 0.199761
v -0.238940 1.030054 0.194596
v -0.236246 1.048076 0.171606
v -0.241248 1.043418 0.147326
v -0.238590 1.037933 0.197079
v -0.244355 1.049300 0.147427
v -0.249843 1.038366 0.125788
v -0.253274 1.044084 0.125354
v -0.259381 1.029545 0.108656
v -0.262076 1.033701 0.108172
v -0.263777 1.026853 0.105886
v -0.241326 1.030641 0.196895
v -0.241070 1.035152 0.198571
v -0.238752 1.042570 0.192608
v -0.242819 1.050032 0.173344
v -0.251116 1.051006 0.149337
v -0.259628 1.046146 0.127698
v -0.266766 1.035556 0.110058
v -0.243641 1.030818 0.190579
v -0.239162 1.029512 0.189256
v -0.244909 1.030336 0.170281
v -0.251477 1.032291 0.172031
v -0.252241 1.030875 0.152692
v -0.245776 1.034736 0.192081
v -0.258968 1.032599 0.154669
v -0.258642 1.027388 0.134055
v -0.266569 1.028306 0.104146
v -0.243008 1.033269 0.196336
v -0.243366 1.039524 0.192816
v -0.254238 1.038192 0.173674
v -0.250084 1.045422 0.174073
v -0.264970 1.029466 0.136459
v -0.265370 1.022639 0.115761
v -0.262043 1.038498 0.154835
v -0.258218 1.046019 0.152433
v -0.270061 1.024494 0.117646
v -0.267422 1.022622 0.110918
v -0.268373 1.035197 0.136087
v -0.265626 1.041971 0.132222
v -0.270776 1.023389 0.110734
v -0.265737 1.023458 0.106883
v -0.272756 1.028651 0.117163
v -0.270993 1.033106 0.113843
v -0.269542 1.024764 0.105615
v -0.272219 1.026527 0.111829
v -0.271609 1.028237 0.107995
v -0.268574 1.030758 0.106796
vn -0.9062 0.4044 0.1231
vn -0.8636 0.1242 0.4886
vn -0.5812 0.3319 0.7430
vn -0.8636 0.1242 0.4887
vn -0.5578 -0.6186 0.5533
vn -0.6653 0.7018 0.2545
vn -0.9063 0.4044 0.1231
vn -0.6654 0.7018 0.2545
vn -0.8801 0.4550 -0.1356
vn -0.1247 -0.3347 0.9340
vn -0.1248 -0.3347 0.9340
vn -0.5579 -0.6186 0.5533
vn 0.1075 -0.9775 0.1816
vn -0.6266 0.7791 -0.0193
vn -0.8801 0.4550 -0.1355
vn -0.8257 0.4508 -0.3391
vn 0.0243 0.6753 0.7371
vn -0.5451 0.7942 -0.2685
vn -0.8257 0.4508 -0.3392
vn -0.7602 0.4150 -0.4999
vn -0.4681 0.7357 -0.4896
vn -0.7601 0.4150 -0.4999
vn -0.6798 0.3480 -0.6456
vn -0.3996 0.6276 -0.6682
vn -0.4339 -0.0349 -0.9003
vn -0.3995 0.6276 -0.6682
vn 0.4447 -0.7851 0.4311
vn 0.1076 -0.9775 0.1816
vn 0.5078 0.3443 0.7897
vn 0.5077 0.3442 0.7897
vn 0.0924 0.8947 0.4370
vn 0.5077 0.3442 0.7898
vn 0.1231 0.9698 0.2104
vn 0.1972 0.9803 -0.0130
vn 0.2741 0.9307 -0.2423
vn 0.3261 0.8369 -0.4396
vn 0.2741 0.9307 -0.2424
vn -0.0023 0.2083 -0.9781
vn -0.0024 0.2082 -0.9781
vn -0.0023 0.2082 -0.9781
vn 0.4987 -0.4613 -0.7338
vn 0.0051 -0.7696 -0.6385
vn 0.0051 -0.7696 -0.6386
vn 0.4987 -0.4614 -0.7338
vn 0.6352 -0.7693 -0.0681
vn 0.2567 -0.9662 -0.0228
vn 0.5455 -0.7726 0.3249
vn 0.2229 -0.9331 0.2822
vn 0.5454 -0.7726 0.3249
vn 0.5528 -0.7626 0.3360
vn 0.2039 -0.9401 0.2734
vn 0.5780 -0.7660 0.2812
vn 0.2221 -0.9621 0.1584
vn 0.2039 -0.9400 0.2734
vn 0.5825 -0.7863 0.2062
vn 0.2588 -0.9640 0.0602
vn 0.5731 -0.7996 0.1794
vn 0.2662 -0.9628 0.0455
vn 0.5825 -0.7862 0.2062
vn 0.9044 -0.0011 0.4267
vn 0.9162 0.0826 0.3922
vn 0.5825 -0.7862 0.2063
vn 0.5528 -0.7626 0.3359
vn 0.9320 0.1261 0.3398
vn 0.9161 0.0826 0.3922
vn 0.9607 0.0874 0.2636
vn 0.9044 -0.0011 0.4268
vn 0.8360 -0.1204 0.5354
vn 0.6425 0.6073 0.4674
vn 0.8360 -0.1203 0.5353
vn 0.6425 0.6073 0.4673
vn 0.5077 0.3443 0.7897
vn 0.6531 0.6786 0.3361
vn 0.6530 0.6787 0.3361
vn 0.9320 0.1261 0.3399
vn 0.6852 0.7017 0.1954
vn 0.6852 0.7016 0.1954
vn 0.7461 0.6648 0.0360
vn 0.7461 0.6648 0.0359
vn 0.6852 0.7016 0.1955
vn 0.9835 0.0177 0.1802
vn 0.9835 0.0178 0.1802
vn 0.6353 -0.7693 -0.0681
vn 0.7975 0.5928 -0.1119
vn 0.9835 0.0177 0.1803
vn 0.9859 -0.1524 -0.0692
vn 0.7975 0.5929 -0.1119
vn 0.8688 0.2293 -0.4389
vn 0.4986 -0.4613 -0.7338
vn 0.8688 0.2293 -0.4388
vn 0.4727 0.5685 -0.6733
vn 0.8636 0.1243 0.4887
vn 0.9062 0.4044 0.1231
vn 0.5812 0.3319 0.7430
vn 0.8636 0.1242 0.4887
vn 0.5578 -0.6186 0.5533
vn 0.9063 0.4044 0.1231
vn 0.6653 0.7018 0.2545
vn 0.6654 0.7018 0.2545
vn 0.8801 0.4550 -0.1356
vn 0.1247 -0.3347 0.9340
vn 0.1248 -0.3347 0.9340
vn -0.1075 -0.9775 0.1816
vn 0.6266 0.7791 -0.0193
vn 0.8801 0.4550 -0.1355
vn 0.8257 0.4508 -0.3392
vn -0.0244 0.6753 0.7371
vn 0.5812 0.3320 0.7430
vn -0.0243 0.6753 0.7371
vn 0.5451 0.7942 -0.2685
vn 0.8257 0.4508 -0.3391
vn 0.7602 0.4150 -0.4999
vn 0.4681 0.7357 -0.4896
vn 0.7601 0.4150 -0.4999
vn 0.6798 0.3480 -0.6456
vn 0.3996 0.6276 -0.6682
vn 0.4339 -0.0349 -0.9003
vn 0.3995 0.6276 -0.6682
vn -0.4447 -0.7851 0.4311
vn -0.1076 -0.9775 0.1816
vn -0.5077 0.3443 0.7897
vn -0.5077 0.3442 0.7897
vn -0.0924 0.8947 0.4370
vn -0.5077 0.3442 0.7898
vn -0.1231 0.9698 0.2104
vn -0.1972 0.9803 -0.0130
vn -0.2741 0.9307 -0.2423
vn -0.3261 0.8369 -0.4396
vn -0.2741 0.9307 -0.2424
vn -0.5731 -0.7996 0.1794
vn -0.2662 -0.9628 0.0455
vn -0.2588 -0.9640 0.0602
vn -0.5825 -0.7863 0.2062
vn -0.2588 -0.9640 0.0603
vn -0.2221 -0.9621 0.1584
vn -0.5825 -0.7862 0.2062
vn -0.9044 -0.0011 0.4267
vn -0.5780 -0.7660 0.2812
vn -0.2215 -0.9622 0.1584
vn -0.5825 -0.7863 0.2063
vn -0.2039 -0.9400 0.2734
vn 0.0024 0.2082 -0.9781
vn 0.0023 0.2083 -0.9781
vn -0.8360 -0.1204 0.5354
vn -0.9044 -0.0011 0.4268
vn -0.6425 0.6073 0.4673
vn -0.8360 -0.1203 0.5353
vn -0.6425 0.6073 0.4674
vn -0.9162 0.0826 0.3922
vn -0.5825 -0.7862 0.2063
vn -0.9161 0.0826 0.3922
vn -0.6530 0.6787 0.3361
vn -0.6531 0.6786 0.3361
vn -0.5528 -0.7626 0.3360
vn -0.2039 -0.9401 0.2734
vn -0.2229 -0.9331 0.2822
vn -0.9320 0.1261 0.3398
vn -0.9161 0.0826 0.3923
vn -0.5528 -0.7626 0.3359
vn -0.6852 0.7017 0.1954
vn -0.9320 0.1261 0.3399
vn -0.5455 -0.7726 0.3249
vn -0.2567 -0.9662 -0.0228
vn -0.5454 -0.7726 0.3249
vn -0.9607 0.0874 0.2636
vn -0.7461 0.6648 0.0360
vn -0.7461 0.6648 0.0359
vn -0.6852 0.7016 0.1955
vn -0.6353 -0.7693 -0.0681
vn -0.0051 -0.7696 -0.6386
vn -0.6352 -0.7693 -0.0681
vn -0.9835 0.0178 0.1803
vn -0.9835 0.0177 0.1802
vn -0.7975 0.5928 -0.1119
vn -0.9835 0.0177 0.1803
vn -0.4987 -0.4613 -0.7338
vn -0.0051 -0.7695 -0.6386
vn -0.0051 -0.7696 -0.6385
vn -0.9859 -0.1524 -0.0692
vn -0.7975 0.5929 -0.1119
vn -0.8688 0.2293 -0.4389
vn -0.4986 -0.4614 -0.7338
vn -0.8688 0.2294 -0.4388
vn 0.0023 0.2082 -0.9781
vn -0.4727 0.5685 -0.6733
vn -0.8688 0.2293 -0.4388
vt 0.959961 0.488525
vt 0.956543 0.490234
vt 0.956055 0.489502
vt 0.954102 0.490723
vt 0.958496 0.487549
vt 0.964356 0.480957
vt 0.954102 0.489502
vt 0.952148 0.489502
vt 0.961914 0.480225
vt 0.965332 0.470703
vt 0.956055 0.488281
vt 0.962402 0.470459
vt 0.964356 0.460693
vt 0.961914 0.461426
vt 0.960449 0.452148
vt 0.958984 0.453369
vt 0.957519 0.450684
vt 0.953125 0.488770
vt 0.954590 0.488281
vt 0.957031 0.486572
vt 0.958984 0.479492
vt 0.959961 0.470459
vt 0.958984 0.461914
vt 0.957519 0.454590
vt 0.956543 0.451416
vt 0.955078 0.451416
vt 0.955078 0.450195
vt 0.953125 0.452393
vt 0.952637 0.451416
vt 0.951660 0.454834
vt 0.950195 0.453369
vt 0.950195 0.462891
vt 0.947266 0.462158
vt 0.950195 0.470703
vt 0.947266 0.470947
vt 0.950195 0.478516
vt 0.947266 0.479248
vt 0.951660 0.486572
vt 0.949707 0.487549
vt 0.953125 0.486084
vt 0.952637 0.478272
vt 0.952637 0.470703
vt 0.952637 0.462891
vt 0.953613 0.487793
vt 0.955078 0.486084
vt 0.956055 0.478760
vt 0.956055 0.470459
vt 0.956055 0.462647
vt 0.953125 0.455322
vt 0.955566 0.455322
vt 0.953613 0.453613
vt 0.955078 0.452881
vt 0.956543 0.452881
s 0
usemtl æè´¨
f 3/1/1 2/2/2 1/3/3
f 1/3/3 2/2/4 4/4/5
f 5/5/6 3/1/7 1/3/3
f 3/1/7 5/5/8 6/6/9
f 7/7/10 1/3/3 4/4/5
f 7/7/11 4/4/12 8/8/13
f 5/5/6 9/9/14 6/6/15
f 6/6/9 9/9/14 10/10/16
f 5/5/8 1/3/3 11/11/17
f 11/11/17 1/3/3 7/7/10
f 9/9/14 12/12/18 10/10/19
f 10/10/16 12/12/18 13/13/20
f 12/12/18 14/14/21 13/13/22
f 13/13/20 14/14/21 15/15/23
f 14/14/21 16/16/24 15/15/23
f 17/17/25 15/15/23 16/16/26
f 18/18/27 7/7/10 8/8/28
f 19/19/29 11/11/17 7/7/10
f 19/19/30 7/7/10 18/18/27
f 20/20/31 5/5/6 11/11/17
f 20/20/31 11/11/17 19/19/32
f 21/21/33 9/9/14 5/5/6
f 20/20/31 21/21/33 5/5/6
f 22/22/34 12/12/18 9/9/14
f 21/21/33 22/22/34 9/9/14
f 23/23/35 14/14/21 12/12/18
f 22/22/34 23/23/35 12/12/18
f 24/24/36 16/16/26 14/14/21
f 23/23/37 24/24/36 14/14/21
f 25/25/38 17/17/25 16/16/26
f 25/25/39 16/16/24 24/24/36
f 17/17/25 25/25/40 26/26/41
f 27/27/42 17/17/25 26/26/41
f 27/27/43 26/26/44 28/28/45
f 29/29/46 27/27/43 28/28/45
f 29/29/46 28/28/45 30/30/47
f 31/31/48 29/29/46 30/30/49
f 31/31/48 30/30/47 32/32/50
f 33/33/51 31/31/48 32/32/50
f 33/33/51 32/32/50 34/34/52
f 35/35/53 33/33/54 34/34/52
f 35/35/53 34/34/52 36/36/55
f 37/37/56 35/35/53 36/36/55
f 37/37/56 36/36/55 38/38/57
f 39/39/58 37/37/56 38/38/57
f 39/39/58 38/38/57 8/8/28
f 38/38/57 18/18/27 8/8/28
f 38/38/57 36/36/59 40/40/60
f 38/38/57 40/40/60 18/18/27
f 36/36/59 34/34/52 41/41/61
f 36/36/62 41/41/61 40/40/60
f 34/34/52 32/32/63 42/42/64
f 34/34/52 42/42/64 41/41/65
f 32/32/63 30/30/47 43/43/66
f 32/32/50 43/43/66 42/42/64
f 40/40/67 44/44/68 18/18/27
f 44/44/68 19/19/30 18/18/27
f 40/40/67 45/45/69 44/44/70
f 45/45/71 19/19/72 44/44/70
f 40/40/67 41/41/61 45/45/69
f 45/45/69 20/20/31 19/19/72
f 41/41/61 46/46/73 45/45/69
f 45/45/69 46/46/73 20/20/31
f 41/41/65 42/42/64 46/46/73
f 46/46/74 21/21/33 20/20/31
f 42/42/75 47/47/76 46/46/73
f 46/46/74 47/47/77 21/21/33
f 42/42/64 43/43/66 47/47/77
f 47/47/76 22/22/34 21/21/33
f 47/47/76 48/48/78 22/22/34
f 43/43/66 48/48/79 47/47/80
f 48/48/79 23/23/37 22/22/34
f 43/43/66 49/49/81 48/48/79
f 30/30/49 49/49/82 43/43/66
f 30/30/47 28/28/83 49/49/81
f 48/48/79 50/50/84 23/23/35
f 49/49/85 50/50/84 48/48/79
f 50/50/84 24/24/36 23/23/37
f 28/28/45 51/51/86 49/49/81
f 49/49/81 51/51/86 50/50/87
f 28/28/45 26/26/41 51/51/86
f 51/51/86 52/52/88 50/50/84
f 26/26/41 52/52/88 51/51/86
f 50/50/87 52/52/88 24/24/36
f 26/26/89 25/25/39 52/52/90
f 53/53/91 25/25/40 24/24/36
f 25/25/39 53/53/91 52/52/90
f 52/52/90 53/53/91 24/24/36
f 56/2/92 55/1/93 54/3/94
f 56/2/95 54/3/94 57/4/96
f 55/1/97 58/5/98 54/3/94
f 58/5/99 55/1/97 59/6/100
f 54/3/94 60/7/101 57/4/96
f 57/4/96 60/7/102 61/8/103
f 62/9/104 58/5/98 59/6/105
f 62/9/104 59/6/100 63/10/106
f 54/3/94 58/5/98 64/11/107
f 54/3/108 64/11/109 60/7/101
f 65/12/110 62/9/104 63/10/106
f 65/12/110 63/10/111 66/13/112
f 67/14/113 65/12/110 66/13/114
f 67/14/113 66/13/112 68/15/115
f 69/16/116 67/14/113 68/15/115
f 68/15/115 70/17/117 69/16/118
f 60/7/101 71/18/119 61/8/120
f 64/11/107 72/19/121 60/7/101
f 60/7/101 72/19/122 71/18/119
f 58/5/98 73/20/123 64/11/109
f 64/11/109 73/20/123 72/19/124
f 62/9/104 74/21/125 58/5/98
f 74/21/125 73/20/123 58/5/98
f 65/12/110 75/22/126 62/9/104
f 75/22/126 74/21/125 62/9/104
f 67/14/113 76/23/127 65/12/110
f 76/23/127 75/22/126 65/12/110
f 69/16/118 77/24/128 67/14/113
f 77/24/128 76/23/129 67/14/113
f 71/18/119 78/38/130 61/8/103
f 78/38/130 79/39/131 61/8/103
f 80/37/132 79/39/131 78/38/130
f 81/36/133 80/37/134 78/38/130
f 82/35/135 80/37/132 81/36/136
f 83/40/137 78/38/130 71/18/119
f 81/36/136 78/38/130 83/40/137
f 84/34/138 82/35/139 81/36/140
f 85/33/141 82/35/135 84/34/138
f 69/16/116 86/25/142 77/24/128
f 70/17/117 86/25/143 69/16/118
f 87/44/144 83/40/145 71/18/119
f 72/19/122 87/44/144 71/18/119
f 72/19/121 88/45/146 87/44/147
f 88/45/148 83/40/137 87/44/147
f 73/20/123 88/45/148 72/19/121
f 89/41/149 81/36/150 83/40/145
f 89/41/151 83/40/145 88/45/148
f 84/34/138 81/36/136 89/41/149
f 90/46/152 88/45/148 73/20/123
f 90/46/153 89/41/149 88/45/148
f 74/21/125 90/46/152 73/20/123
f 91/32/154 85/33/155 84/34/138
f 92/31/156 85/33/155 91/32/154
f 93/42/157 84/34/138 89/41/158
f 93/42/157 89/41/151 90/46/153
f 91/32/159 84/34/138 93/42/157
f 94/47/160 90/46/153 74/21/125
f 94/47/160 93/42/161 90/46/153
f 75/22/126 94/47/160 74/21/125
f 95/30/162 92/31/156 91/32/154
f 96/29/163 92/31/156 95/30/164
f 97/43/165 91/32/154 93/42/157
f 97/43/165 93/42/157 94/47/160
f 95/30/164 91/32/159 97/43/165
f 98/48/166 94/47/160 75/22/126
f 98/48/167 97/43/165 94/47/168
f 76/23/129 98/48/167 75/22/126
f 99/28/169 96/29/163 95/30/162
f 100/27/170 96/29/163 99/28/171
f 101/49/172 95/30/162 97/43/165
f 101/49/173 97/43/165 98/48/167
f 99/28/169 95/30/162 101/49/173
f 102/50/174 98/48/167 76/23/127
f 102/50/174 101/49/175 98/48/167
f 77/24/128 102/50/174 76/23/129
f 103/26/176 100/27/177 99/28/171
f 70/17/117 100/27/178 103/26/176
f 86/25/142 70/17/117 103/26/176
f 104/51/179 99/28/171 101/49/173
f 104/51/179 101/49/173 102/50/180
f 103/26/176 99/28/171 104/51/179
f 105/52/181 104/51/179 102/50/174
f 105/52/181 103/26/176 104/51/179
f 105/52/181 102/50/180 77/24/128
f 86/25/142 103/26/182 105/52/183
f 86/25/184 106/53/185 77/24/128
f 106/53/185 86/25/184 105/52/186
f 106/53/185 105/52/186 77/24/128
