# Blender 4.0.2
# www.blender.org
mtllib Eyes.mtl
o Chef_Dino
v 0.277467 1.020311 0.120512
v 0.281374 1.016424 0.133493
v 0.278007 1.023741 0.123493
v 0.281100 1.012415 0.131305
v 0.282131 1.011538 0.145342
v 0.275526 1.007654 0.129698
v 0.271893 1.015551 0.118905
v 0.276343 1.002381 0.142488
v 0.281917 1.007141 0.144095
v 0.280205 1.009561 0.157882
v 0.274264 1.000247 0.156022
v 0.279838 1.005007 0.157629
v 0.275784 1.010687 0.169884
v 0.269493 1.001462 0.168976
v 0.275067 1.006222 0.170583
v 0.269302 1.014804 0.180173
v 0.262496 1.005906 0.180082
v 0.268070 1.010666 0.181689
v 0.261391 1.021511 0.187743
v 0.253958 1.013145 0.188253
v 0.259532 1.017905 0.189859
v 0.252828 1.030151 0.191853
v 0.244716 1.022470 0.192688
v 0.250290 1.027230 0.194295
v 0.244450 1.039877 0.192099
v 0.235673 1.032968 0.192954
v 0.241247 1.037728 0.194561
v 0.237077 1.049738 0.188459
v 0.227716 1.043611 0.189025
v 0.233289 1.048372 0.190632
v 0.231432 1.058770 0.181288
v 0.221622 1.053359 0.181285
v 0.227196 1.058119 0.182892
v 0.228065 1.066086 0.171288
v 0.217989 1.061256 0.170492
v 0.223562 1.066016 0.172099
v 0.227308 1.070972 0.159439
v 0.217171 1.066529 0.157703
v 0.222745 1.071289 0.159310
v 0.229234 1.072949 0.146899
v 0.219250 1.068663 0.144169
v 0.224824 1.073423 0.145775
v 0.233655 1.071823 0.134897
v 0.224022 1.067448 0.131215
v 0.229595 1.072209 0.132821
v 0.240138 1.067706 0.124608
v 0.231018 1.063004 0.120109
v 0.236592 1.067764 0.121715
v 0.248048 1.060999 0.117038
v 0.239556 1.055765 0.111938
v 0.245130 1.060525 0.113545
v 0.256611 1.052359 0.112928
v 0.248799 1.046440 0.107503
v 0.254372 1.051201 0.109109
v 0.264989 1.042633 0.112682
v 0.257841 1.035942 0.107236
v 0.263415 1.040703 0.108843
v 0.272362 1.032771 0.116322
v 0.265799 1.025298 0.111166
v 0.271373 1.030059 0.112772
v 0.278007 1.023741 0.123493
v 0.271893 1.015551 0.118905
v 0.277467 1.020311 0.120512
v -0.272362 1.032771 0.116322
v -0.278007 1.023741 0.123493
v -0.277467 1.020311 0.120512
v -0.271373 1.030059 0.112772
v -0.271893 1.015551 0.118905
v -0.264989 1.042633 0.112682
v -0.265799 1.025299 0.111166
v -0.263415 1.040703 0.108843
v -0.256611 1.052359 0.112928
v -0.257841 1.035942 0.107236
v -0.254372 1.051201 0.109109
v -0.248048 1.060999 0.117038
v -0.248799 1.046440 0.107503
v -0.245130 1.060525 0.113545
v -0.240138 1.067706 0.124608
v -0.239556 1.055765 0.111938
v -0.236592 1.067764 0.121715
v -0.233655 1.071823 0.134897
v -0.231018 1.063004 0.120109
v -0.229595 1.072209 0.132821
v -0.229234 1.072949 0.146899
v -0.224022 1.067448 0.131215
v -0.224824 1.073423 0.145775
v -0.227308 1.070972 0.159439
v -0.219250 1.068663 0.144169
v -0.222745 1.071289 0.159310
v -0.228065 1.066086 0.171288
v -0.217171 1.066529 0.157703
v -0.223562 1.066016 0.172099
v -0.231432 1.058770 0.181288
v -0.217989 1.061256 0.170492
v -0.227196 1.058119 0.182892
v -0.237078 1.049738 0.188459
v -0.221622 1.053359 0.181285
v -0.233289 1.048372 0.190632
v -0.244450 1.039877 0.192099
v -0.227716 1.043611 0.189025
v -0.241247 1.037728 0.194561
v -0.252828 1.030151 0.191853
v -0.235673 1.032968 0.192954
v -0.250290 1.027230 0.194295
v -0.261391 1.021511 0.187743
v -0.244716 1.022470 0.192688
v -0.259532 1.017905 0.189859
v -0.269302 1.014804 0.180173
v -0.253958 1.013145 0.188253
v -0.268070 1.010666 0.181689
v -0.275784 1.010687 0.169884
v -0.262496 1.005906 0.180082
v -0.275067 1.006222 0.170583
v -0.280205 1.009561 0.157882
v -0.269493 1.001462 0.168976
v -0.279838 1.005007 0.157629
v -0.282131 1.011538 0.145342
v -0.274264 1.000247 0.156022
v -0.281917 1.007141 0.144095
v -0.281374 1.016424 0.133493
v -0.276343 1.002381 0.142488
v -0.281100 1.012415 0.131305
v -0.278007 1.023741 0.123493
v -0.275526 1.007654 0.129698
v -0.277467 1.020311 0.120512
v -0.271893 1.015551 0.118905
v 0.278007 1.023741 0.123493
v 0.254719 1.041255 0.152390
v 0.272362 1.032771 0.116322
v 0.281374 1.016424 0.133493
v 0.264989 1.042633 0.112682
v 0.282131 1.011538 0.145342
v 0.256611 1.052359 0.112928
v 0.280205 1.009561 0.157882
v 0.248048 1.060999 0.117038
v 0.275784 1.010687 0.169884
v 0.240138 1.067706 0.124608
v 0.269302 1.014804 0.180173
v 0.233655 1.071823 0.134897
v 0.261391 1.021511 0.187743
v 0.229234 1.072949 0.146899
v 0.252828 1.030151 0.191853
v 0.227308 1.070972 0.159439
v 0.244450 1.039877 0.192099
v 0.228065 1.066086 0.171288
v 0.237077 1.049738 0.188459
v 0.231432 1.058770 0.181288
v -0.278007 1.023741 0.123493
v -0.272362 1.032771 0.116322
v -0.254719 1.041255 0.152390
v -0.281374 1.016424 0.133493
v -0.264989 1.042633 0.112682
v -0.282131 1.011538 0.145342
v -0.256611 1.052359 0.112928
v -0.280205 1.009561 0.157882
v -0.248048 1.060999 0.117038
v -0.275784 1.010687 0.169884
v -0.240138 1.067706 0.124608
v -0.269302 1.014804 0.180173
v -0.233655 1.071823 0.134897
v -0.261391 1.021511 0.187743
v -0.229234 1.072949 0.146899
v -0.252828 1.030151 0.191853
v -0.227308 1.070972 0.159439
v -0.244450 1.039877 0.192099
v -0.228065 1.066086 0.171288
v -0.237078 1.049738 0.188459
v -0.231432 1.058770 0.181288
vn 0.8240 0.5580 0.0987
vn 0.8371 0.5294 0.1377
vn 0.7471 -0.2395 -0.6201
vn 0.8260 -0.4112 -0.3855
vn 0.8260 -0.4111 -0.3855
vn 0.8401 0.5104 0.1838
vn 0.6495 -0.6051 -0.4605
vn 0.5675 -0.4268 -0.7041
vn 0.6679 -0.7241 -0.1718
vn 0.8438 -0.5258 -0.1075
vn 0.8401 0.5104 0.1839
vn 0.8326 0.5027 0.2327
vn 0.6210 -0.7723 0.1338
vn 0.7986 -0.5722 0.1866
vn 0.8326 0.5027 0.2328
vn 0.7986 -0.5722 0.1867
vn 0.8153 0.5070 0.2795
vn 0.5133 -0.7449 0.4262
vn 0.6949 -0.5458 0.4682
vn 0.6949 -0.5458 0.4683
vn 0.7901 0.5231 0.3197
vn 0.5133 -0.7449 0.4263
vn 0.3553 -0.6446 0.6770
vn 0.5428 -0.4492 0.7096
vn 0.3553 -0.6445 0.6770
vn 0.5428 -0.4492 0.7097
vn 0.7901 0.5231 0.3196
vn 0.7592 0.5492 0.3491
vn 0.1626 -0.4811 0.8614
vn 0.3572 -0.2918 0.8873
vn 0.7592 0.5492 0.3492
vn 0.1626 -0.4811 0.8615
vn 0.7259 0.5829 0.3652
vn -0.0461 -0.2706 0.9616
vn 0.1563 -0.0891 0.9837
vn 0.7258 0.5829 0.3652
vn 0.6932 0.6208 0.3662
vn -0.2503 -0.0336 0.9676
vn -0.0402 0.1391 0.9895
vn -0.2502 -0.0336 0.9676
vn -0.0402 0.1390 0.9895
vn 0.6932 0.6208 0.3661
vn 0.6645 0.6593 0.3519
vn -0.4299 0.2067 0.8789
vn -0.2132 0.3704 0.9041
vn 0.6645 0.6592 0.3519
vn 0.6644 0.6593 0.3520
vn 0.6424 0.6945 0.3240
vn -0.5675 0.4268 0.7042
vn -0.3457 0.5823 0.7358
vn -0.2132 0.3704 0.9040
vn -0.5675 0.4268 0.7041
vn 0.6293 0.7230 0.2850
vn -0.6495 0.6051 0.4605
vn -0.4246 0.7540 0.5012
vn -0.4247 0.7540 0.5012
vn 0.6264 0.7420 0.2388
vn -0.6679 0.7241 0.1718
vn -0.4424 0.8686 0.2232
vn -0.4246 0.7539 0.5012
vn 0.6264 0.7421 0.2388
vn -0.4247 0.7539 0.5012
vn -0.6680 0.7241 0.1717
vn 0.6263 0.7421 0.2388
vn 0.6339 0.7498 0.1900
vn -0.6680 0.7241 0.1718
vn -0.6210 0.7723 -0.1338
vn -0.3972 0.9150 -0.0710
vn 0.6339 0.7497 0.1900
vn 0.6339 0.7497 0.1899
vn 0.6511 0.7454 0.1431
vn -0.5133 0.7449 -0.4262
vn -0.2935 0.8886 -0.3526
vn 0.6511 0.7454 0.1432
vn -0.2935 0.8886 -0.3525
vn 0.6764 0.7293 0.1031
vn -0.5133 0.7449 -0.4263
vn -0.3553 0.6445 -0.6770
vn -0.1414 0.7920 -0.5939
vn 0.6764 0.7293 0.1030
vn -0.1414 0.7920 -0.5940
vn 0.7072 0.7032 0.0735
vn -0.1626 0.4811 -0.8615
vn 0.0442 0.6346 -0.7716
vn -0.1626 0.4811 -0.8614
vn 0.7406 0.6695 0.0575
vn 0.0461 0.2706 -0.9616
vn 0.2451 0.4319 -0.8680
vn 0.7732 0.6316 0.0566
vn 0.2503 0.0336 -0.9676
vn 0.4416 0.2037 -0.8738
vn 0.2450 0.4319 -0.8680
vn 0.7733 0.6316 0.0566
vn 0.4416 0.2038 -0.8738
vn 0.2502 0.0336 -0.9676
vn 0.7733 0.6315 0.0566
vn 0.8020 0.5931 0.0707
vn 0.4299 -0.2067 -0.8789
vn 0.6146 -0.0277 -0.7884
vn 0.8020 0.5932 0.0707
vn 0.6146 -0.0276 -0.7883
vn 0.6146 -0.0276 -0.7884
vn 0.5675 -0.4267 -0.7042
vn 0.8240 0.5579 0.0987
vn 0.5675 -0.4268 -0.7042
vn -0.7470 -0.2395 -0.6201
vn -0.8240 0.5580 0.0987
vn -0.8020 0.5931 0.0707
vn -0.6146 -0.0276 -0.7884
vn -0.7471 -0.2395 -0.6201
vn -0.8020 0.5931 0.0708
vn -0.5675 -0.4268 -0.7042
vn -0.8020 0.5932 0.0707
vn -0.7733 0.6316 0.0566
vn -0.6146 -0.0277 -0.7884
vn -0.4300 -0.2067 -0.8789
vn -0.7732 0.6316 0.0565
vn -0.4416 0.2037 -0.8738
vn -0.6146 -0.0276 -0.7883
vn -0.4416 0.2038 -0.8738
vn -0.4299 -0.2067 -0.8789
vn -0.7406 0.6695 0.0575
vn -0.4416 0.2037 -0.8737
vn -0.2503 0.0336 -0.9676
vn -0.2450 0.4319 -0.8680
vn -0.4416 0.2038 -0.8737
vn -0.2451 0.4319 -0.8680
vn -0.2502 0.0336 -0.9676
vn -0.7072 0.7031 0.0735
vn -0.0461 0.2706 -0.9616
vn -0.7072 0.7032 0.0735
vn -0.0442 0.6346 -0.7716
vn -0.6764 0.7293 0.1030
vn 0.1626 0.4811 -0.8614
vn 0.1414 0.7920 -0.5940
vn -0.0442 0.6346 -0.7715
vn 0.1626 0.4811 -0.8615
vn -0.6764 0.7293 0.1031
vn -0.6511 0.7454 0.1432
vn 0.3553 0.6446 -0.6770
vn 0.2935 0.8886 -0.3526
vn 0.3553 0.6445 -0.6770
vn -0.6339 0.7497 0.1900
vn 0.2935 0.8886 -0.3525
vn 0.5133 0.7449 -0.4263
vn 0.3972 0.9150 -0.0710
vn 0.5133 0.7449 -0.4262
vn -0.6339 0.7497 0.1899
vn -0.6263 0.7421 0.2388
vn 0.6210 0.7723 -0.1338
vn 0.4424 0.8686 0.2232
vn 0.3972 0.9150 -0.0709
vn -0.6293 0.7230 0.2850
vn 0.6679 0.7242 0.1717
vn -0.6293 0.7230 0.2851
vn 0.4246 0.7540 0.5012
vn 0.4247 0.7539 0.5012
vn 0.6679 0.7241 0.1717
vn -0.6424 0.6945 0.3240
vn 0.6495 0.6051 0.4605
vn 0.6680 0.7241 0.1718
vn 0.3456 0.5823 0.7358
vn 0.4247 0.7540 0.5012
vn 0.3457 0.5823 0.7358
vn -0.6644 0.6593 0.3520
vn 0.5675 0.4268 0.7042
vn 0.2132 0.3704 0.9041
vn -0.6932 0.6209 0.3661
vn 0.4299 0.2067 0.8789
vn -0.6932 0.6208 0.3662
vn 0.0403 0.1391 0.9895
vn 0.0402 0.1391 0.9895
vn -0.7258 0.5829 0.3652
vn 0.2502 -0.0336 0.9676
vn -0.1563 -0.0891 0.9837
vn -0.7592 0.5492 0.3492
vn 0.0461 -0.2706 0.9616
vn -0.3572 -0.2918 0.8873
vn -0.7901 0.5231 0.3197
vn -0.3572 -0.2918 0.8872
vn -0.1626 -0.4811 0.8614
vn -0.7901 0.5231 0.3196
vn -0.5428 -0.4492 0.7096
vn -0.1626 -0.4811 0.8615
vn -0.8153 0.5070 0.2796
vn -0.5428 -0.4492 0.7097
vn -0.3553 -0.6445 0.6770
vn -0.8153 0.5071 0.2795
vn -0.6949 -0.5458 0.4683
vn -0.6949 -0.5458 0.4682
vn -0.8153 0.5070 0.2795
vn -0.8326 0.5027 0.2328
vn -0.5133 -0.7449 0.4263
vn -0.3553 -0.6446 0.6770
vn -0.8326 0.5026 0.2328
vn -0.7986 -0.5721 0.1867
vn -0.7986 -0.5722 0.1867
vn -0.5133 -0.7449 0.4262
vn -0.8401 0.5104 0.1839
vn -0.6210 -0.7723 0.1338
vn -0.8438 -0.5258 -0.1075
vn -0.8371 0.5294 0.1377
vn -0.6680 -0.7241 -0.1717
vn -0.8260 -0.4112 -0.3855
vn -0.6679 -0.7241 -0.1718
vn -0.8260 -0.4111 -0.3855
vn -0.8371 0.5294 0.1376
vn -0.8240 0.5579 0.0987
vn -0.6495 -0.6050 -0.4605
vn -0.6495 -0.6051 -0.4605
vn -0.5674 -0.4268 -0.7042
vn 0.7428 0.6344 0.2141
vn 0.7733 0.6316 0.0565
vn 0.7428 0.6343 0.2141
vn 0.8020 0.5931 0.0708
vn 0.7732 0.6316 0.0565
vn 0.8153 0.5071 0.2795
vn 0.8153 0.5070 0.2796
vn 0.6339 0.7498 0.1899
vn 0.6264 0.7421 0.2387
vn 0.6645 0.6592 0.3520
vn -0.7428 0.6344 0.2141
vn -0.7428 0.6343 0.2141
vn -0.8326 0.5027 0.2327
vn -0.6763 0.7293 0.1031
vn -0.6339 0.7498 0.1899
vn -0.6511 0.7453 0.1431
vn -0.7592 0.5493 0.3491
vn -0.7259 0.5829 0.3652
vn -0.6932 0.6208 0.3661
vn -0.6645 0.6593 0.3519
vt 0.999023 0.326660
vt 0.999023 0.338135
vt 0.996094 0.326172
vt 0.996094 0.338135
vt 0.999023 0.350098
vt 0.989746 0.338135
vt 0.989746 0.326172
vt 0.989746 0.350098
vt 0.996094 0.350098
vt 0.999023 0.362060
vt 0.989746 0.362060
vt 0.996094 0.362060
vt 0.999023 0.373779
vt 0.989746 0.373779
vt 0.996094 0.373779
vt 0.999023 0.385742
vt 0.989746 0.385742
vt 0.996094 0.385742
vt 0.999023 0.397705
vt 0.989746 0.397705
vt 0.996094 0.397705
vt 0.999023 0.409668
vt 0.989746 0.409668
vt 0.996094 0.409668
vt 0.999023 0.421631
vt 0.989746 0.421631
vt 0.996094 0.421631
vt 0.999023 0.433350
vt 0.989746 0.433350
vt 0.996094 0.433350
vt 0.999023 0.445312
vt 0.989746 0.445312
vt 0.996094 0.445312
vt 0.999023 0.457275
vt 0.989746 0.457275
vt 0.996094 0.457275
vt 0.999023 0.469238
vt 0.989746 0.469238
vt 0.996094 0.469238
vt 0.999023 0.481201
vt 0.989746 0.481201
vt 0.996094 0.481201
vt 0.999023 0.492920
vt 0.989746 0.492920
vt 0.996094 0.492920
vt 0.999023 0.504883
vt 0.989746 0.504883
vt 0.996094 0.504883
vt 0.999023 0.516602
vt 0.989746 0.516602
vt 0.996094 0.516602
vt 0.999023 0.528809
vt 0.989746 0.528809
vt 0.996094 0.528809
vt 0.999023 0.540527
vt 0.989746 0.540527
vt 0.996094 0.540527
vt 0.999023 0.552734
vt 0.989746 0.552734
vt 0.996094 0.552734
vt 0.999023 0.563965
vt 0.989746 0.564453
vt 0.996094 0.564453
vt 0.979004 0.458740
vt 0.955566 0.470703
vt 0.974121 0.452148
vt 0.967285 0.447510
vt 0.981445 0.466553
vt 0.959473 0.444824
vt 0.981445 0.474853
vt 0.951660 0.444824
vt 0.979004 0.482666
vt 0.943848 0.447510
vt 0.974121 0.489258
vt 0.937012 0.452148
vt 0.967285 0.494141
vt 0.932129 0.458740
vt 0.959473 0.496582
vt 0.929688 0.466553
vt 0.951660 0.496582
vt 0.929688 0.474853
vt 0.943848 0.494141
vt 0.932129 0.482666
vt 0.937012 0.489258
s 0
usemtl æè´¨
f 3/1/1 2/2/2 1/3/3
f 2/2/2 4/4/4 1/3/3
f 4/4/5 2/2/2 5/5/6
f 1/3/3 4/4/4 6/6/7
f 7/7/8 1/3/3 6/6/7
f 6/6/7 4/4/4 8/8/9
f 9/9/10 4/4/4 5/5/11
f 4/4/5 9/9/10 8/8/9
f 9/9/10 5/5/11 10/10/12
f 8/8/9 9/9/10 11/11/13
f 12/12/14 9/9/10 10/10/15
f 9/9/10 12/12/16 11/11/13
f 12/12/14 10/10/12 13/13/17
f 11/11/13 12/12/16 14/14/18
f 15/15/19 12/12/16 13/13/17
f 12/12/16 15/15/20 14/14/18
f 15/15/20 13/13/17 16/16/21
f 14/14/22 15/15/20 17/17/23
f 18/18/24 15/15/20 16/16/21
f 15/15/19 18/18/24 17/17/25
f 18/18/26 16/16/27 19/19/28
f 17/17/25 18/18/26 20/20/29
f 21/21/30 18/18/24 19/19/31
f 18/18/26 21/21/30 20/20/32
f 21/21/30 19/19/31 22/22/33
f 20/20/29 21/21/30 23/23/34
f 24/24/35 21/21/30 22/22/36
f 21/21/30 24/24/35 23/23/34
f 24/24/35 22/22/36 25/25/37
f 23/23/34 24/24/35 26/26/38
f 27/27/39 24/24/35 25/25/37
f 24/24/35 27/27/39 26/26/40
f 27/27/41 25/25/42 28/28/43
f 26/26/40 27/27/39 29/29/44
f 30/30/45 27/27/39 28/28/46
f 27/27/39 30/30/45 29/29/44
f 30/30/45 28/28/47 31/31/48
f 29/29/44 30/30/45 32/32/49
f 33/33/50 30/30/51 31/31/48
f 30/30/45 33/33/50 32/32/52
f 33/33/50 31/31/48 34/34/53
f 32/32/52 33/33/50 35/35/54
f 36/36/55 33/33/50 34/34/53
f 33/33/50 36/36/56 35/35/54
f 36/36/56 34/34/53 37/37/57
f 35/35/54 36/36/55 38/38/58
f 39/39/59 36/36/60 37/37/61
f 36/36/62 39/39/59 38/38/63
f 39/39/59 37/37/64 40/40/65
f 38/38/66 39/39/59 41/41/67
f 42/42/68 39/39/59 40/40/69
f 39/39/59 42/42/68 41/41/67
f 42/42/68 40/40/70 43/43/71
f 41/41/67 42/42/68 44/44/72
f 45/45/73 42/42/68 43/43/74
f 42/42/68 45/45/75 44/44/72
f 45/45/73 43/43/74 46/46/76
f 44/44/77 45/45/73 47/47/78
f 48/48/79 45/45/75 46/46/80
f 45/45/73 48/48/81 47/47/78
f 48/48/79 46/46/76 49/49/82
f 47/47/78 48/48/81 50/50/83
f 51/51/84 48/48/79 49/49/82
f 48/48/81 51/51/84 50/50/85
f 51/51/84 49/49/82 52/52/86
f 50/50/83 51/51/84 53/53/87
f 54/54/88 51/51/84 52/52/86
f 51/51/84 54/54/88 53/53/87
f 54/54/88 52/52/86 55/55/89
f 53/53/87 54/54/88 56/56/90
f 57/57/91 54/54/92 55/55/93
f 54/54/88 57/57/94 56/56/95
f 57/57/91 55/55/96 58/58/97
f 56/56/95 57/57/91 59/59/98
f 60/60/99 57/57/94 58/58/100
f 57/57/91 60/60/101 59/59/98
f 60/60/102 58/58/97 61/61/1
f 59/59/98 60/60/102 62/62/103
f 63/63/3 60/60/102 61/61/104
f 60/60/102 63/63/3 62/62/105
f 66/63/106 65/61/107 64/58/108
f 67/60/109 66/63/110 64/58/111
f 66/63/110 67/60/109 68/62/112
f 64/58/113 69/55/114 67/60/115
f 67/60/109 70/59/116 68/62/112
f 69/55/117 71/57/118 67/60/119
f 67/60/109 71/57/120 70/59/121
f 69/55/117 72/52/122 71/57/123
f 71/57/118 73/56/124 70/59/121
f 72/52/122 74/54/125 71/57/118
f 71/57/126 74/54/127 73/56/128
f 72/52/122 75/49/129 74/54/127
f 74/54/127 76/53/130 73/56/128
f 75/49/131 77/51/132 74/54/127
f 74/54/127 77/51/132 76/53/130
f 75/49/131 78/46/133 77/51/132
f 77/51/132 79/50/134 76/53/130
f 78/46/133 80/48/135 77/51/136
f 77/51/136 80/48/135 79/50/137
f 78/46/138 81/43/139 80/48/135
f 80/48/135 82/47/140 79/50/137
f 81/43/139 83/45/141 80/48/135
f 80/48/135 83/45/141 82/47/142
f 81/43/139 84/40/143 83/45/144
f 83/45/141 85/44/145 82/47/142
f 84/40/143 86/42/146 83/45/141
f 83/45/141 86/42/146 85/44/147
f 84/40/148 87/37/149 86/42/146
f 86/42/146 88/41/150 85/44/147
f 87/37/149 89/39/151 86/42/152
f 86/42/146 89/39/151 88/41/150
f 87/37/149 90/34/153 89/39/151
f 89/39/151 91/38/154 88/41/150
f 90/34/155 92/36/156 89/39/151
f 89/39/151 92/36/157 91/38/158
f 90/34/153 93/31/159 92/36/157
f 92/36/157 94/35/160 91/38/161
f 93/31/159 95/33/162 92/36/156
f 92/36/163 95/33/164 94/35/160
f 93/31/159 96/28/165 95/33/164
f 95/33/164 97/32/166 94/35/160
f 96/28/165 98/30/167 95/33/164
f 95/33/164 98/30/167 97/32/166
f 96/28/165 99/25/168 98/30/167
f 98/30/167 100/29/169 97/32/166
f 99/25/170 101/27/171 98/30/167
f 98/30/167 101/27/172 100/29/169
f 99/25/168 102/22/173 101/27/172
f 101/27/172 103/26/174 100/29/169
f 102/22/173 104/24/175 101/27/172
f 101/27/172 104/24/175 103/26/174
f 102/22/173 105/19/176 104/24/175
f 104/24/175 106/23/177 103/26/174
f 105/19/176 107/21/178 104/24/175
f 104/24/175 107/21/178 106/23/177
f 105/19/176 108/16/179 107/21/180
f 107/21/178 109/20/181 106/23/177
f 108/16/182 110/18/183 107/21/178
f 107/21/178 110/18/183 109/20/184
f 108/16/179 111/13/185 110/18/186
f 110/18/186 112/17/187 109/20/181
f 111/13/188 113/15/189 110/18/186
f 110/18/183 113/15/190 112/17/187
f 111/13/191 114/10/192 113/15/189
f 113/15/189 115/14/193 112/17/194
f 114/10/195 116/12/196 113/15/189
f 113/15/189 116/12/197 115/14/198
f 114/10/192 117/5/199 116/12/197
f 116/12/197 118/11/200 115/14/198
f 117/5/199 119/9/201 116/12/197
f 116/12/197 119/9/201 118/11/200
f 117/5/199 120/2/202 119/9/201
f 119/9/201 121/8/203 118/11/200
f 120/2/202 122/4/204 119/9/201
f 119/9/201 122/4/204 121/8/205
f 122/4/206 120/2/207 123/1/208
f 122/4/204 124/6/209 121/8/205
f 125/3/110 122/4/206 123/1/208
f 122/4/204 125/3/106 124/6/210
f 125/3/110 126/7/211 124/6/210
f 129/64/100 128/65/212 127/66/104
f 127/66/104 128/65/212 130/67/2
f 131/68/213 128/65/214 129/64/215
f 130/67/2 128/65/212 132/69/11
f 133/70/86 128/65/212 131/68/216
f 132/69/11 128/65/212 134/71/12
f 135/72/82 128/65/212 133/70/86
f 134/71/12 128/65/212 136/73/217
f 137/74/80 128/65/212 135/72/82
f 136/73/218 128/65/212 138/75/27
f 139/76/74 128/65/212 137/74/80
f 138/75/21 128/65/212 140/77/31
f 141/78/219 128/65/212 139/76/74
f 140/77/31 128/65/212 142/79/36
f 143/80/220 128/65/212 141/78/219
f 142/79/36 128/65/212 144/81/42
f 145/82/53 128/65/212 143/80/64
f 144/81/42 128/65/212 146/83/43
f 147/84/48 128/65/212 145/82/53
f 146/83/221 128/65/214 147/84/48
f 150/65/222 149/64/111 148/66/208
f 150/65/222 148/66/208 151/67/202
f 150/65/223 152/68/117 149/64/111
f 150/65/222 151/67/202 153/69/199
f 150/65/222 154/70/122 152/68/117
f 150/65/222 153/69/199 155/71/224
f 150/65/222 156/72/131 154/70/122
f 150/65/222 155/71/192 157/73/188
f 150/65/222 158/74/133 156/72/131
f 150/65/222 157/73/191 159/75/182
f 150/65/222 160/76/139 158/74/225
f 150/65/222 159/75/179 161/77/176
f 150/65/222 162/78/226 160/76/227
f 150/65/222 161/77/228 163/79/229
f 150/65/222 164/80/149 162/78/226
f 150/65/222 163/79/229 165/81/230
f 150/65/222 166/82/153 164/80/149
f 150/65/222 165/81/170 167/83/165
f 150/65/222 168/84/159 166/82/153
f 150/65/223 167/83/231 168/84/159
